<svg width="2680" height="755" xmlns="http://www.w3.org/2000/svg" xmlns:xlink="http://www.w3.org/1999/xlink" overflow="hidden"><defs><clipPath id="clip0"><rect x="477" y="887" width="2680" height="755"/></clipPath></defs><g clip-path="url(#clip0)" transform="translate(-477 -887)"><rect x="644.5" y="1054.5" width="580" height="580" stroke="#4472C4" stroke-width="4.58333" stroke-miterlimit="8" fill="#DAE3F3"/><text font-family="Arial,Arial_MSFontService,sans-serif" font-weight="400" font-size="83" transform="matrix(-1.83697e-16 -1 1 -1.83697e-16 589.373 1471)">n_train</text><text font-family="Arial,Arial_MSFontService,sans-serif" font-weight="400" font-size="83" transform="matrix(1 0 0 1 806.337 1017)">n_trai<tspan font-size="83" x="206.25" y="0">n</tspan></text><path d="M644 1099 1140.6 1634.05" stroke="#ED7D31" stroke-width="2.29167" stroke-miterlimit="8" fill="none" fill-rule="evenodd"/><path d="M727 1054 1223.6 1589.05" stroke="#ED7D31" stroke-width="2.29167" stroke-miterlimit="8" fill="none" fill-rule="evenodd"/><text font-family="Arial,Arial_MSFontService,sans-serif" font-weight="400" font-size="83" transform="matrix(0.682046 0.731309 -0.731309 0.682046 831.917 1277)">delete</text><path d="M1620.5 1634.5 1620.5 1099.5 2117.5 1634.5Z" stroke="#4472C4" stroke-width="4.58333" stroke-miterlimit="8" fill="#DAE3F3" fill-rule="evenodd"/><path d="M0 535 497 0 497 535Z" stroke="#4472C4" stroke-width="4.58333" stroke-miterlimit="8" fill="#DAE3F3" fill-rule="evenodd" transform="matrix(1 0 0 -1 1703.5 1589.5)"/><text font-family="Arial,Arial_MSFontService,sans-serif" font-weight="400" font-size="83" transform="matrix(-1.83697e-16 -1 1 -1.83697e-16 1568.03 1505)">n_train<tspan font-size="83" x="253" y="4.64753e-14">-</tspan><tspan font-size="83" x="280" y="5.14352e-14">1</tspan></text><text font-family="Arial,Arial_MSFontService,sans-serif" font-weight="400" font-size="83" transform="matrix(1 -2.44929e-16 2.44929e-16 1 1787.24 1000)">n_train<tspan font-size="83" x="252.083" y="6.17426e-14">-</tspan><tspan font-size="83" x="279.583" y="6.84782e-14">1</tspan></text><path d="M7.95632e-06-6.875 277.47-6.87468 277.47 6.87532-7.95632e-06 6.875ZM270.595-20.6247 311.845 0.000360892 270.595 20.6253Z" fill="#ED7D31" transform="matrix(-1 0 0 1 2014.84 1294)"/><rect x="2599.5" y="1059.5" width="555" height="580" stroke="#4472C4" stroke-width="4.58333" stroke-miterlimit="8" fill="#DAE3F3"/><text font-family="Arial,Arial_MSFontService,sans-serif" font-weight="400" font-size="83" transform="matrix(-1.83697e-16 -1 1 -1.83697e-16 2542.84 1468)">n_train</text><text font-family="Arial,Arial_MSFontService,sans-serif" font-weight="400" font-size="83" transform="matrix(1 0 0 1 2711.59 1022)">n_train<tspan font-size="83" x="252.084" y="0">-</tspan>1</text><path d="M1266.5 1308.25 1428 1308.25 1428 1294.5 1455.5 1322 1428 1349.5 1428 1335.75 1266.5 1335.75Z" stroke="#2F528F" stroke-width="4.58333" stroke-miterlimit="8" fill="#4472C4" fill-rule="evenodd"/><path d="M2246.5 1302 2408.5 1302 2408.5 1288.5 2435.5 1315.5 2408.5 1342.5 2408.5 1329 2246.5 1329Z" stroke="#2F528F" stroke-width="4.58333" stroke-miterlimit="8" fill="#4472C4" fill-rule="evenodd"/></g></svg>