<svg width="1921" height="725" xmlns="http://www.w3.org/2000/svg" xmlns:xlink="http://www.w3.org/1999/xlink" overflow="hidden"><defs><clipPath id="clip0"><rect x="564" y="588" width="1921" height="725"/></clipPath></defs><g clip-path="url(#clip0)" transform="translate(-564 -588)"><rect x="730.5" y="730.5" width="580" height="580" stroke="#4472C4" stroke-width="4.58333" stroke-miterlimit="8" fill="#DAE3F3"/><text font-family="Arial,Arial_MSFontService,sans-serif" font-weight="400" font-size="83" transform="matrix(-1.83697e-16 -1 1 -1.83697e-16 675.878 1134)">n_test</text><text font-family="Arial,Arial_MSFontService,sans-serif" font-weight="400" font-size="83" transform="matrix(1 0 0 1 892.842 694)">n_train</text><rect x="1506.5" y="984.5" width="580" height="72.9999" stroke="#4472C4" stroke-width="4.58333" stroke-miterlimit="8" fill="#DAE3F3"/><text font-family="Arial,Arial_MSFontService,sans-serif" font-weight="400" font-size="83" transform="matrix(1 0 0 1 1671.03 947)">y_train</text><path d="M1362.38 997.503 1384.5 975.384 1408 998.881 1431.5 975.384 1453.62 997.503 1430.12 1021 1453.62 1044.5 1431.5 1066.62 1408 1043.12 1384.5 1066.62 1362.38 1044.5 1385.88 1021Z" stroke="#AE5A21" stroke-width="4.58333" stroke-miterlimit="8" fill="#ED7D31" fill-rule="evenodd"/><path d="M2135.13 981.898 2232.87 981.898 2232.87 1013.18 2135.13 1013.18ZM2135.13 1028.82 2232.87 1028.82 2232.87 1060.1 2135.13 1060.1Z" stroke="#AE5A21" stroke-width="4.58333" stroke-miterlimit="8" fill="#ED7D31" fill-rule="evenodd"/><rect x="2409.5" y="730.5" width="73.0002" height="580" stroke="#4472C4" stroke-width="4.58333" stroke-miterlimit="8" fill="#DAE3F3"/><text font-family="Arial,Arial_MSFontService,sans-serif" font-weight="400" font-size="83" transform="matrix(-1.83697e-16 -1 1 -1.83697e-16 2354.36 1122)">y<tspan font-size="83" x="41" y="7.53158e-15">_hat</tspan></text></g></svg>