<?xml version="1.0" encoding="UTF-8"?>
<svg xmlns="http://www.w3.org/2000/svg" xmlns:xlink="http://www.w3.org/1999/xlink" width="456" height="242.666667" viewBox="0 0 456 242.666667" version="1.1">
<defs>
<clipPath id="clip1">
  <path d="M 244.667969 60 L 252.402344 60 L 252.402344 67.644531 L 244.667969 67.644531 Z M 244.667969 60 "/>
</clipPath>
<clipPath id="clip2">
  <path d="M 244.667969 89.332031 L 252.402344 89.332031 L 252.402344 96.8125 L 244.667969 96.8125 Z M 244.667969 89.332031 "/>
</clipPath>
<clipPath id="clip3">
  <path d="M 244.667969 118.246094 L 252.402344 118.246094 L 252.402344 125.972656 L 244.667969 125.972656 Z M 244.667969 118.246094 "/>
</clipPath>
<clipPath id="clip4">
  <path d="M 244.667969 147.40625 L 252.402344 147.40625 L 252.402344 155 L 244.667969 155 Z M 244.667969 147.40625 "/>
</clipPath>
<clipPath id="clip5">
  <path d="M 244.667969 176.574219 L 252.402344 176.574219 L 252.402344 184 L 244.667969 184 Z M 244.667969 176.574219 "/>
</clipPath>
</defs>
<g id="surface1">
<path style="fill:none;stroke-width:1;stroke-linecap:round;stroke-linejoin:round;stroke:rgb(0%,0%,0%);stroke-opacity:1;stroke-miterlimit:10;" d="M 314.991211 458.458008 L 299.745117 458.458008 M 288.74707 458.458008 L 281.299805 458.458008 " transform="matrix(1.333333,0,0,1.333333,-108,-460)"/>
<path style="fill:none;stroke-width:1;stroke-linecap:butt;stroke-linejoin:miter;stroke:rgb(0%,0%,0%);stroke-opacity:1;stroke-miterlimit:10;" d="M 277.300781 458.458008 L 281.299805 458.458008 M 281.299805 459.958008 L 277.300781 458.458008 L 281.299805 456.958008 " transform="matrix(1.333333,0,0,1.333333,-108,-460)"/>
<path style="fill:none;stroke-width:1;stroke-linecap:round;stroke-linejoin:round;stroke:rgb(0%,0%,0%);stroke-opacity:1;stroke-miterlimit:10;" d="M 314.991211 414.706055 L 299.988281 414.706055 M 288.987305 414.706055 L 281.299805 414.706055 " transform="matrix(1.333333,0,0,1.333333,-108,-460)"/>
<path style="fill:none;stroke-width:1;stroke-linecap:butt;stroke-linejoin:miter;stroke:rgb(0%,0%,0%);stroke-opacity:1;stroke-miterlimit:10;" d="M 277.300781 414.706055 L 281.299805 414.706055 M 281.299805 416.206055 L 277.300781 414.706055 L 281.299805 413.206055 " transform="matrix(1.333333,0,0,1.333333,-108,-460)"/>
<path style=" stroke:none;fill-rule:nonzero;fill:rgb(69.803923%,85.09804%,100%);fill-opacity:1;" d="M 311.988281 74.449219 L 357.058594 74.449219 L 357.058594 53.113281 L 311.988281 53.113281 Z M 311.988281 74.449219 "/>
<path style="fill:none;stroke-width:1;stroke-linecap:round;stroke-linejoin:round;stroke:rgb(0%,0%,0%);stroke-opacity:1;stroke-miterlimit:10;" d="M 314.991211 384.834961 L 348.793945 384.834961 L 348.793945 400.836914 L 314.991211 400.836914 Z M 314.991211 384.834961 " transform="matrix(1.333333,0,0,1.333333,-108,-460)"/>
<path style=" stroke:none;fill-rule:nonzero;fill:rgb(69.803923%,85.09804%,100%);fill-opacity:1;" d="M 311.988281 132.777344 L 357.058594 132.777344 L 357.058594 111.441406 L 311.988281 111.441406 Z M 311.988281 132.777344 "/>
<path style="fill:none;stroke-width:1;stroke-linecap:round;stroke-linejoin:round;stroke:rgb(0%,0%,0%);stroke-opacity:1;stroke-miterlimit:10;" d="M 314.991211 428.581055 L 348.793945 428.581055 L 348.793945 444.583008 L 314.991211 444.583008 Z M 314.991211 428.581055 " transform="matrix(1.333333,0,0,1.333333,-108,-460)"/>
<path style=" stroke:none;fill-rule:nonzero;fill:rgb(69.803923%,85.09804%,100%);fill-opacity:1;" d="M 311.988281 191.105469 L 357.058594 191.105469 L 357.058594 169.769531 L 311.988281 169.769531 Z M 311.988281 191.105469 "/>
<path style="fill:none;stroke-width:1;stroke-linecap:round;stroke-linejoin:round;stroke:rgb(0%,0%,0%);stroke-opacity:1;stroke-miterlimit:10;" d="M 314.991211 472.327148 L 348.793945 472.327148 L 348.793945 488.329102 L 314.991211 488.329102 Z M 314.991211 472.327148 " transform="matrix(1.333333,0,0,1.333333,-108,-460)"/>
<path style=" stroke:none;fill-rule:nonzero;fill:rgb(69.803923%,85.09804%,100%);fill-opacity:1;" d="M 311.988281 161.941406 L 357.058594 161.941406 L 357.058594 140.609375 L 311.988281 140.609375 Z M 311.988281 161.941406 "/>
<path style="fill:none;stroke-width:1;stroke-linecap:round;stroke-linejoin:round;stroke:rgb(0%,0%,0%);stroke-opacity:1;stroke-miterlimit:10;" d="M 314.991211 450.457031 L 348.793945 450.457031 L 348.793945 466.456055 L 314.991211 466.456055 Z M 314.991211 450.457031 " transform="matrix(1.333333,0,0,1.333333,-108,-460)"/>
<path style=" stroke:none;fill-rule:nonzero;fill:rgb(69.803923%,85.09804%,100%);fill-opacity:1;" d="M 311.988281 103.609375 L 357.058594 103.609375 L 357.058594 82.277344 L 311.988281 82.277344 Z M 311.988281 103.609375 "/>
<path style="fill:none;stroke-width:1;stroke-linecap:round;stroke-linejoin:round;stroke:rgb(0%,0%,0%);stroke-opacity:1;stroke-miterlimit:10;" d="M 314.991211 406.708008 L 348.793945 406.708008 L 348.793945 422.707031 L 314.991211 422.707031 Z M 314.991211 406.708008 " transform="matrix(1.333333,0,0,1.333333,-108,-460)"/>
<path style="fill:none;stroke-width:1;stroke-linecap:round;stroke-linejoin:round;stroke:rgb(0%,0%,0%);stroke-opacity:1;stroke-miterlimit:10;" d="M 314.991211 392.835938 L 300.108398 392.835938 M 289.110352 392.835938 L 281.299805 392.835938 " transform="matrix(1.333333,0,0,1.333333,-108,-460)"/>
<path style="fill:none;stroke-width:1;stroke-linecap:butt;stroke-linejoin:miter;stroke:rgb(0%,0%,0%);stroke-opacity:1;stroke-miterlimit:10;" d="M 277.300781 392.835938 L 281.299805 392.835938 M 281.299805 394.335938 L 277.300781 392.835938 L 281.299805 391.335938 " transform="matrix(1.333333,0,0,1.333333,-108,-460)"/>
<path style="fill:none;stroke-width:1;stroke-linecap:round;stroke-linejoin:round;stroke:rgb(0%,0%,0%);stroke-opacity:1;stroke-miterlimit:10;" d="M 314.991211 436.582031 L 299.868164 436.582031 M 288.867188 436.582031 L 281.299805 436.582031 " transform="matrix(1.333333,0,0,1.333333,-108,-460)"/>
<path style="fill:none;stroke-width:1;stroke-linecap:butt;stroke-linejoin:miter;stroke:rgb(0%,0%,0%);stroke-opacity:1;stroke-miterlimit:10;" d="M 277.300781 436.582031 L 281.299805 436.582031 M 281.299805 438.082031 L 277.300781 436.582031 L 281.299805 435.082031 " transform="matrix(1.333333,0,0,1.333333,-108,-460)"/>
<path style=" stroke:none;fill-rule:nonzero;fill:rgb(40.000001%,74.901962%,100%);fill-opacity:1;" d="M 52.171875 74.449219 L 97.238281 74.449219 L 97.238281 53.113281 L 52.171875 53.113281 Z M 52.171875 74.449219 "/>
<path style="fill:none;stroke-width:1;stroke-linecap:round;stroke-linejoin:round;stroke:rgb(0%,0%,0%);stroke-opacity:1;stroke-miterlimit:10;" d="M 120.128906 384.834961 L 153.928711 384.834961 L 153.928711 400.836914 L 120.128906 400.836914 Z M 120.128906 384.834961 " transform="matrix(1.333333,0,0,1.333333,-108,-460)"/>
<path style="fill:none;stroke-width:1;stroke-linecap:round;stroke-linejoin:round;stroke:rgb(0%,0%,0%);stroke-opacity:1;stroke-miterlimit:10;" d="M 153.928711 392.835938 L 174.225586 392.835938 " transform="matrix(1.333333,0,0,1.333333,-108,-460)"/>
<path style="fill:none;stroke-width:1;stroke-linecap:butt;stroke-linejoin:miter;stroke:rgb(0%,0%,0%);stroke-opacity:1;stroke-miterlimit:10;" d="M 178.227539 392.835938 L 174.225586 392.835938 M 174.225586 391.335938 L 178.227539 392.835938 L 174.225586 394.335938 " transform="matrix(1.333333,0,0,1.333333,-108,-460)"/>
<path style=" stroke:none;fill-rule:nonzero;fill:rgb(40.000001%,74.901962%,100%);fill-opacity:1;" d="M 52.171875 132.777344 L 97.238281 132.777344 L 97.238281 111.441406 L 52.171875 111.441406 Z M 52.171875 132.777344 "/>
<path style="fill:none;stroke-width:1;stroke-linecap:round;stroke-linejoin:round;stroke:rgb(0%,0%,0%);stroke-opacity:1;stroke-miterlimit:10;" d="M 120.128906 428.581055 L 153.928711 428.581055 L 153.928711 444.583008 L 120.128906 444.583008 Z M 120.128906 428.581055 " transform="matrix(1.333333,0,0,1.333333,-108,-460)"/>
<path style=" stroke:none;fill-rule:nonzero;fill:rgb(40.000001%,74.901962%,100%);fill-opacity:1;" d="M 52.171875 191.105469 L 97.238281 191.105469 L 97.238281 169.769531 L 52.171875 169.769531 Z M 52.171875 191.105469 "/>
<path style="fill:none;stroke-width:1;stroke-linecap:round;stroke-linejoin:round;stroke:rgb(0%,0%,0%);stroke-opacity:1;stroke-miterlimit:10;" d="M 120.128906 472.327148 L 153.928711 472.327148 L 153.928711 488.329102 L 120.128906 488.329102 Z M 120.128906 472.327148 " transform="matrix(1.333333,0,0,1.333333,-108,-460)"/>
<path style="fill:none;stroke-width:1;stroke-linecap:round;stroke-linejoin:round;stroke:rgb(0%,0%,0%);stroke-opacity:1;stroke-miterlimit:10;" d="M 120.128906 507.199219 L 153.928711 507.199219 L 153.928711 523.198242 L 120.128906 523.198242 Z M 120.128906 507.199219 " transform="matrix(1.333333,0,0,1.333333,-108,-460)"/>
<path style=" stroke:none;fill-rule:nonzero;fill:rgb(0%,0%,0%);fill-opacity:1;" d="M 16.640625 121.277344 L 16.640625 121.527344 L 17.617188 121.527344 L 17.617188 123.003906 L 16.265625 123.003906 L 16.265625 123.796875 L 17.617188 123.796875 L 17.617188 126.527344 C 17.617188 126.714844 17.492188 126.816406 17.285156 126.902344 L 17.640625 127.628906 C 18.429688 127.316406 19.140625 126.941406 19.742188 126.484375 L 19.597656 125.734375 C 19.203125 126.089844 18.785156 126.339844 18.390625 126.566406 L 18.390625 123.796875 L 19.617188 123.796875 L 19.617188 123.003906 L 18.390625 123.003906 L 18.390625 121.527344 L 19.453125 121.527344 L 19.453125 120.753906 L 16.867188 120.753906 C 17.078125 120.253906 17.265625 119.734375 17.429688 119.152344 L 19.472656 119.152344 L 19.472656 118.316406 L 17.660156 118.316406 C 17.742188 117.921875 17.828125 117.503906 17.929688 117.046875 L 17.117188 116.878906 C 16.847656 118.402344 16.453125 119.777344 15.890625 121.027344 L 16.554688 121.464844 C 16.578125 121.402344 16.617188 121.339844 16.640625 121.277344 Z M 26.265625 122.003906 L 26.265625 120.339844 L 26.828125 120.339844 L 26.828125 119.652344 L 26.265625 119.652344 L 26.265625 117.921875 L 24.597656 117.921875 L 24.597656 117.046875 L 23.828125 117.046875 L 23.828125 117.921875 L 22.640625 117.921875 L 22.640625 118.628906 L 23.828125 118.628906 L 23.828125 119.652344 L 22.222656 119.652344 L 22.222656 120.339844 L 23.828125 120.339844 L 23.828125 121.316406 L 22.640625 121.316406 L 22.640625 122.003906 L 23.828125 122.003906 L 23.828125 122.941406 L 22.515625 122.941406 L 22.515625 123.628906 L 23.828125 123.628906 L 23.828125 124.566406 L 22.222656 124.566406 L 22.222656 125.296875 L 23.828125 125.296875 L 23.828125 126.464844 L 24.597656 126.464844 L 24.597656 125.296875 L 26.703125 125.296875 L 26.703125 124.566406 L 24.597656 124.566406 L 24.597656 123.628906 L 26.410156 123.628906 L 26.410156 122.941406 L 24.597656 122.941406 L 24.597656 122.003906 Z M 24.597656 118.628906 L 25.535156 118.628906 L 25.535156 119.652344 L 24.597656 119.652344 Z M 24.597656 120.339844 L 25.535156 120.339844 L 25.535156 121.316406 L 24.597656 121.316406 Z M 25.117188 126.984375 C 23.953125 126.941406 23.097656 126.796875 22.554688 126.527344 C 22.160156 126.359375 21.804688 126.089844 21.492188 125.691406 C 21.867188 124.628906 22.078125 123.359375 22.097656 121.859375 L 22.097656 121.378906 L 20.867188 121.378906 C 21.265625 120.671875 21.660156 119.816406 22.054688 118.816406 L 22.054688 118.109375 L 19.890625 118.109375 L 19.890625 118.839844 L 21.285156 118.839844 C 20.890625 119.796875 20.453125 120.671875 19.972656 121.503906 L 19.972656 122.089844 L 21.410156 122.089844 C 21.347656 123.152344 21.203125 124.089844 20.972656 124.902344 C 20.679688 124.359375 20.453125 123.734375 20.304688 123.027344 L 19.640625 123.253906 C 19.890625 124.277344 20.222656 125.109375 20.640625 125.777344 C 20.390625 126.378906 20.035156 126.902344 19.617188 127.316406 L 20.222656 127.902344 C 20.578125 127.503906 20.910156 127.027344 21.179688 126.484375 C 21.390625 126.734375 21.640625 126.941406 21.929688 127.128906 C 22.554688 127.527344 23.765625 127.753906 25.535156 127.777344 L 26.847656 127.777344 L 27.015625 126.941406 C 26.535156 126.964844 25.910156 126.984375 25.117188 126.984375 Z M 25.117188 126.984375 "/>
<path style=" stroke:none;fill-rule:nonzero;fill:rgb(0%,0%,0%);fill-opacity:1;" d="M 11.910156 226.289062 L 11.910156 230.703125 L 19.078125 230.703125 L 19.078125 226.289062 Z M 18.242188 229.953125 L 12.742188 229.953125 L 12.742188 228.890625 L 18.242188 228.890625 Z M 12.742188 228.164062 L 12.742188 227.058594 L 18.242188 227.058594 L 18.242188 228.164062 Z M 10.554688 222.871094 L 10.554688 223.664062 L 14.265625 223.664062 C 13.328125 224.515625 11.910156 225.226562 9.992188 225.765625 L 10.453125 226.539062 C 12.535156 225.789062 14.078125 224.828125 15.015625 223.664062 L 15.078125 223.664062 L 15.078125 225.914062 L 15.910156 225.914062 L 15.910156 223.664062 L 15.992188 223.664062 C 16.867188 224.851562 18.410156 225.789062 20.554688 226.515625 L 20.929688 225.746094 C 19.035156 225.246094 17.640625 224.539062 16.742188 223.664062 L 20.429688 223.664062 L 20.429688 222.871094 L 15.910156 222.871094 L 15.910156 221.765625 L 15.078125 221.765625 L 15.078125 222.871094 Z M 10.328125 231.640625 L 10.328125 232.453125 L 20.640625 232.453125 L 20.640625 231.640625 Z M 10.328125 231.640625 "/>
<path style=" stroke:none;fill-rule:nonzero;fill:rgb(0%,0%,0%);fill-opacity:1;" d="M 26.554688 225.308594 L 26.554688 230.789062 L 30.222656 230.789062 L 30.222656 225.308594 Z M 29.410156 230.058594 L 27.390625 230.058594 L 27.390625 228.390625 L 29.410156 228.390625 Z M 27.390625 227.664062 L 27.390625 226.039062 L 29.410156 226.039062 L 29.410156 227.664062 Z M 27.347656 221.765625 C 26.992188 223.183594 26.328125 224.371094 25.304688 225.351562 L 25.847656 226.039062 C 26.492188 225.414062 27.035156 224.703125 27.453125 223.890625 L 31.703125 223.890625 C 31.679688 227.789062 31.617188 230.121094 31.535156 230.871094 C 31.453125 231.578125 31.117188 231.933594 30.578125 231.933594 C 30.222656 231.933594 29.804688 231.914062 29.328125 231.890625 L 29.535156 232.664062 C 30.078125 232.683594 30.453125 232.703125 30.679688 232.703125 C 31.679688 232.703125 32.265625 232.203125 32.390625 231.203125 C 32.492188 230.164062 32.554688 227.453125 32.554688 223.078125 L 27.828125 223.078125 C 27.972656 222.703125 28.097656 222.308594 28.203125 221.871094 Z M 23.410156 221.914062 L 22.828125 222.496094 C 23.679688 223.140625 24.347656 223.765625 24.847656 224.371094 L 25.453125 223.765625 C 24.890625 223.140625 24.203125 222.539062 23.410156 221.914062 Z M 21.972656 225.476562 L 21.972656 226.289062 L 23.742188 226.289062 L 23.742188 231.078125 C 23.742188 231.265625 23.640625 231.453125 23.472656 231.601562 L 23.804688 232.371094 C 24.597656 231.828125 25.347656 231.226562 26.035156 230.515625 L 25.804688 229.601562 C 25.367188 230.058594 24.953125 230.453125 24.578125 230.789062 L 24.578125 225.476562 Z M 21.972656 225.476562 "/>
<path style=" stroke:none;fill-rule:nonzero;fill:rgb(0%,0%,0%);fill-opacity:1;" d="M 390.351562 116.921875 C 390.328125 117.316406 390.289062 117.714844 390.246094 118.109375 L 387.101562 118.109375 L 387.101562 118.902344 L 390.164062 118.902344 C 390.121094 119.234375 390.058594 119.589844 390.015625 119.941406 L 387.808594 119.941406 L 387.808594 126.816406 L 386.578125 126.816406 L 386.578125 127.609375 L 394.433594 127.609375 L 394.433594 126.816406 L 393.308594 126.816406 L 393.308594 119.941406 L 390.871094 119.941406 C 390.914062 119.609375 390.976562 119.253906 391.015625 118.902344 L 394.101562 118.902344 L 394.101562 118.109375 L 391.121094 118.109375 C 391.140625 117.753906 391.183594 117.402344 391.203125 117.046875 Z M 388.640625 126.816406 L 388.640625 125.777344 L 392.476562 125.777344 L 392.476562 126.816406 Z M 388.640625 125.066406 L 388.640625 124.066406 L 392.476562 124.066406 L 392.476562 125.066406 Z M 388.640625 123.359375 L 388.640625 122.378906 L 392.476562 122.378906 L 392.476562 123.359375 Z M 388.640625 121.691406 L 388.640625 120.714844 L 392.476562 120.714844 L 392.476562 121.691406 Z M 385.101562 121.003906 L 385.101562 127.984375 L 385.933594 127.984375 L 385.933594 119.527344 C 386.289062 118.816406 386.601562 118.066406 386.828125 117.296875 L 386.058594 116.941406 C 385.515625 118.777344 384.664062 120.421875 383.476562 121.859375 L 383.765625 122.777344 C 384.246094 122.214844 384.703125 121.628906 385.101562 121.003906 Z M 385.101562 121.003906 "/>
<path style=" stroke:none;fill-rule:nonzero;fill:rgb(40.000001%,74.901962%,100%);fill-opacity:1;" d="M 52.171875 161.941406 L 97.238281 161.941406 L 97.238281 140.609375 L 52.171875 140.609375 Z M 52.171875 161.941406 "/>
<path style="fill:none;stroke-width:1;stroke-linecap:round;stroke-linejoin:round;stroke:rgb(0%,0%,0%);stroke-opacity:1;stroke-miterlimit:10;" d="M 120.128906 450.457031 L 153.928711 450.457031 L 153.928711 466.456055 L 120.128906 466.456055 Z M 120.128906 450.457031 " transform="matrix(1.333333,0,0,1.333333,-108,-460)"/>
<path style=" stroke:none;fill-rule:nonzero;fill:rgb(40.000001%,74.901962%,100%);fill-opacity:1;" d="M 52.171875 103.609375 L 97.238281 103.609375 L 97.238281 82.277344 L 52.171875 82.277344 Z M 52.171875 103.609375 "/>
<path style="fill:none;stroke-width:1;stroke-linecap:round;stroke-linejoin:round;stroke:rgb(0%,0%,0%);stroke-opacity:1;stroke-miterlimit:10;" d="M 120.128906 406.708008 L 153.928711 406.708008 L 153.928711 422.707031 L 120.128906 422.707031 Z M 120.128906 406.708008 " transform="matrix(1.333333,0,0,1.333333,-108,-460)"/>
<path style="fill:none;stroke-width:1;stroke-linecap:round;stroke-linejoin:round;stroke:rgb(0%,0%,0%);stroke-opacity:1;stroke-miterlimit:10;" d="M 193.78418 387.178711 C 196.910156 390.301758 196.910156 395.367188 193.78418 398.493164 C 190.661133 401.616211 185.592773 401.616211 182.472656 398.493164 C 179.34668 395.367188 179.34668 390.301758 182.472656 387.178711 C 185.592773 384.055664 190.661133 384.055664 193.78418 387.178711 " transform="matrix(1.333333,0,0,1.333333,-108,-460)"/>
<path style=" stroke:none;fill-rule:nonzero;fill:rgb(0%,0%,0%);fill-opacity:1;" d="M 145.394531 65.78125 L 145.0625 66.132812 C 144.707031 66.53125 144.539062 66.613281 144.4375 66.613281 C 144.351562 66.613281 144.269531 66.550781 144.269531 66.46875 C 144.269531 66.21875 144.769531 64.15625 145.332031 62.113281 C 145.375 61.988281 145.394531 61.96875 145.414062 61.863281 L 145.332031 61.820312 L 144.601562 61.90625 L 144.5625 61.945312 L 144.4375 62.507812 C 144.332031 62.070312 143.976562 61.820312 143.476562 61.820312 C 141.875 61.820312 140.039062 63.988281 140.039062 65.863281 C 140.039062 66.757812 140.5625 67.238281 141.226562 67.238281 C 142.082031 67.238281 142.769531 66.71875 143.664062 65.363281 C 143.414062 66.34375 143.394531 66.445312 143.394531 66.738281 C 143.394531 67.09375 143.539062 67.238281 143.875 67.238281 C 144.351562 67.238281 144.644531 67.007812 145.539062 65.90625 Z M 144.207031 62.78125 C 144.207031 63.632812 143.851562 64.65625 143.289062 65.488281 C 142.9375 65.988281 142.375 66.65625 141.769531 66.65625 C 141.332031 66.65625 141.039062 66.425781 141.039062 65.757812 C 141.039062 65.007812 141.457031 63.945312 141.976562 63.195312 C 142.476562 62.46875 143 62.09375 143.539062 62.09375 C 143.957031 62.09375 144.207031 62.363281 144.207031 62.78125 Z M 144.207031 62.78125 "/>
<path style="fill:none;stroke-width:1;stroke-linecap:round;stroke-linejoin:round;stroke:rgb(0%,0%,0%);stroke-opacity:1;stroke-miterlimit:10;" d="M 193.78418 409.051758 C 196.910156 412.174805 196.910156 417.243164 193.78418 420.366211 C 190.661133 423.489258 185.592773 423.489258 182.472656 420.366211 C 179.34668 417.243164 179.34668 412.174805 182.472656 409.051758 C 185.592773 405.925781 190.661133 405.925781 193.78418 409.051758 " transform="matrix(1.333333,0,0,1.333333,-108,-460)"/>
<path style=" stroke:none;fill-rule:nonzero;fill:rgb(0%,0%,0%);fill-opacity:1;" d="M 145.394531 94.945312 L 145.0625 95.300781 C 144.707031 95.695312 144.539062 95.777344 144.4375 95.777344 C 144.351562 95.777344 144.269531 95.714844 144.269531 95.632812 C 144.269531 95.382812 144.769531 93.320312 145.332031 91.277344 C 145.375 91.152344 145.394531 91.132812 145.414062 91.027344 L 145.332031 90.988281 L 144.601562 91.070312 L 144.5625 91.113281 L 144.4375 91.675781 C 144.332031 91.238281 143.976562 90.988281 143.476562 90.988281 C 141.875 90.988281 140.039062 93.152344 140.039062 95.027344 C 140.039062 95.925781 140.5625 96.402344 141.226562 96.402344 C 142.082031 96.402344 142.769531 95.882812 143.664062 94.527344 C 143.414062 95.507812 143.394531 95.613281 143.394531 95.902344 C 143.394531 96.257812 143.539062 96.402344 143.875 96.402344 C 144.351562 96.402344 144.644531 96.175781 145.539062 95.070312 Z M 144.207031 91.945312 C 144.207031 92.800781 143.851562 93.820312 143.289062 94.652344 C 142.9375 95.152344 142.375 95.820312 141.769531 95.820312 C 141.332031 95.820312 141.039062 95.589844 141.039062 94.925781 C 141.039062 94.175781 141.457031 93.113281 141.976562 92.363281 C 142.476562 91.632812 143 91.257812 143.539062 91.257812 C 143.957031 91.257812 144.207031 91.527344 144.207031 91.945312 Z M 144.207031 91.945312 "/>
<path style="fill:none;stroke-width:1;stroke-linecap:round;stroke-linejoin:round;stroke:rgb(0%,0%,0%);stroke-opacity:1;stroke-miterlimit:10;" d="M 193.78418 430.924805 C 196.910156 434.050781 196.910156 439.113281 193.78418 442.239258 C 190.661133 445.362305 185.592773 445.362305 182.472656 442.239258 C 179.34668 439.113281 179.34668 434.050781 182.472656 430.924805 C 185.592773 427.801758 190.661133 427.801758 193.78418 430.924805 " transform="matrix(1.333333,0,0,1.333333,-108,-460)"/>
<path style=" stroke:none;fill-rule:nonzero;fill:rgb(0%,0%,0%);fill-opacity:1;" d="M 145.394531 124.109375 L 145.0625 124.464844 C 144.707031 124.859375 144.539062 124.941406 144.4375 124.941406 C 144.351562 124.941406 144.269531 124.878906 144.269531 124.796875 C 144.269531 124.546875 144.769531 122.484375 145.332031 120.441406 C 145.375 120.316406 145.394531 120.296875 145.414062 120.191406 L 145.332031 120.152344 L 144.601562 120.234375 L 144.5625 120.277344 L 144.4375 120.839844 C 144.332031 120.402344 143.976562 120.152344 143.476562 120.152344 C 141.875 120.152344 140.039062 122.316406 140.039062 124.191406 C 140.039062 125.089844 140.5625 125.566406 141.226562 125.566406 C 142.082031 125.566406 142.769531 125.046875 143.664062 123.691406 C 143.414062 124.671875 143.394531 124.777344 143.394531 125.066406 C 143.394531 125.421875 143.539062 125.566406 143.875 125.566406 C 144.351562 125.566406 144.644531 125.339844 145.539062 124.234375 Z M 144.207031 121.109375 C 144.207031 121.964844 143.851562 122.984375 143.289062 123.816406 C 142.9375 124.316406 142.375 124.984375 141.769531 124.984375 C 141.332031 124.984375 141.039062 124.753906 141.039062 124.089844 C 141.039062 123.339844 141.457031 122.277344 141.976562 121.527344 C 142.476562 120.796875 143 120.421875 143.539062 120.421875 C 143.957031 120.421875 144.207031 120.691406 144.207031 121.109375 Z M 144.207031 121.109375 "/>
<path style="fill:none;stroke-width:1;stroke-linecap:round;stroke-linejoin:round;stroke:rgb(0%,0%,0%);stroke-opacity:1;stroke-miterlimit:10;" d="M 193.78418 452.800781 C 196.910156 455.920898 196.910156 460.989258 193.78418 464.112305 C 190.661133 467.238281 185.592773 467.238281 182.472656 464.112305 C 179.34668 460.989258 179.34668 455.920898 182.472656 452.800781 C 185.592773 449.674805 190.661133 449.674805 193.78418 452.800781 " transform="matrix(1.333333,0,0,1.333333,-108,-460)"/>
<path style=" stroke:none;fill-rule:nonzero;fill:rgb(0%,0%,0%);fill-opacity:1;" d="M 145.394531 153.273438 L 145.0625 153.628906 C 144.707031 154.023438 144.539062 154.109375 144.4375 154.109375 C 144.351562 154.109375 144.269531 154.046875 144.269531 153.960938 C 144.269531 153.710938 144.769531 151.648438 145.332031 149.609375 C 145.375 149.484375 145.394531 149.460938 145.414062 149.359375 L 145.332031 149.316406 L 144.601562 149.398438 L 144.5625 149.441406 L 144.4375 150.003906 C 144.332031 149.566406 143.976562 149.316406 143.476562 149.316406 C 141.875 149.316406 140.039062 151.484375 140.039062 153.359375 C 140.039062 154.253906 140.5625 154.734375 141.226562 154.734375 C 142.082031 154.734375 142.769531 154.210938 143.664062 152.859375 C 143.414062 153.835938 143.394531 153.941406 143.394531 154.234375 C 143.394531 154.585938 143.539062 154.734375 143.875 154.734375 C 144.351562 154.734375 144.644531 154.503906 145.539062 153.398438 Z M 144.207031 150.273438 C 144.207031 151.128906 143.851562 152.148438 143.289062 152.984375 C 142.9375 153.484375 142.375 154.148438 141.769531 154.148438 C 141.332031 154.148438 141.039062 153.921875 141.039062 153.253906 C 141.039062 152.503906 141.457031 151.441406 141.976562 150.691406 C 142.476562 149.960938 143 149.585938 143.539062 149.585938 C 143.957031 149.585938 144.207031 149.859375 144.207031 150.273438 Z M 144.207031 150.273438 "/>
<path style="fill:none;stroke-width:1;stroke-linecap:round;stroke-linejoin:round;stroke:rgb(0%,0%,0%);stroke-opacity:1;stroke-miterlimit:10;" d="M 193.78418 474.670898 C 196.910156 477.796875 196.910156 482.862305 193.78418 485.988281 C 190.661133 489.108398 185.592773 489.108398 182.472656 485.988281 C 179.34668 482.862305 179.34668 477.796875 182.472656 474.670898 C 185.592773 471.547852 190.661133 471.547852 193.78418 474.670898 " transform="matrix(1.333333,0,0,1.333333,-108,-460)"/>
<path style=" stroke:none;fill-rule:nonzero;fill:rgb(0%,0%,0%);fill-opacity:1;" d="M 145.394531 182.441406 L 145.0625 182.792969 C 144.707031 183.191406 144.539062 183.273438 144.4375 183.273438 C 144.351562 183.273438 144.269531 183.210938 144.269531 183.128906 C 144.269531 182.878906 144.769531 180.816406 145.332031 178.773438 C 145.375 178.648438 145.394531 178.628906 145.414062 178.523438 L 145.332031 178.480469 L 144.601562 178.566406 L 144.5625 178.605469 L 144.4375 179.167969 C 144.332031 178.730469 143.976562 178.480469 143.476562 178.480469 C 141.875 178.480469 140.039062 180.648438 140.039062 182.523438 C 140.039062 183.417969 140.5625 183.898438 141.226562 183.898438 C 142.082031 183.898438 142.769531 183.378906 143.664062 182.023438 C 143.414062 183.003906 143.394531 183.105469 143.394531 183.398438 C 143.394531 183.753906 143.539062 183.898438 143.875 183.898438 C 144.351562 183.898438 144.644531 183.667969 145.539062 182.566406 Z M 144.207031 179.441406 C 144.207031 180.292969 143.851562 181.316406 143.289062 182.148438 C 142.9375 182.648438 142.375 183.316406 141.769531 183.316406 C 141.332031 183.316406 141.039062 183.085938 141.039062 182.417969 C 141.039062 181.667969 141.457031 180.605469 141.976562 179.855469 C 142.476562 179.128906 143 178.753906 143.539062 178.753906 C 143.957031 178.753906 144.207031 179.023438 144.207031 179.441406 Z M 144.207031 179.441406 "/>
<path style="fill:none;stroke-width:1;stroke-linecap:round;stroke-linejoin:round;stroke:rgb(0%,0%,0%);stroke-opacity:1;stroke-miterlimit:10;" d="M 153.928711 414.706055 L 160.204102 414.706055 M 171.202148 414.706055 L 174.225586 414.706055 " transform="matrix(1.333333,0,0,1.333333,-108,-460)"/>
<path style="fill:none;stroke-width:1;stroke-linecap:butt;stroke-linejoin:miter;stroke:rgb(0%,0%,0%);stroke-opacity:1;stroke-miterlimit:10;" d="M 178.227539 414.706055 L 174.225586 414.706055 M 174.225586 413.206055 L 178.227539 414.706055 L 174.225586 416.206055 " transform="matrix(1.333333,0,0,1.333333,-108,-460)"/>
<path style="fill:none;stroke-width:1;stroke-linecap:round;stroke-linejoin:round;stroke:rgb(0%,0%,0%);stroke-opacity:1;stroke-miterlimit:10;" d="M 153.928711 436.582031 L 160.204102 436.582031 M 171.202148 436.582031 L 174.225586 436.582031 " transform="matrix(1.333333,0,0,1.333333,-108,-460)"/>
<path style="fill:none;stroke-width:1;stroke-linecap:butt;stroke-linejoin:miter;stroke:rgb(0%,0%,0%);stroke-opacity:1;stroke-miterlimit:10;" d="M 178.227539 436.582031 L 174.225586 436.582031 M 174.225586 435.082031 L 178.227539 436.582031 L 174.225586 438.082031 " transform="matrix(1.333333,0,0,1.333333,-108,-460)"/>
<path style="fill:none;stroke-width:1;stroke-linecap:round;stroke-linejoin:round;stroke:rgb(0%,0%,0%);stroke-opacity:1;stroke-miterlimit:10;" d="M 153.928711 458.458008 L 160.204102 458.458008 M 171.202148 458.458008 L 174.225586 458.458008 " transform="matrix(1.333333,0,0,1.333333,-108,-460)"/>
<path style="fill:none;stroke-width:1;stroke-linecap:butt;stroke-linejoin:miter;stroke:rgb(0%,0%,0%);stroke-opacity:1;stroke-miterlimit:10;" d="M 178.227539 458.458008 L 174.225586 458.458008 M 174.225586 456.958008 L 178.227539 458.458008 L 174.225586 459.958008 " transform="matrix(1.333333,0,0,1.333333,-108,-460)"/>
<path style="fill:none;stroke-width:1;stroke-linecap:round;stroke-linejoin:round;stroke:rgb(0%,0%,0%);stroke-opacity:1;stroke-miterlimit:10;" d="M 153.928711 480.328125 L 160.204102 480.328125 M 171.202148 480.328125 L 174.225586 480.328125 " transform="matrix(1.333333,0,0,1.333333,-108,-460)"/>
<path style="fill:none;stroke-width:1;stroke-linecap:butt;stroke-linejoin:miter;stroke:rgb(0%,0%,0%);stroke-opacity:1;stroke-miterlimit:10;" d="M 178.227539 480.328125 L 174.225586 480.328125 M 174.225586 478.828125 L 178.227539 480.328125 L 174.225586 481.828125 " transform="matrix(1.333333,0,0,1.333333,-108,-460)"/>
<path style="fill:none;stroke-width:1;stroke-linecap:round;stroke-linejoin:round;stroke:rgb(0%,0%,0%);stroke-opacity:1;stroke-miterlimit:10;" d="M 219.808594 388.945312 L 219.808594 484.21875 C 219.808594 487.825195 216.881836 490.749023 213.27832 490.749023 C 209.671875 490.749023 206.745117 487.825195 206.745117 484.21875 L 206.745117 388.945312 C 206.745117 385.338867 209.671875 382.415039 213.27832 382.415039 C 216.881836 382.415039 219.808594 385.338867 219.808594 388.945312 Z M 219.808594 388.945312 " transform="matrix(1.333333,0,0,1.333333,-108,-460)"/>
<path style=" stroke:none;fill-rule:nonzero;fill:rgb(0%,0%,0%);fill-opacity:1;" d="M 176.640625 104.59375 C 176.851562 104.257812 177.203125 104.070312 177.476562 104.070312 C 178.039062 104.070312 178.289062 104.46875 178.289062 104.96875 C 178.289062 105.695312 177.890625 106.050781 176.808594 106.320312 L 176.808594 106.507812 L 178.433594 106.445312 L 178.433594 106.320312 C 178.328125 106.21875 178.308594 106.175781 178.308594 106.132812 C 178.308594 106.050781 178.351562 105.925781 178.414062 105.78125 C 178.539062 105.53125 178.539062 105.28125 178.539062 104.988281 C 178.539062 104.007812 178.015625 103.320312 177.078125 103.320312 C 176.453125 103.320312 175.890625 103.78125 175.328125 104.757812 L 174.976562 105.425781 C 174.746094 105.820312 174.433594 106.050781 174.078125 106.050781 C 173.578125 106.050781 173.183594 105.675781 173.183594 105.050781 C 173.183594 104.238281 173.703125 103.78125 174.871094 103.53125 L 174.871094 103.34375 L 172.996094 103.34375 L 172.996094 103.488281 C 173.101562 103.570312 173.140625 103.632812 173.140625 103.78125 C 173.140625 103.925781 173.121094 104.050781 173.015625 104.34375 C 172.933594 104.613281 172.914062 104.96875 172.914062 105.21875 C 172.914062 106.132812 173.621094 106.882812 174.414062 106.882812 C 175.101562 106.882812 175.433594 106.613281 175.890625 105.84375 Z M 176.640625 104.59375 "/>
<path style=" stroke:none;fill-rule:nonzero;fill:rgb(0%,0%,0%);fill-opacity:1;" d="M 175.808594 113.03125 C 177.476562 113.03125 178.558594 111.90625 178.558594 110.425781 C 178.558594 108.824219 177.433594 107.738281 175.765625 107.738281 C 174.101562 107.738281 172.914062 108.863281 172.914062 110.324219 C 172.914062 111.949219 174.140625 113.03125 175.808594 113.03125 Z M 175.496094 111.949219 C 174.101562 111.949219 173.246094 111.425781 173.246094 110.53125 C 173.246094 110.09375 173.476562 109.71875 173.851562 109.449219 C 174.496094 109.011719 175.371094 108.824219 176.308594 108.824219 C 177.515625 108.824219 178.226562 109.386719 178.226562 110.199219 C 178.226562 110.71875 177.976562 111.050781 177.621094 111.34375 C 177.121094 111.738281 176.308594 111.949219 175.496094 111.949219 Z M 175.496094 111.949219 "/>
<path style=" stroke:none;fill-rule:nonzero;fill:rgb(0%,0%,0%);fill-opacity:1;" d="M 178.433594 113.636719 L 178.058594 113.636719 L 178.058594 114.613281 L 174.289062 114.613281 C 173.414062 114.613281 173.265625 114.488281 173.226562 113.636719 L 173.039062 113.636719 L 173.039062 116.738281 L 173.226562 116.738281 C 173.246094 115.761719 173.390625 115.636719 174.289062 115.636719 L 178.058594 115.636719 L 178.058594 117.09375 L 178.433594 117.09375 L 178.433594 115.636719 L 179.828125 115.636719 C 180.539062 115.636719 180.890625 115.84375 180.890625 116.300781 C 180.890625 116.574219 180.789062 116.71875 180.433594 116.925781 C 180.101562 117.136719 179.996094 117.28125 179.996094 117.46875 C 179.996094 117.761719 180.203125 117.988281 180.496094 117.988281 C 180.914062 117.988281 181.226562 117.449219 181.226562 116.738281 C 181.226562 115.96875 180.914062 115.34375 180.371094 115.03125 C 179.828125 114.738281 179.390625 114.636719 178.433594 114.613281 Z M 178.433594 113.636719 "/>
<path style=" stroke:none;fill-rule:nonzero;fill:rgb(0%,0%,0%);fill-opacity:1;" d="M 173.953125 120.6875 C 173.640625 120.4375 173.539062 120.230469 173.539062 119.980469 C 173.539062 119.523438 173.851562 119.355469 174.621094 119.355469 L 178.058594 119.355469 L 178.058594 120.5625 L 178.433594 120.5625 L 178.433594 119.355469 L 179.828125 119.355469 C 179.953125 119.355469 179.996094 119.335938 179.996094 119.273438 C 179.871094 119.1875 179.765625 119.105469 179.640625 119.023438 C 178.996094 118.5625 178.539062 118.167969 178.371094 117.855469 C 178.289062 117.730469 178.203125 117.648438 178.140625 117.648438 C 178.101562 117.648438 178.078125 117.667969 178.058594 117.710938 L 178.058594 118.335938 L 174.433594 118.335938 C 173.433594 118.335938 172.914062 118.710938 172.914062 119.398438 C 172.914062 120 173.203125 120.460938 173.828125 120.855469 Z M 173.953125 120.6875 "/>
<path style=" stroke:none;fill-rule:nonzero;fill:rgb(0%,0%,0%);fill-opacity:1;" d="M 173.039062 130.128906 L 173.226562 130.128906 L 173.246094 129.816406 C 173.265625 129.460938 173.414062 129.316406 173.953125 129.316406 L 176.390625 129.316406 C 177.808594 129.316406 178.558594 128.878906 178.558594 127.921875 C 178.558594 127.210938 178.246094 126.609375 177.558594 125.960938 C 178.226562 125.753906 178.558594 125.335938 178.558594 124.691406 C 178.558594 124.148438 178.453125 123.648438 177.640625 122.859375 L 177.640625 122.835938 L 178.515625 122.835938 L 178.558594 122.734375 C 178.328125 122.128906 178.203125 121.734375 178.015625 121.066406 L 177.808594 121.066406 C 177.851562 121.210938 177.871094 121.316406 177.871094 121.441406 C 177.871094 121.753906 177.664062 121.878906 177.078125 121.878906 L 174.101562 121.878906 C 173.390625 121.878906 173.226562 121.691406 173.226562 121.023438 L 173.039062 121.023438 L 173.039062 123.691406 L 173.226562 123.691406 C 173.246094 123.066406 173.371094 122.878906 173.871094 122.878906 L 177.203125 122.878906 C 177.246094 122.878906 177.328125 122.941406 177.414062 123.023438 C 177.703125 123.273438 177.933594 123.859375 177.933594 124.296875 C 177.933594 124.816406 177.433594 125.085938 176.601562 125.085938 L 174.078125 125.085938 C 173.328125 125.085938 173.265625 124.960938 173.226562 124.273438 L 173.039062 124.273438 L 173.039062 126.960938 L 173.226562 126.960938 C 173.226562 126.273438 173.390625 126.085938 174.183594 126.085938 L 177.203125 126.085938 C 177.726562 126.460938 177.933594 126.816406 177.933594 127.378906 C 177.933594 128.066406 177.539062 128.296875 176.578125 128.296875 L 174.121094 128.296875 C 173.414062 128.296875 173.289062 128.191406 173.226562 127.523438 L 173.039062 127.523438 Z M 173.039062 130.128906 "/>
<path style=" stroke:none;fill-rule:nonzero;fill:rgb(0%,0%,0%);fill-opacity:1;" d="M 173.828125 135.484375 C 173.664062 135.277344 173.601562 135.152344 173.601562 134.964844 C 173.601562 134.734375 173.851562 134.589844 174.390625 134.589844 L 176.683594 134.589844 C 177.414062 134.589844 177.664062 134.546875 178.015625 134.257812 C 178.371094 133.964844 178.558594 133.507812 178.558594 132.839844 C 178.558594 132.296875 178.414062 131.796875 178.203125 131.464844 C 177.933594 131.027344 177.558594 130.839844 177.246094 130.839844 C 176.914062 130.839844 176.683594 131.109375 176.683594 131.359375 C 176.683594 131.671875 176.953125 131.921875 177.183594 131.921875 C 177.433594 131.921875 177.476562 131.839844 177.683594 131.839844 C 177.996094 131.839844 178.265625 132.195312 178.265625 132.671875 C 178.265625 133.214844 177.933594 133.609375 177.183594 133.609375 L 176.539062 133.609375 C 176.039062 132.257812 175.808594 131.820312 175.578125 131.464844 C 175.265625 130.984375 174.789062 130.609375 174.164062 130.609375 C 173.371094 130.609375 172.914062 131.132812 172.914062 131.882812 C 172.914062 132.402344 173.078125 132.984375 173.789062 133.609375 L 173.789062 133.632812 C 173.164062 133.695312 172.914062 133.945312 172.914062 134.402344 C 172.914062 134.796875 173.039062 135.109375 173.496094 135.484375 Z M 174.558594 133.609375 C 174.203125 133.609375 174.039062 133.546875 173.808594 133.195312 C 173.683594 132.984375 173.621094 132.734375 173.621094 132.507812 C 173.621094 132.027344 173.890625 131.671875 174.539062 131.671875 C 174.914062 131.671875 175.203125 131.796875 175.453125 132.089844 C 175.746094 132.382812 175.996094 132.882812 176.246094 133.609375 Z M 174.558594 133.609375 "/>
<path style=" stroke:none;fill-rule:nonzero;fill:rgb(0%,0%,0%);fill-opacity:1;" d="M 173.039062 141.25 L 173.226562 141.25 C 173.226562 140.875 173.414062 140.605469 173.933594 140.273438 L 176.289062 138.730469 L 177.726562 139.730469 C 178.058594 139.960938 178.246094 140.3125 178.265625 140.6875 L 178.433594 140.6875 L 178.433594 138.792969 L 178.265625 138.792969 C 178.226562 139.167969 178.164062 139.273438 177.996094 139.273438 C 177.851562 139.273438 177.640625 139.105469 177.203125 138.835938 C 177.039062 138.710938 176.851562 138.605469 176.683594 138.480469 C 176.765625 138.4375 176.851562 138.375 176.933594 138.3125 C 177.433594 137.960938 177.828125 137.75 177.996094 137.75 C 178.183594 137.75 178.246094 137.917969 178.265625 138.273438 L 178.433594 138.273438 L 178.433594 135.792969 L 178.265625 135.792969 L 178.265625 135.898438 C 178.265625 136.25 178.101562 136.460938 177.539062 136.8125 L 175.808594 137.960938 L 173.828125 136.585938 C 173.328125 136.25 173.246094 136.105469 173.226562 135.710938 L 173.039062 135.710938 L 173.039062 137.4375 L 173.226562 137.4375 C 173.226562 137.105469 173.289062 136.960938 173.433594 136.960938 C 173.515625 136.960938 173.664062 137.042969 173.933594 137.210938 L 175.390625 138.148438 L 173.726562 139.25 C 173.640625 139.292969 173.578125 139.3125 173.496094 139.3125 C 173.289062 139.3125 173.246094 139.230469 173.226562 138.835938 L 173.039062 138.835938 Z M 173.039062 141.25 "/>
<path style=" stroke:none;fill-rule:nonzero;fill:rgb(0%,0%,0%);fill-opacity:1;" d="M 126.398438 12.046875 L 125.796875 12.648438 C 126.671875 13.273438 127.378906 13.878906 127.878906 14.441406 L 128.503906 13.816406 C 127.941406 13.234375 127.234375 12.648438 126.398438 12.046875 Z M 126.109375 14.878906 L 125.503906 15.460938 C 126.335938 16.109375 127.003906 16.710938 127.484375 17.273438 L 128.085938 16.648438 C 127.566406 16.046875 126.898438 15.460938 126.109375 14.878906 Z M 127.628906 18.191406 C 127.085938 19.628906 126.441406 21.023438 125.734375 22.398438 L 126.585938 22.773438 C 127.253906 21.441406 127.859375 20.023438 128.378906 18.503906 Z M 128.960938 13.898438 L 128.960938 14.753906 L 132.085938 14.753906 L 132.085938 17.628906 L 129.296875 17.628906 L 129.296875 18.460938 L 132.085938 18.460938 L 132.085938 21.609375 L 128.671875 21.609375 L 128.671875 22.460938 L 136.296875 22.460938 L 136.296875 21.609375 L 132.960938 21.609375 L 132.960938 18.460938 L 135.734375 18.460938 L 135.734375 17.628906 L 132.960938 17.628906 L 132.960938 14.753906 L 136.066406 14.753906 L 136.066406 13.898438 L 132.484375 13.898438 L 132.984375 13.710938 C 132.796875 13.128906 132.523438 12.503906 132.191406 11.816406 L 131.378906 12.023438 C 131.691406 12.628906 131.960938 13.253906 132.191406 13.898438 Z M 128.960938 13.898438 "/>
<path style=" stroke:none;fill-rule:nonzero;fill:rgb(0%,0%,0%);fill-opacity:1;" d="M 140.128906 13.335938 L 140.503906 14.296875 L 137.628906 14.296875 L 137.628906 15.046875 L 148.046875 15.046875 L 148.046875 14.296875 L 145.066406 14.296875 L 145.523438 13.335938 L 147.484375 13.335938 L 147.484375 12.609375 L 143.253906 12.609375 C 143.128906 12.296875 143.003906 12.003906 142.878906 11.753906 L 141.960938 11.898438 C 142.085938 12.109375 142.191406 12.335938 142.316406 12.609375 L 138.191406 12.609375 L 138.191406 13.335938 Z M 141.398438 14.296875 L 141.023438 13.335938 L 144.628906 13.335938 L 144.148438 14.296875 Z M 139.003906 15.753906 L 139.003906 19.316406 L 146.671875 19.316406 L 146.671875 15.753906 Z M 145.835938 18.628906 L 139.835938 18.628906 L 139.835938 17.835938 L 145.835938 17.835938 Z M 139.835938 17.210938 L 139.835938 16.441406 L 145.835938 16.441406 L 145.835938 17.210938 Z M 138.523438 19.878906 C 138.296875 20.671875 137.921875 21.398438 137.441406 22.046875 L 138.191406 22.523438 C 138.691406 21.816406 139.066406 21.003906 139.359375 20.046875 Z M 144.484375 22.671875 C 144.941406 22.671875 145.253906 22.585938 145.484375 22.441406 C 145.710938 22.253906 145.878906 21.753906 145.960938 20.921875 L 145.148438 20.671875 C 145.109375 21.253906 145.003906 21.628906 144.859375 21.753906 C 144.773438 21.859375 144.585938 21.898438 144.316406 21.898438 L 141.796875 21.898438 C 141.421875 21.898438 141.234375 21.710938 141.234375 21.378906 L 141.234375 19.984375 L 140.335938 19.984375 L 140.335938 21.566406 C 140.335938 22.316406 140.734375 22.671875 141.546875 22.671875 Z M 142.960938 19.523438 L 142.234375 19.984375 C 142.734375 20.503906 143.128906 20.960938 143.421875 21.398438 L 144.128906 20.898438 C 143.878906 20.503906 143.484375 20.046875 142.960938 19.523438 Z M 146.734375 19.753906 L 146.046875 20.191406 C 146.691406 20.984375 147.191406 21.710938 147.585938 22.359375 L 148.296875 21.859375 C 147.941406 21.253906 147.398438 20.566406 146.734375 19.753906 Z M 146.734375 19.753906 "/>
<path style=" stroke:none;fill-rule:nonzero;fill:rgb(0%,0%,0%);fill-opacity:1;" d="M 153.835938 11.898438 L 153.835938 13.109375 C 153.835938 13.503906 153.816406 13.921875 153.796875 14.316406 L 150.234375 14.316406 L 150.234375 15.171875 L 153.710938 15.171875 C 153.585938 16.566406 153.316406 17.773438 152.921875 18.773438 C 152.296875 20.148438 151.191406 21.296875 149.609375 22.128906 L 150.085938 22.859375 C 151.691406 22.046875 152.835938 20.898438 153.566406 19.441406 C 154.085938 18.296875 154.421875 16.878906 154.609375 15.171875 L 158.398438 15.171875 C 158.335938 18.003906 158.191406 19.859375 157.960938 20.734375 C 157.753906 21.566406 157.316406 21.984375 156.628906 21.984375 C 156.191406 21.984375 155.734375 21.960938 155.253906 21.941406 L 155.484375 22.796875 L 157.066406 22.796875 C 157.691406 22.734375 158.128906 22.484375 158.421875 22.003906 C 158.710938 21.503906 158.921875 20.609375 159.046875 19.359375 C 159.148438 18.066406 159.234375 16.398438 159.273438 14.316406 L 154.691406 14.316406 C 154.710938 13.921875 154.710938 13.523438 154.734375 13.109375 L 154.734375 11.898438 Z M 153.835938 11.898438 "/>
<path style=" stroke:none;fill-rule:nonzero;fill:rgb(0%,0%,0%);fill-opacity:1;" d="M 123.503906 29.753906 L 123.503906 30.566406 L 126.316406 30.566406 L 126.316406 35.085938 L 123.171875 35.085938 L 123.171875 35.921875 L 126.316406 35.921875 L 126.316406 40.210938 L 127.171875 40.210938 L 127.171875 35.921875 L 130.378906 35.921875 L 130.378906 35.085938 L 127.171875 35.085938 L 127.171875 30.566406 L 130.003906 30.566406 L 130.003906 29.753906 Z M 128.921875 31.171875 C 128.648438 32.378906 128.335938 33.378906 127.984375 34.171875 L 128.710938 34.441406 C 129.085938 33.546875 129.421875 32.546875 129.671875 31.378906 Z M 124.421875 31.234375 L 123.691406 31.484375 C 124.085938 32.421875 124.398438 33.421875 124.648438 34.460938 L 125.378906 34.253906 C 125.109375 33.128906 124.796875 32.109375 124.421875 31.234375 Z M 120.773438 29.316406 L 120.191406 29.898438 C 121.046875 30.546875 121.734375 31.171875 122.253906 31.773438 L 122.835938 31.171875 C 122.273438 30.546875 121.585938 29.941406 120.773438 29.316406 Z M 119.335938 32.878906 L 119.335938 33.691406 L 121.109375 33.691406 L 121.109375 38.484375 C 121.109375 38.671875 121.003906 38.859375 120.835938 39.023438 L 121.171875 39.773438 C 121.960938 39.253906 122.691406 38.628906 123.398438 37.941406 L 123.171875 37.023438 C 122.734375 37.460938 122.316406 37.859375 121.941406 38.191406 L 121.941406 32.878906 Z M 119.335938 32.878906 "/>
<path style=" stroke:none;fill-rule:nonzero;fill:rgb(0%,0%,0%);fill-opacity:1;" d="M 135.171875 29.460938 C 134.691406 30.359375 134.171875 31.148438 133.585938 31.816406 C 132.921875 32.566406 132.191406 33.191406 131.359375 33.648438 L 131.835938 34.398438 C 132.835938 33.734375 133.628906 33.046875 134.234375 32.359375 C 134.796875 31.710938 135.359375 30.898438 135.921875 29.898438 Z M 135.566406 34.796875 C 135.316406 35.941406 134.941406 36.835938 134.441406 37.546875 C 133.878906 38.253906 133.023438 38.921875 131.921875 39.523438 L 132.484375 40.234375 C 133.710938 39.546875 134.628906 38.796875 135.234375 37.921875 C 135.753906 37.148438 136.148438 36.109375 136.441406 34.796875 L 139.421875 34.796875 C 139.378906 36.671875 139.234375 37.878906 139.023438 38.460938 C 138.816406 39.023438 138.398438 39.296875 137.753906 39.296875 C 137.128906 39.296875 136.460938 39.273438 135.773438 39.253906 L 136.003906 40.109375 L 138.191406 40.109375 C 138.796875 40.066406 139.234375 39.878906 139.484375 39.523438 C 139.773438 39.171875 139.960938 38.523438 140.085938 37.609375 C 140.191406 36.691406 140.273438 35.484375 140.296875 33.984375 L 133.148438 33.984375 L 133.148438 34.796875 Z M 138.546875 29.296875 L 137.816406 29.710938 C 138.546875 31.609375 139.835938 33.148438 141.691406 34.359375 L 142.273438 33.671875 C 140.484375 32.609375 139.253906 31.148438 138.546875 29.296875 Z M 138.546875 29.296875 "/>
<path style=" stroke:none;fill-rule:nonzero;fill:rgb(0%,0%,0%);fill-opacity:1;" d="M 145.378906 37.546875 C 146.523438 36.816406 147.609375 35.960938 148.628906 34.984375 L 148.628906 36.835938 C 148.628906 37.234375 148.460938 37.421875 148.128906 37.421875 C 147.773438 37.421875 147.441406 37.398438 147.128906 37.398438 L 147.359375 38.191406 L 148.441406 38.191406 C 149.085938 38.191406 149.421875 37.835938 149.421875 37.148438 L 149.421875 35.128906 C 150.148438 35.691406 151.046875 36.460938 152.085938 37.484375 L 152.585938 36.734375 C 151.503906 35.796875 150.460938 34.984375 149.421875 34.253906 L 149.421875 32.421875 C 150.609375 31.773438 151.671875 31.128906 152.628906 30.460938 L 152.628906 29.648438 L 145.191406 29.648438 L 145.191406 30.460938 L 151.335938 30.460938 C 150.734375 30.859375 149.835938 31.359375 148.628906 31.941406 L 148.628906 34.003906 C 147.484375 35.085938 146.316406 35.984375 145.066406 36.691406 Z M 152.835938 31.835938 L 152.835938 38.753906 L 144.835938 38.753906 L 144.835938 31.835938 L 144.003906 31.835938 L 144.003906 40.210938 L 144.835938 40.210938 L 144.835938 39.546875 L 152.835938 39.546875 L 152.835938 40.234375 L 153.671875 40.234375 L 153.671875 31.835938 Z M 146.128906 32.210938 L 145.503906 32.609375 C 146.191406 33.273438 146.753906 33.859375 147.171875 34.421875 L 147.835938 33.960938 C 147.441406 33.460938 146.878906 32.878906 146.128906 32.210938 Z M 151.585938 32.128906 C 151.148438 32.859375 150.585938 33.503906 149.960938 34.023438 L 150.585938 34.460938 C 151.234375 33.898438 151.816406 33.234375 152.296875 32.460938 Z M 151.585938 32.128906 "/>
<path style=" stroke:none;fill-rule:nonzero;fill:rgb(0%,0%,0%);fill-opacity:1;" d="M 162.734375 31.859375 L 164.503906 31.859375 C 164.460938 33.484375 164.210938 34.898438 163.734375 36.109375 C 163.253906 35.109375 162.878906 33.898438 162.585938 32.484375 Z M 163.335938 36.984375 C 162.796875 38.003906 162.066406 38.816406 161.128906 39.460938 L 161.566406 40.191406 C 162.460938 39.546875 163.210938 38.734375 163.796875 37.773438 C 164.378906 38.796875 165.109375 39.609375 165.941406 40.210938 L 166.421875 39.503906 C 165.546875 38.898438 164.816406 38.085938 164.191406 37.003906 C 164.878906 35.585938 165.234375 33.859375 165.296875 31.859375 L 166.085938 31.859375 L 166.085938 31.046875 L 162.921875 31.046875 C 163.003906 30.503906 163.109375 29.941406 163.171875 29.316406 L 162.335938 29.171875 C 162.085938 31.460938 161.609375 33.273438 160.898438 34.609375 L 161.441406 35.273438 C 161.691406 34.835938 161.941406 34.359375 162.148438 33.796875 C 162.484375 35.003906 162.878906 36.046875 163.335938 36.984375 Z M 157.648438 34.773438 C 157.566406 35.023438 157.484375 35.273438 157.378906 35.546875 L 155.609375 35.546875 L 155.609375 36.296875 L 157.023438 36.296875 C 156.796875 36.773438 156.523438 37.253906 156.210938 37.796875 C 156.796875 38.003906 157.335938 38.234375 157.878906 38.460938 C 157.171875 38.859375 156.316406 39.191406 155.335938 39.441406 L 155.753906 40.171875 C 156.941406 39.835938 157.941406 39.378906 158.734375 38.835938 C 159.441406 39.148438 160.066406 39.460938 160.585938 39.773438 L 161.046875 39.109375 C 160.523438 38.816406 159.984375 38.566406 159.398438 38.296875 C 160.023438 37.710938 160.460938 37.046875 160.734375 36.253906 L 160.734375 35.546875 L 158.210938 35.546875 C 158.296875 35.316406 158.378906 35.109375 158.460938 34.878906 Z M 158.609375 37.960938 C 158.171875 37.773438 157.710938 37.609375 157.234375 37.441406 C 157.484375 37.085938 157.691406 36.691406 157.878906 36.296875 L 159.941406 36.296875 C 159.671875 36.921875 159.210938 37.484375 158.609375 37.960938 Z M 156.566406 29.421875 L 155.878906 29.648438 C 156.171875 30.109375 156.441406 30.628906 156.691406 31.210938 L 157.316406 30.921875 C 157.085938 30.398438 156.859375 29.898438 156.566406 29.421875 Z M 160.210938 29.398438 C 160.003906 29.898438 159.691406 30.398438 159.296875 30.921875 L 159.921875 31.234375 C 160.296875 30.734375 160.585938 30.210938 160.835938 29.671875 Z M 155.648438 31.503906 L 155.648438 32.253906 L 157.335938 32.253906 C 156.984375 32.921875 156.335938 33.523438 155.421875 34.066406 L 155.835938 34.753906 C 156.859375 34.066406 157.585938 33.253906 157.984375 32.296875 L 157.984375 34.566406 L 158.796875 34.566406 L 158.796875 33.023438 C 159.210938 33.296875 159.734375 33.691406 160.335938 34.171875 L 160.773438 33.503906 C 160.109375 33.085938 159.441406 32.710938 158.796875 32.398438 L 158.796875 32.253906 L 160.960938 32.253906 L 160.960938 31.503906 L 158.796875 31.503906 L 158.796875 29.210938 L 157.984375 29.210938 L 157.984375 31.503906 Z M 155.648438 31.503906 "/>
<path style="fill:none;stroke-width:1;stroke-linecap:round;stroke-linejoin:round;stroke:rgb(0%,0%,0%);stroke-opacity:1;stroke-miterlimit:10;" d="M 273.058594 387.178711 C 276.178711 390.301758 276.178711 395.367188 273.058594 398.493164 C 269.932617 401.616211 264.867188 401.616211 261.741211 398.493164 C 258.618164 395.367188 258.618164 390.301758 261.741211 387.178711 C 264.867188 384.055664 269.932617 384.055664 273.058594 387.178711 " transform="matrix(1.333333,0,0,1.333333,-108,-460)"/>
<g clip-path="url(#clip1)" clip-rule="nonzero">
<path style=" stroke:none;fill-rule:nonzero;fill:rgb(0%,0%,0%);fill-opacity:1;" d="M 248.917969 63.777344 L 251.835938 60.859375 C 251.980469 60.691406 252.023438 60.652344 252.023438 60.546875 C 252.023438 60.378906 251.875 60.253906 251.730469 60.253906 C 251.605469 60.253906 251.542969 60.316406 251.417969 60.441406 L 248.5 63.359375 L 245.5625 60.441406 C 245.398438 60.277344 245.375 60.253906 245.25 60.253906 C 245.105469 60.253906 244.960938 60.378906 244.960938 60.546875 C 244.960938 60.652344 245.023438 60.714844 245.148438 60.859375 L 248.0625 63.777344 L 245.148438 66.671875 C 245 66.816406 244.960938 66.902344 244.960938 67.003906 C 244.960938 67.152344 245.105469 67.296875 245.25 67.296875 C 245.375 67.296875 245.398438 67.253906 245.5625 67.109375 L 248.480469 64.171875 L 251.398438 67.109375 C 251.542969 67.253906 251.625 67.296875 251.730469 67.296875 C 251.898438 67.296875 252.023438 67.152344 252.023438 67.003906 C 252.023438 66.878906 251.980469 66.859375 251.835938 66.691406 Z M 248.917969 63.777344 "/>
</g>
<path style="fill:none;stroke-width:1;stroke-linecap:round;stroke-linejoin:round;stroke:rgb(0%,0%,0%);stroke-opacity:1;stroke-miterlimit:10;" d="M 273.058594 409.051758 C 276.178711 412.174805 276.178711 417.243164 273.058594 420.366211 C 269.932617 423.489258 264.867188 423.489258 261.741211 420.366211 C 258.618164 417.243164 258.618164 412.174805 261.741211 409.051758 C 264.867188 405.925781 269.932617 405.925781 273.058594 409.051758 " transform="matrix(1.333333,0,0,1.333333,-108,-460)"/>
<g clip-path="url(#clip2)" clip-rule="nonzero">
<path style=" stroke:none;fill-rule:nonzero;fill:rgb(0%,0%,0%);fill-opacity:1;" d="M 248.917969 92.941406 L 251.835938 90.023438 C 251.980469 89.859375 252.023438 89.816406 252.023438 89.710938 C 252.023438 89.546875 251.875 89.421875 251.730469 89.421875 C 251.605469 89.421875 251.542969 89.484375 251.417969 89.609375 L 248.5 92.523438 L 245.5625 89.609375 C 245.398438 89.441406 245.375 89.421875 245.25 89.421875 C 245.105469 89.421875 244.960938 89.546875 244.960938 89.710938 C 244.960938 89.816406 245.023438 89.878906 245.148438 90.023438 L 248.0625 92.941406 L 245.148438 95.835938 C 245 95.984375 244.960938 96.066406 244.960938 96.171875 C 244.960938 96.316406 245.105469 96.460938 245.25 96.460938 C 245.375 96.460938 245.398438 96.421875 245.5625 96.273438 L 248.480469 93.335938 L 251.398438 96.273438 C 251.542969 96.421875 251.625 96.460938 251.730469 96.460938 C 251.898438 96.460938 252.023438 96.316406 252.023438 96.171875 C 252.023438 96.046875 251.980469 96.023438 251.835938 95.859375 Z M 248.917969 92.941406 "/>
</g>
<path style="fill:none;stroke-width:1;stroke-linecap:round;stroke-linejoin:round;stroke:rgb(0%,0%,0%);stroke-opacity:1;stroke-miterlimit:10;" d="M 273.058594 430.924805 C 276.178711 434.050781 276.178711 439.113281 273.058594 442.239258 C 269.932617 445.362305 264.867188 445.362305 261.741211 442.239258 C 258.618164 439.113281 258.618164 434.050781 261.741211 430.924805 C 264.867188 427.801758 269.932617 427.801758 273.058594 430.924805 " transform="matrix(1.333333,0,0,1.333333,-108,-460)"/>
<g clip-path="url(#clip3)" clip-rule="nonzero">
<path style=" stroke:none;fill-rule:nonzero;fill:rgb(0%,0%,0%);fill-opacity:1;" d="M 248.917969 122.105469 L 251.835938 119.1875 C 251.980469 119.023438 252.023438 118.980469 252.023438 118.875 C 252.023438 118.710938 251.875 118.585938 251.730469 118.585938 C 251.605469 118.585938 251.542969 118.648438 251.417969 118.773438 L 248.5 121.6875 L 245.5625 118.773438 C 245.398438 118.605469 245.375 118.585938 245.25 118.585938 C 245.105469 118.585938 244.960938 118.710938 244.960938 118.875 C 244.960938 118.980469 245.023438 119.042969 245.148438 119.1875 L 248.0625 122.105469 L 245.148438 125 C 245 125.148438 244.960938 125.230469 244.960938 125.335938 C 244.960938 125.480469 245.105469 125.625 245.25 125.625 C 245.375 125.625 245.398438 125.585938 245.5625 125.4375 L 248.480469 122.5 L 251.398438 125.4375 C 251.542969 125.585938 251.625 125.625 251.730469 125.625 C 251.898438 125.625 252.023438 125.480469 252.023438 125.335938 C 252.023438 125.210938 251.980469 125.1875 251.835938 125.023438 Z M 248.917969 122.105469 "/>
</g>
<path style="fill:none;stroke-width:1;stroke-linecap:round;stroke-linejoin:round;stroke:rgb(0%,0%,0%);stroke-opacity:1;stroke-miterlimit:10;" d="M 273.058594 452.800781 C 276.178711 455.920898 276.178711 460.989258 273.058594 464.112305 C 269.932617 467.238281 264.867188 467.238281 261.741211 464.112305 C 258.618164 460.989258 258.618164 455.920898 261.741211 452.800781 C 264.867188 449.674805 269.932617 449.674805 273.058594 452.800781 " transform="matrix(1.333333,0,0,1.333333,-108,-460)"/>
<g clip-path="url(#clip4)" clip-rule="nonzero">
<path style=" stroke:none;fill-rule:nonzero;fill:rgb(0%,0%,0%);fill-opacity:1;" d="M 248.917969 151.269531 L 251.835938 148.355469 C 251.980469 148.1875 252.023438 148.144531 252.023438 148.042969 C 252.023438 147.875 251.875 147.75 251.730469 147.75 C 251.605469 147.75 251.542969 147.8125 251.417969 147.9375 L 248.5 150.855469 L 245.5625 147.9375 C 245.398438 147.769531 245.375 147.75 245.25 147.75 C 245.105469 147.75 244.960938 147.875 244.960938 148.042969 C 244.960938 148.144531 245.023438 148.207031 245.148438 148.355469 L 248.0625 151.269531 L 245.148438 154.167969 C 245 154.3125 244.960938 154.394531 244.960938 154.5 C 244.960938 154.644531 245.105469 154.792969 245.25 154.792969 C 245.375 154.792969 245.398438 154.75 245.5625 154.605469 L 248.480469 151.667969 L 251.398438 154.605469 C 251.542969 154.75 251.625 154.792969 251.730469 154.792969 C 251.898438 154.792969 252.023438 154.644531 252.023438 154.5 C 252.023438 154.375 251.980469 154.355469 251.835938 154.1875 Z M 248.917969 151.269531 "/>
</g>
<path style="fill:none;stroke-width:1;stroke-linecap:round;stroke-linejoin:round;stroke:rgb(0%,0%,0%);stroke-opacity:1;stroke-miterlimit:10;" d="M 273.058594 474.670898 C 276.178711 477.796875 276.178711 482.862305 273.058594 485.988281 C 269.932617 489.108398 264.867188 489.108398 261.741211 485.988281 C 258.618164 482.862305 258.618164 477.796875 261.741211 474.670898 C 264.867188 471.547852 269.932617 471.547852 273.058594 474.670898 " transform="matrix(1.333333,0,0,1.333333,-108,-460)"/>
<g clip-path="url(#clip5)" clip-rule="nonzero">
<path style=" stroke:none;fill-rule:nonzero;fill:rgb(0%,0%,0%);fill-opacity:1;" d="M 248.917969 180.4375 L 251.835938 177.519531 C 251.980469 177.351562 252.023438 177.3125 252.023438 177.207031 C 252.023438 177.039062 251.875 176.914062 251.730469 176.914062 C 251.605469 176.914062 251.542969 176.976562 251.417969 177.101562 L 248.5 180.019531 L 245.5625 177.101562 C 245.398438 176.9375 245.375 176.914062 245.25 176.914062 C 245.105469 176.914062 244.960938 177.039062 244.960938 177.207031 C 244.960938 177.3125 245.023438 177.375 245.148438 177.519531 L 248.0625 180.4375 L 245.148438 183.332031 C 245 183.476562 244.960938 183.5625 244.960938 183.664062 C 244.960938 183.8125 245.105469 183.957031 245.25 183.957031 C 245.375 183.957031 245.398438 183.914062 245.5625 183.769531 L 248.480469 180.832031 L 251.398438 183.769531 C 251.542969 183.914062 251.625 183.957031 251.730469 183.957031 C 251.898438 183.957031 252.023438 183.8125 252.023438 183.664062 C 252.023438 183.539062 251.980469 183.519531 251.835938 183.351562 Z M 248.917969 180.4375 "/>
</g>
<path style="fill:none;stroke-width:1;stroke-linecap:round;stroke-linejoin:round;stroke:rgb(0%,0%,0%);stroke-opacity:1;stroke-miterlimit:10;" d="M 314.991211 480.328125 L 281.299805 480.328125 " transform="matrix(1.333333,0,0,1.333333,-108,-460)"/>
<path style="fill:none;stroke-width:1;stroke-linecap:butt;stroke-linejoin:miter;stroke:rgb(0%,0%,0%);stroke-opacity:1;stroke-miterlimit:10;" d="M 277.300781 480.328125 L 281.299805 480.328125 M 281.299805 481.828125 L 277.300781 480.328125 L 281.299805 478.828125 " transform="matrix(1.333333,0,0,1.333333,-108,-460)"/>
<path style="fill:none;stroke-width:1;stroke-linecap:round;stroke-linejoin:round;stroke:rgb(0%,0%,0%);stroke-opacity:1;stroke-miterlimit:10;" d="M 300.354492 349.491211 C 303.477539 352.617188 303.477539 357.682617 300.354492 360.805664 C 297.231445 363.928711 292.163086 363.928711 289.040039 360.805664 C 285.914062 357.682617 285.914062 352.617188 289.040039 349.491211 C 292.163086 346.368164 297.231445 346.368164 300.354492 349.491211 " transform="matrix(1.333333,0,0,1.333333,-108,-460)"/>
<path style=" stroke:none;fill-rule:nonzero;fill:rgb(0%,0%,0%);fill-opacity:1;" d="M 288.445312 14.21875 L 288.445312 13.429688 L 285.320312 13.429688 L 285.320312 10.304688 L 284.527344 10.304688 L 284.527344 13.429688 L 281.402344 13.429688 L 281.402344 14.21875 L 284.527344 14.21875 L 284.527344 17.367188 L 285.320312 17.367188 L 285.320312 14.21875 Z M 288.445312 14.21875 "/>
<path style=" stroke:none;fill-rule:nonzero;fill:rgb(0%,0%,0%);fill-opacity:1;" d="M 192.933594 18.910156 L 192.328125 19.511719 C 193.203125 20.136719 193.914062 20.742188 194.414062 21.304688 L 195.039062 20.679688 C 194.476562 20.097656 193.765625 19.511719 192.933594 18.910156 Z M 192.640625 21.742188 L 192.039062 22.324219 C 192.871094 22.972656 193.539062 23.574219 194.015625 24.136719 L 194.621094 23.511719 C 194.101562 22.910156 193.433594 22.324219 192.640625 21.742188 Z M 194.164062 25.054688 C 193.621094 26.492188 192.976562 27.886719 192.265625 29.261719 L 193.121094 29.636719 C 193.789062 28.304688 194.390625 26.886719 194.914062 25.367188 Z M 195.496094 20.761719 L 195.496094 21.617188 L 198.621094 21.617188 L 198.621094 24.492188 L 195.828125 24.492188 L 195.828125 25.324219 L 198.621094 25.324219 L 198.621094 28.472656 L 195.203125 28.472656 L 195.203125 29.324219 L 202.828125 29.324219 L 202.828125 28.472656 L 199.496094 28.472656 L 199.496094 25.324219 L 202.265625 25.324219 L 202.265625 24.492188 L 199.496094 24.492188 L 199.496094 21.617188 L 202.601562 21.617188 L 202.601562 20.761719 L 199.015625 20.761719 L 199.515625 20.574219 C 199.328125 19.992188 199.058594 19.367188 198.726562 18.679688 L 197.914062 18.886719 C 198.226562 19.492188 198.496094 20.117188 198.726562 20.761719 Z M 195.496094 20.761719 "/>
<path style=" stroke:none;fill-rule:nonzero;fill:rgb(0%,0%,0%);fill-opacity:1;" d="M 206.664062 20.199219 L 207.039062 21.160156 L 204.164062 21.160156 L 204.164062 21.910156 L 214.578125 21.910156 L 214.578125 21.160156 L 211.601562 21.160156 L 212.058594 20.199219 L 214.015625 20.199219 L 214.015625 19.472656 L 209.789062 19.472656 C 209.664062 19.160156 209.539062 18.867188 209.414062 18.617188 L 208.496094 18.761719 C 208.621094 18.972656 208.726562 19.199219 208.851562 19.472656 L 204.726562 19.472656 L 204.726562 20.199219 Z M 207.933594 21.160156 L 207.558594 20.199219 L 211.164062 20.199219 L 210.683594 21.160156 Z M 205.539062 22.617188 L 205.539062 26.179688 L 213.203125 26.179688 L 213.203125 22.617188 Z M 212.371094 25.492188 L 206.371094 25.492188 L 206.371094 24.699219 L 212.371094 24.699219 Z M 206.371094 24.074219 L 206.371094 23.304688 L 212.371094 23.304688 L 212.371094 24.074219 Z M 205.058594 26.742188 C 204.828125 27.535156 204.453125 28.261719 203.976562 28.910156 L 204.726562 29.386719 C 205.226562 28.679688 205.601562 27.867188 205.890625 26.910156 Z M 211.015625 29.535156 C 211.476562 29.535156 211.789062 29.449219 212.015625 29.304688 C 212.246094 29.117188 212.414062 28.617188 212.496094 27.785156 L 211.683594 27.535156 C 211.640625 28.117188 211.539062 28.492188 211.390625 28.617188 C 211.308594 28.722656 211.121094 28.761719 210.851562 28.761719 L 208.328125 28.761719 C 207.953125 28.761719 207.765625 28.574219 207.765625 28.242188 L 207.765625 26.847656 L 206.871094 26.847656 L 206.871094 28.429688 C 206.871094 29.179688 207.265625 29.535156 208.078125 29.535156 Z M 209.496094 26.386719 L 208.765625 26.847656 C 209.265625 27.367188 209.664062 27.824219 209.953125 28.261719 L 210.664062 27.761719 C 210.414062 27.367188 210.015625 26.910156 209.496094 26.386719 Z M 213.265625 26.617188 L 212.578125 27.054688 C 213.226562 27.847656 213.726562 28.574219 214.121094 29.222656 L 214.828125 28.722656 C 214.476562 28.117188 213.933594 27.429688 213.265625 26.617188 Z M 213.265625 26.617188 "/>
<path style=" stroke:none;fill-rule:nonzero;fill:rgb(0%,0%,0%);fill-opacity:1;" d="M 220.371094 18.761719 L 220.371094 19.972656 C 220.371094 20.367188 220.351562 20.785156 220.328125 21.179688 L 216.765625 21.179688 L 216.765625 22.035156 L 220.246094 22.035156 C 220.121094 23.429688 219.851562 24.636719 219.453125 25.636719 C 218.828125 27.011719 217.726562 28.160156 216.140625 28.992188 L 216.621094 29.722656 C 218.226562 28.910156 219.371094 27.761719 220.101562 26.304688 C 220.621094 25.160156 220.953125 23.742188 221.140625 22.035156 L 224.933594 22.035156 C 224.871094 24.867188 224.726562 26.722656 224.496094 27.597656 C 224.289062 28.429688 223.851562 28.847656 223.164062 28.847656 C 222.726562 28.847656 222.265625 28.824219 221.789062 28.804688 L 222.015625 29.660156 L 223.601562 29.660156 C 224.226562 29.597656 224.664062 29.347656 224.953125 28.867188 C 225.246094 28.367188 225.453125 27.472656 225.578125 26.222656 C 225.683594 24.929688 225.765625 23.261719 225.808594 21.179688 L 221.226562 21.179688 C 221.246094 20.785156 221.246094 20.386719 221.265625 19.972656 L 221.265625 18.761719 Z M 220.371094 18.761719 "/>
<path style=" stroke:none;fill-rule:nonzero;fill:rgb(0%,0%,0%);fill-opacity:1;" d="M 200.808594 40.824219 C 201.183594 41.261719 201.621094 41.867188 202.140625 42.617188 L 202.640625 41.886719 C 202.015625 41.160156 201.414062 40.511719 200.808594 39.929688 L 200.808594 39.242188 L 202.390625 39.242188 L 202.390625 38.410156 L 200.808594 38.410156 L 200.808594 36.074219 L 199.953125 36.074219 L 199.953125 38.410156 L 198.058594 38.410156 L 198.058594 39.242188 L 199.933594 39.242188 C 199.515625 40.742188 198.808594 42.074219 197.808594 43.242188 L 198.203125 44.222656 C 198.933594 43.199219 199.515625 42.054688 199.953125 40.785156 L 199.953125 47.011719 L 200.808594 47.011719 Z M 207.246094 37.617188 C 206.953125 39.492188 206.390625 41.160156 205.539062 42.597656 C 204.664062 41.117188 204.140625 39.472656 204.015625 37.617188 Z M 205.015625 43.367188 C 204.203125 44.492188 203.164062 45.492188 201.914062 46.324219 L 202.453125 47.011719 C 203.664062 46.222656 204.703125 45.261719 205.539062 44.117188 C 206.289062 45.179688 207.226562 46.136719 208.371094 47.035156 L 208.953125 46.324219 C 207.765625 45.449219 206.808594 44.472656 206.039062 43.386719 C 207.058594 41.785156 207.746094 39.847656 208.078125 37.617188 L 208.078125 36.804688 L 202.683594 36.804688 L 202.683594 37.617188 L 203.164062 37.617188 C 203.328125 39.722656 203.953125 41.636719 205.015625 43.367188 Z M 205.015625 43.367188 "/>
<path style=" stroke:none;fill-rule:nonzero;fill:rgb(0%,0%,0%);fill-opacity:1;" d="M 211.226562 39.597656 L 211.226562 43.574219 L 214.933594 43.574219 L 214.933594 44.410156 L 210.664062 44.410156 L 210.664062 45.097656 L 214.933594 45.097656 L 214.933594 45.992188 L 210.058594 45.992188 L 210.058594 46.761719 L 220.683594 46.761719 L 220.683594 45.992188 L 215.789062 45.992188 L 215.789062 45.097656 L 220.078125 45.097656 L 220.078125 44.410156 L 215.789062 44.410156 L 215.789062 43.574219 L 219.515625 43.574219 L 219.515625 39.597656 L 215.789062 39.597656 L 215.789062 38.824219 L 220.515625 38.824219 L 220.515625 38.074219 L 215.789062 38.074219 L 215.789062 37.160156 C 217.121094 37.074219 218.371094 36.992188 219.515625 36.867188 L 219.265625 36.136719 C 216.871094 36.410156 214.121094 36.597656 210.996094 36.679688 L 211.140625 37.386719 C 212.453125 37.347656 213.726562 37.285156 214.933594 37.222656 L 214.933594 38.074219 L 210.226562 38.074219 L 210.226562 38.824219 L 214.933594 38.824219 L 214.933594 39.597656 Z M 218.664062 42.886719 L 215.789062 42.886719 L 215.789062 41.910156 L 218.664062 41.910156 Z M 214.933594 42.886719 L 212.039062 42.886719 L 212.039062 41.910156 L 214.933594 41.910156 Z M 212.039062 41.242188 L 212.039062 40.285156 L 214.933594 40.285156 L 214.933594 41.242188 Z M 215.789062 40.285156 L 218.664062 40.285156 L 218.664062 41.242188 L 215.789062 41.242188 Z M 215.789062 40.285156 "/>
<path style=" stroke:none;fill-rule:nonzero;fill:rgb(69.803923%,85.09804%,100%);fill-opacity:1;" d="M 366.421875 24.660156 L 411.488281 24.660156 L 411.488281 3.328125 L 366.421875 3.328125 Z M 366.421875 24.660156 "/>
<path style="fill:none;stroke-width:1;stroke-linecap:round;stroke-linejoin:round;stroke:rgb(0%,0%,0%);stroke-opacity:1;stroke-miterlimit:10;" d="M 355.816406 347.496094 L 389.616211 347.496094 L 389.616211 363.495117 L 355.816406 363.495117 Z M 355.816406 347.496094 " transform="matrix(1.333333,0,0,1.333333,-108,-460)"/>
<path style="fill:none;stroke-width:1;stroke-linecap:round;stroke-linejoin:round;stroke:rgb(0%,0%,0%);stroke-opacity:1;stroke-miterlimit:10;" d="M 302.695312 355.183594 L 349.913086 355.394531 " transform="matrix(1.333333,0,0,1.333333,-108,-460)"/>
<path style="fill:none;stroke-width:1;stroke-linecap:butt;stroke-linejoin:miter;stroke:rgb(0%,0%,0%);stroke-opacity:1;stroke-miterlimit:10;" d="M 353.915039 355.40918 L 349.913086 355.394531 M 349.921875 353.894531 L 353.915039 355.40918 L 349.910156 356.894531 " transform="matrix(1.333333,0,0,1.333333,-108,-460)"/>
<path style=" stroke:none;fill-rule:nonzero;fill:rgb(0%,0%,0%);fill-opacity:1;" d="M 426.917969 14.003906 L 426.917969 15.777344 L 425.730469 15.777344 C 426.019531 15.003906 426.3125 14.128906 426.5625 13.152344 L 428.875 13.152344 L 428.875 12.339844 L 426.769531 12.339844 C 426.875 11.859375 426.980469 11.339844 427.105469 10.796875 L 426.3125 10.628906 C 426.1875 11.214844 426.082031 11.796875 425.957031 12.339844 L 424.769531 12.339844 L 424.769531 13.152344 L 425.769531 13.152344 C 425.5 14.214844 425.207031 15.128906 424.855469 15.839844 L 425.042969 16.566406 L 426.917969 16.566406 L 426.917969 18.359375 C 426.207031 18.484375 425.480469 18.609375 424.6875 18.691406 L 424.792969 19.546875 C 425.519531 19.421875 426.230469 19.316406 426.917969 19.171875 L 426.917969 21.671875 L 427.707031 21.671875 L 427.707031 19.003906 L 428.855469 18.714844 L 428.855469 17.902344 C 428.5 17.984375 428.125 18.089844 427.707031 18.191406 L 427.707031 16.566406 L 428.8125 16.566406 L 428.8125 15.777344 L 427.707031 15.777344 L 427.707031 14.003906 Z M 430.457031 13.378906 L 430.457031 14.089844 L 433.894531 14.089844 L 433.894531 13.378906 L 430.457031 13.378906 C 431.0625 12.796875 431.644531 12.152344 432.207031 11.464844 C 433.125 12.628906 434.144531 13.628906 435.269531 14.441406 L 435.730469 13.777344 C 434.644531 13.003906 433.582031 11.984375 432.519531 10.691406 L 431.917969 10.691406 C 430.9375 11.878906 429.832031 12.941406 428.605469 13.839844 L 429.082031 14.566406 C 429.542969 14.191406 430 13.796875 430.457031 13.378906 Z M 431.292969 21.589844 C 431.875 21.589844 432.1875 21.277344 432.1875 20.652344 L 432.1875 15.046875 L 429.355469 15.046875 L 429.355469 21.671875 L 430.105469 21.671875 L 430.105469 19.421875 L 431.457031 19.421875 L 431.457031 20.503906 C 431.457031 20.753906 431.3125 20.902344 431.0625 20.902344 L 430.519531 20.878906 L 430.707031 21.589844 Z M 430.105469 18.753906 L 430.105469 17.609375 L 431.457031 17.609375 L 431.457031 18.753906 Z M 430.105469 16.941406 L 430.105469 15.753906 L 431.457031 15.753906 L 431.457031 16.941406 Z M 432.894531 15.378906 L 432.894531 19.691406 L 433.582031 19.691406 L 433.582031 15.378906 Z M 434.207031 21.609375 C 434.792969 21.609375 435.082031 21.253906 435.082031 20.566406 L 435.082031 14.839844 L 434.332031 14.839844 L 434.332031 20.378906 C 434.332031 20.714844 434.207031 20.902344 433.9375 20.902344 C 433.644531 20.902344 433.332031 20.878906 433.019531 20.839844 L 433.1875 21.609375 Z M 434.207031 21.609375 "/>
<path style=" stroke:none;fill-rule:nonzero;fill:rgb(0%,0%,0%);fill-opacity:1;" d="M 445.417969 14.839844 L 442.605469 14.839844 L 442.605469 10.652344 L 441.730469 10.652344 L 441.730469 14.839844 L 438.917969 14.839844 L 438.917969 11.566406 L 438.042969 11.566406 L 438.042969 15.671875 L 441.730469 15.671875 L 441.730469 20.089844 L 438.332031 20.089844 L 438.332031 16.796875 L 437.457031 16.796875 L 437.457031 21.589844 L 438.332031 21.589844 L 438.332031 20.902344 L 446 20.902344 L 446 21.589844 L 446.875 21.589844 L 446.875 16.796875 L 446 16.796875 L 446 20.089844 L 442.605469 20.089844 L 442.605469 15.671875 L 446.292969 15.671875 L 446.292969 11.566406 L 445.417969 11.566406 Z M 445.417969 14.839844 "/>
<path style="fill:none;stroke-width:1;stroke-linecap:round;stroke-linejoin:round;stroke:rgb(0%,0%,0%);stroke-opacity:1;stroke-miterlimit:10;" d="M 153.928711 515.891602 C 160.148438 516.026367 165.304688 511.098633 165.445312 504.875977 C 165.445312 504.870117 165.445312 504.867188 165.445312 504.867188 L 165.682617 493.722656 C 165.694336 493.148438 165.703125 492.574219 165.703125 492.00293 L 165.703125 407.862305 " transform="matrix(1.333333,0,0,1.333333,-108,-460)"/>
<path style="fill:none;stroke-width:1;stroke-linecap:round;stroke-linejoin:round;stroke:rgb(0%,0%,0%);stroke-opacity:1;stroke-miterlimit:10;" d="M 165.624023 496.453125 L 165.785156 492.375 C 165.881836 489.823242 167.589844 487.614258 170.036133 486.870117 L 174.706055 485.452148 " transform="matrix(1.333333,0,0,1.333333,-108,-460)"/>
<path style="fill:none;stroke-width:1;stroke-linecap:butt;stroke-linejoin:miter;stroke:rgb(0%,0%,0%);stroke-opacity:1;stroke-miterlimit:10;" d="M 178.535156 484.289062 L 174.706055 485.452148 M 174.269531 484.016602 L 178.535156 484.289062 L 175.145508 486.887695 " transform="matrix(1.333333,0,0,1.333333,-108,-460)"/>
<path style="fill:none;stroke-width:1;stroke-linecap:round;stroke-linejoin:round;stroke:rgb(0%,0%,0%);stroke-opacity:1;stroke-miterlimit:10;" d="M 165.703125 473.586914 L 165.875977 470.510742 C 166.016602 467.99707 167.709961 465.84082 170.121094 465.105469 L 174.864258 463.664062 " transform="matrix(1.333333,0,0,1.333333,-108,-460)"/>
<path style="fill:none;stroke-width:1;stroke-linecap:butt;stroke-linejoin:miter;stroke:rgb(0%,0%,0%);stroke-opacity:1;stroke-miterlimit:10;" d="M 178.69043 462.503906 L 174.864258 463.664062 M 174.430664 462.231445 L 178.69043 462.503906 L 175.300781 465.102539 " transform="matrix(1.333333,0,0,1.333333,-108,-460)"/>
<path style="fill:none;stroke-width:1;stroke-linecap:round;stroke-linejoin:round;stroke:rgb(0%,0%,0%);stroke-opacity:1;stroke-miterlimit:10;" d="M 165.703125 451.959961 L 165.875977 448.886719 C 166.016602 446.370117 167.709961 444.213867 170.121094 443.481445 L 174.864258 442.040039 " transform="matrix(1.333333,0,0,1.333333,-108,-460)"/>
<path style="fill:none;stroke-width:1;stroke-linecap:butt;stroke-linejoin:miter;stroke:rgb(0%,0%,0%);stroke-opacity:1;stroke-miterlimit:10;" d="M 178.69043 440.879883 L 174.864258 442.040039 M 174.430664 440.604492 L 178.69043 440.879883 L 175.300781 443.475586 " transform="matrix(1.333333,0,0,1.333333,-108,-460)"/>
<path style="fill:none;stroke-width:1;stroke-linecap:round;stroke-linejoin:round;stroke:rgb(0%,0%,0%);stroke-opacity:1;stroke-miterlimit:10;" d="M 165.703125 430.010742 L 165.875977 426.9375 C 166.016602 424.420898 167.709961 422.261719 170.121094 421.532227 L 174.864258 420.09082 " transform="matrix(1.333333,0,0,1.333333,-108,-460)"/>
<path style="fill:none;stroke-width:1;stroke-linecap:butt;stroke-linejoin:miter;stroke:rgb(0%,0%,0%);stroke-opacity:1;stroke-miterlimit:10;" d="M 178.69043 418.924805 L 174.864258 420.09082 M 174.430664 418.655273 L 178.69043 418.924805 L 175.300781 421.526367 " transform="matrix(1.333333,0,0,1.333333,-108,-460)"/>
<path style="fill:none;stroke-width:1;stroke-linecap:round;stroke-linejoin:round;stroke:rgb(0%,0%,0%);stroke-opacity:1;stroke-miterlimit:10;" d="M 165.703125 407.862305 L 165.875977 404.786133 C 166.016602 402.272461 167.709961 400.113281 170.121094 399.383789 L 174.864258 397.942383 " transform="matrix(1.333333,0,0,1.333333,-108,-460)"/>
<path style="fill:none;stroke-width:1;stroke-linecap:butt;stroke-linejoin:miter;stroke:rgb(0%,0%,0%);stroke-opacity:1;stroke-miterlimit:10;" d="M 178.69043 396.776367 L 174.864258 397.942383 M 174.430664 396.503906 L 178.69043 396.776367 L 175.300781 399.375 " transform="matrix(1.333333,0,0,1.333333,-108,-460)"/>
<path style="fill:none;stroke-width:1;stroke-linecap:round;stroke-linejoin:round;stroke:rgb(0%,0%,0%);stroke-opacity:1;stroke-miterlimit:10;" d="M 196.12793 392.835938 L 200.847656 392.835938 " transform="matrix(1.333333,0,0,1.333333,-108,-460)"/>
<path style="fill:none;stroke-width:1;stroke-linecap:butt;stroke-linejoin:miter;stroke:rgb(0%,0%,0%);stroke-opacity:1;stroke-miterlimit:10;" d="M 204.84668 392.835938 L 200.847656 392.835938 M 200.847656 391.335938 L 204.84668 392.835938 L 200.847656 394.335938 " transform="matrix(1.333333,0,0,1.333333,-108,-460)"/>
<path style="fill:none;stroke-width:1;stroke-linecap:round;stroke-linejoin:round;stroke:rgb(0%,0%,0%);stroke-opacity:1;stroke-miterlimit:10;" d="M 196.12793 414.208008 L 200.847656 414.208008 " transform="matrix(1.333333,0,0,1.333333,-108,-460)"/>
<path style="fill:none;stroke-width:1;stroke-linecap:butt;stroke-linejoin:miter;stroke:rgb(0%,0%,0%);stroke-opacity:1;stroke-miterlimit:10;" d="M 204.84668 414.208008 L 200.847656 414.208008 M 200.847656 412.708008 L 204.84668 414.208008 L 200.847656 415.708008 " transform="matrix(1.333333,0,0,1.333333,-108,-460)"/>
<path style="fill:none;stroke-width:1;stroke-linecap:round;stroke-linejoin:round;stroke:rgb(0%,0%,0%);stroke-opacity:1;stroke-miterlimit:10;" d="M 196.12793 436.081055 L 200.847656 436.081055 " transform="matrix(1.333333,0,0,1.333333,-108,-460)"/>
<path style="fill:none;stroke-width:1;stroke-linecap:butt;stroke-linejoin:miter;stroke:rgb(0%,0%,0%);stroke-opacity:1;stroke-miterlimit:10;" d="M 204.84668 436.081055 L 200.847656 436.081055 M 200.847656 434.581055 L 204.84668 436.081055 L 200.847656 437.581055 " transform="matrix(1.333333,0,0,1.333333,-108,-460)"/>
<path style="fill:none;stroke-width:1;stroke-linecap:round;stroke-linejoin:round;stroke:rgb(0%,0%,0%);stroke-opacity:1;stroke-miterlimit:10;" d="M 196.12793 457.957031 L 200.847656 457.957031 " transform="matrix(1.333333,0,0,1.333333,-108,-460)"/>
<path style="fill:none;stroke-width:1;stroke-linecap:butt;stroke-linejoin:miter;stroke:rgb(0%,0%,0%);stroke-opacity:1;stroke-miterlimit:10;" d="M 204.84668 457.957031 L 200.847656 457.957031 M 200.847656 456.457031 L 204.84668 457.957031 L 200.847656 459.457031 " transform="matrix(1.333333,0,0,1.333333,-108,-460)"/>
<path style="fill:none;stroke-width:1;stroke-linecap:round;stroke-linejoin:round;stroke:rgb(0%,0%,0%);stroke-opacity:1;stroke-miterlimit:10;" d="M 196.12793 479.827148 L 200.847656 479.827148 " transform="matrix(1.333333,0,0,1.333333,-108,-460)"/>
<path style="fill:none;stroke-width:1;stroke-linecap:butt;stroke-linejoin:miter;stroke:rgb(0%,0%,0%);stroke-opacity:1;stroke-miterlimit:10;" d="M 204.84668 479.827148 L 200.847656 479.827148 M 200.847656 478.327148 L 204.84668 479.827148 L 200.847656 481.327148 " transform="matrix(1.333333,0,0,1.333333,-108,-460)"/>
<path style="fill:none;stroke-width:1;stroke-linecap:round;stroke-linejoin:round;stroke:rgb(0%,0%,0%);stroke-opacity:1;stroke-miterlimit:10;" d="M 219.808594 392.334961 L 253.5 392.367188 " transform="matrix(1.333333,0,0,1.333333,-108,-460)"/>
<path style="fill:none;stroke-width:1;stroke-linecap:butt;stroke-linejoin:miter;stroke:rgb(0%,0%,0%);stroke-opacity:1;stroke-miterlimit:10;" d="M 257.499023 392.375977 L 253.5 392.367188 M 253.5 390.867188 L 257.499023 392.375977 L 253.5 393.867188 " transform="matrix(1.333333,0,0,1.333333,-108,-460)"/>
<path style="fill:none;stroke-width:1;stroke-linecap:round;stroke-linejoin:round;stroke:rgb(0%,0%,0%);stroke-opacity:1;stroke-miterlimit:10;" d="M 219.808594 414.208008 L 253.5 414.243164 " transform="matrix(1.333333,0,0,1.333333,-108,-460)"/>
<path style="fill:none;stroke-width:1;stroke-linecap:butt;stroke-linejoin:miter;stroke:rgb(0%,0%,0%);stroke-opacity:1;stroke-miterlimit:10;" d="M 257.499023 414.246094 L 253.5 414.243164 M 253.5 412.743164 L 257.499023 414.246094 L 253.5 415.743164 " transform="matrix(1.333333,0,0,1.333333,-108,-460)"/>
<path style="fill:none;stroke-width:1;stroke-linecap:round;stroke-linejoin:round;stroke:rgb(0%,0%,0%);stroke-opacity:1;stroke-miterlimit:10;" d="M 219.808594 436.081055 L 253.5 436.116211 " transform="matrix(1.333333,0,0,1.333333,-108,-460)"/>
<path style="fill:none;stroke-width:1;stroke-linecap:butt;stroke-linejoin:miter;stroke:rgb(0%,0%,0%);stroke-opacity:1;stroke-miterlimit:10;" d="M 257.499023 436.12207 L 253.5 436.116211 M 253.5 434.616211 L 257.499023 436.12207 L 253.5 437.616211 " transform="matrix(1.333333,0,0,1.333333,-108,-460)"/>
<path style="fill:none;stroke-width:1;stroke-linecap:round;stroke-linejoin:round;stroke:rgb(0%,0%,0%);stroke-opacity:1;stroke-miterlimit:10;" d="M 219.682617 457.957031 L 253.374023 457.989258 " transform="matrix(1.333333,0,0,1.333333,-108,-460)"/>
<path style="fill:none;stroke-width:1;stroke-linecap:butt;stroke-linejoin:miter;stroke:rgb(0%,0%,0%);stroke-opacity:1;stroke-miterlimit:10;" d="M 257.375977 457.992188 L 253.374023 457.989258 M 253.374023 456.489258 L 257.375977 457.992188 L 253.371094 459.489258 " transform="matrix(1.333333,0,0,1.333333,-108,-460)"/>
<path style="fill:none;stroke-width:1;stroke-linecap:round;stroke-linejoin:round;stroke:rgb(0%,0%,0%);stroke-opacity:1;stroke-miterlimit:10;" d="M 219.808594 479.003906 L 253.5 479.039062 " transform="matrix(1.333333,0,0,1.333333,-108,-460)"/>
<path style="fill:none;stroke-width:1;stroke-linecap:butt;stroke-linejoin:miter;stroke:rgb(0%,0%,0%);stroke-opacity:1;stroke-miterlimit:10;" d="M 257.499023 479.041992 L 253.5 479.039062 M 253.5 477.539062 L 257.499023 479.041992 L 253.5 480.539062 " transform="matrix(1.333333,0,0,1.333333,-108,-460)"/>
<path style="fill:none;stroke-width:1;stroke-linecap:round;stroke-linejoin:round;stroke:rgb(0%,0%,0%);stroke-opacity:1;stroke-miterlimit:10;" d="M 273.058594 474.670898 L 286.324219 473.879883 C 288.254883 473.765625 290.012695 472.725586 291.043945 471.09082 L 292.051758 469.485352 " transform="matrix(1.333333,0,0,1.333333,-108,-460)"/>
<path style="fill:none;stroke-width:1;stroke-linecap:butt;stroke-linejoin:miter;stroke:rgb(0%,0%,0%);stroke-opacity:1;stroke-miterlimit:10;" d="M 294.18457 466.101562 L 292.051758 469.485352 M 290.780273 468.688477 L 294.18457 466.101562 L 293.320312 470.285156 " transform="matrix(1.333333,0,0,1.333333,-108,-460)"/>
<path style="fill:none;stroke-width:1;stroke-linecap:round;stroke-linejoin:round;stroke:rgb(0%,0%,0%);stroke-opacity:1;stroke-miterlimit:10;" d="M 294.196289 467.375977 L 294.735352 369.773438 " transform="matrix(1.333333,0,0,1.333333,-108,-460)"/>
<path style="fill:none;stroke-width:1;stroke-linecap:butt;stroke-linejoin:miter;stroke:rgb(0%,0%,0%);stroke-opacity:1;stroke-miterlimit:10;" d="M 294.758789 365.774414 L 294.735352 369.773438 M 293.235352 369.764648 L 294.758789 365.774414 L 296.235352 369.782227 " transform="matrix(1.333333,0,0,1.333333,-108,-460)"/>
<path style="fill:none;stroke-width:1;stroke-linecap:round;stroke-linejoin:round;stroke:rgb(0%,0%,0%);stroke-opacity:1;stroke-miterlimit:10;" d="M 273.058594 451.959961 L 286.324219 451.168945 C 288.254883 451.054688 290.012695 450.014648 291.043945 448.379883 L 292.051758 446.774414 " transform="matrix(1.333333,0,0,1.333333,-108,-460)"/>
<path style="fill:none;stroke-width:1;stroke-linecap:butt;stroke-linejoin:miter;stroke:rgb(0%,0%,0%);stroke-opacity:1;stroke-miterlimit:10;" d="M 294.18457 443.390625 L 292.051758 446.774414 M 290.780273 445.977539 L 294.18457 443.390625 L 293.320312 447.574219 " transform="matrix(1.333333,0,0,1.333333,-108,-460)"/>
<path style="fill:none;stroke-width:1;stroke-linecap:round;stroke-linejoin:round;stroke:rgb(0%,0%,0%);stroke-opacity:1;stroke-miterlimit:10;" d="M 273.058594 430.734375 L 286.324219 429.94043 C 288.254883 429.829102 290.012695 428.789062 291.043945 427.151367 L 292.051758 425.545898 " transform="matrix(1.333333,0,0,1.333333,-108,-460)"/>
<path style="fill:none;stroke-width:1;stroke-linecap:butt;stroke-linejoin:miter;stroke:rgb(0%,0%,0%);stroke-opacity:1;stroke-miterlimit:10;" d="M 294.18457 422.165039 L 292.051758 425.545898 M 290.780273 424.749023 L 294.18457 422.165039 L 293.320312 426.348633 " transform="matrix(1.333333,0,0,1.333333,-108,-460)"/>
<path style="fill:none;stroke-width:1;stroke-linecap:round;stroke-linejoin:round;stroke:rgb(0%,0%,0%);stroke-opacity:1;stroke-miterlimit:10;" d="M 272.62793 407.862305 L 285.893555 407.071289 C 287.824219 406.954102 289.582031 405.914062 290.613281 404.276367 L 291.624023 402.676758 " transform="matrix(1.333333,0,0,1.333333,-108,-460)"/>
<path style="fill:none;stroke-width:1;stroke-linecap:butt;stroke-linejoin:miter;stroke:rgb(0%,0%,0%);stroke-opacity:1;stroke-miterlimit:10;" d="M 293.753906 399.290039 L 291.624023 402.676758 M 290.355469 401.874023 L 293.753906 399.290039 L 292.895508 403.473633 " transform="matrix(1.333333,0,0,1.333333,-108,-460)"/>
<path style="fill:none;stroke-width:1;stroke-linecap:round;stroke-linejoin:round;stroke:rgb(0%,0%,0%);stroke-opacity:1;stroke-miterlimit:10;" d="M 273.058594 386.578125 L 286.324219 385.78418 C 288.254883 385.672852 290.012695 384.632812 291.043945 382.995117 L 292.051758 381.389648 " transform="matrix(1.333333,0,0,1.333333,-108,-460)"/>
<path style="fill:none;stroke-width:1;stroke-linecap:butt;stroke-linejoin:miter;stroke:rgb(0%,0%,0%);stroke-opacity:1;stroke-miterlimit:10;" d="M 294.18457 378.008789 L 292.051758 381.389648 M 290.780273 380.592773 L 294.18457 378.008789 L 293.320312 382.192383 " transform="matrix(1.333333,0,0,1.333333,-108,-460)"/>
</g>
</svg>
