<?xml version="1.0" encoding="UTF-8"?>
<svg xmlns="http://www.w3.org/2000/svg" xmlns:xlink="http://www.w3.org/1999/xlink" width="374.666667" height="198.666667" viewBox="0 0 374.666667 198.666667" version="1.1">
<g id="surface1">
<path style="fill:none;stroke-width:1;stroke-linecap:round;stroke-linejoin:round;stroke:rgb(0%,0%,0%);stroke-opacity:1;stroke-miterlimit:10;" d="M 673.799805 397.800781 L 708.704102 397.800781 L 708.704102 413.149414 L 673.799805 413.149414 Z M 673.799805 397.800781 " transform="matrix(1.333333,0,0,1.333333,-897.333333,-410.666667)"/>
<path style=" stroke:none;fill-rule:nonzero;fill:rgb(0%,0%,0%);fill-opacity:1;" d="M 12.128906 126.109375 C 11.191406 127.132812 10.023438 127.984375 8.628906 128.652344 L 8.898438 129.152344 C 10.316406 128.445312 11.460938 127.609375 12.335938 126.632812 C 13.273438 127.652344 14.398438 128.484375 15.730469 129.109375 L 16.023438 128.609375 C 14.710938 128.007812 13.542969 127.171875 12.542969 126.109375 Z M 10.105469 128.652344 L 10.105469 129.195312 L 12.042969 129.195312 L 12.042969 130.589844 L 9.710938 130.589844 L 9.710938 131.152344 L 12.042969 131.152344 L 12.042969 132.632812 L 9.003906 132.632812 L 9.003906 133.195312 L 15.667969 133.195312 L 15.667969 132.632812 L 12.628906 132.632812 L 12.628906 131.152344 L 14.941406 131.152344 L 14.941406 130.589844 L 12.628906 130.589844 L 12.628906 129.195312 L 14.566406 129.195312 L 14.566406 128.652344 Z M 10.105469 128.652344 "/>
<path style=" stroke:none;fill-rule:nonzero;fill:rgb(0%,0%,0%);fill-opacity:1;" d="M 17.355469 126.214844 L 16.960938 126.589844 C 17.542969 127.046875 17.980469 127.484375 18.292969 127.882812 L 18.710938 127.464844 C 18.355469 127.046875 17.898438 126.632812 17.355469 126.214844 Z M 22.003906 133.277344 L 23.835938 133.277344 L 23.980469 132.714844 C 23.773438 132.734375 23.460938 132.734375 23.085938 132.734375 C 22.691406 132.757812 22.292969 132.757812 21.917969 132.757812 C 21.316406 132.757812 20.792969 132.757812 20.378906 132.734375 C 19.917969 132.734375 19.542969 132.671875 19.316406 132.546875 C 19.085938 132.445312 18.878906 132.277344 18.691406 132.046875 C 18.628906 131.984375 18.566406 131.902344 18.503906 131.859375 L 18.503906 128.882812 L 16.816406 128.882812 L 16.816406 129.402344 L 17.960938 129.402344 L 17.960938 131.839844 C 17.648438 131.984375 17.273438 132.382812 16.835938 133.046875 L 17.273438 133.445312 C 17.710938 132.714844 18.023438 132.339844 18.210938 132.339844 C 18.316406 132.339844 18.417969 132.402344 18.523438 132.546875 C 18.773438 132.839844 19.042969 133.027344 19.355469 133.132812 C 19.691406 133.214844 20.085938 133.257812 20.605469 133.277344 C 21.105469 133.277344 21.585938 133.277344 22.003906 133.277344 Z M 19.066406 126.921875 L 19.066406 127.464844 L 20.105469 127.464844 C 19.855469 128.027344 19.542969 128.507812 19.230469 128.882812 L 19.355469 129.421875 L 21.210938 129.421875 L 21.210938 130.359375 L 18.980469 130.359375 L 18.980469 130.902344 L 21.210938 130.902344 L 21.210938 132.402344 L 21.753906 132.402344 L 21.753906 130.902344 L 23.855469 130.902344 L 23.855469 130.359375 L 21.753906 130.359375 L 21.753906 129.421875 L 23.503906 129.421875 L 23.503906 128.882812 L 21.753906 128.882812 L 21.753906 127.945312 L 21.210938 127.945312 L 21.210938 128.882812 L 19.917969 128.882812 C 20.210938 128.464844 20.480469 127.984375 20.710938 127.464844 L 23.753906 127.464844 L 23.753906 126.921875 L 20.941406 126.921875 C 21.042969 126.671875 21.128906 126.421875 21.210938 126.171875 L 20.667969 126.046875 C 20.566406 126.339844 20.460938 126.632812 20.335938 126.921875 Z M 19.066406 126.921875 "/>
<path style=" stroke:none;fill-rule:nonzero;fill:rgb(0%,0%,0%);fill-opacity:1;" d="M 28.566406 127.445312 L 28.085938 127.671875 C 28.273438 127.964844 28.417969 128.277344 28.585938 128.632812 L 27.355469 128.632812 L 27.355469 129.171875 L 31.816406 129.171875 L 31.816406 128.632812 L 30.523438 128.632812 C 30.710938 128.320312 30.878906 127.945312 31.023438 127.546875 L 30.480469 127.359375 C 30.335938 127.796875 30.148438 128.234375 29.917969 128.632812 L 29.128906 128.632812 C 28.960938 128.195312 28.773438 127.796875 28.566406 127.445312 Z M 29.628906 126.046875 L 29.023438 126.152344 C 29.128906 126.339844 29.210938 126.570312 29.292969 126.796875 L 27.542969 126.796875 L 27.542969 127.339844 L 31.691406 127.339844 L 31.691406 126.796875 L 29.878906 126.796875 C 29.792969 126.527344 29.710938 126.277344 29.628906 126.046875 Z M 25.628906 133.359375 C 26.105469 133.359375 26.335938 133.132812 26.335938 132.671875 L 26.335938 130.296875 C 26.566406 130.195312 26.792969 130.089844 27.023438 129.964844 L 27.023438 129.382812 C 26.792969 129.484375 26.566406 129.609375 26.335938 129.714844 L 26.335938 128.171875 L 27.003906 128.171875 L 27.003906 127.632812 L 26.335938 127.632812 L 26.335938 126.109375 L 25.753906 126.109375 L 25.753906 127.632812 L 24.773438 127.632812 L 24.773438 128.171875 L 25.753906 128.171875 L 25.753906 129.964844 C 25.378906 130.109375 25.003906 130.234375 24.628906 130.320312 L 24.773438 130.902344 C 25.105469 130.796875 25.441406 130.671875 25.753906 130.546875 L 25.753906 132.527344 C 25.753906 132.734375 25.648438 132.839844 25.441406 132.839844 C 25.230469 132.839844 25.023438 132.820312 24.816406 132.796875 L 24.941406 133.359375 Z M 28.917969 129.402344 C 28.835938 129.632812 28.730469 129.859375 28.628906 130.089844 L 27.253906 130.089844 L 27.253906 130.652344 L 28.335938 130.652344 C 28.167969 130.964844 27.960938 131.277344 27.753906 131.589844 C 28.316406 131.820312 28.835938 132.046875 29.316406 132.257812 C 28.816406 132.546875 28.105469 132.777344 27.167969 132.945312 L 27.398438 133.464844 C 28.542969 133.234375 29.398438 132.921875 29.917969 132.546875 C 30.566406 132.839844 31.105469 133.152344 31.585938 133.445312 L 31.898438 132.984375 C 31.398438 132.695312 30.878906 132.421875 30.335938 132.152344 C 30.710938 131.757812 30.960938 131.257812 31.066406 130.652344 L 31.960938 130.652344 L 31.960938 130.089844 L 29.210938 130.089844 C 29.292969 129.902344 29.398438 129.695312 29.480469 129.464844 Z M 30.523438 130.652344 C 30.398438 131.171875 30.167969 131.589844 29.792969 131.921875 C 29.378906 131.734375 28.917969 131.546875 28.460938 131.359375 C 28.605469 131.152344 28.773438 130.902344 28.917969 130.652344 Z M 30.523438 130.652344 "/>
<path style=" stroke:none;fill-rule:nonzero;fill:rgb(0%,0%,0%);fill-opacity:1;" d="M 34.917969 129.152344 L 34.917969 129.671875 L 39.273438 129.671875 L 39.273438 129.152344 Z M 34.378906 130.464844 L 34.378906 130.984375 L 36.105469 130.984375 C 35.542969 131.902344 35.085938 132.445312 34.730469 132.652344 C 34.710938 132.671875 34.667969 132.695312 34.605469 132.714844 L 34.753906 133.195312 C 36.253906 133.109375 37.648438 132.964844 38.917969 132.796875 C 39.066406 133.007812 39.210938 133.214844 39.335938 133.421875 L 39.816406 133.089844 C 39.460938 132.570312 38.941406 131.964844 38.292969 131.277344 L 37.855469 131.527344 C 38.105469 131.796875 38.335938 132.070312 38.542969 132.339844 C 37.523438 132.484375 36.480469 132.589844 35.441406 132.671875 C 35.816406 132.339844 36.230469 131.777344 36.730469 130.984375 L 39.792969 130.984375 L 39.792969 130.464844 Z M 38.816406 126.945312 L 38.816406 127.882812 L 34.128906 127.882812 L 34.128906 126.945312 Z M 34.128906 128.402344 L 39.378906 128.402344 L 39.378906 126.421875 L 33.542969 126.421875 L 33.542969 129.070312 C 33.542969 130.671875 33.273438 131.984375 32.710938 133.007812 L 33.128906 133.382812 C 33.792969 132.171875 34.105469 130.734375 34.128906 129.070312 Z M 34.128906 128.402344 "/>
<path style=" stroke:none;fill-rule:nonzero;fill:rgb(40.000001%,74.901962%,100%);fill-opacity:1;" d="M 1.066406 101.199219 L 153.066406 101.199219 L 153.066406 77.863281 L 1.066406 77.863281 Z M 1.066406 101.199219 "/>
<path style="fill:none;stroke-width:1;stroke-linecap:round;stroke-linejoin:round;stroke:rgb(0%,0%,0%);stroke-opacity:1;stroke-miterlimit:10;" d="M 673.799805 366.397461 L 787.799805 366.397461 L 787.799805 383.899414 L 673.799805 383.899414 Z M 673.799805 366.397461 " transform="matrix(1.333333,0,0,1.333333,-897.333333,-410.666667)"/>
<path style=" stroke:none;fill-rule:nonzero;fill:rgb(0%,0%,0%);fill-opacity:1;" d="M 60.628906 84.574219 L 60.023438 85.179688 C 60.898438 85.804688 61.609375 86.410156 62.109375 86.972656 L 62.734375 86.347656 C 62.171875 85.761719 61.460938 85.179688 60.628906 84.574219 Z M 60.335938 87.410156 L 59.734375 87.992188 C 60.566406 88.636719 61.234375 89.242188 61.710938 89.804688 L 62.316406 89.179688 C 61.796875 88.574219 61.128906 87.992188 60.335938 87.410156 Z M 61.859375 90.722656 C 61.316406 92.160156 60.671875 93.554688 59.960938 94.929688 L 60.816406 95.304688 C 61.484375 93.972656 62.085938 92.554688 62.609375 91.035156 Z M 63.191406 86.429688 L 63.191406 87.285156 L 66.316406 87.285156 L 66.316406 90.160156 L 63.523438 90.160156 L 63.523438 90.992188 L 66.316406 90.992188 L 66.316406 94.136719 L 62.898438 94.136719 L 62.898438 94.992188 L 70.523438 94.992188 L 70.523438 94.136719 L 67.191406 94.136719 L 67.191406 90.992188 L 69.960938 90.992188 L 69.960938 90.160156 L 67.191406 90.160156 L 67.191406 87.285156 L 70.296875 87.285156 L 70.296875 86.429688 L 66.710938 86.429688 L 67.210938 86.242188 C 67.023438 85.660156 66.753906 85.035156 66.421875 84.347656 L 65.609375 84.554688 C 65.921875 85.160156 66.191406 85.785156 66.421875 86.429688 Z M 63.191406 86.429688 "/>
<path style=" stroke:none;fill-rule:nonzero;fill:rgb(0%,0%,0%);fill-opacity:1;" d="M 74.359375 85.867188 L 74.734375 86.824219 L 71.859375 86.824219 L 71.859375 87.574219 L 82.273438 87.574219 L 82.273438 86.824219 L 79.296875 86.824219 L 79.753906 85.867188 L 81.710938 85.867188 L 81.710938 85.136719 L 77.484375 85.136719 C 77.359375 84.824219 77.234375 84.535156 77.109375 84.285156 L 76.191406 84.429688 C 76.316406 84.636719 76.421875 84.867188 76.546875 85.136719 L 72.421875 85.136719 L 72.421875 85.867188 Z M 75.628906 86.824219 L 75.253906 85.867188 L 78.859375 85.867188 L 78.378906 86.824219 Z M 73.234375 88.285156 L 73.234375 91.847656 L 80.898438 91.847656 L 80.898438 88.285156 Z M 80.066406 91.160156 L 74.066406 91.160156 L 74.066406 90.367188 L 80.066406 90.367188 Z M 74.066406 89.742188 L 74.066406 88.972656 L 80.066406 88.972656 L 80.066406 89.742188 Z M 72.753906 92.410156 C 72.523438 93.199219 72.148438 93.929688 71.671875 94.574219 L 72.421875 95.054688 C 72.921875 94.347656 73.296875 93.535156 73.585938 92.574219 Z M 78.710938 95.199219 C 79.171875 95.199219 79.484375 95.117188 79.710938 94.972656 C 79.941406 94.785156 80.109375 94.285156 80.191406 93.449219 L 79.378906 93.199219 C 79.335938 93.785156 79.234375 94.160156 79.085938 94.285156 C 79.003906 94.386719 78.816406 94.429688 78.546875 94.429688 L 76.023438 94.429688 C 75.648438 94.429688 75.460938 94.242188 75.460938 93.910156 L 75.460938 92.511719 L 74.566406 92.511719 L 74.566406 94.097656 C 74.566406 94.847656 74.960938 95.199219 75.773438 95.199219 Z M 77.191406 92.054688 L 76.460938 92.511719 C 76.960938 93.035156 77.359375 93.492188 77.648438 93.929688 L 78.359375 93.429688 C 78.109375 93.035156 77.710938 92.574219 77.191406 92.054688 Z M 80.960938 92.285156 L 80.273438 92.722656 C 80.921875 93.511719 81.421875 94.242188 81.816406 94.886719 L 82.523438 94.386719 C 82.171875 93.785156 81.628906 93.097656 80.960938 92.285156 Z M 80.960938 92.285156 "/>
<path style=" stroke:none;fill-rule:nonzero;fill:rgb(0%,0%,0%);fill-opacity:1;" d="M 88.066406 84.429688 L 88.066406 85.636719 C 88.066406 86.035156 88.046875 86.449219 88.023438 86.847656 L 84.460938 86.847656 L 84.460938 87.699219 L 87.941406 87.699219 C 87.816406 89.097656 87.546875 90.304688 87.148438 91.304688 C 86.523438 92.679688 85.421875 93.824219 83.835938 94.660156 L 84.316406 95.386719 C 85.921875 94.574219 87.066406 93.429688 87.796875 91.972656 C 88.316406 90.824219 88.648438 89.410156 88.835938 87.699219 L 92.628906 87.699219 C 92.566406 90.535156 92.421875 92.386719 92.191406 93.261719 C 91.984375 94.097656 91.546875 94.511719 90.859375 94.511719 C 90.421875 94.511719 89.960938 94.492188 89.484375 94.472656 L 89.710938 95.324219 L 91.296875 95.324219 C 91.921875 95.261719 92.359375 95.011719 92.648438 94.535156 C 92.941406 94.035156 93.148438 93.136719 93.273438 91.886719 C 93.378906 90.597656 93.460938 88.929688 93.503906 86.847656 L 88.921875 86.847656 C 88.941406 86.449219 88.941406 86.054688 88.960938 85.636719 L 88.960938 84.429688 Z M 88.066406 84.429688 "/>
<path style=" stroke:none;fill-rule:nonzero;fill:rgb(0%,0%,0%);fill-opacity:1;" d="M 14.773438 186.152344 L 14.773438 190.570312 L 21.941406 190.570312 L 21.941406 186.152344 Z M 21.105469 189.820312 L 15.605469 189.820312 L 15.605469 188.757812 L 21.105469 188.757812 Z M 15.605469 188.027344 L 15.605469 186.925781 L 21.105469 186.925781 L 21.105469 188.027344 Z M 13.417969 182.738281 L 13.417969 183.527344 L 17.128906 183.527344 C 16.191406 184.382812 14.773438 185.089844 12.855469 185.632812 L 13.316406 186.402344 C 15.398438 185.652344 16.941406 184.695312 17.878906 183.527344 L 17.941406 183.527344 L 17.941406 185.777344 L 18.773438 185.777344 L 18.773438 183.527344 L 18.855469 183.527344 C 19.730469 184.714844 21.273438 185.652344 23.417969 186.382812 L 23.792969 185.613281 C 21.898438 185.113281 20.503906 184.402344 19.605469 183.527344 L 23.292969 183.527344 L 23.292969 182.738281 L 18.773438 182.738281 L 18.773438 181.632812 L 17.941406 181.632812 L 17.941406 182.738281 Z M 13.191406 191.507812 L 13.191406 192.320312 L 23.503906 192.320312 L 23.503906 191.507812 Z M 13.191406 191.507812 "/>
<path style=" stroke:none;fill-rule:nonzero;fill:rgb(0%,0%,0%);fill-opacity:1;" d="M 29.417969 185.175781 L 29.417969 190.652344 L 33.085938 190.652344 L 33.085938 185.175781 Z M 32.273438 189.925781 L 30.253906 189.925781 L 30.253906 188.257812 L 32.273438 188.257812 Z M 30.253906 187.527344 L 30.253906 185.902344 L 32.273438 185.902344 L 32.273438 187.527344 Z M 30.210938 181.632812 C 29.855469 183.050781 29.191406 184.238281 28.167969 185.214844 L 28.710938 185.902344 C 29.355469 185.277344 29.898438 184.570312 30.316406 183.757812 L 34.566406 183.757812 C 34.542969 187.652344 34.480469 189.988281 34.398438 190.738281 C 34.316406 191.445312 33.980469 191.800781 33.441406 191.800781 C 33.085938 191.800781 32.667969 191.777344 32.191406 191.757812 L 32.398438 192.527344 C 32.941406 192.550781 33.316406 192.570312 33.542969 192.570312 C 34.542969 192.570312 35.128906 192.070312 35.253906 191.070312 C 35.355469 190.027344 35.417969 187.320312 35.417969 182.945312 L 30.691406 182.945312 C 30.835938 182.570312 30.960938 182.175781 31.066406 181.738281 Z M 26.273438 181.777344 L 25.691406 182.363281 C 26.542969 183.007812 27.210938 183.632812 27.710938 184.238281 L 28.316406 183.632812 C 27.753906 183.007812 27.066406 182.402344 26.273438 181.777344 Z M 24.835938 185.339844 L 24.835938 186.152344 L 26.605469 186.152344 L 26.605469 190.945312 C 26.605469 191.132812 26.503906 191.320312 26.335938 191.464844 L 26.667969 192.238281 C 27.460938 191.695312 28.210938 191.089844 28.898438 190.382812 L 28.667969 189.464844 C 28.230469 189.925781 27.816406 190.320312 27.441406 190.652344 L 27.441406 185.339844 Z M 24.835938 185.339844 "/>
<path style=" stroke:none;fill-rule:nonzero;fill:rgb(0%,0%,0%);fill-opacity:1;" d="M 72.234375 185.964844 L 72.234375 186.214844 L 73.210938 186.214844 L 73.210938 187.695312 L 71.859375 187.695312 L 71.859375 188.488281 L 73.210938 188.488281 L 73.210938 191.214844 C 73.210938 191.402344 73.085938 191.507812 72.878906 191.589844 L 73.234375 192.320312 C 74.023438 192.007812 74.734375 191.632812 75.335938 191.175781 L 75.191406 190.425781 C 74.796875 190.777344 74.378906 191.027344 73.984375 191.257812 L 73.984375 188.488281 L 75.210938 188.488281 L 75.210938 187.695312 L 73.984375 187.695312 L 73.984375 186.214844 L 75.046875 186.214844 L 75.046875 185.445312 L 72.460938 185.445312 C 72.671875 184.945312 72.859375 184.425781 73.023438 183.839844 L 75.066406 183.839844 L 75.066406 183.007812 L 73.253906 183.007812 C 73.335938 182.613281 73.421875 182.195312 73.523438 181.738281 L 72.710938 181.570312 C 72.441406 183.089844 72.046875 184.464844 71.484375 185.714844 L 72.148438 186.152344 C 72.171875 186.089844 72.210938 186.027344 72.234375 185.964844 Z M 81.859375 186.695312 L 81.859375 185.027344 L 82.421875 185.027344 L 82.421875 184.339844 L 81.859375 184.339844 L 81.859375 182.613281 L 80.191406 182.613281 L 80.191406 181.738281 L 79.421875 181.738281 L 79.421875 182.613281 L 78.234375 182.613281 L 78.234375 183.320312 L 79.421875 183.320312 L 79.421875 184.339844 L 77.816406 184.339844 L 77.816406 185.027344 L 79.421875 185.027344 L 79.421875 186.007812 L 78.234375 186.007812 L 78.234375 186.695312 L 79.421875 186.695312 L 79.421875 187.632812 L 78.109375 187.632812 L 78.109375 188.320312 L 79.421875 188.320312 L 79.421875 189.257812 L 77.816406 189.257812 L 77.816406 189.988281 L 79.421875 189.988281 L 79.421875 191.152344 L 80.191406 191.152344 L 80.191406 189.988281 L 82.296875 189.988281 L 82.296875 189.257812 L 80.191406 189.257812 L 80.191406 188.320312 L 82.003906 188.320312 L 82.003906 187.632812 L 80.191406 187.632812 L 80.191406 186.695312 Z M 80.191406 183.320312 L 81.128906 183.320312 L 81.128906 184.339844 L 80.191406 184.339844 Z M 80.191406 185.027344 L 81.128906 185.027344 L 81.128906 186.007812 L 80.191406 186.007812 Z M 80.710938 191.675781 C 79.546875 191.632812 78.691406 191.488281 78.148438 191.214844 C 77.753906 191.050781 77.398438 190.777344 77.085938 190.382812 C 77.460938 189.320312 77.671875 188.050781 77.691406 186.550781 L 77.691406 186.070312 L 76.460938 186.070312 C 76.859375 185.363281 77.253906 184.507812 77.648438 183.507812 L 77.648438 182.800781 L 75.484375 182.800781 L 75.484375 183.527344 L 76.878906 183.527344 C 76.484375 184.488281 76.046875 185.363281 75.566406 186.195312 L 75.566406 186.777344 L 77.003906 186.777344 C 76.941406 187.839844 76.796875 188.777344 76.566406 189.589844 C 76.273438 189.050781 76.046875 188.425781 75.898438 187.714844 L 75.234375 187.945312 C 75.484375 188.964844 75.816406 189.800781 76.234375 190.464844 C 75.984375 191.070312 75.628906 191.589844 75.210938 192.007812 L 75.816406 192.589844 C 76.171875 192.195312 76.503906 191.714844 76.773438 191.175781 C 76.984375 191.425781 77.234375 191.632812 77.523438 191.820312 C 78.148438 192.214844 79.359375 192.445312 81.128906 192.464844 L 82.441406 192.464844 L 82.609375 191.632812 C 82.128906 191.652344 81.503906 191.675781 80.710938 191.675781 Z M 80.710938 191.675781 "/>
<path style=" stroke:none;fill-rule:nonzero;fill:rgb(0%,0%,0%);fill-opacity:1;" d="M 131.191406 181.613281 C 131.171875 182.007812 131.128906 182.402344 131.089844 182.800781 L 127.941406 182.800781 L 127.941406 183.589844 L 131.003906 183.589844 C 130.964844 183.925781 130.902344 184.277344 130.859375 184.632812 L 128.652344 184.632812 L 128.652344 191.507812 L 127.421875 191.507812 L 127.421875 192.300781 L 135.277344 192.300781 L 135.277344 191.507812 L 134.152344 191.507812 L 134.152344 184.632812 L 131.714844 184.632812 C 131.753906 184.300781 131.816406 183.945312 131.859375 183.589844 L 134.941406 183.589844 L 134.941406 182.800781 L 131.964844 182.800781 C 131.984375 182.445312 132.027344 182.089844 132.046875 181.738281 Z M 129.484375 191.507812 L 129.484375 190.464844 L 133.316406 190.464844 L 133.316406 191.507812 Z M 129.484375 189.757812 L 129.484375 188.757812 L 133.316406 188.757812 L 133.316406 189.757812 Z M 129.484375 188.050781 L 129.484375 187.070312 L 133.316406 187.070312 L 133.316406 188.050781 Z M 129.484375 186.382812 L 129.484375 185.402344 L 133.316406 185.402344 L 133.316406 186.382812 Z M 125.941406 185.695312 L 125.941406 192.675781 L 126.777344 192.675781 L 126.777344 184.214844 C 127.128906 183.507812 127.441406 182.757812 127.671875 181.988281 L 126.902344 181.632812 C 126.359375 183.464844 125.503906 185.113281 124.316406 186.550781 L 124.609375 187.464844 C 125.089844 186.902344 125.546875 186.320312 125.941406 185.695312 Z M 125.941406 185.695312 "/>
<path style="fill:none;stroke-width:1;stroke-linecap:round;stroke-linejoin:round;stroke:rgb(0%,0%,0%);stroke-opacity:1;stroke-miterlimit:10;" d="M 713.347656 397.800781 L 748.254883 397.800781 L 748.254883 413.149414 L 713.347656 413.149414 Z M 713.347656 397.800781 " transform="matrix(1.333333,0,0,1.333333,-897.333333,-410.666667)"/>
<path style=" stroke:none;fill-rule:nonzero;fill:rgb(0%,0%,0%);fill-opacity:1;" d="M 64.859375 126.109375 C 63.921875 127.132812 62.753906 127.984375 61.359375 128.652344 L 61.628906 129.152344 C 63.046875 128.445312 64.191406 127.609375 65.066406 126.632812 C 66.003906 127.652344 67.128906 128.484375 68.460938 129.109375 L 68.753906 128.609375 C 67.441406 128.007812 66.273438 127.171875 65.273438 126.109375 Z M 62.835938 128.652344 L 62.835938 129.195312 L 64.773438 129.195312 L 64.773438 130.589844 L 62.441406 130.589844 L 62.441406 131.152344 L 64.773438 131.152344 L 64.773438 132.632812 L 61.734375 132.632812 L 61.734375 133.195312 L 68.398438 133.195312 L 68.398438 132.632812 L 65.359375 132.632812 L 65.359375 131.152344 L 67.671875 131.152344 L 67.671875 130.589844 L 65.359375 130.589844 L 65.359375 129.195312 L 67.296875 129.195312 L 67.296875 128.652344 Z M 62.835938 128.652344 "/>
<path style=" stroke:none;fill-rule:nonzero;fill:rgb(0%,0%,0%);fill-opacity:1;" d="M 70.085938 126.214844 L 69.691406 126.589844 C 70.273438 127.046875 70.710938 127.484375 71.023438 127.882812 L 71.441406 127.464844 C 71.085938 127.046875 70.628906 126.632812 70.085938 126.214844 Z M 74.734375 133.277344 L 76.566406 133.277344 L 76.710938 132.714844 C 76.503906 132.734375 76.191406 132.734375 75.816406 132.734375 C 75.421875 132.757812 75.023438 132.757812 74.648438 132.757812 C 74.046875 132.757812 73.523438 132.757812 73.109375 132.734375 C 72.648438 132.734375 72.273438 132.671875 72.046875 132.546875 C 71.816406 132.445312 71.609375 132.277344 71.421875 132.046875 C 71.359375 131.984375 71.296875 131.902344 71.234375 131.859375 L 71.234375 128.882812 L 69.546875 128.882812 L 69.546875 129.402344 L 70.691406 129.402344 L 70.691406 131.839844 C 70.378906 131.984375 70.003906 132.382812 69.566406 133.046875 L 70.003906 133.445312 C 70.441406 132.714844 70.753906 132.339844 70.941406 132.339844 C 71.046875 132.339844 71.148438 132.402344 71.253906 132.546875 C 71.503906 132.839844 71.773438 133.027344 72.085938 133.132812 C 72.421875 133.214844 72.816406 133.257812 73.335938 133.277344 C 73.835938 133.277344 74.316406 133.277344 74.734375 133.277344 Z M 71.796875 126.921875 L 71.796875 127.464844 L 72.835938 127.464844 C 72.585938 128.027344 72.273438 128.507812 71.960938 128.882812 L 72.085938 129.421875 L 73.941406 129.421875 L 73.941406 130.359375 L 71.710938 130.359375 L 71.710938 130.902344 L 73.941406 130.902344 L 73.941406 132.402344 L 74.484375 132.402344 L 74.484375 130.902344 L 76.585938 130.902344 L 76.585938 130.359375 L 74.484375 130.359375 L 74.484375 129.421875 L 76.234375 129.421875 L 76.234375 128.882812 L 74.484375 128.882812 L 74.484375 127.945312 L 73.941406 127.945312 L 73.941406 128.882812 L 72.648438 128.882812 C 72.941406 128.464844 73.210938 127.984375 73.441406 127.464844 L 76.484375 127.464844 L 76.484375 126.921875 L 73.671875 126.921875 C 73.773438 126.671875 73.859375 126.421875 73.941406 126.171875 L 73.398438 126.046875 C 73.296875 126.339844 73.191406 126.632812 73.066406 126.921875 Z M 71.796875 126.921875 "/>
<path style=" stroke:none;fill-rule:nonzero;fill:rgb(0%,0%,0%);fill-opacity:1;" d="M 81.296875 127.445312 L 80.816406 127.671875 C 81.003906 127.964844 81.148438 128.277344 81.316406 128.632812 L 80.085938 128.632812 L 80.085938 129.171875 L 84.546875 129.171875 L 84.546875 128.632812 L 83.253906 128.632812 C 83.441406 128.320312 83.609375 127.945312 83.753906 127.546875 L 83.210938 127.359375 C 83.066406 127.796875 82.878906 128.234375 82.648438 128.632812 L 81.859375 128.632812 C 81.691406 128.195312 81.503906 127.796875 81.296875 127.445312 Z M 82.359375 126.046875 L 81.753906 126.152344 C 81.859375 126.339844 81.941406 126.570312 82.023438 126.796875 L 80.273438 126.796875 L 80.273438 127.339844 L 84.421875 127.339844 L 84.421875 126.796875 L 82.609375 126.796875 C 82.523438 126.527344 82.441406 126.277344 82.359375 126.046875 Z M 78.359375 133.359375 C 78.835938 133.359375 79.066406 133.132812 79.066406 132.671875 L 79.066406 130.296875 C 79.296875 130.195312 79.523438 130.089844 79.753906 129.964844 L 79.753906 129.382812 C 79.523438 129.484375 79.296875 129.609375 79.066406 129.714844 L 79.066406 128.171875 L 79.734375 128.171875 L 79.734375 127.632812 L 79.066406 127.632812 L 79.066406 126.109375 L 78.484375 126.109375 L 78.484375 127.632812 L 77.503906 127.632812 L 77.503906 128.171875 L 78.484375 128.171875 L 78.484375 129.964844 C 78.109375 130.109375 77.734375 130.234375 77.359375 130.320312 L 77.503906 130.902344 C 77.835938 130.796875 78.171875 130.671875 78.484375 130.546875 L 78.484375 132.527344 C 78.484375 132.734375 78.378906 132.839844 78.171875 132.839844 C 77.960938 132.839844 77.753906 132.820312 77.546875 132.796875 L 77.671875 133.359375 Z M 81.648438 129.402344 C 81.566406 129.632812 81.460938 129.859375 81.359375 130.089844 L 79.984375 130.089844 L 79.984375 130.652344 L 81.066406 130.652344 C 80.898438 130.964844 80.691406 131.277344 80.484375 131.589844 C 81.046875 131.820312 81.566406 132.046875 82.046875 132.257812 C 81.546875 132.546875 80.835938 132.777344 79.898438 132.945312 L 80.128906 133.464844 C 81.273438 133.234375 82.128906 132.921875 82.648438 132.546875 C 83.296875 132.839844 83.835938 133.152344 84.316406 133.445312 L 84.628906 132.984375 C 84.128906 132.695312 83.609375 132.421875 83.066406 132.152344 C 83.441406 131.757812 83.691406 131.257812 83.796875 130.652344 L 84.691406 130.652344 L 84.691406 130.089844 L 81.941406 130.089844 C 82.023438 129.902344 82.128906 129.695312 82.210938 129.464844 Z M 83.253906 130.652344 C 83.128906 131.171875 82.898438 131.589844 82.523438 131.921875 C 82.109375 131.734375 81.648438 131.546875 81.191406 131.359375 C 81.335938 131.152344 81.503906 130.902344 81.648438 130.652344 Z M 83.253906 130.652344 "/>
<path style=" stroke:none;fill-rule:nonzero;fill:rgb(0%,0%,0%);fill-opacity:1;" d="M 87.648438 129.152344 L 87.648438 129.671875 L 92.003906 129.671875 L 92.003906 129.152344 Z M 87.109375 130.464844 L 87.109375 130.984375 L 88.835938 130.984375 C 88.273438 131.902344 87.816406 132.445312 87.460938 132.652344 C 87.441406 132.671875 87.398438 132.695312 87.335938 132.714844 L 87.484375 133.195312 C 88.984375 133.109375 90.378906 132.964844 91.648438 132.796875 C 91.796875 133.007812 91.941406 133.214844 92.066406 133.421875 L 92.546875 133.089844 C 92.191406 132.570312 91.671875 131.964844 91.023438 131.277344 L 90.585938 131.527344 C 90.835938 131.796875 91.066406 132.070312 91.273438 132.339844 C 90.253906 132.484375 89.210938 132.589844 88.171875 132.671875 C 88.546875 132.339844 88.960938 131.777344 89.460938 130.984375 L 92.523438 130.984375 L 92.523438 130.464844 Z M 91.546875 126.945312 L 91.546875 127.882812 L 86.859375 127.882812 L 86.859375 126.945312 Z M 86.859375 128.402344 L 92.109375 128.402344 L 92.109375 126.421875 L 86.273438 126.421875 L 86.273438 129.070312 C 86.273438 130.671875 86.003906 131.984375 85.441406 133.007812 L 85.859375 133.382812 C 86.523438 132.171875 86.835938 130.734375 86.859375 129.070312 Z M 86.859375 128.402344 "/>
<path style="fill:none;stroke-width:1;stroke-linecap:round;stroke-linejoin:round;stroke:rgb(0%,0%,0%);stroke-opacity:1;stroke-miterlimit:10;" d="M 752.895508 397.800781 L 787.799805 397.800781 L 787.799805 413.149414 L 752.895508 413.149414 Z M 752.895508 397.800781 " transform="matrix(1.333333,0,0,1.333333,-897.333333,-410.666667)"/>
<path style=" stroke:none;fill-rule:nonzero;fill:rgb(0%,0%,0%);fill-opacity:1;" d="M 117.589844 126.109375 C 116.652344 127.132812 115.484375 127.984375 114.089844 128.652344 L 114.359375 129.152344 C 115.777344 128.445312 116.921875 127.609375 117.796875 126.632812 C 118.734375 127.652344 119.859375 128.484375 121.191406 129.109375 L 121.484375 128.609375 C 120.171875 128.007812 119.003906 127.171875 118.003906 126.109375 Z M 115.566406 128.652344 L 115.566406 129.195312 L 117.503906 129.195312 L 117.503906 130.589844 L 115.171875 130.589844 L 115.171875 131.152344 L 117.503906 131.152344 L 117.503906 132.632812 L 114.464844 132.632812 L 114.464844 133.195312 L 121.128906 133.195312 L 121.128906 132.632812 L 118.089844 132.632812 L 118.089844 131.152344 L 120.402344 131.152344 L 120.402344 130.589844 L 118.089844 130.589844 L 118.089844 129.195312 L 120.027344 129.195312 L 120.027344 128.652344 Z M 115.566406 128.652344 "/>
<path style=" stroke:none;fill-rule:nonzero;fill:rgb(0%,0%,0%);fill-opacity:1;" d="M 122.816406 126.214844 L 122.421875 126.589844 C 123.003906 127.046875 123.441406 127.484375 123.753906 127.882812 L 124.171875 127.464844 C 123.816406 127.046875 123.359375 126.632812 122.816406 126.214844 Z M 127.464844 133.277344 L 129.296875 133.277344 L 129.441406 132.714844 C 129.234375 132.734375 128.921875 132.734375 128.546875 132.734375 C 128.152344 132.757812 127.753906 132.757812 127.378906 132.757812 C 126.777344 132.757812 126.253906 132.757812 125.839844 132.734375 C 125.378906 132.734375 125.003906 132.671875 124.777344 132.546875 C 124.546875 132.445312 124.339844 132.277344 124.152344 132.046875 C 124.089844 131.984375 124.027344 131.902344 123.964844 131.859375 L 123.964844 128.882812 L 122.277344 128.882812 L 122.277344 129.402344 L 123.421875 129.402344 L 123.421875 131.839844 C 123.109375 131.984375 122.734375 132.382812 122.296875 133.046875 L 122.734375 133.445312 C 123.171875 132.714844 123.484375 132.339844 123.671875 132.339844 C 123.777344 132.339844 123.878906 132.402344 123.984375 132.546875 C 124.234375 132.839844 124.503906 133.027344 124.816406 133.132812 C 125.152344 133.214844 125.546875 133.257812 126.066406 133.277344 C 126.566406 133.277344 127.046875 133.277344 127.464844 133.277344 Z M 124.527344 126.921875 L 124.527344 127.464844 L 125.566406 127.464844 C 125.316406 128.027344 125.003906 128.507812 124.691406 128.882812 L 124.816406 129.421875 L 126.671875 129.421875 L 126.671875 130.359375 L 124.441406 130.359375 L 124.441406 130.902344 L 126.671875 130.902344 L 126.671875 132.402344 L 127.214844 132.402344 L 127.214844 130.902344 L 129.316406 130.902344 L 129.316406 130.359375 L 127.214844 130.359375 L 127.214844 129.421875 L 128.964844 129.421875 L 128.964844 128.882812 L 127.214844 128.882812 L 127.214844 127.945312 L 126.671875 127.945312 L 126.671875 128.882812 L 125.378906 128.882812 C 125.671875 128.464844 125.941406 127.984375 126.171875 127.464844 L 129.214844 127.464844 L 129.214844 126.921875 L 126.402344 126.921875 C 126.503906 126.671875 126.589844 126.421875 126.671875 126.171875 L 126.128906 126.046875 C 126.027344 126.339844 125.921875 126.632812 125.796875 126.921875 Z M 124.527344 126.921875 "/>
<path style=" stroke:none;fill-rule:nonzero;fill:rgb(0%,0%,0%);fill-opacity:1;" d="M 134.027344 127.445312 L 133.546875 127.671875 C 133.734375 127.964844 133.878906 128.277344 134.046875 128.632812 L 132.816406 128.632812 L 132.816406 129.171875 L 137.277344 129.171875 L 137.277344 128.632812 L 135.984375 128.632812 C 136.171875 128.320312 136.339844 127.945312 136.484375 127.546875 L 135.941406 127.359375 C 135.796875 127.796875 135.609375 128.234375 135.378906 128.632812 L 134.589844 128.632812 C 134.421875 128.195312 134.234375 127.796875 134.027344 127.445312 Z M 135.089844 126.046875 L 134.484375 126.152344 C 134.589844 126.339844 134.671875 126.570312 134.753906 126.796875 L 133.003906 126.796875 L 133.003906 127.339844 L 137.152344 127.339844 L 137.152344 126.796875 L 135.339844 126.796875 C 135.253906 126.527344 135.171875 126.277344 135.089844 126.046875 Z M 131.089844 133.359375 C 131.566406 133.359375 131.796875 133.132812 131.796875 132.671875 L 131.796875 130.296875 C 132.027344 130.195312 132.253906 130.089844 132.484375 129.964844 L 132.484375 129.382812 C 132.253906 129.484375 132.027344 129.609375 131.796875 129.714844 L 131.796875 128.171875 L 132.464844 128.171875 L 132.464844 127.632812 L 131.796875 127.632812 L 131.796875 126.109375 L 131.214844 126.109375 L 131.214844 127.632812 L 130.234375 127.632812 L 130.234375 128.171875 L 131.214844 128.171875 L 131.214844 129.964844 C 130.839844 130.109375 130.464844 130.234375 130.089844 130.320312 L 130.234375 130.902344 C 130.566406 130.796875 130.902344 130.671875 131.214844 130.546875 L 131.214844 132.527344 C 131.214844 132.734375 131.109375 132.839844 130.902344 132.839844 C 130.691406 132.839844 130.484375 132.820312 130.277344 132.796875 L 130.402344 133.359375 Z M 134.378906 129.402344 C 134.296875 129.632812 134.191406 129.859375 134.089844 130.089844 L 132.714844 130.089844 L 132.714844 130.652344 L 133.796875 130.652344 C 133.628906 130.964844 133.421875 131.277344 133.214844 131.589844 C 133.777344 131.820312 134.296875 132.046875 134.777344 132.257812 C 134.277344 132.546875 133.566406 132.777344 132.628906 132.945312 L 132.859375 133.464844 C 134.003906 133.234375 134.859375 132.921875 135.378906 132.546875 C 136.027344 132.839844 136.566406 133.152344 137.046875 133.445312 L 137.359375 132.984375 C 136.859375 132.695312 136.339844 132.421875 135.796875 132.152344 C 136.171875 131.757812 136.421875 131.257812 136.527344 130.652344 L 137.421875 130.652344 L 137.421875 130.089844 L 134.671875 130.089844 C 134.753906 129.902344 134.859375 129.695312 134.941406 129.464844 Z M 135.984375 130.652344 C 135.859375 131.171875 135.628906 131.589844 135.253906 131.921875 C 134.839844 131.734375 134.378906 131.546875 133.921875 131.359375 C 134.066406 131.152344 134.234375 130.902344 134.378906 130.652344 Z M 135.984375 130.652344 "/>
<path style=" stroke:none;fill-rule:nonzero;fill:rgb(0%,0%,0%);fill-opacity:1;" d="M 140.378906 129.152344 L 140.378906 129.671875 L 144.734375 129.671875 L 144.734375 129.152344 Z M 139.839844 130.464844 L 139.839844 130.984375 L 141.566406 130.984375 C 141.003906 131.902344 140.546875 132.445312 140.191406 132.652344 C 140.171875 132.671875 140.128906 132.695312 140.066406 132.714844 L 140.214844 133.195312 C 141.714844 133.109375 143.109375 132.964844 144.378906 132.796875 C 144.527344 133.007812 144.671875 133.214844 144.796875 133.421875 L 145.277344 133.089844 C 144.921875 132.570312 144.402344 131.964844 143.753906 131.277344 L 143.316406 131.527344 C 143.566406 131.796875 143.796875 132.070312 144.003906 132.339844 C 142.984375 132.484375 141.941406 132.589844 140.902344 132.671875 C 141.277344 132.339844 141.691406 131.777344 142.191406 130.984375 L 145.253906 130.984375 L 145.253906 130.464844 Z M 144.277344 126.945312 L 144.277344 127.882812 L 139.589844 127.882812 L 139.589844 126.945312 Z M 139.589844 128.402344 L 144.839844 128.402344 L 144.839844 126.421875 L 139.003906 126.421875 L 139.003906 129.070312 C 139.003906 130.671875 138.734375 131.984375 138.171875 133.007812 L 138.589844 133.382812 C 139.253906 132.171875 139.566406 130.734375 139.589844 129.070312 Z M 139.589844 128.402344 "/>
<path style="fill:none;stroke-width:1;stroke-linecap:round;stroke-linejoin:round;stroke:rgb(0%,0%,0%);stroke-opacity:1;stroke-miterlimit:10;" d="M 691.254883 439.601562 L 691.254883 419.046875 " transform="matrix(1.333333,0,0,1.333333,-897.333333,-410.666667)"/>
<path style="fill:none;stroke-width:1;stroke-linecap:butt;stroke-linejoin:miter;stroke:rgb(0%,0%,0%);stroke-opacity:1;stroke-miterlimit:10;" d="M 691.254883 415.047852 L 691.254883 419.046875 M 689.754883 419.046875 L 691.254883 415.047852 L 692.754883 419.046875 " transform="matrix(1.333333,0,0,1.333333,-897.333333,-410.666667)"/>
<path style="fill:none;stroke-width:1;stroke-linecap:round;stroke-linejoin:round;stroke:rgb(0%,0%,0%);stroke-opacity:1;stroke-miterlimit:10;" d="M 691.254883 397.800781 L 691.254883 389.799805 " transform="matrix(1.333333,0,0,1.333333,-897.333333,-410.666667)"/>
<path style="fill:none;stroke-width:1;stroke-linecap:butt;stroke-linejoin:miter;stroke:rgb(0%,0%,0%);stroke-opacity:1;stroke-miterlimit:10;" d="M 691.254883 385.800781 L 691.254883 389.799805 M 689.754883 389.799805 L 691.254883 385.800781 L 692.754883 389.799805 " transform="matrix(1.333333,0,0,1.333333,-897.333333,-410.666667)"/>
<path style="fill:none;stroke-width:1;stroke-linecap:round;stroke-linejoin:round;stroke:rgb(0%,0%,0%);stroke-opacity:1;stroke-miterlimit:10;" d="M 730.799805 397.800781 L 730.799805 389.799805 " transform="matrix(1.333333,0,0,1.333333,-897.333333,-410.666667)"/>
<path style="fill:none;stroke-width:1;stroke-linecap:butt;stroke-linejoin:miter;stroke:rgb(0%,0%,0%);stroke-opacity:1;stroke-miterlimit:10;" d="M 730.799805 385.800781 L 730.799805 389.799805 M 729.299805 389.799805 L 730.799805 385.800781 L 732.299805 389.799805 " transform="matrix(1.333333,0,0,1.333333,-897.333333,-410.666667)"/>
<path style="fill:none;stroke-width:1;stroke-linecap:round;stroke-linejoin:round;stroke:rgb(0%,0%,0%);stroke-opacity:1;stroke-miterlimit:10;" d="M 770.347656 397.800781 L 770.347656 389.799805 " transform="matrix(1.333333,0,0,1.333333,-897.333333,-410.666667)"/>
<path style="fill:none;stroke-width:1;stroke-linecap:butt;stroke-linejoin:miter;stroke:rgb(0%,0%,0%);stroke-opacity:1;stroke-miterlimit:10;" d="M 770.347656 385.800781 L 770.347656 389.799805 M 768.847656 389.799805 L 770.347656 385.800781 L 771.847656 389.799805 " transform="matrix(1.333333,0,0,1.333333,-897.333333,-410.666667)"/>
<path style=" stroke:none;fill-rule:nonzero;fill:rgb(0%,0%,0%);fill-opacity:1;" d="M 181.339844 110.667969 L 181.339844 109.0625 L 182.945312 109.0625 L 182.945312 110.667969 Z M 186.675781 110.667969 L 186.675781 109.0625 L 188.277344 109.0625 L 188.277344 110.667969 Z M 192.007812 110.667969 L 192.007812 109.0625 L 193.613281 109.0625 L 193.613281 110.667969 Z M 192.007812 110.667969 "/>
<path style="fill:none;stroke-width:1;stroke-linecap:round;stroke-linejoin:round;stroke:rgb(0%,0%,0%);stroke-opacity:1;stroke-miterlimit:10;" d="M 839.397461 397.800781 L 874.304688 397.800781 L 874.304688 413.149414 L 839.397461 413.149414 Z M 839.397461 397.800781 " transform="matrix(1.333333,0,0,1.333333,-897.333333,-410.666667)"/>
<path style=" stroke:none;fill-rule:nonzero;fill:rgb(0%,0%,0%);fill-opacity:1;" d="M 232.929688 126.109375 C 231.992188 127.132812 230.824219 127.984375 229.429688 128.652344 L 229.699219 129.152344 C 231.117188 128.445312 232.261719 127.609375 233.136719 126.632812 C 234.074219 127.652344 235.199219 128.484375 236.53125 129.109375 L 236.824219 128.609375 C 235.511719 128.007812 234.34375 127.171875 233.34375 126.109375 Z M 230.90625 128.652344 L 230.90625 129.195312 L 232.84375 129.195312 L 232.84375 130.589844 L 230.511719 130.589844 L 230.511719 131.152344 L 232.84375 131.152344 L 232.84375 132.632812 L 229.804688 132.632812 L 229.804688 133.195312 L 236.46875 133.195312 L 236.46875 132.632812 L 233.429688 132.632812 L 233.429688 131.152344 L 235.742188 131.152344 L 235.742188 130.589844 L 233.429688 130.589844 L 233.429688 129.195312 L 235.367188 129.195312 L 235.367188 128.652344 Z M 230.90625 128.652344 "/>
<path style=" stroke:none;fill-rule:nonzero;fill:rgb(0%,0%,0%);fill-opacity:1;" d="M 238.15625 126.214844 L 237.761719 126.589844 C 238.34375 127.046875 238.78125 127.484375 239.09375 127.882812 L 239.511719 127.464844 C 239.15625 127.046875 238.699219 126.632812 238.15625 126.214844 Z M 242.804688 133.277344 L 244.636719 133.277344 L 244.78125 132.714844 C 244.574219 132.734375 244.261719 132.734375 243.886719 132.734375 C 243.492188 132.757812 243.09375 132.757812 242.71875 132.757812 C 242.117188 132.757812 241.59375 132.757812 241.179688 132.734375 C 240.71875 132.734375 240.34375 132.671875 240.117188 132.546875 C 239.886719 132.445312 239.679688 132.277344 239.492188 132.046875 C 239.429688 131.984375 239.367188 131.902344 239.304688 131.859375 L 239.304688 128.882812 L 237.617188 128.882812 L 237.617188 129.402344 L 238.761719 129.402344 L 238.761719 131.839844 C 238.449219 131.984375 238.074219 132.382812 237.636719 133.046875 L 238.074219 133.445312 C 238.511719 132.714844 238.824219 132.339844 239.011719 132.339844 C 239.117188 132.339844 239.21875 132.402344 239.324219 132.546875 C 239.574219 132.839844 239.84375 133.027344 240.15625 133.132812 C 240.492188 133.214844 240.886719 133.257812 241.40625 133.277344 C 241.90625 133.277344 242.386719 133.277344 242.804688 133.277344 Z M 239.867188 126.921875 L 239.867188 127.464844 L 240.90625 127.464844 C 240.65625 128.027344 240.34375 128.507812 240.03125 128.882812 L 240.15625 129.421875 L 242.011719 129.421875 L 242.011719 130.359375 L 239.78125 130.359375 L 239.78125 130.902344 L 242.011719 130.902344 L 242.011719 132.402344 L 242.554688 132.402344 L 242.554688 130.902344 L 244.65625 130.902344 L 244.65625 130.359375 L 242.554688 130.359375 L 242.554688 129.421875 L 244.304688 129.421875 L 244.304688 128.882812 L 242.554688 128.882812 L 242.554688 127.945312 L 242.011719 127.945312 L 242.011719 128.882812 L 240.71875 128.882812 C 241.011719 128.464844 241.28125 127.984375 241.511719 127.464844 L 244.554688 127.464844 L 244.554688 126.921875 L 241.742188 126.921875 C 241.84375 126.671875 241.929688 126.421875 242.011719 126.171875 L 241.46875 126.046875 C 241.367188 126.339844 241.261719 126.632812 241.136719 126.921875 Z M 239.867188 126.921875 "/>
<path style=" stroke:none;fill-rule:nonzero;fill:rgb(0%,0%,0%);fill-opacity:1;" d="M 249.367188 127.445312 L 248.886719 127.671875 C 249.074219 127.964844 249.21875 128.277344 249.386719 128.632812 L 248.15625 128.632812 L 248.15625 129.171875 L 252.617188 129.171875 L 252.617188 128.632812 L 251.324219 128.632812 C 251.511719 128.320312 251.679688 127.945312 251.824219 127.546875 L 251.28125 127.359375 C 251.136719 127.796875 250.949219 128.234375 250.71875 128.632812 L 249.929688 128.632812 C 249.761719 128.195312 249.574219 127.796875 249.367188 127.445312 Z M 250.429688 126.046875 L 249.824219 126.152344 C 249.929688 126.339844 250.011719 126.570312 250.09375 126.796875 L 248.34375 126.796875 L 248.34375 127.339844 L 252.492188 127.339844 L 252.492188 126.796875 L 250.679688 126.796875 C 250.59375 126.527344 250.511719 126.277344 250.429688 126.046875 Z M 246.429688 133.359375 C 246.90625 133.359375 247.136719 133.132812 247.136719 132.671875 L 247.136719 130.296875 C 247.367188 130.195312 247.59375 130.089844 247.824219 129.964844 L 247.824219 129.382812 C 247.59375 129.484375 247.367188 129.609375 247.136719 129.714844 L 247.136719 128.171875 L 247.804688 128.171875 L 247.804688 127.632812 L 247.136719 127.632812 L 247.136719 126.109375 L 246.554688 126.109375 L 246.554688 127.632812 L 245.574219 127.632812 L 245.574219 128.171875 L 246.554688 128.171875 L 246.554688 129.964844 C 246.179688 130.109375 245.804688 130.234375 245.429688 130.320312 L 245.574219 130.902344 C 245.90625 130.796875 246.242188 130.671875 246.554688 130.546875 L 246.554688 132.527344 C 246.554688 132.734375 246.449219 132.839844 246.242188 132.839844 C 246.03125 132.839844 245.824219 132.820312 245.617188 132.796875 L 245.742188 133.359375 Z M 249.71875 129.402344 C 249.636719 129.632812 249.53125 129.859375 249.429688 130.089844 L 248.054688 130.089844 L 248.054688 130.652344 L 249.136719 130.652344 C 248.96875 130.964844 248.761719 131.277344 248.554688 131.589844 C 249.117188 131.820312 249.636719 132.046875 250.117188 132.257812 C 249.617188 132.546875 248.90625 132.777344 247.96875 132.945312 L 248.199219 133.464844 C 249.34375 133.234375 250.199219 132.921875 250.71875 132.546875 C 251.367188 132.839844 251.90625 133.152344 252.386719 133.445312 L 252.699219 132.984375 C 252.199219 132.695312 251.679688 132.421875 251.136719 132.152344 C 251.511719 131.757812 251.761719 131.257812 251.867188 130.652344 L 252.761719 130.652344 L 252.761719 130.089844 L 250.011719 130.089844 C 250.09375 129.902344 250.199219 129.695312 250.28125 129.464844 Z M 251.324219 130.652344 C 251.199219 131.171875 250.96875 131.589844 250.59375 131.921875 C 250.179688 131.734375 249.71875 131.546875 249.261719 131.359375 C 249.40625 131.152344 249.574219 130.902344 249.71875 130.652344 Z M 251.324219 130.652344 "/>
<path style=" stroke:none;fill-rule:nonzero;fill:rgb(0%,0%,0%);fill-opacity:1;" d="M 255.71875 129.152344 L 255.71875 129.671875 L 260.074219 129.671875 L 260.074219 129.152344 Z M 255.179688 130.464844 L 255.179688 130.984375 L 256.90625 130.984375 C 256.34375 131.902344 255.886719 132.445312 255.53125 132.652344 C 255.511719 132.671875 255.46875 132.695312 255.40625 132.714844 L 255.554688 133.195312 C 257.054688 133.109375 258.449219 132.964844 259.71875 132.796875 C 259.867188 133.007812 260.011719 133.214844 260.136719 133.421875 L 260.617188 133.089844 C 260.261719 132.570312 259.742188 131.964844 259.09375 131.277344 L 258.65625 131.527344 C 258.90625 131.796875 259.136719 132.070312 259.34375 132.339844 C 258.324219 132.484375 257.28125 132.589844 256.242188 132.671875 C 256.617188 132.339844 257.03125 131.777344 257.53125 130.984375 L 260.59375 130.984375 L 260.59375 130.464844 Z M 259.617188 126.945312 L 259.617188 127.882812 L 254.929688 127.882812 L 254.929688 126.945312 Z M 254.929688 128.402344 L 260.179688 128.402344 L 260.179688 126.421875 L 254.34375 126.421875 L 254.34375 129.070312 C 254.34375 130.671875 254.074219 131.984375 253.511719 133.007812 L 253.929688 133.382812 C 254.59375 132.171875 254.90625 130.734375 254.929688 129.070312 Z M 254.929688 128.402344 "/>
<path style=" stroke:none;fill-rule:nonzero;fill:rgb(40.000001%,74.901962%,100%);fill-opacity:1;" d="M 221.863281 101.199219 L 373.863281 101.199219 L 373.863281 77.863281 L 221.863281 77.863281 Z M 221.863281 101.199219 "/>
<path style="fill:none;stroke-width:1;stroke-linecap:round;stroke-linejoin:round;stroke:rgb(0%,0%,0%);stroke-opacity:1;stroke-miterlimit:10;" d="M 839.397461 366.397461 L 953.397461 366.397461 L 953.397461 383.899414 L 839.397461 383.899414 Z M 839.397461 366.397461 " transform="matrix(1.333333,0,0,1.333333,-897.333333,-410.666667)"/>
<path style=" stroke:none;fill-rule:nonzero;fill:rgb(0%,0%,0%);fill-opacity:1;" d="M 281.429688 84.574219 L 280.824219 85.179688 C 281.699219 85.804688 282.410156 86.410156 282.910156 86.972656 L 283.535156 86.347656 C 282.972656 85.761719 282.261719 85.179688 281.429688 84.574219 Z M 281.136719 87.410156 L 280.535156 87.992188 C 281.367188 88.636719 282.035156 89.242188 282.511719 89.804688 L 283.117188 89.179688 C 282.597656 88.574219 281.929688 87.992188 281.136719 87.410156 Z M 282.660156 90.722656 C 282.117188 92.160156 281.472656 93.554688 280.761719 94.929688 L 281.617188 95.304688 C 282.285156 93.972656 282.886719 92.554688 283.410156 91.035156 Z M 283.992188 86.429688 L 283.992188 87.285156 L 287.117188 87.285156 L 287.117188 90.160156 L 284.324219 90.160156 L 284.324219 90.992188 L 287.117188 90.992188 L 287.117188 94.136719 L 283.699219 94.136719 L 283.699219 94.992188 L 291.324219 94.992188 L 291.324219 94.136719 L 287.992188 94.136719 L 287.992188 90.992188 L 290.761719 90.992188 L 290.761719 90.160156 L 287.992188 90.160156 L 287.992188 87.285156 L 291.097656 87.285156 L 291.097656 86.429688 L 287.511719 86.429688 L 288.011719 86.242188 C 287.824219 85.660156 287.554688 85.035156 287.222656 84.347656 L 286.410156 84.554688 C 286.722656 85.160156 286.992188 85.785156 287.222656 86.429688 Z M 283.992188 86.429688 "/>
<path style=" stroke:none;fill-rule:nonzero;fill:rgb(0%,0%,0%);fill-opacity:1;" d="M 295.160156 85.867188 L 295.535156 86.824219 L 292.660156 86.824219 L 292.660156 87.574219 L 303.074219 87.574219 L 303.074219 86.824219 L 300.097656 86.824219 L 300.554688 85.867188 L 302.511719 85.867188 L 302.511719 85.136719 L 298.285156 85.136719 C 298.160156 84.824219 298.035156 84.535156 297.910156 84.285156 L 296.992188 84.429688 C 297.117188 84.636719 297.222656 84.867188 297.347656 85.136719 L 293.222656 85.136719 L 293.222656 85.867188 Z M 296.429688 86.824219 L 296.054688 85.867188 L 299.660156 85.867188 L 299.179688 86.824219 Z M 294.035156 88.285156 L 294.035156 91.847656 L 301.699219 91.847656 L 301.699219 88.285156 Z M 300.867188 91.160156 L 294.867188 91.160156 L 294.867188 90.367188 L 300.867188 90.367188 Z M 294.867188 89.742188 L 294.867188 88.972656 L 300.867188 88.972656 L 300.867188 89.742188 Z M 293.554688 92.410156 C 293.324219 93.199219 292.949219 93.929688 292.472656 94.574219 L 293.222656 95.054688 C 293.722656 94.347656 294.097656 93.535156 294.386719 92.574219 Z M 299.511719 95.199219 C 299.972656 95.199219 300.285156 95.117188 300.511719 94.972656 C 300.742188 94.785156 300.910156 94.285156 300.992188 93.449219 L 300.179688 93.199219 C 300.136719 93.785156 300.035156 94.160156 299.886719 94.285156 C 299.804688 94.386719 299.617188 94.429688 299.347656 94.429688 L 296.824219 94.429688 C 296.449219 94.429688 296.261719 94.242188 296.261719 93.910156 L 296.261719 92.511719 L 295.367188 92.511719 L 295.367188 94.097656 C 295.367188 94.847656 295.761719 95.199219 296.574219 95.199219 Z M 297.992188 92.054688 L 297.261719 92.511719 C 297.761719 93.035156 298.160156 93.492188 298.449219 93.929688 L 299.160156 93.429688 C 298.910156 93.035156 298.511719 92.574219 297.992188 92.054688 Z M 301.761719 92.285156 L 301.074219 92.722656 C 301.722656 93.511719 302.222656 94.242188 302.617188 94.886719 L 303.324219 94.386719 C 302.972656 93.785156 302.429688 93.097656 301.761719 92.285156 Z M 301.761719 92.285156 "/>
<path style=" stroke:none;fill-rule:nonzero;fill:rgb(0%,0%,0%);fill-opacity:1;" d="M 308.867188 84.429688 L 308.867188 85.636719 C 308.867188 86.035156 308.847656 86.449219 308.824219 86.847656 L 305.261719 86.847656 L 305.261719 87.699219 L 308.742188 87.699219 C 308.617188 89.097656 308.347656 90.304688 307.949219 91.304688 C 307.324219 92.679688 306.222656 93.824219 304.636719 94.660156 L 305.117188 95.386719 C 306.722656 94.574219 307.867188 93.429688 308.597656 91.972656 C 309.117188 90.824219 309.449219 89.410156 309.636719 87.699219 L 313.429688 87.699219 C 313.367188 90.535156 313.222656 92.386719 312.992188 93.261719 C 312.785156 94.097656 312.347656 94.511719 311.660156 94.511719 C 311.222656 94.511719 310.761719 94.492188 310.285156 94.472656 L 310.511719 95.324219 L 312.097656 95.324219 C 312.722656 95.261719 313.160156 95.011719 313.449219 94.535156 C 313.742188 94.035156 313.949219 93.136719 314.074219 91.886719 C 314.179688 90.597656 314.261719 88.929688 314.304688 86.847656 L 309.722656 86.847656 C 309.742188 86.449219 309.742188 86.054688 309.761719 85.636719 L 309.761719 84.429688 Z M 308.867188 84.429688 "/>
<path style="fill:none;stroke-width:1;stroke-linecap:round;stroke-linejoin:round;stroke:rgb(0%,0%,0%);stroke-opacity:1;stroke-miterlimit:10;" d="M 878.948242 397.800781 L 913.852539 397.800781 L 913.852539 413.149414 L 878.948242 413.149414 Z M 878.948242 397.800781 " transform="matrix(1.333333,0,0,1.333333,-897.333333,-410.666667)"/>
<path style=" stroke:none;fill-rule:nonzero;fill:rgb(0%,0%,0%);fill-opacity:1;" d="M 285.660156 126.109375 C 284.722656 127.132812 283.554688 127.984375 282.160156 128.652344 L 282.429688 129.152344 C 283.847656 128.445312 284.992188 127.609375 285.867188 126.632812 C 286.804688 127.652344 287.929688 128.484375 289.261719 129.109375 L 289.554688 128.609375 C 288.242188 128.007812 287.074219 127.171875 286.074219 126.109375 Z M 283.636719 128.652344 L 283.636719 129.195312 L 285.574219 129.195312 L 285.574219 130.589844 L 283.242188 130.589844 L 283.242188 131.152344 L 285.574219 131.152344 L 285.574219 132.632812 L 282.535156 132.632812 L 282.535156 133.195312 L 289.199219 133.195312 L 289.199219 132.632812 L 286.160156 132.632812 L 286.160156 131.152344 L 288.472656 131.152344 L 288.472656 130.589844 L 286.160156 130.589844 L 286.160156 129.195312 L 288.097656 129.195312 L 288.097656 128.652344 Z M 283.636719 128.652344 "/>
<path style=" stroke:none;fill-rule:nonzero;fill:rgb(0%,0%,0%);fill-opacity:1;" d="M 290.886719 126.214844 L 290.492188 126.589844 C 291.074219 127.046875 291.511719 127.484375 291.824219 127.882812 L 292.242188 127.464844 C 291.886719 127.046875 291.429688 126.632812 290.886719 126.214844 Z M 295.535156 133.277344 L 297.367188 133.277344 L 297.511719 132.714844 C 297.304688 132.734375 296.992188 132.734375 296.617188 132.734375 C 296.222656 132.757812 295.824219 132.757812 295.449219 132.757812 C 294.847656 132.757812 294.324219 132.757812 293.910156 132.734375 C 293.449219 132.734375 293.074219 132.671875 292.847656 132.546875 C 292.617188 132.445312 292.410156 132.277344 292.222656 132.046875 C 292.160156 131.984375 292.097656 131.902344 292.035156 131.859375 L 292.035156 128.882812 L 290.347656 128.882812 L 290.347656 129.402344 L 291.492188 129.402344 L 291.492188 131.839844 C 291.179688 131.984375 290.804688 132.382812 290.367188 133.046875 L 290.804688 133.445312 C 291.242188 132.714844 291.554688 132.339844 291.742188 132.339844 C 291.847656 132.339844 291.949219 132.402344 292.054688 132.546875 C 292.304688 132.839844 292.574219 133.027344 292.886719 133.132812 C 293.222656 133.214844 293.617188 133.257812 294.136719 133.277344 C 294.636719 133.277344 295.117188 133.277344 295.535156 133.277344 Z M 292.597656 126.921875 L 292.597656 127.464844 L 293.636719 127.464844 C 293.386719 128.027344 293.074219 128.507812 292.761719 128.882812 L 292.886719 129.421875 L 294.742188 129.421875 L 294.742188 130.359375 L 292.511719 130.359375 L 292.511719 130.902344 L 294.742188 130.902344 L 294.742188 132.402344 L 295.285156 132.402344 L 295.285156 130.902344 L 297.386719 130.902344 L 297.386719 130.359375 L 295.285156 130.359375 L 295.285156 129.421875 L 297.035156 129.421875 L 297.035156 128.882812 L 295.285156 128.882812 L 295.285156 127.945312 L 294.742188 127.945312 L 294.742188 128.882812 L 293.449219 128.882812 C 293.742188 128.464844 294.011719 127.984375 294.242188 127.464844 L 297.285156 127.464844 L 297.285156 126.921875 L 294.472656 126.921875 C 294.574219 126.671875 294.660156 126.421875 294.742188 126.171875 L 294.199219 126.046875 C 294.097656 126.339844 293.992188 126.632812 293.867188 126.921875 Z M 292.597656 126.921875 "/>
<path style=" stroke:none;fill-rule:nonzero;fill:rgb(0%,0%,0%);fill-opacity:1;" d="M 302.097656 127.445312 L 301.617188 127.671875 C 301.804688 127.964844 301.949219 128.277344 302.117188 128.632812 L 300.886719 128.632812 L 300.886719 129.171875 L 305.347656 129.171875 L 305.347656 128.632812 L 304.054688 128.632812 C 304.242188 128.320312 304.410156 127.945312 304.554688 127.546875 L 304.011719 127.359375 C 303.867188 127.796875 303.679688 128.234375 303.449219 128.632812 L 302.660156 128.632812 C 302.492188 128.195312 302.304688 127.796875 302.097656 127.445312 Z M 303.160156 126.046875 L 302.554688 126.152344 C 302.660156 126.339844 302.742188 126.570312 302.824219 126.796875 L 301.074219 126.796875 L 301.074219 127.339844 L 305.222656 127.339844 L 305.222656 126.796875 L 303.410156 126.796875 C 303.324219 126.527344 303.242188 126.277344 303.160156 126.046875 Z M 299.160156 133.359375 C 299.636719 133.359375 299.867188 133.132812 299.867188 132.671875 L 299.867188 130.296875 C 300.097656 130.195312 300.324219 130.089844 300.554688 129.964844 L 300.554688 129.382812 C 300.324219 129.484375 300.097656 129.609375 299.867188 129.714844 L 299.867188 128.171875 L 300.535156 128.171875 L 300.535156 127.632812 L 299.867188 127.632812 L 299.867188 126.109375 L 299.285156 126.109375 L 299.285156 127.632812 L 298.304688 127.632812 L 298.304688 128.171875 L 299.285156 128.171875 L 299.285156 129.964844 C 298.910156 130.109375 298.535156 130.234375 298.160156 130.320312 L 298.304688 130.902344 C 298.636719 130.796875 298.972656 130.671875 299.285156 130.546875 L 299.285156 132.527344 C 299.285156 132.734375 299.179688 132.839844 298.972656 132.839844 C 298.761719 132.839844 298.554688 132.820312 298.347656 132.796875 L 298.472656 133.359375 Z M 302.449219 129.402344 C 302.367188 129.632812 302.261719 129.859375 302.160156 130.089844 L 300.785156 130.089844 L 300.785156 130.652344 L 301.867188 130.652344 C 301.699219 130.964844 301.492188 131.277344 301.285156 131.589844 C 301.847656 131.820312 302.367188 132.046875 302.847656 132.257812 C 302.347656 132.546875 301.636719 132.777344 300.699219 132.945312 L 300.929688 133.464844 C 302.074219 133.234375 302.929688 132.921875 303.449219 132.546875 C 304.097656 132.839844 304.636719 133.152344 305.117188 133.445312 L 305.429688 132.984375 C 304.929688 132.695312 304.410156 132.421875 303.867188 132.152344 C 304.242188 131.757812 304.492188 131.257812 304.597656 130.652344 L 305.492188 130.652344 L 305.492188 130.089844 L 302.742188 130.089844 C 302.824219 129.902344 302.929688 129.695312 303.011719 129.464844 Z M 304.054688 130.652344 C 303.929688 131.171875 303.699219 131.589844 303.324219 131.921875 C 302.910156 131.734375 302.449219 131.546875 301.992188 131.359375 C 302.136719 131.152344 302.304688 130.902344 302.449219 130.652344 Z M 304.054688 130.652344 "/>
<path style=" stroke:none;fill-rule:nonzero;fill:rgb(0%,0%,0%);fill-opacity:1;" d="M 308.449219 129.152344 L 308.449219 129.671875 L 312.804688 129.671875 L 312.804688 129.152344 Z M 307.910156 130.464844 L 307.910156 130.984375 L 309.636719 130.984375 C 309.074219 131.902344 308.617188 132.445312 308.261719 132.652344 C 308.242188 132.671875 308.199219 132.695312 308.136719 132.714844 L 308.285156 133.195312 C 309.785156 133.109375 311.179688 132.964844 312.449219 132.796875 C 312.597656 133.007812 312.742188 133.214844 312.867188 133.421875 L 313.347656 133.089844 C 312.992188 132.570312 312.472656 131.964844 311.824219 131.277344 L 311.386719 131.527344 C 311.636719 131.796875 311.867188 132.070312 312.074219 132.339844 C 311.054688 132.484375 310.011719 132.589844 308.972656 132.671875 C 309.347656 132.339844 309.761719 131.777344 310.261719 130.984375 L 313.324219 130.984375 L 313.324219 130.464844 Z M 312.347656 126.945312 L 312.347656 127.882812 L 307.660156 127.882812 L 307.660156 126.945312 Z M 307.660156 128.402344 L 312.910156 128.402344 L 312.910156 126.421875 L 307.074219 126.421875 L 307.074219 129.070312 C 307.074219 130.671875 306.804688 131.984375 306.242188 133.007812 L 306.660156 133.382812 C 307.324219 132.171875 307.636719 130.734375 307.660156 129.070312 Z M 307.660156 128.402344 "/>
<path style="fill:none;stroke-width:1;stroke-linecap:round;stroke-linejoin:round;stroke:rgb(0%,0%,0%);stroke-opacity:1;stroke-miterlimit:10;" d="M 918.496094 397.800781 L 953.397461 397.800781 L 953.397461 413.149414 L 918.496094 413.149414 Z M 918.496094 397.800781 " transform="matrix(1.333333,0,0,1.333333,-897.333333,-410.666667)"/>
<path style=" stroke:none;fill-rule:nonzero;fill:rgb(0%,0%,0%);fill-opacity:1;" d="M 338.390625 126.109375 C 337.453125 127.132812 336.285156 127.984375 334.890625 128.652344 L 335.160156 129.152344 C 336.578125 128.445312 337.722656 127.609375 338.597656 126.632812 C 339.535156 127.652344 340.660156 128.484375 341.992188 129.109375 L 342.285156 128.609375 C 340.972656 128.007812 339.804688 127.171875 338.804688 126.109375 Z M 336.367188 128.652344 L 336.367188 129.195312 L 338.304688 129.195312 L 338.304688 130.589844 L 335.972656 130.589844 L 335.972656 131.152344 L 338.304688 131.152344 L 338.304688 132.632812 L 335.265625 132.632812 L 335.265625 133.195312 L 341.929688 133.195312 L 341.929688 132.632812 L 338.890625 132.632812 L 338.890625 131.152344 L 341.203125 131.152344 L 341.203125 130.589844 L 338.890625 130.589844 L 338.890625 129.195312 L 340.828125 129.195312 L 340.828125 128.652344 Z M 336.367188 128.652344 "/>
<path style=" stroke:none;fill-rule:nonzero;fill:rgb(0%,0%,0%);fill-opacity:1;" d="M 343.617188 126.214844 L 343.222656 126.589844 C 343.804688 127.046875 344.242188 127.484375 344.554688 127.882812 L 344.972656 127.464844 C 344.617188 127.046875 344.160156 126.632812 343.617188 126.214844 Z M 348.265625 133.277344 L 350.097656 133.277344 L 350.242188 132.714844 C 350.035156 132.734375 349.722656 132.734375 349.347656 132.734375 C 348.953125 132.757812 348.554688 132.757812 348.179688 132.757812 C 347.578125 132.757812 347.054688 132.757812 346.640625 132.734375 C 346.179688 132.734375 345.804688 132.671875 345.578125 132.546875 C 345.347656 132.445312 345.140625 132.277344 344.953125 132.046875 C 344.890625 131.984375 344.828125 131.902344 344.765625 131.859375 L 344.765625 128.882812 L 343.078125 128.882812 L 343.078125 129.402344 L 344.222656 129.402344 L 344.222656 131.839844 C 343.910156 131.984375 343.535156 132.382812 343.097656 133.046875 L 343.535156 133.445312 C 343.972656 132.714844 344.285156 132.339844 344.472656 132.339844 C 344.578125 132.339844 344.679688 132.402344 344.785156 132.546875 C 345.035156 132.839844 345.304688 133.027344 345.617188 133.132812 C 345.953125 133.214844 346.347656 133.257812 346.867188 133.277344 C 347.367188 133.277344 347.847656 133.277344 348.265625 133.277344 Z M 345.328125 126.921875 L 345.328125 127.464844 L 346.367188 127.464844 C 346.117188 128.027344 345.804688 128.507812 345.492188 128.882812 L 345.617188 129.421875 L 347.472656 129.421875 L 347.472656 130.359375 L 345.242188 130.359375 L 345.242188 130.902344 L 347.472656 130.902344 L 347.472656 132.402344 L 348.015625 132.402344 L 348.015625 130.902344 L 350.117188 130.902344 L 350.117188 130.359375 L 348.015625 130.359375 L 348.015625 129.421875 L 349.765625 129.421875 L 349.765625 128.882812 L 348.015625 128.882812 L 348.015625 127.945312 L 347.472656 127.945312 L 347.472656 128.882812 L 346.179688 128.882812 C 346.472656 128.464844 346.742188 127.984375 346.972656 127.464844 L 350.015625 127.464844 L 350.015625 126.921875 L 347.203125 126.921875 C 347.304688 126.671875 347.390625 126.421875 347.472656 126.171875 L 346.929688 126.046875 C 346.828125 126.339844 346.722656 126.632812 346.597656 126.921875 Z M 345.328125 126.921875 "/>
<path style=" stroke:none;fill-rule:nonzero;fill:rgb(0%,0%,0%);fill-opacity:1;" d="M 354.828125 127.445312 L 354.347656 127.671875 C 354.535156 127.964844 354.679688 128.277344 354.847656 128.632812 L 353.617188 128.632812 L 353.617188 129.171875 L 358.078125 129.171875 L 358.078125 128.632812 L 356.785156 128.632812 C 356.972656 128.320312 357.140625 127.945312 357.285156 127.546875 L 356.742188 127.359375 C 356.597656 127.796875 356.410156 128.234375 356.179688 128.632812 L 355.390625 128.632812 C 355.222656 128.195312 355.035156 127.796875 354.828125 127.445312 Z M 355.890625 126.046875 L 355.285156 126.152344 C 355.390625 126.339844 355.472656 126.570312 355.554688 126.796875 L 353.804688 126.796875 L 353.804688 127.339844 L 357.953125 127.339844 L 357.953125 126.796875 L 356.140625 126.796875 C 356.054688 126.527344 355.972656 126.277344 355.890625 126.046875 Z M 351.890625 133.359375 C 352.367188 133.359375 352.597656 133.132812 352.597656 132.671875 L 352.597656 130.296875 C 352.828125 130.195312 353.054688 130.089844 353.285156 129.964844 L 353.285156 129.382812 C 353.054688 129.484375 352.828125 129.609375 352.597656 129.714844 L 352.597656 128.171875 L 353.265625 128.171875 L 353.265625 127.632812 L 352.597656 127.632812 L 352.597656 126.109375 L 352.015625 126.109375 L 352.015625 127.632812 L 351.035156 127.632812 L 351.035156 128.171875 L 352.015625 128.171875 L 352.015625 129.964844 C 351.640625 130.109375 351.265625 130.234375 350.890625 130.320312 L 351.035156 130.902344 C 351.367188 130.796875 351.703125 130.671875 352.015625 130.546875 L 352.015625 132.527344 C 352.015625 132.734375 351.910156 132.839844 351.703125 132.839844 C 351.492188 132.839844 351.285156 132.820312 351.078125 132.796875 L 351.203125 133.359375 Z M 355.179688 129.402344 C 355.097656 129.632812 354.992188 129.859375 354.890625 130.089844 L 353.515625 130.089844 L 353.515625 130.652344 L 354.597656 130.652344 C 354.429688 130.964844 354.222656 131.277344 354.015625 131.589844 C 354.578125 131.820312 355.097656 132.046875 355.578125 132.257812 C 355.078125 132.546875 354.367188 132.777344 353.429688 132.945312 L 353.660156 133.464844 C 354.804688 133.234375 355.660156 132.921875 356.179688 132.546875 C 356.828125 132.839844 357.367188 133.152344 357.847656 133.445312 L 358.160156 132.984375 C 357.660156 132.695312 357.140625 132.421875 356.597656 132.152344 C 356.972656 131.757812 357.222656 131.257812 357.328125 130.652344 L 358.222656 130.652344 L 358.222656 130.089844 L 355.472656 130.089844 C 355.554688 129.902344 355.660156 129.695312 355.742188 129.464844 Z M 356.785156 130.652344 C 356.660156 131.171875 356.429688 131.589844 356.054688 131.921875 C 355.640625 131.734375 355.179688 131.546875 354.722656 131.359375 C 354.867188 131.152344 355.035156 130.902344 355.179688 130.652344 Z M 356.785156 130.652344 "/>
<path style=" stroke:none;fill-rule:nonzero;fill:rgb(0%,0%,0%);fill-opacity:1;" d="M 361.179688 129.152344 L 361.179688 129.671875 L 365.535156 129.671875 L 365.535156 129.152344 Z M 360.640625 130.464844 L 360.640625 130.984375 L 362.367188 130.984375 C 361.804688 131.902344 361.347656 132.445312 360.992188 132.652344 C 360.972656 132.671875 360.929688 132.695312 360.867188 132.714844 L 361.015625 133.195312 C 362.515625 133.109375 363.910156 132.964844 365.179688 132.796875 C 365.328125 133.007812 365.472656 133.214844 365.597656 133.421875 L 366.078125 133.089844 C 365.722656 132.570312 365.203125 131.964844 364.554688 131.277344 L 364.117188 131.527344 C 364.367188 131.796875 364.597656 132.070312 364.804688 132.339844 C 363.785156 132.484375 362.742188 132.589844 361.703125 132.671875 C 362.078125 132.339844 362.492188 131.777344 362.992188 130.984375 L 366.054688 130.984375 L 366.054688 130.464844 Z M 365.078125 126.945312 L 365.078125 127.882812 L 360.390625 127.882812 L 360.390625 126.945312 Z M 360.390625 128.402344 L 365.640625 128.402344 L 365.640625 126.421875 L 359.804688 126.421875 L 359.804688 129.070312 C 359.804688 130.671875 359.535156 131.984375 358.972656 133.007812 L 359.390625 133.382812 C 360.054688 132.171875 360.367188 130.734375 360.390625 129.070312 Z M 360.390625 128.402344 "/>
<path style="fill:none;stroke-width:1;stroke-linecap:round;stroke-linejoin:round;stroke:rgb(0%,0%,0%);stroke-opacity:1;stroke-miterlimit:10;" d="M 856.852539 397.800781 L 856.852539 389.799805 " transform="matrix(1.333333,0,0,1.333333,-897.333333,-410.666667)"/>
<path style="fill:none;stroke-width:1;stroke-linecap:butt;stroke-linejoin:miter;stroke:rgb(0%,0%,0%);stroke-opacity:1;stroke-miterlimit:10;" d="M 856.852539 385.800781 L 856.852539 389.799805 M 855.352539 389.799805 L 856.852539 385.800781 L 858.352539 389.799805 " transform="matrix(1.333333,0,0,1.333333,-897.333333,-410.666667)"/>
<path style="fill:none;stroke-width:1;stroke-linecap:round;stroke-linejoin:round;stroke:rgb(0%,0%,0%);stroke-opacity:1;stroke-miterlimit:10;" d="M 896.397461 397.800781 L 896.397461 389.799805 " transform="matrix(1.333333,0,0,1.333333,-897.333333,-410.666667)"/>
<path style="fill:none;stroke-width:1;stroke-linecap:butt;stroke-linejoin:miter;stroke:rgb(0%,0%,0%);stroke-opacity:1;stroke-miterlimit:10;" d="M 896.397461 385.800781 L 896.397461 389.799805 M 894.897461 389.799805 L 896.397461 385.800781 L 897.897461 389.799805 " transform="matrix(1.333333,0,0,1.333333,-897.333333,-410.666667)"/>
<path style="fill:none;stroke-width:1;stroke-linecap:round;stroke-linejoin:round;stroke:rgb(0%,0%,0%);stroke-opacity:1;stroke-miterlimit:10;" d="M 935.948242 397.800781 L 935.948242 389.799805 " transform="matrix(1.333333,0,0,1.333333,-897.333333,-410.666667)"/>
<path style="fill:none;stroke-width:1;stroke-linecap:butt;stroke-linejoin:miter;stroke:rgb(0%,0%,0%);stroke-opacity:1;stroke-miterlimit:10;" d="M 935.948242 385.800781 L 935.948242 389.799805 M 934.448242 389.799805 L 935.948242 385.800781 L 937.448242 389.799805 " transform="matrix(1.333333,0,0,1.333333,-897.333333,-410.666667)"/>
<path style=" stroke:none;fill-rule:nonzero;fill:rgb(69.803923%,85.09804%,100%);fill-opacity:1;" d="M 142.933594 62.800781 L 232 62.800781 L 232 39.46875 L 142.933594 39.46875 Z M 142.933594 62.800781 "/>
<path style="fill:none;stroke-width:1;stroke-linecap:round;stroke-linejoin:round;stroke:rgb(0%,0%,0%);stroke-opacity:1;stroke-miterlimit:10;" d="M 780.200195 337.601562 L 847 337.601562 L 847 355.100586 L 780.200195 355.100586 Z M 780.200195 337.601562 " transform="matrix(1.333333,0,0,1.333333,-897.333333,-410.666667)"/>
<path style=" stroke:none;fill-rule:nonzero;fill:rgb(0%,0%,0%);fill-opacity:1;" d="M 177.007812 46.195312 L 176.425781 46.757812 C 177.257812 47.445312 177.945312 48.070312 178.425781 48.652344 L 179.050781 48.050781 C 178.488281 47.425781 177.800781 46.820312 177.007812 46.195312 Z M 183.964844 56.777344 L 186.714844 56.777344 L 186.925781 55.925781 C 186.613281 55.945312 186.152344 55.945312 185.589844 55.964844 C 184.988281 55.988281 184.425781 55.988281 183.863281 55.988281 C 182.925781 55.988281 182.152344 55.988281 181.527344 55.964844 C 180.820312 55.945312 180.300781 55.839844 179.925781 55.675781 C 179.589844 55.527344 179.300781 55.277344 179.007812 54.925781 C 178.902344 54.820312 178.820312 54.714844 178.714844 54.652344 L 178.714844 50.152344 L 176.195312 50.152344 L 176.195312 50.945312 L 177.925781 50.945312 L 177.925781 54.589844 C 177.425781 54.820312 176.863281 55.425781 176.214844 56.445312 L 176.863281 57.027344 C 177.527344 55.925781 178.007812 55.363281 178.277344 55.363281 C 178.425781 55.363281 178.589844 55.464844 178.738281 55.675781 C 179.113281 56.089844 179.527344 56.402344 180.007812 56.550781 C 180.488281 56.675781 181.089844 56.757812 181.863281 56.757812 C 182.613281 56.777344 183.320312 56.777344 183.964844 56.777344 Z M 179.550781 47.238281 L 179.550781 48.027344 L 181.132812 48.027344 C 180.738281 48.882812 180.300781 49.613281 179.820312 50.175781 L 180.007812 50.964844 L 182.777344 50.964844 L 182.777344 52.402344 L 179.445312 52.402344 L 179.445312 53.214844 L 182.777344 53.214844 L 182.777344 55.445312 L 183.613281 55.445312 L 183.613281 53.214844 L 186.738281 53.214844 L 186.738281 52.402344 L 183.613281 52.402344 L 183.613281 50.964844 L 186.214844 50.964844 L 186.214844 50.175781 L 183.613281 50.175781 L 183.613281 48.757812 L 182.777344 48.757812 L 182.777344 50.175781 L 180.839844 50.175781 C 181.277344 49.550781 181.675781 48.839844 182.050781 48.027344 L 186.589844 48.027344 L 186.589844 47.238281 L 182.382812 47.238281 C 182.527344 46.863281 182.652344 46.507812 182.777344 46.113281 L 181.964844 45.902344 C 181.820312 46.363281 181.652344 46.820312 181.488281 47.238281 Z M 179.550781 47.238281 "/>
<path style=" stroke:none;fill-rule:nonzero;fill:rgb(0%,0%,0%);fill-opacity:1;" d="M 192.402344 54.589844 C 191.195312 55.050781 189.777344 55.402344 188.132812 55.675781 L 188.238281 56.507812 C 189.800781 56.214844 191.195312 55.863281 192.402344 55.425781 Z M 190.195312 45.964844 C 189.714844 47.382812 189.132812 48.652344 188.464844 49.757812 C 188.363281 49.902344 188.238281 50.007812 188.113281 50.070312 L 188.320312 50.863281 C 189.007812 50.777344 189.695312 50.675781 190.382812 50.570312 C 189.714844 51.695312 189.152344 52.488281 188.695312 52.945312 C 188.589844 53.050781 188.445312 53.132812 188.300781 53.214844 L 188.527344 53.988281 C 189.714844 53.839844 190.964844 53.527344 192.257812 53.089844 L 192.257812 52.320312 C 191.382812 52.613281 190.488281 52.863281 189.570312 53.050781 C 190.300781 52.175781 191.214844 50.738281 192.300781 48.714844 L 191.550781 48.425781 C 191.300781 48.882812 191.070312 49.339844 190.839844 49.757812 C 190.257812 49.863281 189.695312 49.945312 189.132812 50.007812 C 189.757812 49.070312 190.382812 47.839844 190.988281 46.277344 Z M 192.257812 47.488281 L 192.257812 48.320312 L 195.132812 48.320312 L 195.132812 50.089844 L 192.652344 50.089844 L 192.652344 50.945312 L 198.507812 50.945312 L 198.507812 50.089844 L 196.007812 50.089844 L 196.007812 48.320312 L 198.863281 48.320312 L 198.863281 47.488281 L 196.007812 47.488281 L 196.007812 46.027344 L 195.132812 46.027344 L 195.132812 47.488281 Z M 198.175781 52.132812 L 193.050781 52.132812 L 193.050781 56.964844 L 193.902344 56.964844 L 193.902344 56.382812 L 197.320312 56.382812 L 197.320312 56.964844 L 198.175781 56.964844 Z M 193.902344 55.570312 L 193.902344 52.945312 L 197.320312 52.945312 L 197.320312 55.570312 Z M 193.902344 55.570312 "/>
<path style="fill:none;stroke-width:1;stroke-linecap:round;stroke-linejoin:round;stroke:rgb(0%,0%,0%);stroke-opacity:1;stroke-miterlimit:10;" d="M 730.799805 366.397461 L 730.799805 349.542969 C 730.799805 347.331055 732.589844 345.543945 734.801758 345.543945 C 734.813477 345.543945 734.828125 345.543945 734.839844 345.543945 L 774.299805 345.945312 " transform="matrix(1.333333,0,0,1.333333,-897.333333,-410.666667)"/>
<path style="fill:none;stroke-width:1;stroke-linecap:butt;stroke-linejoin:miter;stroke:rgb(0%,0%,0%);stroke-opacity:1;stroke-miterlimit:10;" d="M 778.301758 345.989258 L 774.299805 345.945312 M 774.317383 344.445312 L 778.301758 345.989258 L 774.285156 347.445312 " transform="matrix(1.333333,0,0,1.333333,-897.333333,-410.666667)"/>
<path style="fill:none;stroke-width:1;stroke-linecap:round;stroke-linejoin:round;stroke:rgb(0%,0%,0%);stroke-opacity:1;stroke-miterlimit:10;" d="M 896.397461 366.397461 L 896.397461 350.014648 C 896.397461 347.808594 894.610352 346.015625 892.398438 346.015625 C 892.395508 346.015625 892.389648 346.015625 892.383789 346.015625 L 852.897461 346.182617 " transform="matrix(1.333333,0,0,1.333333,-897.333333,-410.666667)"/>
<path style="fill:none;stroke-width:1;stroke-linecap:butt;stroke-linejoin:miter;stroke:rgb(0%,0%,0%);stroke-opacity:1;stroke-miterlimit:10;" d="M 848.898438 346.200195 L 852.897461 346.182617 M 852.90625 347.682617 L 848.898438 346.200195 L 852.894531 344.682617 " transform="matrix(1.333333,0,0,1.333333,-897.333333,-410.666667)"/>
<path style="fill:none;stroke-width:1;stroke-linecap:round;stroke-linejoin:round;stroke:rgb(0%,0%,0%);stroke-opacity:1;stroke-miterlimit:10;" d="M 780.200195 308.799805 L 847 308.799805 L 847 326.301758 L 780.200195 326.301758 Z M 780.200195 308.799805 " transform="matrix(1.333333,0,0,1.333333,-897.333333,-410.666667)"/>
<path style=" stroke:none;fill-rule:nonzero;fill:rgb(0%,0%,0%);fill-opacity:1;" d="M 169.152344 7.628906 C 167.757812 9.148438 166.007812 10.421875 163.902344 11.441406 L 164.320312 12.191406 C 166.445312 11.128906 168.152344 9.859375 169.464844 8.421875 C 170.882812 9.941406 172.570312 11.171875 174.570312 12.128906 L 175.007812 11.359375 C 173.027344 10.441406 171.300781 9.210938 169.777344 7.628906 Z M 166.113281 11.421875 L 166.113281 12.253906 L 169.027344 12.253906 L 169.027344 14.335938 L 165.550781 14.335938 L 165.550781 15.171875 L 169.027344 15.171875 L 169.027344 17.378906 L 164.464844 17.378906 L 164.464844 18.234375 L 174.464844 18.234375 L 174.464844 17.378906 L 169.902344 17.378906 L 169.902344 15.171875 L 173.382812 15.171875 L 173.382812 14.335938 L 169.902344 14.335938 L 169.902344 12.253906 L 172.820312 12.253906 L 172.820312 11.421875 Z M 166.113281 11.421875 "/>
<path style=" stroke:none;fill-rule:nonzero;fill:rgb(0%,0%,0%);fill-opacity:1;" d="M 177.007812 7.796875 L 176.425781 8.359375 C 177.257812 9.046875 177.945312 9.671875 178.425781 10.253906 L 179.050781 9.648438 C 178.488281 9.023438 177.800781 8.421875 177.007812 7.796875 Z M 183.964844 18.378906 L 186.714844 18.378906 L 186.925781 17.523438 C 186.613281 17.546875 186.152344 17.546875 185.589844 17.566406 C 184.988281 17.585938 184.425781 17.585938 183.863281 17.585938 C 182.925781 17.585938 182.152344 17.585938 181.527344 17.566406 C 180.820312 17.546875 180.300781 17.441406 179.925781 17.273438 C 179.589844 17.128906 179.300781 16.878906 179.007812 16.523438 C 178.902344 16.421875 178.820312 16.316406 178.714844 16.253906 L 178.714844 11.753906 L 176.195312 11.753906 L 176.195312 12.546875 L 177.925781 12.546875 L 177.925781 16.191406 C 177.425781 16.421875 176.863281 17.023438 176.214844 18.046875 L 176.863281 18.628906 C 177.527344 17.523438 178.007812 16.960938 178.277344 16.960938 C 178.425781 16.960938 178.589844 17.066406 178.738281 17.273438 C 179.113281 17.691406 179.527344 18.003906 180.007812 18.148438 C 180.488281 18.273438 181.089844 18.359375 181.863281 18.359375 C 182.613281 18.378906 183.320312 18.378906 183.964844 18.378906 Z M 179.550781 8.835938 L 179.550781 9.628906 L 181.132812 9.628906 C 180.738281 10.484375 180.300781 11.210938 179.820312 11.773438 L 180.007812 12.566406 L 182.777344 12.566406 L 182.777344 14.003906 L 179.445312 14.003906 L 179.445312 14.816406 L 182.777344 14.816406 L 182.777344 17.046875 L 183.613281 17.046875 L 183.613281 14.816406 L 186.738281 14.816406 L 186.738281 14.003906 L 183.613281 14.003906 L 183.613281 12.566406 L 186.214844 12.566406 L 186.214844 11.773438 L 183.613281 11.773438 L 183.613281 10.359375 L 182.777344 10.359375 L 182.777344 11.773438 L 180.839844 11.773438 C 181.277344 11.148438 181.675781 10.441406 182.050781 9.628906 L 186.589844 9.628906 L 186.589844 8.835938 L 182.382812 8.835938 C 182.527344 8.460938 182.652344 8.109375 182.777344 7.710938 L 181.964844 7.503906 C 181.820312 7.960938 181.652344 8.421875 181.488281 8.835938 Z M 179.550781 8.835938 "/>
<path style=" stroke:none;fill-rule:nonzero;fill:rgb(0%,0%,0%);fill-opacity:1;" d="M 193.820312 9.628906 L 193.113281 9.960938 C 193.363281 10.398438 193.589844 10.878906 193.839844 11.398438 L 192.007812 11.398438 L 192.007812 12.234375 L 198.695312 12.234375 L 198.695312 11.398438 L 196.757812 11.398438 C 197.027344 10.921875 197.277344 10.378906 197.507812 9.773438 L 196.695312 9.484375 C 196.445312 10.171875 196.175781 10.796875 195.839844 11.398438 L 194.675781 11.398438 C 194.402344 10.753906 194.132812 10.171875 193.820312 9.628906 Z M 195.402344 7.523438 L 194.507812 7.671875 C 194.632812 7.960938 194.777344 8.296875 194.925781 8.671875 L 192.277344 8.671875 L 192.277344 9.460938 L 198.488281 9.460938 L 198.488281 8.671875 L 195.800781 8.671875 C 195.652344 8.253906 195.527344 7.859375 195.402344 7.523438 Z M 189.402344 18.484375 C 190.113281 18.484375 190.488281 18.148438 190.488281 17.441406 L 190.488281 13.898438 C 190.820312 13.734375 191.152344 13.566406 191.488281 13.398438 L 191.488281 12.523438 C 191.152344 12.691406 190.820312 12.859375 190.488281 13.023438 L 190.488281 10.734375 L 191.464844 10.734375 L 191.464844 9.898438 L 190.488281 9.898438 L 190.488281 7.628906 L 189.589844 7.628906 L 189.589844 9.898438 L 188.132812 9.898438 L 188.132812 10.734375 L 189.589844 10.734375 L 189.589844 13.398438 C 189.027344 13.628906 188.464844 13.796875 187.902344 13.941406 L 188.132812 14.816406 C 188.613281 14.648438 189.113281 14.460938 189.589844 14.273438 L 189.589844 17.234375 C 189.589844 17.546875 189.425781 17.691406 189.113281 17.691406 C 188.820312 17.691406 188.507812 17.671875 188.195312 17.648438 L 188.363281 18.484375 Z M 194.339844 12.566406 C 194.214844 12.898438 194.070312 13.234375 193.902344 13.585938 L 191.839844 13.585938 L 191.839844 14.441406 L 193.445312 14.441406 C 193.195312 14.898438 192.925781 15.359375 192.589844 15.859375 C 193.425781 16.191406 194.214844 16.503906 194.945312 16.859375 C 194.195312 17.273438 193.113281 17.609375 191.714844 17.859375 L 192.070312 18.648438 C 193.800781 18.316406 195.050781 17.835938 195.839844 17.273438 C 196.800781 17.734375 197.632812 18.171875 198.339844 18.609375 L 198.820312 17.921875 C 198.070312 17.484375 197.277344 17.066406 196.445312 16.691406 C 197.007812 16.085938 197.382812 15.316406 197.570312 14.441406 L 198.882812 14.441406 L 198.882812 13.585938 L 194.777344 13.585938 C 194.925781 13.296875 195.050781 12.984375 195.175781 12.648438 Z M 196.757812 14.441406 C 196.570312 15.210938 196.195312 15.835938 195.652344 16.335938 C 195.007812 16.046875 194.339844 15.773438 193.652344 15.503906 C 193.882812 15.171875 194.113281 14.816406 194.320312 14.441406 Z M 196.757812 14.441406 "/>
<path style=" stroke:none;fill-rule:nonzero;fill:rgb(0%,0%,0%);fill-opacity:1;" d="M 203.363281 12.191406 L 203.363281 12.960938 L 209.863281 12.960938 L 209.863281 12.191406 Z M 202.507812 14.148438 L 202.507812 14.941406 L 205.132812 14.941406 C 204.300781 16.296875 203.589844 17.128906 203.070312 17.441406 C 203.007812 17.460938 202.964844 17.503906 202.882812 17.523438 L 203.070312 18.253906 C 205.339844 18.109375 207.425781 17.898438 209.320312 17.648438 C 209.570312 17.941406 209.777344 18.253906 209.988281 18.566406 L 210.675781 18.085938 C 210.152344 17.316406 209.382812 16.398438 208.402344 15.359375 L 207.757812 15.753906 C 208.113281 16.171875 208.464844 16.566406 208.800781 16.960938 C 207.257812 17.191406 205.695312 17.359375 204.113281 17.460938 C 204.675781 16.960938 205.320312 16.109375 206.050781 14.941406 L 210.652344 14.941406 L 210.652344 14.148438 Z M 209.195312 8.878906 L 209.195312 10.273438 L 202.132812 10.273438 L 202.132812 8.878906 Z M 202.132812 11.046875 L 210.027344 11.046875 L 210.027344 8.066406 L 201.300781 8.066406 L 201.300781 12.046875 C 201.277344 14.460938 200.863281 16.421875 200.027344 17.941406 L 200.652344 18.523438 C 201.632812 16.710938 202.132812 14.546875 202.132812 12.046875 Z M 202.132812 11.046875 "/>
<path style="fill:none;stroke-width:1;stroke-linecap:round;stroke-linejoin:round;stroke:rgb(0%,0%,0%);stroke-opacity:1;stroke-miterlimit:10;" d="M 813.601562 337.601562 L 813.601562 332.199219 " transform="matrix(1.333333,0,0,1.333333,-897.333333,-410.666667)"/>
<path style="fill:none;stroke-width:1;stroke-linecap:butt;stroke-linejoin:miter;stroke:rgb(0%,0%,0%);stroke-opacity:1;stroke-miterlimit:10;" d="M 813.601562 328.200195 L 813.601562 332.199219 M 812.101562 332.199219 L 813.601562 328.200195 L 815.101562 332.199219 " transform="matrix(1.333333,0,0,1.333333,-897.333333,-410.666667)"/>
<path style="fill:none;stroke-width:1;stroke-linecap:round;stroke-linejoin:round;stroke:rgb(0%,0%,0%);stroke-opacity:1;stroke-miterlimit:10;" d="M 691.254883 426.019531 L 725.300781 426.019531 M 736.301758 426.019531 L 764.848633 426.019531 M 775.84668 426.019531 L 853.172852 426.019531 C 855.381836 426.019531 857.171875 424.229492 857.171875 422.020508 C 857.171875 421.991211 857.171875 421.967773 857.171875 421.941406 L 857.113281 419.046875 " transform="matrix(1.333333,0,0,1.333333,-897.333333,-410.666667)"/>
<path style="fill:none;stroke-width:1;stroke-linecap:butt;stroke-linejoin:miter;stroke:rgb(0%,0%,0%);stroke-opacity:1;stroke-miterlimit:10;" d="M 857.040039 415.047852 L 857.113281 419.046875 M 855.613281 419.073242 L 857.040039 415.047852 L 858.613281 419.014648 " transform="matrix(1.333333,0,0,1.333333,-897.333333,-410.666667)"/>
<path style="fill:none;stroke-width:1;stroke-linecap:round;stroke-linejoin:round;stroke:rgb(0%,0%,0%);stroke-opacity:1;stroke-miterlimit:10;" d="M 730.799805 431.19043 L 764.848633 431.19043 M 775.84668 431.19043 L 892.272461 431.19043 C 894.472656 431.19043 896.262695 429.415039 896.274414 427.214844 L 896.321289 419.046875 " transform="matrix(1.333333,0,0,1.333333,-897.333333,-410.666667)"/>
<path style="fill:none;stroke-width:1;stroke-linecap:butt;stroke-linejoin:miter;stroke:rgb(0%,0%,0%);stroke-opacity:1;stroke-miterlimit:10;" d="M 896.344727 415.047852 L 896.321289 419.046875 M 894.821289 419.038086 L 896.344727 415.047852 L 897.821289 419.055664 " transform="matrix(1.333333,0,0,1.333333,-897.333333,-410.666667)"/>
<path style="fill:none;stroke-width:1;stroke-linecap:round;stroke-linejoin:round;stroke:rgb(0%,0%,0%);stroke-opacity:1;stroke-miterlimit:10;" d="M 770.347656 436.25 L 932.209961 436.25 C 934.418945 436.25 936.211914 434.459961 936.211914 432.250977 C 936.211914 432.239258 936.211914 432.22168 936.211914 432.209961 L 936.083008 419.046875 " transform="matrix(1.333333,0,0,1.333333,-897.333333,-410.666667)"/>
<path style="fill:none;stroke-width:1;stroke-linecap:butt;stroke-linejoin:miter;stroke:rgb(0%,0%,0%);stroke-opacity:1;stroke-miterlimit:10;" d="M 936.041992 415.047852 L 936.083008 419.046875 M 934.583008 419.061523 L 936.041992 415.047852 L 937.583008 419.032227 " transform="matrix(1.333333,0,0,1.333333,-897.333333,-410.666667)"/>
<path style="fill:none;stroke-width:1;stroke-linecap:round;stroke-linejoin:round;stroke:rgb(0%,0%,0%);stroke-opacity:1;stroke-miterlimit:10;" d="M 770.347656 439.601562 L 770.347656 419.046875 " transform="matrix(1.333333,0,0,1.333333,-897.333333,-410.666667)"/>
<path style="fill:none;stroke-width:1;stroke-linecap:butt;stroke-linejoin:miter;stroke:rgb(0%,0%,0%);stroke-opacity:1;stroke-miterlimit:10;" d="M 770.347656 415.047852 L 770.347656 419.046875 M 768.847656 419.046875 L 770.347656 415.047852 L 771.847656 419.046875 " transform="matrix(1.333333,0,0,1.333333,-897.333333,-410.666667)"/>
<path style="fill:none;stroke-width:1;stroke-linecap:round;stroke-linejoin:round;stroke:rgb(0%,0%,0%);stroke-opacity:1;stroke-miterlimit:10;" d="M 730.799805 439.601562 L 730.799805 419.046875 " transform="matrix(1.333333,0,0,1.333333,-897.333333,-410.666667)"/>
<path style="fill:none;stroke-width:1;stroke-linecap:butt;stroke-linejoin:miter;stroke:rgb(0%,0%,0%);stroke-opacity:1;stroke-miterlimit:10;" d="M 730.799805 415.047852 L 730.799805 419.046875 M 729.299805 419.046875 L 730.799805 415.047852 L 732.299805 419.046875 " transform="matrix(1.333333,0,0,1.333333,-897.333333,-410.666667)"/>
</g>
</svg>
