<?xml version="1.0" encoding="UTF-8"?>
<svg xmlns="http://www.w3.org/2000/svg" xmlns:xlink="http://www.w3.org/1999/xlink" width="373.333333" height="296" viewBox="0 0 373.333333 296" version="1.1">
<g id="surface1">
<path style="fill:none;stroke-width:1;stroke-linecap:round;stroke-linejoin:round;stroke:rgb(0%,0%,0%);stroke-opacity:1;stroke-dasharray:4,4;stroke-miterlimit:10;" d="M 112.601562 -10.148438 L 228.5 -10.148438 L 228.5 83.399414 L 112.601562 83.399414 Z M 112.601562 -10.148438 " transform="matrix(1.333333,0,0,1.333333,53.333333,132)"/>
<path style=" stroke:none;fill-rule:nonzero;fill:rgb(69.803923%,85.09804%,100%);fill-opacity:1;" d="M 218.566406 227.933594 L 343.902344 227.933594 L 343.902344 203.933594 L 218.566406 203.933594 Z M 218.566406 227.933594 "/>
<path style="fill:none;stroke-width:1;stroke-linecap:round;stroke-linejoin:round;stroke:rgb(0%,0%,0%);stroke-opacity:1;stroke-miterlimit:10;" d="M 123.924805 53.950195 L 217.926758 53.950195 L 217.926758 71.950195 L 123.924805 71.950195 Z M 123.924805 53.950195 " transform="matrix(1.333333,0,0,1.333333,53.333333,132)"/>
<path style=" stroke:none;fill-rule:nonzero;fill:rgb(0%,0%,0%);fill-opacity:1;" d="M 266.671875 215.558594 C 267.046875 215.996094 267.484375 216.601562 268.003906 217.351562 L 268.503906 216.621094 C 267.878906 215.890625 267.273438 215.246094 266.671875 214.664062 L 266.671875 213.976562 L 268.253906 213.976562 L 268.253906 213.140625 L 266.671875 213.140625 L 266.671875 210.808594 L 265.816406 210.808594 L 265.816406 213.140625 L 263.921875 213.140625 L 263.921875 213.976562 L 265.796875 213.976562 C 265.378906 215.476562 264.671875 216.808594 263.671875 217.976562 L 264.066406 218.953125 C 264.796875 217.933594 265.378906 216.789062 265.816406 215.515625 L 265.816406 221.746094 L 266.671875 221.746094 Z M 273.109375 212.351562 C 272.816406 214.226562 272.253906 215.890625 271.398438 217.328125 C 270.523438 215.851562 270.003906 214.203125 269.878906 212.351562 Z M 270.878906 218.101562 C 270.066406 219.226562 269.023438 220.226562 267.773438 221.058594 L 268.316406 221.746094 C 269.523438 220.953125 270.566406 219.996094 271.398438 218.851562 C 272.148438 219.914062 273.085938 220.871094 274.234375 221.765625 L 274.816406 221.058594 C 273.628906 220.183594 272.671875 219.203125 271.898438 218.121094 C 272.921875 216.515625 273.609375 214.578125 273.941406 212.351562 L 273.941406 211.539062 L 268.546875 211.539062 L 268.546875 212.351562 L 269.023438 212.351562 C 269.191406 214.453125 269.816406 216.371094 270.878906 218.101562 Z M 270.878906 218.101562 "/>
<path style=" stroke:none;fill-rule:nonzero;fill:rgb(0%,0%,0%);fill-opacity:1;" d="M 277.085938 214.328125 L 277.085938 218.308594 L 280.796875 218.308594 L 280.796875 219.140625 L 276.523438 219.140625 L 276.523438 219.828125 L 280.796875 219.828125 L 280.796875 220.726562 L 275.921875 220.726562 L 275.921875 221.496094 L 286.546875 221.496094 L 286.546875 220.726562 L 281.648438 220.726562 L 281.648438 219.828125 L 285.941406 219.828125 L 285.941406 219.140625 L 281.648438 219.140625 L 281.648438 218.308594 L 285.378906 218.308594 L 285.378906 214.328125 L 281.648438 214.328125 L 281.648438 213.558594 L 286.378906 213.558594 L 286.378906 212.808594 L 281.648438 212.808594 L 281.648438 211.890625 C 282.984375 211.808594 284.234375 211.726562 285.378906 211.601562 L 285.128906 210.871094 C 282.734375 211.140625 279.984375 211.328125 276.859375 211.414062 L 277.003906 212.121094 C 278.316406 212.078125 279.585938 212.015625 280.796875 211.953125 L 280.796875 212.808594 L 276.085938 212.808594 L 276.085938 213.558594 L 280.796875 213.558594 L 280.796875 214.328125 Z M 284.523438 217.621094 L 281.648438 217.621094 L 281.648438 216.640625 L 284.523438 216.640625 Z M 280.796875 217.621094 L 277.898438 217.621094 L 277.898438 216.640625 L 280.796875 216.640625 Z M 277.898438 215.976562 L 277.898438 215.015625 L 280.796875 215.015625 L 280.796875 215.976562 Z M 281.648438 215.015625 L 284.523438 215.015625 L 284.523438 215.976562 L 281.648438 215.976562 Z M 281.648438 215.015625 "/>
<path style=" stroke:none;fill-rule:nonzero;fill:rgb(0%,0%,0%);fill-opacity:1;" d="M 291.128906 215.390625 L 291.128906 216.164062 L 297.628906 216.164062 L 297.628906 215.390625 Z M 290.273438 217.351562 L 290.273438 218.140625 L 292.898438 218.140625 C 292.066406 219.496094 291.359375 220.328125 290.835938 220.640625 C 290.773438 220.664062 290.734375 220.703125 290.648438 220.726562 L 290.835938 221.453125 C 293.109375 221.308594 295.191406 221.101562 297.085938 220.851562 C 297.335938 221.140625 297.546875 221.453125 297.753906 221.765625 L 298.441406 221.289062 C 297.921875 220.515625 297.148438 219.601562 296.171875 218.558594 L 295.523438 218.953125 C 295.878906 219.371094 296.234375 219.765625 296.566406 220.164062 C 295.023438 220.390625 293.460938 220.558594 291.878906 220.664062 C 292.441406 220.164062 293.085938 219.308594 293.816406 218.140625 L 298.421875 218.140625 L 298.421875 217.351562 Z M 296.960938 212.078125 L 296.960938 213.476562 L 289.898438 213.476562 L 289.898438 212.078125 Z M 289.898438 214.246094 L 297.796875 214.246094 L 297.796875 211.265625 L 289.066406 211.265625 L 289.066406 215.246094 C 289.046875 217.664062 288.628906 219.621094 287.796875 221.140625 L 288.421875 221.726562 C 289.398438 219.914062 289.898438 217.746094 289.898438 215.246094 Z M 289.898438 214.246094 "/>
<path style=" stroke:none;fill-rule:nonzero;fill:rgb(0%,0%,0%);fill-opacity:1;" d="M 284.046875 282.734375 L 284.046875 282.441406 C 283.859375 282.378906 283.773438 282.335938 283.691406 282.210938 L 281.898438 279.460938 L 283.109375 277.960938 C 283.335938 277.691406 283.585938 277.546875 283.960938 277.484375 L 283.960938 277.191406 L 281.941406 277.191406 L 281.941406 277.484375 L 282.191406 277.503906 C 282.460938 277.546875 282.546875 277.585938 282.546875 277.773438 C 282.546875 277.960938 282.421875 278.128906 282.085938 278.546875 L 281.671875 279.085938 C 281.609375 279.023438 281.566406 278.960938 281.503906 278.898438 C 281.109375 278.378906 280.816406 277.878906 280.816406 277.710938 C 280.816406 277.566406 280.984375 277.503906 281.378906 277.484375 L 281.378906 277.191406 L 278.378906 277.191406 L 278.378906 277.484375 C 278.691406 277.546875 278.753906 277.585938 279.003906 277.960938 L 280.546875 280.316406 C 280.359375 280.546875 280.460938 280.421875 280.273438 280.648438 L 279.753906 281.335938 C 279.085938 282.234375 278.835938 282.421875 278.398438 282.441406 L 278.398438 282.734375 L 280.421875 282.734375 L 280.421875 282.441406 C 280.003906 282.421875 279.835938 282.335938 279.835938 282.148438 C 279.835938 281.960938 280.128906 281.484375 280.585938 280.921875 C 280.671875 280.835938 280.734375 280.753906 280.796875 280.691406 C 280.941406 280.941406 281.109375 281.191406 281.296875 281.441406 C 281.585938 281.859375 281.691406 282.066406 281.691406 282.210938 C 281.691406 282.359375 281.523438 282.421875 281.148438 282.441406 L 281.148438 282.734375 Z M 284.046875 282.734375 "/>
<path style="fill:none;stroke-width:1;stroke-linecap:round;stroke-linejoin:round;stroke:rgb(0%,0%,0%);stroke-opacity:1;stroke-miterlimit:10;" d="M 170.925781 99.049805 L 170.925781 77.850586 " transform="matrix(1.333333,0,0,1.333333,53.333333,132)"/>
<path style="fill:none;stroke-width:1;stroke-linecap:butt;stroke-linejoin:miter;stroke:rgb(0%,0%,0%);stroke-opacity:1;stroke-miterlimit:10;" d="M 170.925781 73.851562 L 170.925781 77.850586 M 169.425781 77.850586 L 170.925781 73.851562 L 172.425781 77.850586 " transform="matrix(1.333333,0,0,1.333333,53.333333,132)"/>
<path style="fill-rule:nonzero;fill:rgb(40.000001%,74.901962%,100%);fill-opacity:1;stroke-width:1;stroke-linecap:round;stroke-linejoin:round;stroke:rgb(0%,0%,0%);stroke-opacity:1;stroke-miterlimit:10;" d="M 175.698242 -41.147461 C 178.334961 -38.510742 178.334961 -34.239258 175.698242 -31.602539 C 173.061523 -28.96582 168.790039 -28.96582 166.15332 -31.602539 C 163.516602 -34.239258 163.516602 -38.510742 166.15332 -41.147461 C 168.790039 -43.78418 173.061523 -43.78418 175.698242 -41.147461 " transform="matrix(1.333333,0,0,1.333333,53.333333,132)"/>
<path style=" stroke:none;fill-rule:nonzero;fill:rgb(0%,0%,0%);fill-opacity:1;" d="M 280.730469 85.90625 L 280.730469 83.554688 L 278.394531 83.554688 L 278.394531 82.574219 L 280.730469 82.574219 L 280.730469 80.242188 L 281.730469 80.242188 L 281.730469 82.574219 L 284.0625 82.574219 L 284.0625 83.554688 L 281.730469 83.554688 L 281.730469 85.90625 Z M 280.730469 85.90625 "/>
<path style=" stroke:none;fill-rule:nonzero;fill:rgb(69.803923%,85.09804%,100%);fill-opacity:1;" d="M 218.566406 189.800781 L 343.902344 189.800781 L 343.902344 165.800781 L 218.566406 165.800781 Z M 218.566406 189.800781 "/>
<path style="fill:none;stroke-width:1;stroke-linecap:round;stroke-linejoin:round;stroke:rgb(0%,0%,0%);stroke-opacity:1;stroke-miterlimit:10;" d="M 123.924805 25.350586 L 217.926758 25.350586 L 217.926758 43.350586 L 123.924805 43.350586 Z M 123.924805 25.350586 " transform="matrix(1.333333,0,0,1.333333,53.333333,132)"/>
<path style=" stroke:none;fill-rule:nonzero;fill:rgb(0%,0%,0%);fill-opacity:1;" d="M 260.648438 173.714844 L 260.648438 177.464844 L 261.691406 177.464844 L 262.046875 178.488281 L 260.191406 178.488281 L 260.191406 179.214844 L 261.378906 179.214844 C 261.253906 180.132812 261.085938 180.863281 260.878906 181.402344 C 260.648438 181.988281 260.296875 182.507812 259.816406 182.988281 L 260.335938 183.675781 C 260.898438 183.113281 261.316406 182.488281 261.609375 181.777344 C 261.710938 181.507812 261.796875 181.214844 261.878906 180.863281 L 263.359375 180.863281 C 263.335938 181.695312 263.296875 182.214844 263.234375 182.445312 C 263.171875 182.675781 262.960938 182.777344 262.648438 182.800781 L 261.921875 182.800781 L 262.128906 183.550781 L 262.878906 183.550781 C 263.359375 183.527344 263.710938 183.363281 263.898438 183.007812 C 264.085938 182.675781 264.191406 181.714844 264.191406 180.152344 L 262.023438 180.152344 C 262.066406 179.863281 262.109375 179.570312 262.171875 179.214844 L 264.566406 179.214844 L 264.566406 178.488281 L 262.859375 178.488281 L 262.503906 177.464844 L 264.046875 177.464844 L 264.523438 178.050781 C 264.671875 177.839844 264.835938 177.589844 265.003906 177.320312 C 265.273438 178.570312 265.648438 179.675781 266.109375 180.613281 C 265.648438 181.527344 265.046875 182.277344 264.296875 182.882812 L 264.753906 183.632812 C 265.484375 183.050781 266.085938 182.320312 266.566406 181.464844 C 267.066406 182.339844 267.648438 183.027344 268.316406 183.550781 L 268.816406 182.820312 C 268.085938 182.320312 267.484375 181.570312 266.960938 180.632812 C 267.566406 179.277344 267.878906 177.613281 267.941406 175.652344 L 268.628906 175.652344 L 268.628906 174.839844 L 266.023438 174.839844 C 266.191406 174.214844 266.335938 173.527344 266.441406 172.800781 L 265.648438 172.652344 C 265.378906 174.464844 264.921875 175.945312 264.234375 177.070312 L 264.234375 173.714844 L 262.648438 173.714844 C 262.773438 173.402344 262.878906 173.089844 262.941406 172.757812 L 262.085938 172.632812 C 262.023438 173.007812 261.941406 173.363281 261.816406 173.714844 Z M 265.484375 176.363281 C 265.585938 176.132812 265.671875 175.882812 265.773438 175.652344 L 267.148438 175.652344 C 267.128906 177.195312 266.898438 178.550781 266.503906 179.695312 C 266.085938 178.738281 265.753906 177.632812 265.484375 176.363281 Z M 263.484375 176.820312 L 261.398438 176.820312 L 261.398438 175.945312 L 263.484375 175.945312 Z M 261.398438 175.300781 L 261.398438 174.363281 L 263.484375 174.363281 L 263.484375 175.300781 Z M 258.398438 172.882812 L 257.835938 173.425781 C 258.628906 174.007812 259.234375 174.570312 259.691406 175.089844 L 260.253906 174.550781 C 259.734375 173.988281 259.128906 173.445312 258.398438 172.882812 Z M 258.234375 175.800781 L 257.648438 176.363281 C 258.378906 176.964844 258.941406 177.527344 259.378906 178.089844 L 259.941406 177.507812 C 259.484375 176.925781 258.898438 176.363281 258.234375 175.800781 Z M 259.316406 179.363281 C 258.878906 180.675781 258.398438 181.964844 257.816406 183.238281 L 258.585938 183.550781 C 259.109375 182.339844 259.609375 181.027344 260.046875 179.632812 Z M 259.316406 179.363281 "/>
<path style=" stroke:none;fill-rule:nonzero;fill:rgb(0%,0%,0%);fill-opacity:1;" d="M 272.921875 176.152344 L 272.921875 176.988281 L 276.359375 176.988281 L 276.359375 178.839844 L 273.734375 178.839844 L 273.734375 183.675781 L 274.585938 183.675781 L 274.585938 183.007812 L 279.085938 183.007812 L 279.085938 183.652344 L 279.941406 183.652344 L 279.941406 178.839844 L 277.234375 178.839844 L 277.234375 176.988281 L 280.691406 176.988281 L 280.691406 176.152344 L 277.234375 176.152344 L 277.234375 174.152344 C 278.335938 174.007812 279.296875 173.777344 280.128906 173.488281 L 279.710938 172.738281 C 277.984375 173.320312 275.796875 173.613281 273.191406 173.613281 L 273.441406 174.402344 C 274.484375 174.402344 275.441406 174.363281 276.359375 174.277344 L 276.359375 176.152344 Z M 274.585938 182.195312 L 274.585938 179.652344 L 279.085938 179.652344 L 279.085938 182.195312 Z M 270.753906 172.820312 L 270.171875 173.402344 C 271.023438 173.964844 271.710938 174.507812 272.210938 175.007812 L 272.796875 174.425781 C 272.253906 173.882812 271.566406 173.363281 270.753906 172.820312 Z M 270.484375 175.695312 L 269.878906 176.277344 C 270.753906 176.902344 271.441406 177.507812 271.941406 178.070312 L 272.546875 177.464844 C 271.984375 176.882812 271.296875 176.277344 270.484375 175.695312 Z M 271.898438 178.882812 C 271.398438 180.339844 270.773438 181.757812 270.085938 183.152344 L 270.941406 183.527344 C 271.566406 182.175781 272.148438 180.714844 272.671875 179.195312 Z M 271.898438 178.882812 "/>
<path style=" stroke:none;fill-rule:nonzero;fill:rgb(0%,0%,0%);fill-opacity:1;" d="M 283.773438 181.007812 C 284.921875 180.277344 286.003906 179.425781 287.023438 178.445312 L 287.023438 180.300781 C 287.023438 180.695312 286.859375 180.882812 286.523438 180.882812 C 286.171875 180.882812 285.835938 180.863281 285.523438 180.863281 L 285.753906 181.652344 L 286.835938 181.652344 C 287.484375 181.652344 287.816406 181.300781 287.816406 180.613281 L 287.816406 178.589844 C 288.546875 179.152344 289.441406 179.925781 290.484375 180.945312 L 290.984375 180.195312 C 289.898438 179.257812 288.859375 178.445312 287.816406 177.714844 L 287.816406 175.882812 C 289.003906 175.238281 290.066406 174.589844 291.023438 173.925781 L 291.023438 173.113281 L 283.585938 173.113281 L 283.585938 173.925781 L 289.734375 173.925781 C 289.128906 174.320312 288.234375 174.820312 287.023438 175.402344 L 287.023438 177.464844 C 285.878906 178.550781 284.710938 179.445312 283.460938 180.152344 Z M 291.234375 175.300781 L 291.234375 182.214844 L 283.234375 182.214844 L 283.234375 175.300781 L 282.398438 175.300781 L 282.398438 183.675781 L 283.234375 183.675781 L 283.234375 183.007812 L 291.234375 183.007812 L 291.234375 183.695312 L 292.066406 183.695312 L 292.066406 175.300781 Z M 284.523438 175.675781 L 283.898438 176.070312 C 284.585938 176.738281 285.148438 177.320312 285.566406 177.882812 L 286.234375 177.425781 C 285.835938 176.925781 285.273438 176.339844 284.523438 175.675781 Z M 289.984375 175.589844 C 289.546875 176.320312 288.984375 176.964844 288.359375 177.488281 L 288.984375 177.925781 C 289.628906 177.363281 290.210938 176.695312 290.691406 175.925781 Z M 289.984375 175.589844 "/>
<path style=" stroke:none;fill-rule:nonzero;fill:rgb(0%,0%,0%);fill-opacity:1;" d="M 301.128906 175.320312 L 302.898438 175.320312 C 302.859375 176.945312 302.609375 178.363281 302.128906 179.570312 C 301.648438 178.570312 301.273438 177.363281 300.984375 175.945312 Z M 301.734375 180.445312 C 301.191406 181.464844 300.460938 182.277344 299.523438 182.925781 L 299.960938 183.652344 C 300.859375 183.007812 301.609375 182.195312 302.191406 181.238281 C 302.773438 182.257812 303.503906 183.070312 304.335938 183.675781 L 304.816406 182.964844 C 303.941406 182.363281 303.210938 181.550781 302.585938 180.464844 C 303.273438 179.050781 303.628906 177.320312 303.691406 175.320312 L 304.484375 175.320312 L 304.484375 174.507812 L 301.316406 174.507812 C 301.398438 173.964844 301.503906 173.402344 301.566406 172.777344 L 300.734375 172.632812 C 300.484375 174.925781 300.003906 176.738281 299.296875 178.070312 L 299.835938 178.738281 C 300.085938 178.300781 300.335938 177.820312 300.546875 177.257812 C 300.878906 178.464844 301.273438 179.507812 301.734375 180.445312 Z M 296.046875 178.238281 C 295.960938 178.488281 295.878906 178.738281 295.773438 179.007812 L 294.003906 179.007812 L 294.003906 179.757812 L 295.421875 179.757812 C 295.191406 180.238281 294.921875 180.714844 294.609375 181.257812 C 295.191406 181.464844 295.734375 181.695312 296.273438 181.925781 C 295.566406 182.320312 294.710938 182.652344 293.734375 182.902344 L 294.148438 183.632812 C 295.335938 183.300781 296.335938 182.839844 297.128906 182.300781 C 297.835938 182.613281 298.460938 182.925781 298.984375 183.238281 L 299.441406 182.570312 C 298.921875 182.277344 298.378906 182.027344 297.796875 181.757812 C 298.421875 181.175781 298.859375 180.507812 299.128906 179.714844 L 299.128906 179.007812 L 296.609375 179.007812 C 296.691406 178.777344 296.773438 178.570312 296.859375 178.339844 Z M 297.003906 181.425781 C 296.566406 181.238281 296.109375 181.070312 295.628906 180.902344 C 295.878906 180.550781 296.085938 180.152344 296.273438 179.757812 L 298.335938 179.757812 C 298.066406 180.382812 297.609375 180.945312 297.003906 181.425781 Z M 294.960938 172.882812 L 294.273438 173.113281 C 294.566406 173.570312 294.835938 174.089844 295.085938 174.675781 L 295.710938 174.382812 C 295.484375 173.863281 295.253906 173.363281 294.960938 172.882812 Z M 298.609375 172.863281 C 298.398438 173.363281 298.085938 173.863281 297.691406 174.382812 L 298.316406 174.695312 C 298.691406 174.195312 298.984375 173.675781 299.234375 173.132812 Z M 294.046875 174.964844 L 294.046875 175.714844 L 295.734375 175.714844 C 295.378906 176.382812 294.734375 176.988281 293.816406 177.527344 L 294.234375 178.214844 C 295.253906 177.527344 295.984375 176.714844 296.378906 175.757812 L 296.378906 178.027344 L 297.191406 178.027344 L 297.191406 176.488281 C 297.609375 176.757812 298.128906 177.152344 298.734375 177.632812 L 299.171875 176.964844 C 298.503906 176.550781 297.835938 176.175781 297.191406 175.863281 L 297.191406 175.714844 L 299.359375 175.714844 L 299.359375 174.964844 L 297.191406 174.964844 L 297.191406 172.675781 L 296.378906 172.675781 L 296.378906 174.964844 Z M 294.046875 174.964844 "/>
<path style="fill:none;stroke-width:1;stroke-linecap:round;stroke-linejoin:round;stroke:rgb(0%,0%,0%);stroke-opacity:1;stroke-miterlimit:10;" d="M 123.924805 -80.601562 L 217.926758 -80.601562 L 217.926758 -62.601562 L 123.924805 -62.601562 Z M 123.924805 -80.601562 " transform="matrix(1.333333,0,0,1.333333,53.333333,132)"/>
<path style=" stroke:none;fill-rule:nonzero;fill:rgb(0%,0%,0%);fill-opacity:1;" d="M 260.648438 32.449219 L 260.648438 36.199219 L 261.691406 36.199219 L 262.046875 37.222656 L 260.191406 37.222656 L 260.191406 37.949219 L 261.378906 37.949219 C 261.253906 38.867188 261.085938 39.597656 260.878906 40.136719 C 260.648438 40.722656 260.296875 41.242188 259.816406 41.722656 L 260.335938 42.410156 C 260.898438 41.847656 261.316406 41.222656 261.609375 40.511719 C 261.710938 40.242188 261.796875 39.949219 261.878906 39.597656 L 263.359375 39.597656 C 263.335938 40.429688 263.296875 40.949219 263.234375 41.179688 C 263.171875 41.410156 262.960938 41.511719 262.648438 41.535156 L 261.921875 41.535156 L 262.128906 42.285156 L 262.878906 42.285156 C 263.359375 42.261719 263.710938 42.097656 263.898438 41.742188 C 264.085938 41.410156 264.191406 40.449219 264.191406 38.886719 L 262.023438 38.886719 C 262.066406 38.597656 262.109375 38.304688 262.171875 37.949219 L 264.566406 37.949219 L 264.566406 37.222656 L 262.859375 37.222656 L 262.503906 36.199219 L 264.046875 36.199219 L 264.523438 36.785156 C 264.671875 36.574219 264.835938 36.324219 265.003906 36.054688 C 265.273438 37.304688 265.648438 38.410156 266.109375 39.347656 C 265.648438 40.261719 265.046875 41.011719 264.296875 41.617188 L 264.753906 42.367188 C 265.484375 41.785156 266.085938 41.054688 266.566406 40.199219 C 267.066406 41.074219 267.648438 41.761719 268.316406 42.285156 L 268.816406 41.554688 C 268.085938 41.054688 267.484375 40.304688 266.960938 39.367188 C 267.566406 38.011719 267.878906 36.347656 267.941406 34.386719 L 268.628906 34.386719 L 268.628906 33.574219 L 266.023438 33.574219 C 266.191406 32.949219 266.335938 32.261719 266.441406 31.535156 L 265.648438 31.386719 C 265.378906 33.199219 264.921875 34.679688 264.234375 35.804688 L 264.234375 32.449219 L 262.648438 32.449219 C 262.773438 32.136719 262.878906 31.824219 262.941406 31.492188 L 262.085938 31.367188 C 262.023438 31.742188 261.941406 32.097656 261.816406 32.449219 Z M 265.484375 35.097656 C 265.585938 34.867188 265.671875 34.617188 265.773438 34.386719 L 267.148438 34.386719 C 267.128906 35.929688 266.898438 37.285156 266.503906 38.429688 C 266.085938 37.472656 265.753906 36.367188 265.484375 35.097656 Z M 263.484375 35.554688 L 261.398438 35.554688 L 261.398438 34.679688 L 263.484375 34.679688 Z M 261.398438 34.035156 L 261.398438 33.097656 L 263.484375 33.097656 L 263.484375 34.035156 Z M 258.398438 31.617188 L 257.835938 32.160156 C 258.628906 32.742188 259.234375 33.304688 259.691406 33.824219 L 260.253906 33.285156 C 259.734375 32.722656 259.128906 32.179688 258.398438 31.617188 Z M 258.234375 34.535156 L 257.648438 35.097656 C 258.378906 35.699219 258.941406 36.261719 259.378906 36.824219 L 259.941406 36.242188 C 259.484375 35.660156 258.898438 35.097656 258.234375 34.535156 Z M 259.316406 38.097656 C 258.878906 39.410156 258.398438 40.699219 257.816406 41.972656 L 258.585938 42.285156 C 259.109375 41.074219 259.609375 39.761719 260.046875 38.367188 Z M 259.316406 38.097656 "/>
<path style=" stroke:none;fill-rule:nonzero;fill:rgb(0%,0%,0%);fill-opacity:1;" d="M 272.921875 34.886719 L 272.921875 35.722656 L 276.359375 35.722656 L 276.359375 37.574219 L 273.734375 37.574219 L 273.734375 42.410156 L 274.585938 42.410156 L 274.585938 41.742188 L 279.085938 41.742188 L 279.085938 42.386719 L 279.941406 42.386719 L 279.941406 37.574219 L 277.234375 37.574219 L 277.234375 35.722656 L 280.691406 35.722656 L 280.691406 34.886719 L 277.234375 34.886719 L 277.234375 32.886719 C 278.335938 32.742188 279.296875 32.511719 280.128906 32.222656 L 279.710938 31.472656 C 277.984375 32.054688 275.796875 32.347656 273.191406 32.347656 L 273.441406 33.136719 C 274.484375 33.136719 275.441406 33.097656 276.359375 33.011719 L 276.359375 34.886719 Z M 274.585938 40.929688 L 274.585938 38.386719 L 279.085938 38.386719 L 279.085938 40.929688 Z M 270.753906 31.554688 L 270.171875 32.136719 C 271.023438 32.699219 271.710938 33.242188 272.210938 33.742188 L 272.796875 33.160156 C 272.253906 32.617188 271.566406 32.097656 270.753906 31.554688 Z M 270.484375 34.429688 L 269.878906 35.011719 C 270.753906 35.636719 271.441406 36.242188 271.941406 36.804688 L 272.546875 36.199219 C 271.984375 35.617188 271.296875 35.011719 270.484375 34.429688 Z M 271.898438 37.617188 C 271.398438 39.074219 270.773438 40.492188 270.085938 41.886719 L 270.941406 42.261719 C 271.566406 40.910156 272.148438 39.449219 272.671875 37.929688 Z M 271.898438 37.617188 "/>
<path style=" stroke:none;fill-rule:nonzero;fill:rgb(0%,0%,0%);fill-opacity:1;" d="M 283.773438 39.742188 C 284.921875 39.011719 286.003906 38.160156 287.023438 37.179688 L 287.023438 39.035156 C 287.023438 39.429688 286.859375 39.617188 286.523438 39.617188 C 286.171875 39.617188 285.835938 39.597656 285.523438 39.597656 L 285.753906 40.386719 L 286.835938 40.386719 C 287.484375 40.386719 287.816406 40.035156 287.816406 39.347656 L 287.816406 37.324219 C 288.546875 37.886719 289.441406 38.660156 290.484375 39.679688 L 290.984375 38.929688 C 289.898438 37.992188 288.859375 37.179688 287.816406 36.449219 L 287.816406 34.617188 C 289.003906 33.972656 290.066406 33.324219 291.023438 32.660156 L 291.023438 31.847656 L 283.585938 31.847656 L 283.585938 32.660156 L 289.734375 32.660156 C 289.128906 33.054688 288.234375 33.554688 287.023438 34.136719 L 287.023438 36.199219 C 285.878906 37.285156 284.710938 38.179688 283.460938 38.886719 Z M 291.234375 34.035156 L 291.234375 40.949219 L 283.234375 40.949219 L 283.234375 34.035156 L 282.398438 34.035156 L 282.398438 42.410156 L 283.234375 42.410156 L 283.234375 41.742188 L 291.234375 41.742188 L 291.234375 42.429688 L 292.066406 42.429688 L 292.066406 34.035156 Z M 284.523438 34.410156 L 283.898438 34.804688 C 284.585938 35.472656 285.148438 36.054688 285.566406 36.617188 L 286.234375 36.160156 C 285.835938 35.660156 285.273438 35.074219 284.523438 34.410156 Z M 289.984375 34.324219 C 289.546875 35.054688 288.984375 35.699219 288.359375 36.222656 L 288.984375 36.660156 C 289.628906 36.097656 290.210938 35.429688 290.691406 34.660156 Z M 289.984375 34.324219 "/>
<path style=" stroke:none;fill-rule:nonzero;fill:rgb(0%,0%,0%);fill-opacity:1;" d="M 301.128906 34.054688 L 302.898438 34.054688 C 302.859375 35.679688 302.609375 37.097656 302.128906 38.304688 C 301.648438 37.304688 301.273438 36.097656 300.984375 34.679688 Z M 301.734375 39.179688 C 301.191406 40.199219 300.460938 41.011719 299.523438 41.660156 L 299.960938 42.386719 C 300.859375 41.742188 301.609375 40.929688 302.191406 39.972656 C 302.773438 40.992188 303.503906 41.804688 304.335938 42.410156 L 304.816406 41.699219 C 303.941406 41.097656 303.210938 40.285156 302.585938 39.199219 C 303.273438 37.785156 303.628906 36.054688 303.691406 34.054688 L 304.484375 34.054688 L 304.484375 33.242188 L 301.316406 33.242188 C 301.398438 32.699219 301.503906 32.136719 301.566406 31.511719 L 300.734375 31.367188 C 300.484375 33.660156 300.003906 35.472656 299.296875 36.804688 L 299.835938 37.472656 C 300.085938 37.035156 300.335938 36.554688 300.546875 35.992188 C 300.878906 37.199219 301.273438 38.242188 301.734375 39.179688 Z M 296.046875 36.972656 C 295.960938 37.222656 295.878906 37.472656 295.773438 37.742188 L 294.003906 37.742188 L 294.003906 38.492188 L 295.421875 38.492188 C 295.191406 38.972656 294.921875 39.449219 294.609375 39.992188 C 295.191406 40.199219 295.734375 40.429688 296.273438 40.660156 C 295.566406 41.054688 294.710938 41.386719 293.734375 41.636719 L 294.148438 42.367188 C 295.335938 42.035156 296.335938 41.574219 297.128906 41.035156 C 297.835938 41.347656 298.460938 41.660156 298.984375 41.972656 L 299.441406 41.304688 C 298.921875 41.011719 298.378906 40.761719 297.796875 40.492188 C 298.421875 39.910156 298.859375 39.242188 299.128906 38.449219 L 299.128906 37.742188 L 296.609375 37.742188 C 296.691406 37.511719 296.773438 37.304688 296.859375 37.074219 Z M 297.003906 40.160156 C 296.566406 39.972656 296.109375 39.804688 295.628906 39.636719 C 295.878906 39.285156 296.085938 38.886719 296.273438 38.492188 L 298.335938 38.492188 C 298.066406 39.117188 297.609375 39.679688 297.003906 40.160156 Z M 294.960938 31.617188 L 294.273438 31.847656 C 294.566406 32.304688 294.835938 32.824219 295.085938 33.410156 L 295.710938 33.117188 C 295.484375 32.597656 295.253906 32.097656 294.960938 31.617188 Z M 298.609375 31.597656 C 298.398438 32.097656 298.085938 32.597656 297.691406 33.117188 L 298.316406 33.429688 C 298.691406 32.929688 298.984375 32.410156 299.234375 31.867188 Z M 294.046875 33.699219 L 294.046875 34.449219 L 295.734375 34.449219 C 295.378906 35.117188 294.734375 35.722656 293.816406 36.261719 L 294.234375 36.949219 C 295.253906 36.261719 295.984375 35.449219 296.378906 34.492188 L 296.378906 36.761719 L 297.191406 36.761719 L 297.191406 35.222656 C 297.609375 35.492188 298.128906 35.886719 298.734375 36.367188 L 299.171875 35.699219 C 298.503906 35.285156 297.835938 34.910156 297.191406 34.597656 L 297.191406 34.449219 L 299.359375 34.449219 L 299.359375 33.699219 L 297.191406 33.699219 L 297.191406 31.410156 L 296.378906 31.410156 L 296.378906 33.699219 Z M 294.046875 33.699219 "/>
<path style="fill:none;stroke-width:1;stroke-linecap:round;stroke-linejoin:round;stroke:rgb(0%,0%,0%);stroke-opacity:1;stroke-miterlimit:10;" d="M 123.924805 -3.249023 L 217.926758 -3.249023 L 217.926758 14.750977 L 123.924805 14.750977 Z M 123.924805 -3.249023 " transform="matrix(1.333333,0,0,1.333333,53.333333,132)"/>
<path style=" stroke:none;fill-rule:nonzero;fill:rgb(0%,0%,0%);fill-opacity:1;" d="M 266.671875 139.292969 C 267.046875 139.730469 267.484375 140.332031 268.003906 141.082031 L 268.503906 140.355469 C 267.878906 139.625 267.273438 138.980469 266.671875 138.394531 L 266.671875 137.707031 L 268.253906 137.707031 L 268.253906 136.875 L 266.671875 136.875 L 266.671875 134.542969 L 265.816406 134.542969 L 265.816406 136.875 L 263.921875 136.875 L 263.921875 137.707031 L 265.796875 137.707031 C 265.378906 139.207031 264.671875 140.542969 263.671875 141.707031 L 264.066406 142.6875 C 264.796875 141.667969 265.378906 140.519531 265.816406 139.25 L 265.816406 145.480469 L 266.671875 145.480469 Z M 273.109375 136.082031 C 272.816406 137.957031 272.253906 139.625 271.398438 141.0625 C 270.523438 139.582031 270.003906 137.9375 269.878906 136.082031 Z M 270.878906 141.832031 C 270.066406 142.957031 269.023438 143.957031 267.773438 144.792969 L 268.316406 145.480469 C 269.523438 144.6875 270.566406 143.730469 271.398438 142.582031 C 272.148438 143.644531 273.085938 144.605469 274.234375 145.5 L 274.816406 144.792969 C 273.628906 143.917969 272.671875 142.9375 271.898438 141.855469 C 272.921875 140.25 273.609375 138.3125 273.941406 136.082031 L 273.941406 135.269531 L 268.546875 135.269531 L 268.546875 136.082031 L 269.023438 136.082031 C 269.191406 138.1875 269.816406 140.105469 270.878906 141.832031 Z M 270.878906 141.832031 "/>
<path style=" stroke:none;fill-rule:nonzero;fill:rgb(0%,0%,0%);fill-opacity:1;" d="M 277.085938 138.0625 L 277.085938 142.042969 L 280.796875 142.042969 L 280.796875 142.875 L 276.523438 142.875 L 276.523438 143.5625 L 280.796875 143.5625 L 280.796875 144.457031 L 275.921875 144.457031 L 275.921875 145.230469 L 286.546875 145.230469 L 286.546875 144.457031 L 281.648438 144.457031 L 281.648438 143.5625 L 285.941406 143.5625 L 285.941406 142.875 L 281.648438 142.875 L 281.648438 142.042969 L 285.378906 142.042969 L 285.378906 138.0625 L 281.648438 138.0625 L 281.648438 137.292969 L 286.378906 137.292969 L 286.378906 136.542969 L 281.648438 136.542969 L 281.648438 135.625 C 282.984375 135.542969 284.234375 135.457031 285.378906 135.332031 L 285.128906 134.605469 C 282.734375 134.875 279.984375 135.0625 276.859375 135.144531 L 277.003906 135.855469 C 278.316406 135.8125 279.585938 135.75 280.796875 135.6875 L 280.796875 136.542969 L 276.085938 136.542969 L 276.085938 137.292969 L 280.796875 137.292969 L 280.796875 138.0625 Z M 284.523438 141.355469 L 281.648438 141.355469 L 281.648438 140.375 L 284.523438 140.375 Z M 280.796875 141.355469 L 277.898438 141.355469 L 277.898438 140.375 L 280.796875 140.375 Z M 277.898438 139.707031 L 277.898438 138.75 L 280.796875 138.75 L 280.796875 139.707031 Z M 281.648438 138.75 L 284.523438 138.75 L 284.523438 139.707031 L 281.648438 139.707031 Z M 281.648438 138.75 "/>
<path style=" stroke:none;fill-rule:nonzero;fill:rgb(0%,0%,0%);fill-opacity:1;" d="M 291.128906 139.125 L 291.128906 139.894531 L 297.628906 139.894531 L 297.628906 139.125 Z M 290.273438 141.082031 L 290.273438 141.875 L 292.898438 141.875 C 292.066406 143.230469 291.359375 144.0625 290.835938 144.375 C 290.773438 144.394531 290.734375 144.4375 290.648438 144.457031 L 290.835938 145.1875 C 293.109375 145.042969 295.191406 144.832031 297.085938 144.582031 C 297.335938 144.875 297.546875 145.1875 297.753906 145.5 L 298.441406 145.019531 C 297.921875 144.25 297.148438 143.332031 296.171875 142.292969 L 295.523438 142.6875 C 295.878906 143.105469 296.234375 143.5 296.566406 143.894531 C 295.023438 144.125 293.460938 144.292969 291.878906 144.394531 C 292.441406 143.894531 293.085938 143.042969 293.816406 141.875 L 298.421875 141.875 L 298.421875 141.082031 Z M 296.960938 135.8125 L 296.960938 137.207031 L 289.898438 137.207031 L 289.898438 135.8125 Z M 289.898438 137.980469 L 297.796875 137.980469 L 297.796875 135 L 289.066406 135 L 289.066406 138.980469 C 289.046875 141.394531 288.628906 143.355469 287.796875 144.875 L 288.421875 145.457031 C 289.398438 143.644531 289.898438 141.480469 289.898438 138.980469 Z M 289.898438 137.980469 "/>
<path style="fill:none;stroke-width:1;stroke-linecap:round;stroke-linejoin:round;stroke:rgb(0%,0%,0%);stroke-opacity:1;stroke-miterlimit:10;" d="M 170.925781 53.950195 L 170.925781 49.250977 " transform="matrix(1.333333,0,0,1.333333,53.333333,132)"/>
<path style="fill:none;stroke-width:1;stroke-linecap:butt;stroke-linejoin:miter;stroke:rgb(0%,0%,0%);stroke-opacity:1;stroke-miterlimit:10;" d="M 170.925781 45.249023 L 170.925781 49.250977 M 169.425781 49.250977 L 170.925781 45.249023 L 172.425781 49.250977 " transform="matrix(1.333333,0,0,1.333333,53.333333,132)"/>
<path style="fill:none;stroke-width:1;stroke-linecap:round;stroke-linejoin:round;stroke:rgb(0%,0%,0%);stroke-opacity:1;stroke-miterlimit:10;" d="M 170.925781 25.350586 L 170.925781 20.648438 " transform="matrix(1.333333,0,0,1.333333,53.333333,132)"/>
<path style="fill:none;stroke-width:1;stroke-linecap:butt;stroke-linejoin:miter;stroke:rgb(0%,0%,0%);stroke-opacity:1;stroke-miterlimit:10;" d="M 170.925781 16.649414 L 170.925781 20.648438 M 169.425781 20.648438 L 170.925781 16.649414 L 172.425781 20.648438 " transform="matrix(1.333333,0,0,1.333333,53.333333,132)"/>
<path style="fill:none;stroke-width:1;stroke-linecap:round;stroke-linejoin:round;stroke:rgb(0%,0%,0%);stroke-opacity:1;stroke-miterlimit:10;" d="M 170.925781 -3.249023 L 170.925781 -23.727539 " transform="matrix(1.333333,0,0,1.333333,53.333333,132)"/>
<path style="fill:none;stroke-width:1;stroke-linecap:butt;stroke-linejoin:miter;stroke:rgb(0%,0%,0%);stroke-opacity:1;stroke-miterlimit:10;" d="M 170.925781 -27.726562 L 170.925781 -23.727539 M 169.425781 -23.727539 L 170.925781 -27.726562 L 172.425781 -23.727539 " transform="matrix(1.333333,0,0,1.333333,53.333333,132)"/>
<path style="fill:none;stroke-width:1;stroke-linecap:round;stroke-linejoin:round;stroke:rgb(0%,0%,0%);stroke-opacity:1;stroke-miterlimit:10;" d="M 170.925781 -43.125 L 170.925781 -56.698242 " transform="matrix(1.333333,0,0,1.333333,53.333333,132)"/>
<path style="fill:none;stroke-width:1;stroke-linecap:butt;stroke-linejoin:miter;stroke:rgb(0%,0%,0%);stroke-opacity:1;stroke-miterlimit:10;" d="M 170.925781 -60.700195 L 170.925781 -56.698242 M 169.425781 -56.698242 L 170.925781 -60.700195 L 172.425781 -56.698242 " transform="matrix(1.333333,0,0,1.333333,53.333333,132)"/>
<path style="fill:none;stroke-width:1;stroke-linecap:round;stroke-linejoin:round;stroke:rgb(0%,0%,0%);stroke-opacity:1;stroke-miterlimit:10;" d="M 170.925781 90.996094 L 236 90.996094 C 237.655273 90.996094 239 89.651367 239 87.996094 L 239 -33.999023 C 239 -35.657227 237.655273 -36.999023 236 -36.999023 L 184.824219 -36.999023 " transform="matrix(1.333333,0,0,1.333333,53.333333,132)"/>
<path style="fill:none;stroke-width:1;stroke-linecap:butt;stroke-linejoin:miter;stroke:rgb(0%,0%,0%);stroke-opacity:1;stroke-miterlimit:10;" d="M 180.825195 -36.999023 L 184.824219 -36.999023 M 184.824219 -35.499023 L 180.825195 -36.999023 L 184.824219 -38.499023 " transform="matrix(1.333333,0,0,1.333333,53.333333,132)"/>
<path style=" stroke:none;fill-rule:nonzero;fill:rgb(0%,0%,0%);fill-opacity:1;" d="M 237.566406 103.988281 L 237.484375 104.382812 L 238.566406 104.382812 L 237.503906 109.425781 C 237.234375 110.714844 236.859375 111.363281 236.335938 111.363281 C 236.210938 111.363281 236.109375 111.277344 236.109375 111.175781 C 236.109375 111.050781 236.210938 110.988281 236.210938 110.820312 C 236.210938 110.570312 236.023438 110.382812 235.753906 110.382812 C 235.503906 110.382812 235.296875 110.613281 235.296875 110.882812 C 235.296875 111.300781 235.710938 111.613281 236.253906 111.613281 C 237.335938 111.613281 238.148438 110.445312 238.648438 108.214844 L 239.523438 104.382812 L 240.816406 104.382812 L 240.878906 103.988281 L 239.609375 103.988281 C 239.941406 102.089844 240.398438 101.257812 241.066406 101.257812 C 241.234375 101.257812 241.316406 101.320312 241.316406 101.425781 C 241.316406 101.527344 241.210938 101.589844 241.210938 101.777344 C 241.210938 102.070312 241.441406 102.257812 241.648438 102.257812 C 241.921875 102.257812 242.148438 102.007812 242.148438 101.738281 C 242.148438 101.300781 241.710938 100.988281 241.128906 100.988281 C 240.398438 100.988281 239.898438 101.402344 239.546875 101.925781 C 239.148438 102.488281 238.941406 103.152344 238.671875 103.988281 Z M 237.566406 103.988281 "/>
<path style=" stroke:none;fill-rule:nonzero;fill:rgb(0%,0%,0%);fill-opacity:1;" d="M 244.046875 111.070312 C 242.359375 109.652344 242.007812 108.300781 242.007812 106.070312 C 242.007812 103.757812 242.382812 102.632812 244.046875 101.214844 L 243.945312 101.027344 C 242.027344 102.152344 240.984375 103.882812 240.984375 106.113281 C 240.984375 108.152344 242.007812 110.175781 243.902344 111.257812 Z M 244.046875 111.070312 "/>
<path style=" stroke:none;fill-rule:nonzero;fill:rgb(0%,0%,0%);fill-opacity:1;" d="M 250.210938 109.132812 L 250.210938 108.839844 C 250.023438 108.777344 249.941406 108.738281 249.855469 108.613281 L 248.066406 105.863281 L 249.273438 104.363281 C 249.503906 104.089844 249.753906 103.945312 250.128906 103.882812 L 250.128906 103.589844 L 248.105469 103.589844 L 248.105469 103.882812 L 248.355469 103.902344 C 248.628906 103.945312 248.710938 103.988281 248.710938 104.175781 C 248.710938 104.363281 248.585938 104.527344 248.253906 104.945312 L 247.835938 105.488281 C 247.773438 105.425781 247.730469 105.363281 247.667969 105.300781 C 247.273438 104.777344 246.980469 104.277344 246.980469 104.113281 C 246.980469 103.964844 247.148438 103.902344 247.542969 103.882812 L 247.542969 103.589844 L 244.542969 103.589844 L 244.542969 103.882812 C 244.855469 103.945312 244.917969 103.988281 245.167969 104.363281 L 246.710938 106.714844 C 246.523438 106.945312 246.628906 106.820312 246.441406 107.050781 L 245.917969 107.738281 C 245.253906 108.632812 245.003906 108.820312 244.566406 108.839844 L 244.566406 109.132812 L 246.585938 109.132812 L 246.585938 108.839844 C 246.167969 108.820312 246.003906 108.738281 246.003906 108.550781 C 246.003906 108.363281 246.292969 107.882812 246.753906 107.320312 C 246.835938 107.238281 246.898438 107.152344 246.960938 107.089844 C 247.105469 107.339844 247.273438 107.589844 247.460938 107.839844 C 247.753906 108.257812 247.855469 108.464844 247.855469 108.613281 C 247.855469 108.757812 247.691406 108.820312 247.316406 108.839844 L 247.316406 109.132812 Z M 250.210938 109.132812 "/>
<path style=" stroke:none;fill-rule:nonzero;fill:rgb(0%,0%,0%);fill-opacity:1;" d="M 250.753906 101.214844 C 252.480469 102.589844 252.792969 103.964844 252.792969 106.195312 C 252.792969 108.527344 252.441406 109.652344 250.753906 111.070312 L 250.855469 111.257812 C 252.753906 110.089844 253.816406 108.382812 253.816406 106.175781 C 253.816406 104.132812 252.730469 102.132812 250.898438 101.027344 Z M 250.753906 101.214844 "/>
<path style=" stroke:none;fill-rule:nonzero;fill:rgb(0%,0%,0%);fill-opacity:1;" d="M 264.851562 106.488281 L 264.851562 105.695312 L 258.164062 105.695312 L 258.164062 106.488281 Z M 264.851562 106.488281 "/>
<path style=" stroke:none;fill-rule:nonzero;fill:rgb(0%,0%,0%);fill-opacity:1;" d="M 274.425781 109.132812 L 274.425781 108.839844 C 274.238281 108.777344 274.15625 108.738281 274.074219 108.613281 L 272.28125 105.863281 L 273.488281 104.363281 C 273.71875 104.089844 273.96875 103.945312 274.34375 103.882812 L 274.34375 103.589844 L 272.324219 103.589844 L 272.324219 103.882812 L 272.574219 103.902344 C 272.84375 103.945312 272.925781 103.988281 272.925781 104.175781 C 272.925781 104.363281 272.800781 104.527344 272.46875 104.945312 L 272.050781 105.488281 C 271.988281 105.425781 271.949219 105.363281 271.886719 105.300781 C 271.488281 104.777344 271.199219 104.277344 271.199219 104.113281 C 271.199219 103.964844 271.363281 103.902344 271.761719 103.882812 L 271.761719 103.589844 L 268.761719 103.589844 L 268.761719 103.882812 C 269.074219 103.945312 269.136719 103.988281 269.386719 104.363281 L 270.925781 106.714844 C 270.738281 106.945312 270.84375 106.820312 270.65625 107.050781 L 270.136719 107.738281 C 269.46875 108.632812 269.21875 108.820312 268.78125 108.839844 L 268.78125 109.132812 L 270.800781 109.132812 L 270.800781 108.839844 C 270.386719 108.820312 270.21875 108.738281 270.21875 108.550781 C 270.21875 108.363281 270.511719 107.882812 270.96875 107.320312 C 271.050781 107.238281 271.113281 107.152344 271.175781 107.089844 C 271.324219 107.339844 271.488281 107.589844 271.675781 107.839844 C 271.96875 108.257812 272.074219 108.464844 272.074219 108.613281 C 272.074219 108.757812 271.90625 108.820312 271.53125 108.839844 L 271.53125 109.132812 Z M 274.425781 109.132812 "/>
<path style=" stroke:none;fill-rule:nonzero;fill:rgb(0%,0%,0%);fill-opacity:1;" d="M 323.144531 76.667969 L 323.144531 76.375 C 322.957031 76.3125 322.875 76.269531 322.792969 76.144531 L 321 73.394531 L 322.207031 71.894531 C 322.4375 71.625 322.6875 71.480469 323.0625 71.417969 L 323.0625 71.125 L 321.042969 71.125 L 321.042969 71.417969 L 321.292969 71.4375 C 321.5625 71.480469 321.644531 71.519531 321.644531 71.707031 C 321.644531 71.894531 321.519531 72.0625 321.1875 72.480469 L 320.769531 73.019531 C 320.707031 72.957031 320.667969 72.894531 320.605469 72.832031 C 320.207031 72.3125 319.917969 71.8125 319.917969 71.644531 C 319.917969 71.5 320.082031 71.4375 320.480469 71.417969 L 320.480469 71.125 L 317.480469 71.125 L 317.480469 71.417969 C 317.792969 71.480469 317.855469 71.519531 318.105469 71.894531 L 319.644531 74.25 C 319.457031 74.480469 319.5625 74.355469 319.375 74.582031 L 318.855469 75.269531 C 318.1875 76.167969 317.9375 76.355469 317.5 76.375 L 317.5 76.667969 L 319.519531 76.667969 L 319.519531 76.375 C 319.105469 76.355469 318.9375 76.269531 318.9375 76.082031 C 318.9375 75.894531 319.230469 75.417969 319.6875 74.855469 C 319.769531 74.769531 319.832031 74.6875 319.894531 74.625 C 320.042969 74.875 320.207031 75.125 320.394531 75.375 C 320.6875 75.792969 320.792969 76 320.792969 76.144531 C 320.792969 76.292969 320.625 76.355469 320.25 76.375 L 320.25 76.667969 Z M 323.144531 76.667969 "/>
<path style=" stroke:none;fill-rule:nonzero;fill:rgb(0%,0%,0%);fill-opacity:1;" d="M 258.535156 62.054688 L 258.449219 62.449219 L 259.535156 62.449219 L 258.472656 67.492188 C 258.199219 68.785156 257.824219 69.429688 257.304688 69.429688 C 257.179688 69.429688 257.074219 69.347656 257.074219 69.242188 C 257.074219 69.117188 257.179688 69.054688 257.179688 68.886719 C 257.179688 68.636719 256.992188 68.449219 256.722656 68.449219 C 256.472656 68.449219 256.261719 68.679688 256.261719 68.949219 C 256.261719 69.367188 256.679688 69.679688 257.222656 69.679688 C 258.304688 69.679688 259.117188 68.511719 259.617188 66.285156 L 260.492188 62.449219 L 261.785156 62.449219 L 261.847656 62.054688 L 260.574219 62.054688 C 260.910156 60.160156 261.367188 59.324219 262.035156 59.324219 C 262.199219 59.324219 262.285156 59.386719 262.285156 59.492188 C 262.285156 59.597656 262.179688 59.660156 262.179688 59.847656 C 262.179688 60.136719 262.410156 60.324219 262.617188 60.324219 C 262.886719 60.324219 263.117188 60.074219 263.117188 59.804688 C 263.117188 59.367188 262.679688 59.054688 262.097656 59.054688 C 261.367188 59.054688 260.867188 59.472656 260.511719 59.992188 C 260.117188 60.554688 259.910156 61.222656 259.636719 62.054688 Z M 258.535156 62.054688 "/>
<path style=" stroke:none;fill-rule:nonzero;fill:rgb(0%,0%,0%);fill-opacity:1;" d="M 265.015625 69.136719 C 263.328125 67.722656 262.972656 66.367188 262.972656 64.136719 C 262.972656 61.824219 263.347656 60.699219 265.015625 59.285156 L 264.910156 59.097656 C 262.996094 60.222656 261.953125 61.949219 261.953125 64.179688 C 261.953125 66.222656 262.972656 68.242188 264.871094 69.324219 Z M 265.015625 69.136719 "/>
<path style=" stroke:none;fill-rule:nonzero;fill:rgb(0%,0%,0%);fill-opacity:1;" d="M 271.179688 67.199219 L 271.179688 66.910156 C 270.992188 66.847656 270.90625 66.804688 270.824219 66.679688 L 269.03125 63.929688 L 270.242188 62.429688 C 270.46875 62.160156 270.71875 62.011719 271.09375 61.949219 L 271.09375 61.660156 L 269.074219 61.660156 L 269.074219 61.949219 L 269.324219 61.972656 C 269.59375 62.011719 269.679688 62.054688 269.679688 62.242188 C 269.679688 62.429688 269.554688 62.597656 269.21875 63.011719 L 268.804688 63.554688 C 268.742188 63.492188 268.699219 63.429688 268.636719 63.367188 C 268.242188 62.847656 267.949219 62.347656 267.949219 62.179688 C 267.949219 62.035156 268.117188 61.972656 268.511719 61.949219 L 268.511719 61.660156 L 265.511719 61.660156 L 265.511719 61.949219 C 265.824219 62.011719 265.886719 62.054688 266.136719 62.429688 L 267.679688 64.785156 C 267.492188 65.011719 267.59375 64.886719 267.40625 65.117188 L 266.886719 65.804688 C 266.21875 66.699219 265.96875 66.886719 265.53125 66.910156 L 265.53125 67.199219 L 267.554688 67.199219 L 267.554688 66.910156 C 267.136719 66.886719 266.96875 66.804688 266.96875 66.617188 C 266.96875 66.429688 267.261719 65.949219 267.71875 65.386719 C 267.804688 65.304688 267.867188 65.222656 267.929688 65.160156 C 268.074219 65.410156 268.242188 65.660156 268.429688 65.910156 C 268.71875 66.324219 268.824219 66.535156 268.824219 66.679688 C 268.824219 66.824219 268.65625 66.886719 268.28125 66.910156 L 268.28125 67.199219 Z M 271.179688 67.199219 "/>
<path style=" stroke:none;fill-rule:nonzero;fill:rgb(0%,0%,0%);fill-opacity:1;" d="M 271.71875 59.285156 C 273.449219 60.660156 273.761719 62.035156 273.761719 64.261719 C 273.761719 66.597656 273.40625 67.722656 271.71875 69.136719 L 271.824219 69.324219 C 273.71875 68.160156 274.78125 66.449219 274.78125 64.242188 C 274.78125 62.199219 273.699219 60.199219 271.867188 59.097656 Z M 271.71875 59.285156 "/>
<path style="fill:none;stroke-width:1;stroke-linecap:round;stroke-linejoin:round;stroke:rgb(0%,0%,0%);stroke-opacity:1;stroke-miterlimit:10;" d="M 170.782227 -80.601562 L 170.594727 -92.100586 " transform="matrix(1.333333,0,0,1.333333,53.333333,132)"/>
<path style="fill:none;stroke-width:1;stroke-linecap:butt;stroke-linejoin:miter;stroke:rgb(0%,0%,0%);stroke-opacity:1;stroke-miterlimit:10;" d="M 170.530273 -96.102539 L 170.594727 -92.100586 M 169.094727 -92.077148 L 170.530273 -96.102539 L 172.094727 -92.124023 " transform="matrix(1.333333,0,0,1.333333,53.333333,132)"/>
<path style="fill:none;stroke-width:1;stroke-linecap:round;stroke-linejoin:round;stroke:rgb(0%,0%,0%);stroke-opacity:1;stroke-dasharray:4,4;stroke-miterlimit:10;" d="M -39.399414 -10.148438 L 76.499023 -10.148438 L 76.499023 83.399414 L -39.399414 83.399414 Z M -39.399414 -10.148438 " transform="matrix(1.333333,0,0,1.333333,53.333333,132)"/>
<path style=" stroke:none;fill-rule:nonzero;fill:rgb(69.803923%,85.09804%,100%);fill-opacity:1;" d="M 15.902344 227.933594 L 141.234375 227.933594 L 141.234375 203.933594 L 15.902344 203.933594 Z M 15.902344 227.933594 "/>
<path style="fill:none;stroke-width:1;stroke-linecap:round;stroke-linejoin:round;stroke:rgb(0%,0%,0%);stroke-opacity:1;stroke-miterlimit:10;" d="M -28.073242 53.950195 L 65.925781 53.950195 L 65.925781 71.950195 L -28.073242 71.950195 Z M -28.073242 53.950195 " transform="matrix(1.333333,0,0,1.333333,53.333333,132)"/>
<path style=" stroke:none;fill-rule:nonzero;fill:rgb(0%,0%,0%);fill-opacity:1;" d="M 64.003906 215.558594 C 64.378906 215.996094 64.816406 216.601562 65.335938 217.351562 L 65.835938 216.621094 C 65.210938 215.890625 64.609375 215.246094 64.003906 214.664062 L 64.003906 213.976562 L 65.585938 213.976562 L 65.585938 213.140625 L 64.003906 213.140625 L 64.003906 210.808594 L 63.148438 210.808594 L 63.148438 213.140625 L 61.253906 213.140625 L 61.253906 213.976562 L 63.128906 213.976562 C 62.710938 215.476562 62.003906 216.808594 61.003906 217.976562 L 61.398438 218.953125 C 62.128906 217.933594 62.710938 216.789062 63.148438 215.515625 L 63.148438 221.746094 L 64.003906 221.746094 Z M 70.441406 212.351562 C 70.148438 214.226562 69.585938 215.890625 68.734375 217.328125 C 67.859375 215.851562 67.335938 214.203125 67.210938 212.351562 Z M 68.210938 218.101562 C 67.398438 219.226562 66.359375 220.226562 65.109375 221.058594 L 65.648438 221.746094 C 66.859375 220.953125 67.898438 219.996094 68.734375 218.851562 C 69.484375 219.914062 70.421875 220.871094 71.566406 221.765625 L 72.148438 221.058594 C 70.960938 220.183594 70.003906 219.203125 69.234375 218.121094 C 70.253906 216.515625 70.941406 214.578125 71.273438 212.351562 L 71.273438 211.539062 L 65.878906 211.539062 L 65.878906 212.351562 L 66.359375 212.351562 C 66.523438 214.453125 67.148438 216.371094 68.210938 218.101562 Z M 68.210938 218.101562 "/>
<path style=" stroke:none;fill-rule:nonzero;fill:rgb(0%,0%,0%);fill-opacity:1;" d="M 74.421875 214.328125 L 74.421875 218.308594 L 78.128906 218.308594 L 78.128906 219.140625 L 73.859375 219.140625 L 73.859375 219.828125 L 78.128906 219.828125 L 78.128906 220.726562 L 73.253906 220.726562 L 73.253906 221.496094 L 83.878906 221.496094 L 83.878906 220.726562 L 78.984375 220.726562 L 78.984375 219.828125 L 83.273438 219.828125 L 83.273438 219.140625 L 78.984375 219.140625 L 78.984375 218.308594 L 82.710938 218.308594 L 82.710938 214.328125 L 78.984375 214.328125 L 78.984375 213.558594 L 83.710938 213.558594 L 83.710938 212.808594 L 78.984375 212.808594 L 78.984375 211.890625 C 80.316406 211.808594 81.566406 211.726562 82.710938 211.601562 L 82.460938 210.871094 C 80.066406 211.140625 77.316406 211.328125 74.191406 211.414062 L 74.335938 212.121094 C 75.648438 212.078125 76.921875 212.015625 78.128906 211.953125 L 78.128906 212.808594 L 73.421875 212.808594 L 73.421875 213.558594 L 78.128906 213.558594 L 78.128906 214.328125 Z M 81.859375 217.621094 L 78.984375 217.621094 L 78.984375 216.640625 L 81.859375 216.640625 Z M 78.128906 217.621094 L 75.234375 217.621094 L 75.234375 216.640625 L 78.128906 216.640625 Z M 75.234375 215.976562 L 75.234375 215.015625 L 78.128906 215.015625 L 78.128906 215.976562 Z M 78.984375 215.015625 L 81.859375 215.015625 L 81.859375 215.976562 L 78.984375 215.976562 Z M 78.984375 215.015625 "/>
<path style=" stroke:none;fill-rule:nonzero;fill:rgb(0%,0%,0%);fill-opacity:1;" d="M 88.460938 215.390625 L 88.460938 216.164062 L 94.960938 216.164062 L 94.960938 215.390625 Z M 87.609375 217.351562 L 87.609375 218.140625 L 90.234375 218.140625 C 89.398438 219.496094 88.691406 220.328125 88.171875 220.640625 C 88.109375 220.664062 88.066406 220.703125 87.984375 220.726562 L 88.171875 221.453125 C 90.441406 221.308594 92.523438 221.101562 94.421875 220.851562 C 94.671875 221.140625 94.878906 221.453125 95.085938 221.765625 L 95.773438 221.289062 C 95.253906 220.515625 94.484375 219.601562 93.503906 218.558594 L 92.859375 218.953125 C 93.210938 219.371094 93.566406 219.765625 93.898438 220.164062 C 92.359375 220.390625 90.796875 220.558594 89.210938 220.664062 C 89.773438 220.164062 90.421875 219.308594 91.148438 218.140625 L 95.753906 218.140625 L 95.753906 217.351562 Z M 94.296875 212.078125 L 94.296875 213.476562 L 87.234375 213.476562 L 87.234375 212.078125 Z M 87.234375 214.246094 L 95.128906 214.246094 L 95.128906 211.265625 L 86.398438 211.265625 L 86.398438 215.246094 C 86.378906 217.664062 85.960938 219.621094 85.128906 221.140625 L 85.753906 221.726562 C 86.734375 219.914062 87.234375 217.746094 87.234375 215.246094 Z M 87.234375 214.246094 "/>
<path style=" stroke:none;fill-rule:nonzero;fill:rgb(0%,0%,0%);fill-opacity:1;" d="M 80.878906 282.734375 L 80.878906 282.441406 C 80.691406 282.378906 80.609375 282.335938 80.523438 282.210938 L 78.734375 279.460938 L 79.941406 277.960938 C 80.171875 277.691406 80.421875 277.546875 80.796875 277.484375 L 80.796875 277.191406 L 78.773438 277.191406 L 78.773438 277.484375 L 79.023438 277.503906 C 79.296875 277.546875 79.378906 277.585938 79.378906 277.773438 C 79.378906 277.960938 79.253906 278.128906 78.921875 278.546875 L 78.503906 279.085938 C 78.441406 279.023438 78.398438 278.960938 78.335938 278.898438 C 77.941406 278.378906 77.648438 277.878906 77.648438 277.710938 C 77.648438 277.566406 77.816406 277.503906 78.210938 277.484375 L 78.210938 277.191406 L 75.210938 277.191406 L 75.210938 277.484375 C 75.523438 277.546875 75.585938 277.585938 75.835938 277.960938 L 77.378906 280.316406 C 77.191406 280.546875 77.296875 280.421875 77.109375 280.648438 L 76.585938 281.335938 C 75.921875 282.234375 75.671875 282.421875 75.234375 282.441406 L 75.234375 282.734375 L 77.253906 282.734375 L 77.253906 282.441406 C 76.835938 282.421875 76.671875 282.335938 76.671875 282.148438 C 76.671875 281.960938 76.960938 281.484375 77.421875 280.921875 C 77.503906 280.835938 77.566406 280.753906 77.628906 280.691406 C 77.773438 280.941406 77.941406 281.191406 78.128906 281.441406 C 78.421875 281.859375 78.523438 282.066406 78.523438 282.210938 C 78.523438 282.359375 78.359375 282.421875 77.984375 282.441406 L 77.984375 282.734375 Z M 80.878906 282.734375 "/>
<path style="fill:none;stroke-width:1;stroke-linecap:round;stroke-linejoin:round;stroke:rgb(0%,0%,0%);stroke-opacity:1;stroke-miterlimit:10;" d="M 18.640625 99.049805 L 18.807617 77.850586 " transform="matrix(1.333333,0,0,1.333333,53.333333,132)"/>
<path style="fill:none;stroke-width:1;stroke-linecap:butt;stroke-linejoin:miter;stroke:rgb(0%,0%,0%);stroke-opacity:1;stroke-miterlimit:10;" d="M 18.839844 73.851562 L 18.807617 77.850586 M 17.307617 77.838867 L 18.839844 73.851562 L 20.307617 77.862305 " transform="matrix(1.333333,0,0,1.333333,53.333333,132)"/>
<path style=" stroke:none;fill-rule:nonzero;fill:rgb(69.803923%,85.09804%,100%);fill-opacity:1;" d="M 15.902344 189.800781 L 141.234375 189.800781 L 141.234375 165.800781 L 15.902344 165.800781 Z M 15.902344 189.800781 "/>
<path style="fill:none;stroke-width:1;stroke-linecap:round;stroke-linejoin:round;stroke:rgb(0%,0%,0%);stroke-opacity:1;stroke-miterlimit:10;" d="M -28.073242 25.350586 L 65.925781 25.350586 L 65.925781 43.350586 L -28.073242 43.350586 Z M -28.073242 25.350586 " transform="matrix(1.333333,0,0,1.333333,53.333333,132)"/>
<path style=" stroke:none;fill-rule:nonzero;fill:rgb(0%,0%,0%);fill-opacity:1;" d="M 57.984375 173.714844 L 57.984375 177.464844 L 59.023438 177.464844 L 59.378906 178.488281 L 57.523438 178.488281 L 57.523438 179.214844 L 58.710938 179.214844 C 58.585938 180.132812 58.421875 180.863281 58.210938 181.402344 C 57.984375 181.988281 57.628906 182.507812 57.148438 182.988281 L 57.671875 183.675781 C 58.234375 183.113281 58.648438 182.488281 58.941406 181.777344 C 59.046875 181.507812 59.128906 181.214844 59.210938 180.863281 L 60.691406 180.863281 C 60.671875 181.695312 60.628906 182.214844 60.566406 182.445312 C 60.503906 182.675781 60.296875 182.777344 59.984375 182.800781 L 59.253906 182.800781 L 59.460938 183.550781 L 60.210938 183.550781 C 60.691406 183.527344 61.046875 183.363281 61.234375 183.007812 C 61.421875 182.675781 61.523438 181.714844 61.523438 180.152344 L 59.359375 180.152344 C 59.398438 179.863281 59.441406 179.570312 59.503906 179.214844 L 61.898438 179.214844 L 61.898438 178.488281 L 60.191406 178.488281 L 59.835938 177.464844 L 61.378906 177.464844 L 61.859375 178.050781 C 62.003906 177.839844 62.171875 177.589844 62.335938 177.320312 C 62.609375 178.570312 62.984375 179.675781 63.441406 180.613281 C 62.984375 181.527344 62.378906 182.277344 61.628906 182.882812 L 62.085938 183.632812 C 62.816406 183.050781 63.421875 182.320312 63.898438 181.464844 C 64.398438 182.339844 64.984375 183.027344 65.648438 183.550781 L 66.148438 182.820312 C 65.421875 182.320312 64.816406 181.570312 64.296875 180.632812 C 64.898438 179.277344 65.210938 177.613281 65.273438 175.652344 L 65.960938 175.652344 L 65.960938 174.839844 L 63.359375 174.839844 C 63.523438 174.214844 63.671875 173.527344 63.773438 172.800781 L 62.984375 172.652344 C 62.710938 174.464844 62.253906 175.945312 61.566406 177.070312 L 61.566406 173.714844 L 59.984375 173.714844 C 60.109375 173.402344 60.210938 173.089844 60.273438 172.757812 L 59.421875 172.632812 C 59.359375 173.007812 59.273438 173.363281 59.148438 173.714844 Z M 62.816406 176.363281 C 62.921875 176.132812 63.003906 175.882812 63.109375 175.652344 L 64.484375 175.652344 C 64.460938 177.195312 64.234375 178.550781 63.835938 179.695312 C 63.421875 178.738281 63.085938 177.632812 62.816406 176.363281 Z M 60.816406 176.820312 L 58.734375 176.820312 L 58.734375 175.945312 L 60.816406 175.945312 Z M 58.734375 175.300781 L 58.734375 174.363281 L 60.816406 174.363281 L 60.816406 175.300781 Z M 55.734375 172.882812 L 55.171875 173.425781 C 55.960938 174.007812 56.566406 174.570312 57.023438 175.089844 L 57.585938 174.550781 C 57.066406 173.988281 56.460938 173.445312 55.734375 172.882812 Z M 55.566406 175.800781 L 54.984375 176.363281 C 55.710938 176.964844 56.273438 177.527344 56.710938 178.089844 L 57.273438 177.507812 C 56.816406 176.925781 56.234375 176.363281 55.566406 175.800781 Z M 56.648438 179.363281 C 56.210938 180.675781 55.734375 181.964844 55.148438 183.238281 L 55.921875 183.550781 C 56.441406 182.339844 56.941406 181.027344 57.378906 179.632812 Z M 56.648438 179.363281 "/>
<path style=" stroke:none;fill-rule:nonzero;fill:rgb(0%,0%,0%);fill-opacity:1;" d="M 70.253906 176.152344 L 70.253906 176.988281 L 73.691406 176.988281 L 73.691406 178.839844 L 71.066406 178.839844 L 71.066406 183.675781 L 71.921875 183.675781 L 71.921875 183.007812 L 76.421875 183.007812 L 76.421875 183.652344 L 77.273438 183.652344 L 77.273438 178.839844 L 74.566406 178.839844 L 74.566406 176.988281 L 78.023438 176.988281 L 78.023438 176.152344 L 74.566406 176.152344 L 74.566406 174.152344 C 75.671875 174.007812 76.628906 173.777344 77.460938 173.488281 L 77.046875 172.738281 C 75.316406 173.320312 73.128906 173.613281 70.523438 173.613281 L 70.773438 174.402344 C 71.816406 174.402344 72.773438 174.363281 73.691406 174.277344 L 73.691406 176.152344 Z M 71.921875 182.195312 L 71.921875 179.652344 L 76.421875 179.652344 L 76.421875 182.195312 Z M 68.085938 172.820312 L 67.503906 173.402344 C 68.359375 173.964844 69.046875 174.507812 69.546875 175.007812 L 70.128906 174.425781 C 69.585938 173.882812 68.898438 173.363281 68.085938 172.820312 Z M 67.816406 175.695312 L 67.210938 176.277344 C 68.085938 176.902344 68.773438 177.507812 69.273438 178.070312 L 69.878906 177.464844 C 69.316406 176.882812 68.628906 176.277344 67.816406 175.695312 Z M 69.234375 178.882812 C 68.734375 180.339844 68.109375 181.757812 67.421875 183.152344 L 68.273438 183.527344 C 68.898438 182.175781 69.484375 180.714844 70.003906 179.195312 Z M 69.234375 178.882812 "/>
<path style=" stroke:none;fill-rule:nonzero;fill:rgb(0%,0%,0%);fill-opacity:1;" d="M 81.109375 181.007812 C 82.253906 180.277344 83.335938 179.425781 84.359375 178.445312 L 84.359375 180.300781 C 84.359375 180.695312 84.191406 180.882812 83.859375 180.882812 C 83.503906 180.882812 83.171875 180.863281 82.859375 180.863281 L 83.085938 181.652344 L 84.171875 181.652344 C 84.816406 181.652344 85.148438 181.300781 85.148438 180.613281 L 85.148438 178.589844 C 85.878906 179.152344 86.773438 179.925781 87.816406 180.945312 L 88.316406 180.195312 C 87.234375 179.257812 86.191406 178.445312 85.148438 177.714844 L 85.148438 175.882812 C 86.335938 175.238281 87.398438 174.589844 88.359375 173.925781 L 88.359375 173.113281 L 80.921875 173.113281 L 80.921875 173.925781 L 87.066406 173.925781 C 86.460938 174.320312 85.566406 174.820312 84.359375 175.402344 L 84.359375 177.464844 C 83.210938 178.550781 82.046875 179.445312 80.796875 180.152344 Z M 88.566406 175.300781 L 88.566406 182.214844 L 80.566406 182.214844 L 80.566406 175.300781 L 79.734375 175.300781 L 79.734375 183.675781 L 80.566406 183.675781 L 80.566406 183.007812 L 88.566406 183.007812 L 88.566406 183.695312 L 89.398438 183.695312 L 89.398438 175.300781 Z M 81.859375 175.675781 L 81.234375 176.070312 C 81.921875 176.738281 82.484375 177.320312 82.898438 177.882812 L 83.566406 177.425781 C 83.171875 176.925781 82.609375 176.339844 81.859375 175.675781 Z M 87.316406 175.589844 C 86.878906 176.320312 86.316406 176.964844 85.691406 177.488281 L 86.316406 177.925781 C 86.960938 177.363281 87.546875 176.695312 88.023438 175.925781 Z M 87.316406 175.589844 "/>
<path style=" stroke:none;fill-rule:nonzero;fill:rgb(0%,0%,0%);fill-opacity:1;" d="M 98.460938 175.320312 L 100.234375 175.320312 C 100.191406 176.945312 99.941406 178.363281 99.460938 179.570312 C 98.984375 178.570312 98.609375 177.363281 98.316406 175.945312 Z M 99.066406 180.445312 C 98.523438 181.464844 97.796875 182.277344 96.859375 182.925781 L 97.296875 183.652344 C 98.191406 183.007812 98.941406 182.195312 99.523438 181.238281 C 100.109375 182.257812 100.835938 183.070312 101.671875 183.675781 L 102.148438 182.964844 C 101.273438 182.363281 100.546875 181.550781 99.921875 180.464844 C 100.609375 179.050781 100.960938 177.320312 101.023438 175.320312 L 101.816406 175.320312 L 101.816406 174.507812 L 98.648438 174.507812 C 98.734375 173.964844 98.835938 173.402344 98.898438 172.777344 L 98.066406 172.632812 C 97.816406 174.925781 97.335938 176.738281 96.628906 178.070312 L 97.171875 178.738281 C 97.421875 178.300781 97.671875 177.820312 97.878906 177.257812 C 98.210938 178.464844 98.609375 179.507812 99.066406 180.445312 Z M 93.378906 178.238281 C 93.296875 178.488281 93.210938 178.738281 93.109375 179.007812 L 91.335938 179.007812 L 91.335938 179.757812 L 92.753906 179.757812 C 92.523438 180.238281 92.253906 180.714844 91.941406 181.257812 C 92.523438 181.464844 93.066406 181.695312 93.609375 181.925781 C 92.898438 182.320312 92.046875 182.652344 91.066406 182.902344 L 91.484375 183.632812 C 92.671875 183.300781 93.671875 182.839844 94.460938 182.300781 C 95.171875 182.613281 95.796875 182.925781 96.316406 183.238281 L 96.773438 182.570312 C 96.253906 182.277344 95.710938 182.027344 95.128906 181.757812 C 95.753906 181.175781 96.191406 180.507812 96.460938 179.714844 L 96.460938 179.007812 L 93.941406 179.007812 C 94.023438 178.777344 94.109375 178.570312 94.191406 178.339844 Z M 94.335938 181.425781 C 93.898438 181.238281 93.441406 181.070312 92.960938 180.902344 C 93.210938 180.550781 93.421875 180.152344 93.609375 179.757812 L 95.671875 179.757812 C 95.398438 180.382812 94.941406 180.945312 94.335938 181.425781 Z M 92.296875 172.882812 L 91.609375 173.113281 C 91.898438 173.570312 92.171875 174.089844 92.421875 174.675781 L 93.046875 174.382812 C 92.816406 173.863281 92.585938 173.363281 92.296875 172.882812 Z M 95.941406 172.863281 C 95.734375 173.363281 95.421875 173.863281 95.023438 174.382812 L 95.648438 174.695312 C 96.023438 174.195312 96.316406 173.675781 96.566406 173.132812 Z M 91.378906 174.964844 L 91.378906 175.714844 L 93.066406 175.714844 C 92.710938 176.382812 92.066406 176.988281 91.148438 177.527344 L 91.566406 178.214844 C 92.585938 177.527344 93.316406 176.714844 93.710938 175.757812 L 93.710938 178.027344 L 94.523438 178.027344 L 94.523438 176.488281 C 94.941406 176.757812 95.460938 177.152344 96.066406 177.632812 L 96.503906 176.964844 C 95.835938 176.550781 95.171875 176.175781 94.523438 175.863281 L 94.523438 175.714844 L 96.691406 175.714844 L 96.691406 174.964844 L 94.523438 174.964844 L 94.523438 172.675781 L 93.710938 172.675781 L 93.710938 174.964844 Z M 91.378906 174.964844 "/>
<path style="fill:none;stroke-width:1;stroke-linecap:round;stroke-linejoin:round;stroke:rgb(0%,0%,0%);stroke-opacity:1;stroke-miterlimit:10;" d="M -28.073242 -80.601562 L 65.925781 -80.601562 L 65.925781 -62.601562 L -28.073242 -62.601562 Z M -28.073242 -80.601562 " transform="matrix(1.333333,0,0,1.333333,53.333333,132)"/>
<path style=" stroke:none;fill-rule:nonzero;fill:rgb(0%,0%,0%);fill-opacity:1;" d="M 57.984375 32.449219 L 57.984375 36.199219 L 59.023438 36.199219 L 59.378906 37.222656 L 57.523438 37.222656 L 57.523438 37.949219 L 58.710938 37.949219 C 58.585938 38.867188 58.421875 39.597656 58.210938 40.136719 C 57.984375 40.722656 57.628906 41.242188 57.148438 41.722656 L 57.671875 42.410156 C 58.234375 41.847656 58.648438 41.222656 58.941406 40.511719 C 59.046875 40.242188 59.128906 39.949219 59.210938 39.597656 L 60.691406 39.597656 C 60.671875 40.429688 60.628906 40.949219 60.566406 41.179688 C 60.503906 41.410156 60.296875 41.511719 59.984375 41.535156 L 59.253906 41.535156 L 59.460938 42.285156 L 60.210938 42.285156 C 60.691406 42.261719 61.046875 42.097656 61.234375 41.742188 C 61.421875 41.410156 61.523438 40.449219 61.523438 38.886719 L 59.359375 38.886719 C 59.398438 38.597656 59.441406 38.304688 59.503906 37.949219 L 61.898438 37.949219 L 61.898438 37.222656 L 60.191406 37.222656 L 59.835938 36.199219 L 61.378906 36.199219 L 61.859375 36.785156 C 62.003906 36.574219 62.171875 36.324219 62.335938 36.054688 C 62.609375 37.304688 62.984375 38.410156 63.441406 39.347656 C 62.984375 40.261719 62.378906 41.011719 61.628906 41.617188 L 62.085938 42.367188 C 62.816406 41.785156 63.421875 41.054688 63.898438 40.199219 C 64.398438 41.074219 64.984375 41.761719 65.648438 42.285156 L 66.148438 41.554688 C 65.421875 41.054688 64.816406 40.304688 64.296875 39.367188 C 64.898438 38.011719 65.210938 36.347656 65.273438 34.386719 L 65.960938 34.386719 L 65.960938 33.574219 L 63.359375 33.574219 C 63.523438 32.949219 63.671875 32.261719 63.773438 31.535156 L 62.984375 31.386719 C 62.710938 33.199219 62.253906 34.679688 61.566406 35.804688 L 61.566406 32.449219 L 59.984375 32.449219 C 60.109375 32.136719 60.210938 31.824219 60.273438 31.492188 L 59.421875 31.367188 C 59.359375 31.742188 59.273438 32.097656 59.148438 32.449219 Z M 62.816406 35.097656 C 62.921875 34.867188 63.003906 34.617188 63.109375 34.386719 L 64.484375 34.386719 C 64.460938 35.929688 64.234375 37.285156 63.835938 38.429688 C 63.421875 37.472656 63.085938 36.367188 62.816406 35.097656 Z M 60.816406 35.554688 L 58.734375 35.554688 L 58.734375 34.679688 L 60.816406 34.679688 Z M 58.734375 34.035156 L 58.734375 33.097656 L 60.816406 33.097656 L 60.816406 34.035156 Z M 55.734375 31.617188 L 55.171875 32.160156 C 55.960938 32.742188 56.566406 33.304688 57.023438 33.824219 L 57.585938 33.285156 C 57.066406 32.722656 56.460938 32.179688 55.734375 31.617188 Z M 55.566406 34.535156 L 54.984375 35.097656 C 55.710938 35.699219 56.273438 36.261719 56.710938 36.824219 L 57.273438 36.242188 C 56.816406 35.660156 56.234375 35.097656 55.566406 34.535156 Z M 56.648438 38.097656 C 56.210938 39.410156 55.734375 40.699219 55.148438 41.972656 L 55.921875 42.285156 C 56.441406 41.074219 56.941406 39.761719 57.378906 38.367188 Z M 56.648438 38.097656 "/>
<path style=" stroke:none;fill-rule:nonzero;fill:rgb(0%,0%,0%);fill-opacity:1;" d="M 70.253906 34.886719 L 70.253906 35.722656 L 73.691406 35.722656 L 73.691406 37.574219 L 71.066406 37.574219 L 71.066406 42.410156 L 71.921875 42.410156 L 71.921875 41.742188 L 76.421875 41.742188 L 76.421875 42.386719 L 77.273438 42.386719 L 77.273438 37.574219 L 74.566406 37.574219 L 74.566406 35.722656 L 78.023438 35.722656 L 78.023438 34.886719 L 74.566406 34.886719 L 74.566406 32.886719 C 75.671875 32.742188 76.628906 32.511719 77.460938 32.222656 L 77.046875 31.472656 C 75.316406 32.054688 73.128906 32.347656 70.523438 32.347656 L 70.773438 33.136719 C 71.816406 33.136719 72.773438 33.097656 73.691406 33.011719 L 73.691406 34.886719 Z M 71.921875 40.929688 L 71.921875 38.386719 L 76.421875 38.386719 L 76.421875 40.929688 Z M 68.085938 31.554688 L 67.503906 32.136719 C 68.359375 32.699219 69.046875 33.242188 69.546875 33.742188 L 70.128906 33.160156 C 69.585938 32.617188 68.898438 32.097656 68.085938 31.554688 Z M 67.816406 34.429688 L 67.210938 35.011719 C 68.085938 35.636719 68.773438 36.242188 69.273438 36.804688 L 69.878906 36.199219 C 69.316406 35.617188 68.628906 35.011719 67.816406 34.429688 Z M 69.234375 37.617188 C 68.734375 39.074219 68.109375 40.492188 67.421875 41.886719 L 68.273438 42.261719 C 68.898438 40.910156 69.484375 39.449219 70.003906 37.929688 Z M 69.234375 37.617188 "/>
<path style=" stroke:none;fill-rule:nonzero;fill:rgb(0%,0%,0%);fill-opacity:1;" d="M 81.109375 39.742188 C 82.253906 39.011719 83.335938 38.160156 84.359375 37.179688 L 84.359375 39.035156 C 84.359375 39.429688 84.191406 39.617188 83.859375 39.617188 C 83.503906 39.617188 83.171875 39.597656 82.859375 39.597656 L 83.085938 40.386719 L 84.171875 40.386719 C 84.816406 40.386719 85.148438 40.035156 85.148438 39.347656 L 85.148438 37.324219 C 85.878906 37.886719 86.773438 38.660156 87.816406 39.679688 L 88.316406 38.929688 C 87.234375 37.992188 86.191406 37.179688 85.148438 36.449219 L 85.148438 34.617188 C 86.335938 33.972656 87.398438 33.324219 88.359375 32.660156 L 88.359375 31.847656 L 80.921875 31.847656 L 80.921875 32.660156 L 87.066406 32.660156 C 86.460938 33.054688 85.566406 33.554688 84.359375 34.136719 L 84.359375 36.199219 C 83.210938 37.285156 82.046875 38.179688 80.796875 38.886719 Z M 88.566406 34.035156 L 88.566406 40.949219 L 80.566406 40.949219 L 80.566406 34.035156 L 79.734375 34.035156 L 79.734375 42.410156 L 80.566406 42.410156 L 80.566406 41.742188 L 88.566406 41.742188 L 88.566406 42.429688 L 89.398438 42.429688 L 89.398438 34.035156 Z M 81.859375 34.410156 L 81.234375 34.804688 C 81.921875 35.472656 82.484375 36.054688 82.898438 36.617188 L 83.566406 36.160156 C 83.171875 35.660156 82.609375 35.074219 81.859375 34.410156 Z M 87.316406 34.324219 C 86.878906 35.054688 86.316406 35.699219 85.691406 36.222656 L 86.316406 36.660156 C 86.960938 36.097656 87.546875 35.429688 88.023438 34.660156 Z M 87.316406 34.324219 "/>
<path style=" stroke:none;fill-rule:nonzero;fill:rgb(0%,0%,0%);fill-opacity:1;" d="M 98.460938 34.054688 L 100.234375 34.054688 C 100.191406 35.679688 99.941406 37.097656 99.460938 38.304688 C 98.984375 37.304688 98.609375 36.097656 98.316406 34.679688 Z M 99.066406 39.179688 C 98.523438 40.199219 97.796875 41.011719 96.859375 41.660156 L 97.296875 42.386719 C 98.191406 41.742188 98.941406 40.929688 99.523438 39.972656 C 100.109375 40.992188 100.835938 41.804688 101.671875 42.410156 L 102.148438 41.699219 C 101.273438 41.097656 100.546875 40.285156 99.921875 39.199219 C 100.609375 37.785156 100.960938 36.054688 101.023438 34.054688 L 101.816406 34.054688 L 101.816406 33.242188 L 98.648438 33.242188 C 98.734375 32.699219 98.835938 32.136719 98.898438 31.511719 L 98.066406 31.367188 C 97.816406 33.660156 97.335938 35.472656 96.628906 36.804688 L 97.171875 37.472656 C 97.421875 37.035156 97.671875 36.554688 97.878906 35.992188 C 98.210938 37.199219 98.609375 38.242188 99.066406 39.179688 Z M 93.378906 36.972656 C 93.296875 37.222656 93.210938 37.472656 93.109375 37.742188 L 91.335938 37.742188 L 91.335938 38.492188 L 92.753906 38.492188 C 92.523438 38.972656 92.253906 39.449219 91.941406 39.992188 C 92.523438 40.199219 93.066406 40.429688 93.609375 40.660156 C 92.898438 41.054688 92.046875 41.386719 91.066406 41.636719 L 91.484375 42.367188 C 92.671875 42.035156 93.671875 41.574219 94.460938 41.035156 C 95.171875 41.347656 95.796875 41.660156 96.316406 41.972656 L 96.773438 41.304688 C 96.253906 41.011719 95.710938 40.761719 95.128906 40.492188 C 95.753906 39.910156 96.191406 39.242188 96.460938 38.449219 L 96.460938 37.742188 L 93.941406 37.742188 C 94.023438 37.511719 94.109375 37.304688 94.191406 37.074219 Z M 94.335938 40.160156 C 93.898438 39.972656 93.441406 39.804688 92.960938 39.636719 C 93.210938 39.285156 93.421875 38.886719 93.609375 38.492188 L 95.671875 38.492188 C 95.398438 39.117188 94.941406 39.679688 94.335938 40.160156 Z M 92.296875 31.617188 L 91.609375 31.847656 C 91.898438 32.304688 92.171875 32.824219 92.421875 33.410156 L 93.046875 33.117188 C 92.816406 32.597656 92.585938 32.097656 92.296875 31.617188 Z M 95.941406 31.597656 C 95.734375 32.097656 95.421875 32.597656 95.023438 33.117188 L 95.648438 33.429688 C 96.023438 32.929688 96.316406 32.410156 96.566406 31.867188 Z M 91.378906 33.699219 L 91.378906 34.449219 L 93.066406 34.449219 C 92.710938 35.117188 92.066406 35.722656 91.148438 36.261719 L 91.566406 36.949219 C 92.585938 36.261719 93.316406 35.449219 93.710938 34.492188 L 93.710938 36.761719 L 94.523438 36.761719 L 94.523438 35.222656 C 94.941406 35.492188 95.460938 35.886719 96.066406 36.367188 L 96.503906 35.699219 C 95.835938 35.285156 95.171875 34.910156 94.523438 34.597656 L 94.523438 34.449219 L 96.691406 34.449219 L 96.691406 33.699219 L 94.523438 33.699219 L 94.523438 31.410156 L 93.710938 31.410156 L 93.710938 33.699219 Z M 91.378906 33.699219 "/>
<path style="fill:none;stroke-width:1;stroke-linecap:round;stroke-linejoin:round;stroke:rgb(0%,0%,0%);stroke-opacity:1;stroke-miterlimit:10;" d="M -28.073242 -3.249023 L 65.925781 -3.249023 L 65.925781 14.750977 L -28.073242 14.750977 Z M -28.073242 -3.249023 " transform="matrix(1.333333,0,0,1.333333,53.333333,132)"/>
<path style=" stroke:none;fill-rule:nonzero;fill:rgb(0%,0%,0%);fill-opacity:1;" d="M 64.003906 139.292969 C 64.378906 139.730469 64.816406 140.332031 65.335938 141.082031 L 65.835938 140.355469 C 65.210938 139.625 64.609375 138.980469 64.003906 138.394531 L 64.003906 137.707031 L 65.585938 137.707031 L 65.585938 136.875 L 64.003906 136.875 L 64.003906 134.542969 L 63.148438 134.542969 L 63.148438 136.875 L 61.253906 136.875 L 61.253906 137.707031 L 63.128906 137.707031 C 62.710938 139.207031 62.003906 140.542969 61.003906 141.707031 L 61.398438 142.6875 C 62.128906 141.667969 62.710938 140.519531 63.148438 139.25 L 63.148438 145.480469 L 64.003906 145.480469 Z M 70.441406 136.082031 C 70.148438 137.957031 69.585938 139.625 68.734375 141.0625 C 67.859375 139.582031 67.335938 137.9375 67.210938 136.082031 Z M 68.210938 141.832031 C 67.398438 142.957031 66.359375 143.957031 65.109375 144.792969 L 65.648438 145.480469 C 66.859375 144.6875 67.898438 143.730469 68.734375 142.582031 C 69.484375 143.644531 70.421875 144.605469 71.566406 145.5 L 72.148438 144.792969 C 70.960938 143.917969 70.003906 142.9375 69.234375 141.855469 C 70.253906 140.25 70.941406 138.3125 71.273438 136.082031 L 71.273438 135.269531 L 65.878906 135.269531 L 65.878906 136.082031 L 66.359375 136.082031 C 66.523438 138.1875 67.148438 140.105469 68.210938 141.832031 Z M 68.210938 141.832031 "/>
<path style=" stroke:none;fill-rule:nonzero;fill:rgb(0%,0%,0%);fill-opacity:1;" d="M 74.421875 138.0625 L 74.421875 142.042969 L 78.128906 142.042969 L 78.128906 142.875 L 73.859375 142.875 L 73.859375 143.5625 L 78.128906 143.5625 L 78.128906 144.457031 L 73.253906 144.457031 L 73.253906 145.230469 L 83.878906 145.230469 L 83.878906 144.457031 L 78.984375 144.457031 L 78.984375 143.5625 L 83.273438 143.5625 L 83.273438 142.875 L 78.984375 142.875 L 78.984375 142.042969 L 82.710938 142.042969 L 82.710938 138.0625 L 78.984375 138.0625 L 78.984375 137.292969 L 83.710938 137.292969 L 83.710938 136.542969 L 78.984375 136.542969 L 78.984375 135.625 C 80.316406 135.542969 81.566406 135.457031 82.710938 135.332031 L 82.460938 134.605469 C 80.066406 134.875 77.316406 135.0625 74.191406 135.144531 L 74.335938 135.855469 C 75.648438 135.8125 76.921875 135.75 78.128906 135.6875 L 78.128906 136.542969 L 73.421875 136.542969 L 73.421875 137.292969 L 78.128906 137.292969 L 78.128906 138.0625 Z M 81.859375 141.355469 L 78.984375 141.355469 L 78.984375 140.375 L 81.859375 140.375 Z M 78.128906 141.355469 L 75.234375 141.355469 L 75.234375 140.375 L 78.128906 140.375 Z M 75.234375 139.707031 L 75.234375 138.75 L 78.128906 138.75 L 78.128906 139.707031 Z M 78.984375 138.75 L 81.859375 138.75 L 81.859375 139.707031 L 78.984375 139.707031 Z M 78.984375 138.75 "/>
<path style=" stroke:none;fill-rule:nonzero;fill:rgb(0%,0%,0%);fill-opacity:1;" d="M 88.460938 139.125 L 88.460938 139.894531 L 94.960938 139.894531 L 94.960938 139.125 Z M 87.609375 141.082031 L 87.609375 141.875 L 90.234375 141.875 C 89.398438 143.230469 88.691406 144.0625 88.171875 144.375 C 88.109375 144.394531 88.066406 144.4375 87.984375 144.457031 L 88.171875 145.1875 C 90.441406 145.042969 92.523438 144.832031 94.421875 144.582031 C 94.671875 144.875 94.878906 145.1875 95.085938 145.5 L 95.773438 145.019531 C 95.253906 144.25 94.484375 143.332031 93.503906 142.292969 L 92.859375 142.6875 C 93.210938 143.105469 93.566406 143.5 93.898438 143.894531 C 92.359375 144.125 90.796875 144.292969 89.210938 144.394531 C 89.773438 143.894531 90.421875 143.042969 91.148438 141.875 L 95.753906 141.875 L 95.753906 141.082031 Z M 94.296875 135.8125 L 94.296875 137.207031 L 87.234375 137.207031 L 87.234375 135.8125 Z M 87.234375 137.980469 L 95.128906 137.980469 L 95.128906 135 L 86.398438 135 L 86.398438 138.980469 C 86.378906 141.394531 85.960938 143.355469 85.128906 144.875 L 85.753906 145.457031 C 86.734375 143.644531 87.234375 141.480469 87.234375 138.980469 Z M 87.234375 137.980469 "/>
<path style="fill:none;stroke-width:1;stroke-linecap:round;stroke-linejoin:round;stroke:rgb(0%,0%,0%);stroke-opacity:1;stroke-miterlimit:10;" d="M 18.924805 53.950195 L 18.924805 49.250977 " transform="matrix(1.333333,0,0,1.333333,53.333333,132)"/>
<path style="fill:none;stroke-width:1;stroke-linecap:butt;stroke-linejoin:miter;stroke:rgb(0%,0%,0%);stroke-opacity:1;stroke-miterlimit:10;" d="M 18.924805 45.249023 L 18.924805 49.250977 M 17.424805 49.250977 L 18.924805 45.249023 L 20.424805 49.250977 " transform="matrix(1.333333,0,0,1.333333,53.333333,132)"/>
<path style="fill:none;stroke-width:1;stroke-linecap:round;stroke-linejoin:round;stroke:rgb(0%,0%,0%);stroke-opacity:1;stroke-miterlimit:10;" d="M 18.924805 25.350586 L 18.924805 20.648438 " transform="matrix(1.333333,0,0,1.333333,53.333333,132)"/>
<path style="fill:none;stroke-width:1;stroke-linecap:butt;stroke-linejoin:miter;stroke:rgb(0%,0%,0%);stroke-opacity:1;stroke-miterlimit:10;" d="M 18.924805 16.649414 L 18.924805 20.648438 M 17.424805 20.648438 L 18.924805 16.649414 L 20.424805 20.648438 " transform="matrix(1.333333,0,0,1.333333,53.333333,132)"/>
<path style=" stroke:none;fill-rule:nonzero;fill:rgb(0%,0%,0%);fill-opacity:1;" d="M 56.933594 103.988281 L 56.851562 104.382812 L 57.933594 104.382812 L 56.871094 109.425781 C 56.601562 110.714844 56.226562 111.363281 55.703125 111.363281 C 55.578125 111.363281 55.476562 111.277344 55.476562 111.175781 C 55.476562 111.050781 55.578125 110.988281 55.578125 110.820312 C 55.578125 110.570312 55.390625 110.382812 55.121094 110.382812 C 54.871094 110.382812 54.664062 110.613281 54.664062 110.882812 C 54.664062 111.300781 55.078125 111.613281 55.621094 111.613281 C 56.703125 111.613281 57.515625 110.445312 58.015625 108.214844 L 58.890625 104.382812 L 60.183594 104.382812 L 60.246094 103.988281 L 58.976562 103.988281 C 59.308594 102.089844 59.765625 101.257812 60.433594 101.257812 C 60.601562 101.257812 60.683594 101.320312 60.683594 101.425781 C 60.683594 101.527344 60.578125 101.589844 60.578125 101.777344 C 60.578125 102.070312 60.808594 102.257812 61.015625 102.257812 C 61.289062 102.257812 61.515625 102.007812 61.515625 101.738281 C 61.515625 101.300781 61.078125 100.988281 60.496094 100.988281 C 59.765625 100.988281 59.265625 101.402344 58.914062 101.925781 C 58.515625 102.488281 58.308594 103.152344 58.039062 103.988281 Z M 56.933594 103.988281 "/>
<path style=" stroke:none;fill-rule:nonzero;fill:rgb(0%,0%,0%);fill-opacity:1;" d="M 63.414062 111.070312 C 61.726562 109.652344 61.375 108.300781 61.375 106.070312 C 61.375 103.757812 61.75 102.632812 63.414062 101.214844 L 63.3125 101.027344 C 61.394531 102.152344 60.351562 103.882812 60.351562 106.113281 C 60.351562 108.152344 61.375 110.175781 63.269531 111.257812 Z M 63.414062 111.070312 "/>
<path style=" stroke:none;fill-rule:nonzero;fill:rgb(0%,0%,0%);fill-opacity:1;" d="M 69.578125 109.132812 L 69.578125 108.839844 C 69.390625 108.777344 69.308594 108.738281 69.222656 108.613281 L 67.433594 105.863281 L 68.640625 104.363281 C 68.871094 104.089844 69.121094 103.945312 69.496094 103.882812 L 69.496094 103.589844 L 67.472656 103.589844 L 67.472656 103.882812 L 67.722656 103.902344 C 67.996094 103.945312 68.078125 103.988281 68.078125 104.175781 C 68.078125 104.363281 67.953125 104.527344 67.621094 104.945312 L 67.203125 105.488281 C 67.140625 105.425781 67.097656 105.363281 67.035156 105.300781 C 66.640625 104.777344 66.347656 104.277344 66.347656 104.113281 C 66.347656 103.964844 66.515625 103.902344 66.910156 103.882812 L 66.910156 103.589844 L 63.910156 103.589844 L 63.910156 103.882812 C 64.222656 103.945312 64.285156 103.988281 64.535156 104.363281 L 66.078125 106.714844 C 65.890625 106.945312 65.996094 106.820312 65.808594 107.050781 L 65.285156 107.738281 C 64.621094 108.632812 64.371094 108.820312 63.933594 108.839844 L 63.933594 109.132812 L 65.953125 109.132812 L 65.953125 108.839844 C 65.535156 108.820312 65.371094 108.738281 65.371094 108.550781 C 65.371094 108.363281 65.660156 107.882812 66.121094 107.320312 C 66.203125 107.238281 66.265625 107.152344 66.328125 107.089844 C 66.472656 107.339844 66.640625 107.589844 66.828125 107.839844 C 67.121094 108.257812 67.222656 108.464844 67.222656 108.613281 C 67.222656 108.757812 67.058594 108.820312 66.683594 108.839844 L 66.683594 109.132812 Z M 69.578125 109.132812 "/>
<path style=" stroke:none;fill-rule:nonzero;fill:rgb(0%,0%,0%);fill-opacity:1;" d="M 70.121094 101.214844 C 71.847656 102.589844 72.160156 103.964844 72.160156 106.195312 C 72.160156 108.527344 71.808594 109.652344 70.121094 111.070312 L 70.222656 111.257812 C 72.121094 110.089844 73.183594 108.382812 73.183594 106.175781 C 73.183594 104.132812 72.097656 102.132812 70.265625 101.027344 Z M 70.121094 101.214844 "/>
<path style="fill:none;stroke-width:1;stroke-linecap:round;stroke-linejoin:round;stroke:rgb(0%,0%,0%);stroke-opacity:1;stroke-miterlimit:10;" d="M 18.948242 -80.601562 L 18.983398 -91.602539 " transform="matrix(1.333333,0,0,1.333333,53.333333,132)"/>
<path style="fill:none;stroke-width:1;stroke-linecap:butt;stroke-linejoin:miter;stroke:rgb(0%,0%,0%);stroke-opacity:1;stroke-miterlimit:10;" d="M 18.995117 -95.601562 L 18.983398 -91.602539 M 17.483398 -91.605469 L 18.995117 -95.601562 L 20.483398 -91.59375 " transform="matrix(1.333333,0,0,1.333333,53.333333,132)"/>
<path style="fill:none;stroke-width:1;stroke-linecap:round;stroke-linejoin:round;stroke:rgb(0%,0%,0%);stroke-opacity:1;stroke-miterlimit:10;" d="M 18.924805 -3.249023 L 18.924805 -56.698242 " transform="matrix(1.333333,0,0,1.333333,53.333333,132)"/>
<path style="fill:none;stroke-width:1;stroke-linecap:butt;stroke-linejoin:miter;stroke:rgb(0%,0%,0%);stroke-opacity:1;stroke-miterlimit:10;" d="M 18.924805 -60.700195 L 18.924805 -56.698242 M 17.424805 -56.698242 L 18.924805 -60.700195 L 20.424805 -56.698242 " transform="matrix(1.333333,0,0,1.333333,53.333333,132)"/>
</g>
</svg>
