<?xml version="1.0" encoding="UTF-8"?>
<svg xmlns="http://www.w3.org/2000/svg" xmlns:xlink="http://www.w3.org/1999/xlink" width="246.666667" height="138.666667" viewBox="0 0 246.666667 138.666667" version="1.1">
<g id="surface1">
<path style=" stroke:none;fill-rule:nonzero;fill:rgb(69.803923%,85.09804%,100%);fill-opacity:1;" d="M 75.042969 82.800781 L 109.707031 82.800781 L 109.707031 56.136719 L 75.042969 56.136719 Z M 75.042969 82.800781 "/>
<path style="fill:none;stroke-width:1;stroke-linecap:round;stroke-linejoin:round;stroke:rgb(0%,0%,0%);stroke-opacity:1;stroke-miterlimit:10;" d="M 72.282227 111.102539 L 98.280273 111.102539 L 98.280273 131.100586 L 72.282227 131.100586 Z M 72.282227 111.102539 " transform="matrix(1.333333,0,0,1.333333,-21.333333,-92)"/>
<path style=" stroke:none;fill-rule:nonzero;fill:rgb(0%,0%,0%);fill-opacity:1;" d="M 89.144531 70.050781 C 88.5 70.863281 88.351562 71.007812 88.164062 71.007812 C 88.039062 71.007812 87.957031 70.925781 87.957031 70.800781 C 87.957031 70.65625 88.164062 69.925781 88.351562 69.300781 C 88.726562 68.175781 88.9375 67.28125 88.9375 66.988281 C 88.9375 66.53125 88.707031 66.175781 88.164062 66.175781 C 87.414062 66.175781 86.476562 66.945312 85.394531 68.71875 L 86.851562 63.34375 L 86.769531 63.28125 C 86.0625 63.425781 85.601562 63.507812 84.875 63.59375 L 84.875 63.78125 L 85.207031 63.78125 C 85.414062 63.78125 85.707031 63.863281 85.707031 64.070312 C 85.707031 64.238281 85.644531 64.445312 85.539062 64.820312 L 83.789062 71.46875 L 84.6875 71.46875 C 85.164062 69.613281 85.351562 69.195312 85.832031 68.46875 C 86.457031 67.507812 87.226562 66.78125 87.664062 66.78125 C 87.9375 66.78125 88 66.90625 88 67.09375 C 88 67.132812 87.957031 67.300781 87.914062 67.488281 L 87.25 69.96875 C 87.101562 70.550781 87.019531 70.925781 87.019531 71.070312 C 87.019531 71.382812 87.226562 71.570312 87.539062 71.570312 C 88.164062 71.570312 88.5625 71.257812 89.289062 70.21875 Z M 89.144531 70.050781 "/>
<path style=" stroke:none;fill-rule:nonzero;fill:rgb(0%,0%,0%);fill-opacity:1;" d="M 91.9375 72.050781 L 91.289062 72.050781 L 91.519531 71.21875 C 91.519531 71.195312 91.519531 71.15625 91.519531 71.15625 C 91.519531 71.113281 91.5 71.09375 91.457031 71.09375 C 91.414062 71.09375 91.375 71.113281 91.332031 71.175781 C 91.039062 71.613281 90.519531 71.988281 90.269531 72.050781 C 90.082031 72.09375 90.019531 72.15625 90.019531 72.257812 C 90.019531 72.257812 90.019531 72.28125 90.019531 72.300781 L 90.625 72.300781 L 90 74.675781 C 89.9375 74.925781 89.875 75.175781 89.875 75.257812 C 89.875 75.46875 90.019531 75.550781 90.226562 75.550781 C 90.644531 75.550781 90.894531 75.320312 91.375 74.59375 L 91.269531 74.53125 C 90.875 75.03125 90.75 75.15625 90.625 75.15625 C 90.5625 75.15625 90.5 75.132812 90.5 75.03125 C 90.5 75.007812 90.519531 74.945312 90.519531 74.925781 L 91.207031 72.300781 L 91.894531 72.300781 Z M 91.9375 72.050781 "/>
<path style=" stroke:none;fill-rule:nonzero;fill:rgb(0%,0%,0%);fill-opacity:1;" d="M 96.515625 73.71875 L 96.515625 73.175781 L 92.472656 73.175781 L 92.472656 73.71875 Z M 96.515625 73.71875 "/>
<path style=" stroke:none;fill-rule:nonzero;fill:rgb(0%,0%,0%);fill-opacity:1;" d="M 100.332031 75.46875 L 100.332031 75.34375 C 99.726562 75.34375 99.582031 75.195312 99.582031 74.863281 L 99.582031 70.09375 L 99.496094 70.050781 L 98.082031 70.78125 L 98.082031 70.90625 L 98.289062 70.820312 C 98.433594 70.757812 98.558594 70.71875 98.644531 70.71875 C 98.808594 70.71875 98.894531 70.84375 98.894531 71.113281 L 98.894531 74.71875 C 98.894531 75.15625 98.726562 75.320312 98.121094 75.34375 L 98.121094 75.46875 Z M 100.332031 75.46875 "/>
<path style=" stroke:none;fill-rule:nonzero;fill:rgb(69.803923%,85.09804%,100%);fill-opacity:1;" d="M 142.527344 82.800781 L 177.191406 82.800781 L 177.191406 56.136719 L 142.527344 56.136719 Z M 142.527344 82.800781 "/>
<path style="fill:none;stroke-width:1;stroke-linecap:round;stroke-linejoin:round;stroke:rgb(0%,0%,0%);stroke-opacity:1;stroke-miterlimit:10;" d="M 122.895508 111.102539 L 148.893555 111.102539 L 148.893555 131.100586 L 122.895508 131.100586 Z M 122.895508 111.102539 " transform="matrix(1.333333,0,0,1.333333,-21.333333,-92)"/>
<path style=" stroke:none;fill-rule:nonzero;fill:rgb(0%,0%,0%);fill-opacity:1;" d="M 161.144531 69.382812 C 160.5 70.195312 160.351562 70.34375 160.164062 70.34375 C 160.039062 70.34375 159.957031 70.257812 159.957031 70.132812 C 159.957031 69.988281 160.164062 69.257812 160.351562 68.632812 C 160.726562 67.507812 160.9375 66.613281 160.9375 66.320312 C 160.9375 65.863281 160.707031 65.507812 160.164062 65.507812 C 159.414062 65.507812 158.476562 66.28125 157.394531 68.050781 L 158.851562 62.675781 L 158.769531 62.613281 C 158.0625 62.757812 157.601562 62.84375 156.875 62.925781 L 156.875 63.113281 L 157.207031 63.113281 C 157.414062 63.113281 157.707031 63.195312 157.707031 63.40625 C 157.707031 63.570312 157.644531 63.78125 157.539062 64.15625 L 155.789062 70.800781 L 156.6875 70.800781 C 157.164062 68.945312 157.351562 68.53125 157.832031 67.800781 C 158.457031 66.84375 159.226562 66.113281 159.664062 66.113281 C 159.9375 66.113281 160 66.238281 160 66.425781 C 160 66.46875 159.957031 66.632812 159.914062 66.820312 L 159.25 69.300781 C 159.101562 69.882812 159.019531 70.257812 159.019531 70.40625 C 159.019531 70.71875 159.226562 70.90625 159.539062 70.90625 C 160.164062 70.90625 160.5625 70.59375 161.289062 69.550781 Z M 161.144531 69.382812 "/>
<path style=" stroke:none;fill-rule:nonzero;fill:rgb(0%,0%,0%);fill-opacity:1;" d="M 164.332031 72.132812 L 163.582031 72.132812 L 163.832031 71.175781 C 163.851562 71.15625 163.851562 71.113281 163.851562 71.113281 C 163.851562 71.070312 163.8125 71.03125 163.769531 71.03125 C 163.726562 71.03125 163.664062 71.070312 163.625 71.113281 C 163.289062 71.632812 162.6875 72.09375 162.394531 72.15625 C 162.164062 72.195312 162.082031 72.28125 162.082031 72.382812 C 162.082031 72.382812 162.082031 72.40625 162.101562 72.445312 L 162.789062 72.445312 L 162.0625 75.195312 C 162 75.507812 161.914062 75.78125 161.914062 75.882812 C 161.914062 76.132812 162.101562 76.238281 162.351562 76.238281 C 162.832031 76.238281 163.125 75.96875 163.6875 75.113281 L 163.5625 75.050781 C 163.101562 75.632812 162.957031 75.78125 162.8125 75.78125 C 162.726562 75.78125 162.664062 75.757812 162.664062 75.632812 C 162.664062 75.59375 162.664062 75.53125 162.6875 75.507812 L 163.5 72.445312 L 164.269531 72.445312 Z M 164.332031 72.132812 "/>
<path style=" stroke:none;fill-rule:nonzero;fill:rgb(69.803923%,85.09804%,100%);fill-opacity:1;" d="M 210.40625 82.800781 L 245.953125 82.800781 L 245.953125 56.136719 L 210.40625 56.136719 Z M 210.40625 82.800781 "/>
<path style="fill:none;stroke-width:1;stroke-linecap:round;stroke-linejoin:round;stroke:rgb(0%,0%,0%);stroke-opacity:1;stroke-miterlimit:10;" d="M 173.804688 111.102539 L 200.464844 111.102539 L 200.464844 131.100586 L 173.804688 131.100586 Z M 173.804688 111.102539 " transform="matrix(1.333333,0,0,1.333333,-21.333333,-92)"/>
<path style=" stroke:none;fill-rule:nonzero;fill:rgb(0%,0%,0%);fill-opacity:1;" d="M 224.953125 70.050781 C 224.308594 70.863281 224.160156 71.007812 223.972656 71.007812 C 223.847656 71.007812 223.765625 70.925781 223.765625 70.800781 C 223.765625 70.65625 223.972656 69.925781 224.160156 69.300781 C 224.535156 68.175781 224.746094 67.28125 224.746094 66.988281 C 224.746094 66.53125 224.515625 66.175781 223.972656 66.175781 C 223.222656 66.175781 222.285156 66.945312 221.203125 68.71875 L 222.660156 63.34375 L 222.578125 63.28125 C 221.871094 63.425781 221.410156 63.507812 220.683594 63.59375 L 220.683594 63.78125 L 221.015625 63.78125 C 221.222656 63.78125 221.515625 63.863281 221.515625 64.070312 C 221.515625 64.238281 221.453125 64.445312 221.347656 64.820312 L 219.597656 71.46875 L 220.496094 71.46875 C 220.972656 69.613281 221.160156 69.195312 221.640625 68.46875 C 222.265625 67.507812 223.035156 66.78125 223.472656 66.78125 C 223.746094 66.78125 223.808594 66.90625 223.808594 67.09375 C 223.808594 67.132812 223.765625 67.300781 223.722656 67.488281 L 223.058594 69.96875 C 222.910156 70.550781 222.828125 70.925781 222.828125 71.070312 C 222.828125 71.382812 223.035156 71.570312 223.347656 71.570312 C 223.972656 71.570312 224.371094 71.257812 225.097656 70.21875 Z M 224.953125 70.050781 "/>
<path style=" stroke:none;fill-rule:nonzero;fill:rgb(0%,0%,0%);fill-opacity:1;" d="M 227.746094 72.050781 L 227.097656 72.050781 L 227.328125 71.21875 C 227.328125 71.195312 227.328125 71.15625 227.328125 71.15625 C 227.328125 71.113281 227.308594 71.09375 227.265625 71.09375 C 227.222656 71.09375 227.183594 71.113281 227.140625 71.175781 C 226.847656 71.613281 226.328125 71.988281 226.078125 72.050781 C 225.890625 72.09375 225.828125 72.15625 225.828125 72.257812 C 225.828125 72.257812 225.828125 72.28125 225.828125 72.300781 L 226.433594 72.300781 L 225.808594 74.675781 C 225.746094 74.925781 225.683594 75.175781 225.683594 75.257812 C 225.683594 75.46875 225.828125 75.550781 226.035156 75.550781 C 226.453125 75.550781 226.703125 75.320312 227.183594 74.59375 L 227.078125 74.53125 C 226.683594 75.03125 226.558594 75.15625 226.433594 75.15625 C 226.371094 75.15625 226.308594 75.132812 226.308594 75.03125 C 226.308594 75.007812 226.328125 74.945312 226.328125 74.925781 L 227.015625 72.300781 L 227.703125 72.300781 Z M 227.746094 72.050781 "/>
<path style=" stroke:none;fill-rule:nonzero;fill:rgb(0%,0%,0%);fill-opacity:1;" d="M 232.324219 73.71875 L 232.324219 73.175781 L 230.550781 73.175781 L 230.550781 71.425781 L 230.03125 71.425781 L 230.03125 73.175781 L 228.28125 73.175781 L 228.28125 73.71875 L 230.03125 73.71875 L 230.03125 75.46875 L 230.550781 75.46875 L 230.550781 73.71875 Z M 232.324219 73.71875 "/>
<path style=" stroke:none;fill-rule:nonzero;fill:rgb(0%,0%,0%);fill-opacity:1;" d="M 236.140625 75.46875 L 236.140625 75.34375 C 235.535156 75.34375 235.390625 75.195312 235.390625 74.863281 L 235.390625 70.09375 L 235.304688 70.050781 L 233.890625 70.78125 L 233.890625 70.90625 L 234.097656 70.820312 C 234.242188 70.757812 234.367188 70.71875 234.453125 70.71875 C 234.617188 70.71875 234.703125 70.84375 234.703125 71.113281 L 234.703125 74.71875 C 234.703125 75.15625 234.535156 75.320312 233.929688 75.34375 L 233.929688 75.46875 Z M 236.140625 75.46875 "/>
<path style=" stroke:none;fill-rule:nonzero;fill:rgb(40.000001%,74.901962%,100%);fill-opacity:1;" d="M 75.042969 33.332031 L 109.707031 33.332031 L 109.707031 6.667969 L 75.042969 6.667969 Z M 75.042969 33.332031 "/>
<path style="fill:none;stroke-width:1;stroke-linecap:round;stroke-linejoin:round;stroke:rgb(0%,0%,0%);stroke-opacity:1;stroke-miterlimit:10;" d="M 72.282227 74.000977 L 98.280273 74.000977 L 98.280273 93.999023 L 72.282227 93.999023 Z M 72.282227 74.000977 " transform="matrix(1.333333,0,0,1.333333,-21.333333,-92)"/>
<path style=" stroke:none;fill-rule:nonzero;fill:rgb(0%,0%,0%);fill-opacity:1;" d="M 84.625 17.75 C 84.457031 16.917969 84.3125 16.707031 84.019531 16.707031 C 83.726562 16.707031 83.332031 16.792969 82.601562 17.0625 L 82.476562 17.105469 L 82.519531 17.292969 L 82.726562 17.230469 C 82.957031 17.167969 83.101562 17.144531 83.1875 17.144531 C 83.5 17.144531 83.582031 17.25 83.75 17.957031 L 84.082031 19.457031 L 83.101562 20.855469 C 82.851562 21.207031 82.625 21.4375 82.476562 21.4375 C 82.414062 21.4375 82.289062 21.394531 82.164062 21.332031 C 82.019531 21.25 81.894531 21.1875 81.789062 21.1875 C 81.5625 21.1875 81.375 21.394531 81.375 21.625 C 81.375 21.9375 81.601562 22.125 81.976562 22.125 C 82.351562 22.125 82.601562 22.019531 83.125 21.3125 L 84.1875 19.894531 L 84.519531 21.3125 C 84.664062 21.917969 84.851562 22.125 85.226562 22.125 C 85.6875 22.125 86 21.855469 86.707031 20.769531 L 86.519531 20.644531 C 86.414062 20.769531 86.375 20.855469 86.269531 21 C 86 21.355469 85.851562 21.480469 85.707031 21.480469 C 85.539062 21.480469 85.4375 21.3125 85.351562 20.980469 L 84.957031 19.375 C 84.894531 19.082031 84.851562 18.917969 84.851562 18.832031 C 85.394531 17.917969 85.832031 17.375 86.039062 17.375 C 86.332031 17.375 86.4375 17.582031 86.664062 17.582031 C 86.894531 17.582031 87.0625 17.394531 87.0625 17.144531 C 87.0625 16.894531 86.875 16.707031 86.582031 16.707031 C 86.0625 16.707031 85.601562 17.144531 84.769531 18.417969 Z M 84.625 17.75 "/>
<path style=" stroke:none;fill-rule:nonzero;fill:rgb(0%,0%,0%);fill-opacity:1;" d="M 89.410156 22.582031 L 88.761719 22.582031 L 88.992188 21.75 C 88.992188 21.730469 88.992188 21.6875 88.992188 21.6875 C 88.992188 21.644531 88.972656 21.625 88.929688 21.625 C 88.886719 21.625 88.847656 21.644531 88.804688 21.707031 C 88.511719 22.144531 87.992188 22.519531 87.742188 22.582031 C 87.554688 22.625 87.492188 22.6875 87.492188 22.792969 C 87.492188 22.792969 87.492188 22.8125 87.492188 22.832031 L 88.097656 22.832031 L 87.472656 25.207031 C 87.410156 25.457031 87.347656 25.707031 87.347656 25.792969 C 87.347656 26 87.492188 26.082031 87.699219 26.082031 C 88.117188 26.082031 88.367188 25.855469 88.847656 25.125 L 88.742188 25.0625 C 88.347656 25.5625 88.222656 25.6875 88.097656 25.6875 C 88.035156 25.6875 87.972656 25.667969 87.972656 25.5625 C 87.972656 25.542969 87.992188 25.480469 87.992188 25.457031 L 88.679688 22.832031 L 89.367188 22.832031 Z M 89.410156 22.582031 "/>
<path style=" stroke:none;fill-rule:nonzero;fill:rgb(0%,0%,0%);fill-opacity:1;" d="M 93.988281 24.25 L 93.988281 23.707031 L 89.945312 23.707031 L 89.945312 24.25 Z M 93.988281 24.25 "/>
<path style=" stroke:none;fill-rule:nonzero;fill:rgb(0%,0%,0%);fill-opacity:1;" d="M 97.804688 26 L 97.804688 25.875 C 97.199219 25.875 97.054688 25.730469 97.054688 25.394531 L 97.054688 20.625 L 96.972656 20.582031 L 95.554688 21.3125 L 95.554688 21.4375 L 95.761719 21.355469 C 95.910156 21.292969 96.035156 21.25 96.117188 21.25 C 96.285156 21.25 96.367188 21.375 96.367188 21.644531 L 96.367188 25.25 C 96.367188 25.6875 96.199219 25.855469 95.597656 25.875 L 95.597656 26 Z M 97.804688 26 "/>
<path style=" stroke:none;fill-rule:nonzero;fill:rgb(40.000001%,74.901962%,100%);fill-opacity:1;" d="M 142.527344 33.332031 L 177.191406 33.332031 L 177.191406 6.667969 L 142.527344 6.667969 Z M 142.527344 33.332031 "/>
<path style="fill:none;stroke-width:1;stroke-linecap:round;stroke-linejoin:round;stroke:rgb(0%,0%,0%);stroke-opacity:1;stroke-miterlimit:10;" d="M 122.895508 74.000977 L 148.893555 74.000977 L 148.893555 93.999023 L 122.895508 93.999023 Z M 122.895508 74.000977 " transform="matrix(1.333333,0,0,1.333333,-21.333333,-92)"/>
<path style=" stroke:none;fill-rule:nonzero;fill:rgb(0%,0%,0%);fill-opacity:1;" d="M 159 17.75 C 158.832031 16.917969 158.6875 16.707031 158.394531 16.707031 C 158.101562 16.707031 157.707031 16.792969 156.976562 17.0625 L 156.851562 17.105469 L 156.894531 17.292969 L 157.101562 17.230469 C 157.332031 17.167969 157.476562 17.144531 157.5625 17.144531 C 157.875 17.144531 157.957031 17.25 158.125 17.957031 L 158.457031 19.457031 L 157.476562 20.855469 C 157.226562 21.207031 157 21.4375 156.851562 21.4375 C 156.789062 21.4375 156.664062 21.394531 156.539062 21.332031 C 156.394531 21.25 156.269531 21.1875 156.164062 21.1875 C 155.9375 21.1875 155.75 21.394531 155.75 21.625 C 155.75 21.9375 155.976562 22.125 156.351562 22.125 C 156.726562 22.125 156.976562 22.019531 157.5 21.3125 L 158.5625 19.894531 L 158.894531 21.3125 C 159.039062 21.917969 159.226562 22.125 159.601562 22.125 C 160.0625 22.125 160.375 21.855469 161.082031 20.769531 L 160.894531 20.644531 C 160.789062 20.769531 160.75 20.855469 160.644531 21 C 160.375 21.355469 160.226562 21.480469 160.082031 21.480469 C 159.914062 21.480469 159.8125 21.3125 159.726562 20.980469 L 159.332031 19.375 C 159.269531 19.082031 159.226562 18.917969 159.226562 18.832031 C 159.769531 17.917969 160.207031 17.375 160.414062 17.375 C 160.707031 17.375 160.8125 17.582031 161.039062 17.582031 C 161.269531 17.582031 161.4375 17.394531 161.4375 17.144531 C 161.4375 16.894531 161.25 16.707031 160.957031 16.707031 C 160.4375 16.707031 159.976562 17.144531 159.144531 18.417969 Z M 159 17.75 "/>
<path style=" stroke:none;fill-rule:nonzero;fill:rgb(0%,0%,0%);fill-opacity:1;" d="M 163.785156 22.582031 L 163.140625 22.582031 L 163.367188 21.75 C 163.367188 21.730469 163.367188 21.6875 163.367188 21.6875 C 163.367188 21.644531 163.347656 21.625 163.304688 21.625 C 163.265625 21.625 163.222656 21.644531 163.179688 21.707031 C 162.890625 22.144531 162.367188 22.519531 162.117188 22.582031 C 161.929688 22.625 161.867188 22.6875 161.867188 22.792969 C 161.867188 22.792969 161.867188 22.8125 161.867188 22.832031 L 162.472656 22.832031 L 161.847656 25.207031 C 161.785156 25.457031 161.722656 25.707031 161.722656 25.792969 C 161.722656 26 161.867188 26.082031 162.078125 26.082031 C 162.492188 26.082031 162.742188 25.855469 163.222656 25.125 L 163.117188 25.0625 C 162.722656 25.5625 162.597656 25.6875 162.472656 25.6875 C 162.410156 25.6875 162.347656 25.667969 162.347656 25.5625 C 162.347656 25.542969 162.367188 25.480469 162.367188 25.457031 L 163.054688 22.832031 L 163.742188 22.832031 Z M 163.785156 22.582031 "/>
<path style=" stroke:none;fill-rule:nonzero;fill:rgb(40.000001%,74.901962%,100%);fill-opacity:1;" d="M 210.40625 33.332031 L 245.074219 33.332031 L 245.074219 6.667969 L 210.40625 6.667969 Z M 210.40625 33.332031 "/>
<path style="fill:none;stroke-width:1;stroke-linecap:round;stroke-linejoin:round;stroke:rgb(0%,0%,0%);stroke-opacity:1;stroke-miterlimit:10;" d="M 173.804688 74.000977 L 199.805664 74.000977 L 199.805664 93.999023 L 173.804688 93.999023 Z M 173.804688 74.000977 " transform="matrix(1.333333,0,0,1.333333,-21.333333,-92)"/>
<path style=" stroke:none;fill-rule:nonzero;fill:rgb(0%,0%,0%);fill-opacity:1;" d="M 222.183594 17.75 C 222.015625 16.917969 221.871094 16.707031 221.578125 16.707031 C 221.285156 16.707031 220.890625 16.792969 220.160156 17.0625 L 220.035156 17.105469 L 220.078125 17.292969 L 220.285156 17.230469 C 220.515625 17.167969 220.660156 17.144531 220.746094 17.144531 C 221.058594 17.144531 221.140625 17.25 221.308594 17.957031 L 221.640625 19.457031 L 220.660156 20.855469 C 220.410156 21.207031 220.183594 21.4375 220.035156 21.4375 C 219.972656 21.4375 219.847656 21.394531 219.722656 21.332031 C 219.578125 21.25 219.453125 21.1875 219.347656 21.1875 C 219.121094 21.1875 218.933594 21.394531 218.933594 21.625 C 218.933594 21.9375 219.160156 22.125 219.535156 22.125 C 219.910156 22.125 220.160156 22.019531 220.683594 21.3125 L 221.746094 19.894531 L 222.078125 21.3125 C 222.222656 21.917969 222.410156 22.125 222.785156 22.125 C 223.246094 22.125 223.558594 21.855469 224.265625 20.769531 L 224.078125 20.644531 C 223.972656 20.769531 223.933594 20.855469 223.828125 21 C 223.558594 21.355469 223.410156 21.480469 223.265625 21.480469 C 223.097656 21.480469 222.996094 21.3125 222.910156 20.980469 L 222.515625 19.375 C 222.453125 19.082031 222.410156 18.917969 222.410156 18.832031 C 222.953125 17.917969 223.390625 17.375 223.597656 17.375 C 223.890625 17.375 223.996094 17.582031 224.222656 17.582031 C 224.453125 17.582031 224.621094 17.394531 224.621094 17.144531 C 224.621094 16.894531 224.433594 16.707031 224.140625 16.707031 C 223.621094 16.707031 223.160156 17.144531 222.328125 18.417969 Z M 222.183594 17.75 "/>
<path style=" stroke:none;fill-rule:nonzero;fill:rgb(0%,0%,0%);fill-opacity:1;" d="M 226.96875 22.582031 L 226.324219 22.582031 L 226.550781 21.75 C 226.550781 21.730469 226.550781 21.6875 226.550781 21.6875 C 226.550781 21.644531 226.53125 21.625 226.488281 21.625 C 226.449219 21.625 226.40625 21.644531 226.363281 21.707031 C 226.074219 22.144531 225.550781 22.519531 225.300781 22.582031 C 225.113281 22.625 225.050781 22.6875 225.050781 22.792969 C 225.050781 22.792969 225.050781 22.8125 225.050781 22.832031 L 225.65625 22.832031 L 225.03125 25.207031 C 224.96875 25.457031 224.90625 25.707031 224.90625 25.792969 C 224.90625 26 225.050781 26.082031 225.261719 26.082031 C 225.675781 26.082031 225.925781 25.855469 226.40625 25.125 L 226.300781 25.0625 C 225.90625 25.5625 225.78125 25.6875 225.65625 25.6875 C 225.59375 25.6875 225.53125 25.667969 225.53125 25.5625 C 225.53125 25.542969 225.550781 25.480469 225.550781 25.457031 L 226.238281 22.832031 L 226.925781 22.832031 Z M 226.96875 22.582031 "/>
<path style=" stroke:none;fill-rule:nonzero;fill:rgb(0%,0%,0%);fill-opacity:1;" d="M 231.546875 24.25 L 231.546875 23.707031 L 229.777344 23.707031 L 229.777344 21.957031 L 229.253906 21.957031 L 229.253906 23.707031 L 227.503906 23.707031 L 227.503906 24.25 L 229.253906 24.25 L 229.253906 26 L 229.777344 26 L 229.777344 24.25 Z M 231.546875 24.25 "/>
<path style=" stroke:none;fill-rule:nonzero;fill:rgb(0%,0%,0%);fill-opacity:1;" d="M 235.363281 26 L 235.363281 25.875 C 234.757812 25.875 234.613281 25.730469 234.613281 25.394531 L 234.613281 20.625 L 234.53125 20.582031 L 233.113281 21.3125 L 233.113281 21.4375 L 233.320312 21.355469 C 233.46875 21.292969 233.59375 21.25 233.675781 21.25 C 233.84375 21.25 233.925781 21.375 233.925781 21.644531 L 233.925781 25.25 C 233.925781 25.6875 233.757812 25.855469 233.15625 25.875 L 233.15625 26 Z M 235.363281 26 "/>
<path style="fill:none;stroke-width:1;stroke-linecap:round;stroke-linejoin:round;stroke:rgb(0%,0%,0%);stroke-opacity:1;stroke-miterlimit:10;" d="M 98.280273 121.101562 L 116.992188 121.101562 " transform="matrix(1.333333,0,0,1.333333,-21.333333,-92)"/>
<path style="fill:none;stroke-width:1;stroke-linecap:butt;stroke-linejoin:miter;stroke:rgb(0%,0%,0%);stroke-opacity:1;stroke-miterlimit:10;" d="M 120.991211 121.101562 L 116.992188 121.101562 M 116.992188 119.601562 L 120.991211 121.101562 L 116.992188 122.601562 " transform="matrix(1.333333,0,0,1.333333,-21.333333,-92)"/>
<path style="fill:none;stroke-width:1;stroke-linecap:round;stroke-linejoin:round;stroke:rgb(0%,0%,0%);stroke-opacity:1;stroke-miterlimit:10;" d="M 148.893555 121.101562 L 167.907227 121.101562 " transform="matrix(1.333333,0,0,1.333333,-21.333333,-92)"/>
<path style="fill:none;stroke-width:1;stroke-linecap:butt;stroke-linejoin:miter;stroke:rgb(0%,0%,0%);stroke-opacity:1;stroke-miterlimit:10;" d="M 171.90625 121.101562 L 167.907227 121.101562 M 167.907227 119.601562 L 171.90625 121.101562 L 167.907227 122.601562 " transform="matrix(1.333333,0,0,1.333333,-21.333333,-92)"/>
<path style="fill:none;stroke-width:1;stroke-linecap:round;stroke-linejoin:round;stroke:rgb(0%,0%,0%);stroke-opacity:1;stroke-miterlimit:10;" d="M 85.28125 111.102539 L 85.28125 99.899414 " transform="matrix(1.333333,0,0,1.333333,-21.333333,-92)"/>
<path style="fill:none;stroke-width:1;stroke-linecap:butt;stroke-linejoin:miter;stroke:rgb(0%,0%,0%);stroke-opacity:1;stroke-miterlimit:10;" d="M 85.28125 95.897461 L 85.28125 99.899414 M 83.78125 99.899414 L 85.28125 95.897461 L 86.78125 99.899414 " transform="matrix(1.333333,0,0,1.333333,-21.333333,-92)"/>
<path style="fill:none;stroke-width:1;stroke-linecap:round;stroke-linejoin:round;stroke:rgb(0%,0%,0%);stroke-opacity:1;stroke-miterlimit:10;" d="M 135.894531 111.102539 L 135.894531 99.899414 " transform="matrix(1.333333,0,0,1.333333,-21.333333,-92)"/>
<path style="fill:none;stroke-width:1;stroke-linecap:butt;stroke-linejoin:miter;stroke:rgb(0%,0%,0%);stroke-opacity:1;stroke-miterlimit:10;" d="M 135.894531 95.897461 L 135.894531 99.899414 M 134.394531 99.899414 L 135.894531 95.897461 L 137.394531 99.899414 " transform="matrix(1.333333,0,0,1.333333,-21.333333,-92)"/>
<path style="fill:none;stroke-width:1;stroke-linecap:round;stroke-linejoin:round;stroke:rgb(0%,0%,0%);stroke-opacity:1;stroke-miterlimit:10;" d="M 187.046875 111.102539 L 186.950195 99.899414 " transform="matrix(1.333333,0,0,1.333333,-21.333333,-92)"/>
<path style="fill:none;stroke-width:1;stroke-linecap:butt;stroke-linejoin:miter;stroke:rgb(0%,0%,0%);stroke-opacity:1;stroke-miterlimit:10;" d="M 186.90918 95.897461 L 186.950195 99.899414 M 185.450195 99.914062 L 186.90918 95.897461 L 188.450195 99.887695 " transform="matrix(1.333333,0,0,1.333333,-21.333333,-92)"/>
<path style=" stroke:none;fill-rule:nonzero;fill:rgb(0%,0%,0%);fill-opacity:1;" d="M 17.292969 71.40625 L 17.292969 67.320312 L 15.394531 67.320312 C 15.769531 66.90625 16.125 66.382812 16.5 65.800781 L 16.5 65.15625 L 13.707031 65.15625 C 13.832031 64.925781 13.957031 64.65625 14.042969 64.382812 L 13.1875 64.28125 C 12.769531 65.382812 11.980469 66.300781 10.8125 67.070312 L 11.3125 67.738281 C 11.457031 67.632812 11.605469 67.53125 11.769531 67.40625 L 11.769531 68.09375 L 16.457031 68.09375 L 16.457031 69.007812 L 11.605469 69.007812 L 11.605469 69.757812 L 16.457031 69.757812 L 16.457031 70.65625 L 11.332031 70.65625 L 11.332031 71.40625 Z M 13.25 65.90625 L 15.542969 65.90625 C 15.1875 66.445312 14.832031 66.925781 14.480469 67.320312 L 11.875 67.320312 C 12.394531 66.90625 12.855469 66.445312 13.25 65.90625 Z M 7.667969 64.820312 L 7.667969 75.34375 L 8.519531 75.34375 L 8.519531 65.632812 L 10.25 65.632812 C 9.957031 66.65625 9.5625 67.78125 9.0625 69.03125 C 9.707031 70.050781 10.019531 70.988281 10.019531 71.800781 C 10.019531 72.050781 9.957031 72.238281 9.875 72.34375 C 9.769531 72.445312 9.5625 72.507812 9.269531 72.53125 C 9.144531 72.53125 8.980469 72.507812 8.8125 72.488281 L 9.082031 73.363281 C 9.769531 73.363281 10.269531 73.21875 10.5625 72.925781 C 10.75 72.695312 10.855469 72.320312 10.855469 71.800781 C 10.8125 70.945312 10.5 69.96875 9.917969 68.90625 C 10.375 67.71875 10.769531 66.59375 11.105469 65.507812 L 11.105469 64.820312 Z M 17.125 71.90625 L 16.375 72.15625 C 16.792969 72.882812 17.1875 73.71875 17.542969 74.65625 L 18.25 74.320312 C 17.917969 73.46875 17.542969 72.675781 17.125 71.90625 Z M 11.4375 72.132812 C 11.25 72.988281 10.957031 73.78125 10.5625 74.488281 L 11.269531 74.945312 C 11.667969 74.195312 11.980469 73.320312 12.207031 72.300781 Z M 15.417969 75.238281 C 15.769531 75.238281 16.042969 75.15625 16.207031 75.007812 C 16.417969 74.820312 16.5625 74.320312 16.625 73.507812 L 15.875 73.257812 C 15.832031 73.84375 15.769531 74.195312 15.6875 74.320312 C 15.605469 74.40625 15.457031 74.46875 15.269531 74.46875 L 13.980469 74.46875 C 13.6875 74.46875 13.542969 74.28125 13.542969 73.945312 L 13.542969 71.988281 L 12.730469 71.988281 L 12.730469 74.132812 C 12.730469 74.863281 13.0625 75.238281 13.730469 75.238281 Z M 14.625 71.71875 L 14.019531 72.113281 C 14.457031 72.632812 14.8125 73.09375 15.0625 73.53125 L 15.707031 73.070312 C 15.457031 72.695312 15.082031 72.238281 14.625 71.71875 Z M 14.625 71.71875 "/>
<path style=" stroke:none;fill-rule:nonzero;fill:rgb(0%,0%,0%);fill-opacity:1;" d="M 21.894531 70.09375 C 21.082031 70.96875 20.167969 71.738281 19.167969 72.382812 L 19.4375 73.300781 C 20.355469 72.613281 21.167969 71.882812 21.894531 71.113281 L 21.894531 75.300781 L 22.75 75.300781 L 22.75 64.40625 L 21.894531 64.40625 Z M 20.144531 65.59375 L 19.332031 65.863281 C 19.792969 66.757812 20.207031 67.820312 20.582031 69.03125 L 21.332031 68.675781 C 21 67.59375 20.605469 66.550781 20.144531 65.59375 Z M 28.25 64.570312 L 27.5625 64.988281 C 28.1875 65.695312 28.707031 66.34375 29.0625 66.945312 L 29.730469 66.46875 C 29.375 65.925781 28.894531 65.28125 28.25 64.570312 Z M 26.917969 64.363281 L 26.0625 64.363281 C 26.0625 65.09375 26.042969 66.175781 26 67.550781 L 23.542969 67.550781 L 23.542969 68.382812 L 25.957031 68.382812 C 25.707031 70.757812 24.792969 72.863281 23.1875 74.65625 L 23.75 75.300781 C 25.125 73.84375 26.0625 72.03125 26.582031 69.84375 C 27.105469 72.03125 28.125 73.84375 29.625 75.28125 L 30.230469 74.632812 C 28.5625 73.15625 27.480469 71.070312 26.980469 68.382812 L 29.8125 68.382812 L 29.8125 67.550781 L 26.875 67.550781 C 26.894531 66.300781 26.917969 65.257812 26.917969 64.363281 Z M 26.917969 64.363281 "/>
<path style=" stroke:none;fill-rule:nonzero;fill:rgb(0%,0%,0%);fill-opacity:1;" d="M 36.230469 64.21875 C 36.1875 64.695312 36.082031 65.15625 35.957031 65.59375 L 31.730469 65.59375 L 31.730469 66.425781 L 35.667969 66.425781 C 35.4375 66.882812 35.1875 67.300781 34.832031 67.675781 C 34.082031 68.46875 32.855469 69.09375 31.144531 69.507812 L 31.480469 70.300781 C 32.917969 69.925781 34.042969 69.445312 34.832031 68.863281 C 35.417969 69.300781 36 69.820312 36.5625 70.40625 L 37.167969 69.800781 C 36.519531 69.21875 35.9375 68.738281 35.417969 68.363281 C 35.457031 68.320312 35.5 68.28125 35.542969 68.238281 C 35.980469 67.71875 36.332031 67.113281 36.605469 66.425781 L 36.792969 66.425781 C 37.394531 68.050781 39 69.34375 41.667969 70.28125 L 42.125 69.53125 C 39.730469 68.78125 38.25 67.757812 37.667969 66.425781 L 41.5 66.425781 L 41.5 65.59375 L 36.875 65.59375 C 36.957031 65.175781 37.042969 64.757812 37.105469 64.300781 Z M 32.375 71.320312 C 32.144531 72.382812 31.792969 73.382812 31.269531 74.257812 L 32.019531 74.738281 C 32.542969 73.820312 32.9375 72.738281 33.230469 71.488281 Z M 36.9375 70.882812 L 36.167969 71.113281 C 36.5625 71.738281 36.917969 72.445312 37.25 73.238281 L 38.042969 72.90625 C 37.730469 72.175781 37.355469 71.507812 36.9375 70.882812 Z M 40.519531 71.132812 L 39.6875 71.40625 C 40.25 72.257812 40.769531 73.238281 41.230469 74.363281 L 42.019531 74.007812 C 41.605469 72.988281 41.105469 72.03125 40.519531 71.132812 Z M 38.3125 75.09375 C 38.769531 75.09375 39.105469 74.96875 39.3125 74.78125 C 39.5625 74.53125 39.730469 73.882812 39.8125 72.800781 L 39 72.53125 C 38.9375 73.363281 38.855469 73.863281 38.707031 74.03125 C 38.605469 74.175781 38.417969 74.238281 38.167969 74.238281 L 35.542969 74.238281 C 35.1875 74.238281 35.019531 74.070312 35.019531 73.695312 L 35.019531 71.28125 L 34.125 71.28125 L 34.125 73.882812 C 34.125 74.675781 34.5 75.09375 35.269531 75.09375 Z M 38.3125 75.09375 "/>
<path style=" stroke:none;fill-rule:nonzero;fill:rgb(0%,0%,0%);fill-opacity:1;" d="M 15.417969 18.207031 L 15.417969 19.980469 L 14.230469 19.980469 C 14.519531 19.207031 14.8125 18.332031 15.0625 17.355469 L 17.375 17.355469 L 17.375 16.542969 L 15.269531 16.542969 C 15.375 16.0625 15.480469 15.542969 15.605469 15 L 14.8125 14.832031 C 14.6875 15.417969 14.582031 16 14.457031 16.542969 L 13.269531 16.542969 L 13.269531 17.355469 L 14.269531 17.355469 C 14 18.417969 13.707031 19.332031 13.355469 20.042969 L 13.542969 20.769531 L 15.417969 20.769531 L 15.417969 22.5625 C 14.707031 22.6875 13.980469 22.8125 13.1875 22.894531 L 13.292969 23.75 C 14.019531 23.625 14.730469 23.519531 15.417969 23.375 L 15.417969 25.875 L 16.207031 25.875 L 16.207031 23.207031 L 17.355469 22.917969 L 17.355469 22.105469 C 17 22.1875 16.625 22.292969 16.207031 22.394531 L 16.207031 20.769531 L 17.3125 20.769531 L 17.3125 19.980469 L 16.207031 19.980469 L 16.207031 18.207031 Z M 18.957031 17.582031 L 18.957031 18.292969 L 22.394531 18.292969 L 22.394531 17.582031 L 18.957031 17.582031 C 19.5625 17 20.144531 16.355469 20.707031 15.667969 C 21.625 16.832031 22.644531 17.832031 23.769531 18.644531 L 24.230469 17.980469 C 23.144531 17.207031 22.082031 16.1875 21.019531 14.894531 L 20.417969 14.894531 C 19.4375 16.082031 18.332031 17.144531 17.105469 18.042969 L 17.582031 18.769531 C 18.042969 18.394531 18.5 18 18.957031 17.582031 Z M 19.792969 25.792969 C 20.375 25.792969 20.6875 25.480469 20.6875 24.855469 L 20.6875 19.25 L 17.855469 19.25 L 17.855469 25.875 L 18.605469 25.875 L 18.605469 23.625 L 19.957031 23.625 L 19.957031 24.707031 C 19.957031 24.957031 19.8125 25.105469 19.5625 25.105469 L 19.019531 25.082031 L 19.207031 25.792969 Z M 18.605469 22.957031 L 18.605469 21.8125 L 19.957031 21.8125 L 19.957031 22.957031 Z M 18.605469 21.144531 L 18.605469 19.957031 L 19.957031 19.957031 L 19.957031 21.144531 Z M 21.394531 19.582031 L 21.394531 23.894531 L 22.082031 23.894531 L 22.082031 19.582031 Z M 22.707031 25.8125 C 23.292969 25.8125 23.582031 25.457031 23.582031 24.769531 L 23.582031 19.042969 L 22.832031 19.042969 L 22.832031 24.582031 C 22.832031 24.917969 22.707031 25.105469 22.4375 25.105469 C 22.144531 25.105469 21.832031 25.082031 21.519531 25.042969 L 21.6875 25.8125 Z M 22.707031 25.8125 "/>
<path style=" stroke:none;fill-rule:nonzero;fill:rgb(0%,0%,0%);fill-opacity:1;" d="M 33.917969 19.042969 L 31.105469 19.042969 L 31.105469 14.855469 L 30.230469 14.855469 L 30.230469 19.042969 L 27.417969 19.042969 L 27.417969 15.769531 L 26.542969 15.769531 L 26.542969 19.875 L 30.230469 19.875 L 30.230469 24.292969 L 26.832031 24.292969 L 26.832031 21 L 25.957031 21 L 25.957031 25.792969 L 26.832031 25.792969 L 26.832031 25.105469 L 34.5 25.105469 L 34.5 25.792969 L 35.375 25.792969 L 35.375 21 L 34.5 21 L 34.5 24.292969 L 31.105469 24.292969 L 31.105469 19.875 L 34.792969 19.875 L 34.792969 15.769531 L 33.917969 15.769531 Z M 33.917969 19.042969 "/>
<path style=" stroke:none;fill-rule:nonzero;fill:rgb(0%,0%,0%);fill-opacity:1;" d="M 87.003906 14.914062 L 85.085938 11.015625 L 84.441406 11.015625 L 82.503906 14.914062 L 83.230469 14.914062 L 84.753906 11.828125 L 86.292969 14.914062 Z M 87.003906 14.914062 "/>
<path style=" stroke:none;fill-rule:nonzero;fill:rgb(0%,0%,0%);fill-opacity:1;" d="M 160.816406 14.914062 L 158.898438 11.015625 L 158.253906 11.015625 L 156.316406 14.914062 L 157.046875 14.914062 L 158.566406 11.828125 L 160.109375 14.914062 Z M 160.816406 14.914062 "/>
<path style=" stroke:none;fill-rule:nonzero;fill:rgb(0%,0%,0%);fill-opacity:1;" d="M 224.300781 14.914062 L 222.382812 11.015625 L 221.738281 11.015625 L 219.800781 14.914062 L 220.527344 14.914062 L 222.050781 11.828125 L 223.589844 14.914062 Z M 224.300781 14.914062 "/>
<path style=" stroke:none;fill-rule:nonzero;fill:rgb(40.000001%,74.901962%,100%);fill-opacity:1;" d="M 75.921875 135.40625 L 110.589844 135.40625 L 110.589844 108.738281 L 75.921875 108.738281 Z M 75.921875 135.40625 "/>
<path style="fill:none;stroke-width:1;stroke-linecap:round;stroke-linejoin:round;stroke:rgb(0%,0%,0%);stroke-opacity:1;stroke-miterlimit:10;" d="M 72.941406 150.553711 L 98.942383 150.553711 L 98.942383 170.554688 L 72.941406 170.554688 Z M 72.941406 150.553711 " transform="matrix(1.333333,0,0,1.333333,-21.333333,-92)"/>
<path style=" stroke:none;fill-rule:nonzero;fill:rgb(0%,0%,0%);fill-opacity:1;" d="M 85.503906 119.824219 C 85.335938 118.992188 85.191406 118.78125 84.898438 118.78125 C 84.605469 118.78125 84.210938 118.867188 83.480469 119.136719 L 83.355469 119.179688 L 83.398438 119.367188 L 83.605469 119.304688 C 83.835938 119.242188 83.980469 119.21875 84.066406 119.21875 C 84.378906 119.21875 84.460938 119.324219 84.628906 120.03125 L 84.960938 121.53125 L 83.980469 122.929688 C 83.730469 123.28125 83.503906 123.511719 83.355469 123.511719 C 83.292969 123.511719 83.167969 123.46875 83.042969 123.40625 C 82.898438 123.324219 82.773438 123.261719 82.667969 123.261719 C 82.441406 123.261719 82.253906 123.46875 82.253906 123.699219 C 82.253906 124.011719 82.480469 124.199219 82.855469 124.199219 C 83.230469 124.199219 83.480469 124.09375 84.003906 123.386719 L 85.066406 121.96875 L 85.398438 123.386719 C 85.542969 123.992188 85.730469 124.199219 86.105469 124.199219 C 86.566406 124.199219 86.878906 123.929688 87.585938 122.84375 L 87.398438 122.71875 C 87.292969 122.84375 87.253906 122.929688 87.148438 123.074219 C 86.878906 123.429688 86.730469 123.554688 86.585938 123.554688 C 86.417969 123.554688 86.316406 123.386719 86.230469 123.054688 L 85.835938 121.449219 C 85.773438 121.15625 85.730469 120.992188 85.730469 120.90625 C 86.273438 119.992188 86.710938 119.449219 86.917969 119.449219 C 87.210938 119.449219 87.316406 119.65625 87.542969 119.65625 C 87.773438 119.65625 87.941406 119.46875 87.941406 119.21875 C 87.941406 118.96875 87.753906 118.78125 87.460938 118.78125 C 86.941406 118.78125 86.480469 119.21875 85.648438 120.492188 Z M 85.503906 119.824219 "/>
<path style=" stroke:none;fill-rule:nonzero;fill:rgb(0%,0%,0%);fill-opacity:1;" d="M 90.289062 124.65625 L 89.644531 124.65625 L 89.871094 123.824219 C 89.871094 123.804688 89.871094 123.761719 89.871094 123.761719 C 89.871094 123.71875 89.851562 123.699219 89.808594 123.699219 C 89.769531 123.699219 89.726562 123.71875 89.683594 123.78125 C 89.394531 124.21875 88.871094 124.59375 88.621094 124.65625 C 88.433594 124.699219 88.371094 124.761719 88.371094 124.867188 C 88.371094 124.867188 88.371094 124.886719 88.371094 124.90625 L 88.976562 124.90625 L 88.351562 127.28125 C 88.289062 127.53125 88.226562 127.78125 88.226562 127.867188 C 88.226562 128.074219 88.371094 128.15625 88.582031 128.15625 C 88.996094 128.15625 89.246094 127.929688 89.726562 127.199219 L 89.621094 127.136719 C 89.226562 127.636719 89.101562 127.761719 88.976562 127.761719 C 88.914062 127.761719 88.851562 127.742188 88.851562 127.636719 C 88.851562 127.617188 88.871094 127.554688 88.871094 127.53125 L 89.558594 124.90625 L 90.246094 124.90625 Z M 90.289062 124.65625 "/>
<path style=" stroke:none;fill-rule:nonzero;fill:rgb(0%,0%,0%);fill-opacity:1;" d="M 94.867188 126.324219 L 94.867188 125.78125 L 90.824219 125.78125 L 90.824219 126.324219 Z M 94.867188 126.324219 "/>
<path style=" stroke:none;fill-rule:nonzero;fill:rgb(0%,0%,0%);fill-opacity:1;" d="M 99.328125 126.96875 L 99.226562 126.929688 C 98.953125 127.386719 98.789062 127.46875 98.453125 127.46875 L 96.578125 127.46875 L 97.890625 126.054688 C 98.601562 125.304688 98.914062 124.699219 98.914062 124.074219 C 98.914062 123.28125 98.351562 122.65625 97.433594 122.65625 C 96.453125 122.65625 95.953125 123.324219 95.789062 124.261719 L 95.953125 124.304688 C 96.265625 123.511719 96.539062 123.261719 97.121094 123.261719 C 97.808594 123.261719 98.226562 123.65625 98.226562 124.386719 C 98.226562 125.074219 97.953125 125.679688 97.183594 126.46875 L 95.765625 127.96875 L 95.765625 128.074219 L 98.890625 128.074219 Z M 99.328125 126.96875 "/>
<path style=" stroke:none;fill-rule:nonzero;fill:rgb(40.000001%,74.901962%,100%);fill-opacity:1;" d="M 143.40625 135.40625 L 178.074219 135.40625 L 178.074219 108.738281 L 143.40625 108.738281 Z M 143.40625 135.40625 "/>
<path style="fill:none;stroke-width:1;stroke-linecap:round;stroke-linejoin:round;stroke:rgb(0%,0%,0%);stroke-opacity:1;stroke-miterlimit:10;" d="M 123.554688 150.553711 L 149.555664 150.553711 L 149.555664 170.554688 L 123.554688 170.554688 Z M 123.554688 150.553711 " transform="matrix(1.333333,0,0,1.333333,-21.333333,-92)"/>
<path style=" stroke:none;fill-rule:nonzero;fill:rgb(0%,0%,0%);fill-opacity:1;" d="M 155.179688 119.824219 C 155.011719 118.992188 154.867188 118.78125 154.574219 118.78125 C 154.28125 118.78125 153.886719 118.867188 153.15625 119.136719 L 153.03125 119.179688 L 153.074219 119.367188 L 153.28125 119.304688 C 153.511719 119.242188 153.65625 119.21875 153.742188 119.21875 C 154.054688 119.21875 154.136719 119.324219 154.304688 120.03125 L 154.636719 121.53125 L 153.65625 122.929688 C 153.40625 123.28125 153.179688 123.511719 153.03125 123.511719 C 152.96875 123.511719 152.84375 123.46875 152.71875 123.40625 C 152.574219 123.324219 152.449219 123.261719 152.34375 123.261719 C 152.117188 123.261719 151.929688 123.46875 151.929688 123.699219 C 151.929688 124.011719 152.15625 124.199219 152.53125 124.199219 C 152.90625 124.199219 153.15625 124.09375 153.679688 123.386719 L 154.742188 121.96875 L 155.074219 123.386719 C 155.21875 123.992188 155.40625 124.199219 155.78125 124.199219 C 156.242188 124.199219 156.554688 123.929688 157.261719 122.84375 L 157.074219 122.71875 C 156.96875 122.84375 156.929688 122.929688 156.824219 123.074219 C 156.554688 123.429688 156.40625 123.554688 156.261719 123.554688 C 156.09375 123.554688 155.992188 123.386719 155.90625 123.054688 L 155.511719 121.449219 C 155.449219 121.15625 155.40625 120.992188 155.40625 120.90625 C 155.949219 119.992188 156.386719 119.449219 156.59375 119.449219 C 156.886719 119.449219 156.992188 119.65625 157.21875 119.65625 C 157.449219 119.65625 157.617188 119.46875 157.617188 119.21875 C 157.617188 118.96875 157.429688 118.78125 157.136719 118.78125 C 156.617188 118.78125 156.15625 119.21875 155.324219 120.492188 Z M 155.179688 119.824219 "/>
<path style=" stroke:none;fill-rule:nonzero;fill:rgb(0%,0%,0%);fill-opacity:1;" d="M 159.964844 124.65625 L 159.320312 124.65625 L 159.546875 123.824219 C 159.546875 123.804688 159.546875 123.761719 159.546875 123.761719 C 159.546875 123.71875 159.527344 123.699219 159.484375 123.699219 C 159.445312 123.699219 159.402344 123.71875 159.359375 123.78125 C 159.070312 124.21875 158.546875 124.59375 158.296875 124.65625 C 158.109375 124.699219 158.046875 124.761719 158.046875 124.867188 C 158.046875 124.867188 158.046875 124.886719 158.046875 124.90625 L 158.652344 124.90625 L 158.027344 127.28125 C 157.964844 127.53125 157.902344 127.78125 157.902344 127.867188 C 157.902344 128.074219 158.046875 128.15625 158.257812 128.15625 C 158.671875 128.15625 158.921875 127.929688 159.402344 127.199219 L 159.296875 127.136719 C 158.902344 127.636719 158.777344 127.761719 158.652344 127.761719 C 158.589844 127.761719 158.527344 127.742188 158.527344 127.636719 C 158.527344 127.617188 158.546875 127.554688 158.546875 127.53125 L 159.234375 124.90625 L 159.921875 124.90625 Z M 159.964844 124.65625 "/>
<path style=" stroke:none;fill-rule:nonzero;fill:rgb(0%,0%,0%);fill-opacity:1;" d="M 164.542969 126.324219 L 164.542969 125.78125 L 160.5 125.78125 L 160.5 126.324219 Z M 164.542969 126.324219 "/>
<path style=" stroke:none;fill-rule:nonzero;fill:rgb(0%,0%,0%);fill-opacity:1;" d="M 168.359375 128.074219 L 168.359375 127.949219 C 167.753906 127.949219 167.609375 127.804688 167.609375 127.46875 L 167.609375 122.699219 L 167.527344 122.65625 L 166.109375 123.386719 L 166.109375 123.511719 L 166.316406 123.429688 C 166.464844 123.367188 166.589844 123.324219 166.671875 123.324219 C 166.839844 123.324219 166.921875 123.449219 166.921875 123.71875 L 166.921875 127.324219 C 166.921875 127.761719 166.753906 127.929688 166.152344 127.949219 L 166.152344 128.074219 Z M 168.359375 128.074219 "/>
<path style=" stroke:none;fill-rule:nonzero;fill:rgb(40.000001%,74.901962%,100%);fill-opacity:1;" d="M 211.285156 135.40625 L 245.953125 135.40625 L 245.953125 108.738281 L 211.285156 108.738281 Z M 211.285156 135.40625 "/>
<path style="fill:none;stroke-width:1;stroke-linecap:round;stroke-linejoin:round;stroke:rgb(0%,0%,0%);stroke-opacity:1;stroke-miterlimit:10;" d="M 174.463867 150.553711 L 200.464844 150.553711 L 200.464844 170.554688 L 174.463867 170.554688 Z M 174.463867 150.553711 " transform="matrix(1.333333,0,0,1.333333,-21.333333,-92)"/>
<path style=" stroke:none;fill-rule:nonzero;fill:rgb(0%,0%,0%);fill-opacity:1;" d="M 227.761719 119.824219 C 227.59375 118.992188 227.449219 118.78125 227.15625 118.78125 C 226.867188 118.78125 226.46875 118.867188 225.742188 119.136719 L 225.617188 119.179688 L 225.65625 119.367188 L 225.867188 119.304688 C 226.09375 119.242188 226.242188 119.21875 226.324219 119.21875 C 226.636719 119.21875 226.71875 119.324219 226.886719 120.03125 L 227.21875 121.53125 L 226.242188 122.929688 C 225.992188 123.28125 225.761719 123.511719 225.617188 123.511719 C 225.554688 123.511719 225.429688 123.46875 225.304688 123.40625 C 225.15625 123.324219 225.03125 123.261719 224.929688 123.261719 C 224.699219 123.261719 224.511719 123.46875 224.511719 123.699219 C 224.511719 124.011719 224.742188 124.199219 225.117188 124.199219 C 225.492188 124.199219 225.742188 124.09375 226.261719 123.386719 L 227.324219 121.96875 L 227.65625 123.386719 C 227.804688 123.992188 227.992188 124.199219 228.367188 124.199219 C 228.824219 124.199219 229.136719 123.929688 229.84375 122.84375 L 229.65625 122.71875 C 229.554688 122.84375 229.511719 122.929688 229.40625 123.074219 C 229.136719 123.429688 228.992188 123.554688 228.84375 123.554688 C 228.679688 123.554688 228.574219 123.386719 228.492188 123.054688 L 228.09375 121.449219 C 228.03125 121.15625 227.992188 120.992188 227.992188 120.90625 C 228.53125 119.992188 228.96875 119.449219 229.179688 119.449219 C 229.46875 119.449219 229.574219 119.65625 229.804688 119.65625 C 230.03125 119.65625 230.199219 119.46875 230.199219 119.21875 C 230.199219 118.96875 230.011719 118.78125 229.71875 118.78125 C 229.199219 118.78125 228.742188 119.21875 227.90625 120.492188 Z M 227.761719 119.824219 "/>
<path style=" stroke:none;fill-rule:nonzero;fill:rgb(0%,0%,0%);fill-opacity:1;" d="M 232.546875 124.65625 L 231.902344 124.65625 L 232.132812 123.824219 C 232.132812 123.804688 232.132812 123.761719 232.132812 123.761719 C 232.132812 123.71875 232.109375 123.699219 232.070312 123.699219 C 232.027344 123.699219 231.984375 123.71875 231.945312 123.78125 C 231.652344 124.21875 231.132812 124.59375 230.882812 124.65625 C 230.695312 124.699219 230.632812 124.761719 230.632812 124.867188 C 230.632812 124.867188 230.632812 124.886719 230.632812 124.90625 L 231.234375 124.90625 L 230.609375 127.28125 C 230.546875 127.53125 230.484375 127.78125 230.484375 127.867188 C 230.484375 128.074219 230.632812 128.15625 230.839844 128.15625 C 231.257812 128.15625 231.507812 127.929688 231.984375 127.199219 L 231.882812 127.136719 C 231.484375 127.636719 231.359375 127.761719 231.234375 127.761719 C 231.171875 127.761719 231.109375 127.742188 231.109375 127.636719 C 231.109375 127.617188 231.132812 127.554688 231.132812 127.53125 L 231.820312 124.90625 L 232.507812 124.90625 Z M 232.546875 124.65625 "/>
<path style="fill:none;stroke-width:1;stroke-linecap:round;stroke-linejoin:round;stroke:rgb(0%,0%,0%);stroke-opacity:1;stroke-miterlimit:10;" d="M 85.442383 150.553711 L 85.366211 137.000977 " transform="matrix(1.333333,0,0,1.333333,-21.333333,-92)"/>
<path style="fill:none;stroke-width:1;stroke-linecap:butt;stroke-linejoin:miter;stroke:rgb(0%,0%,0%);stroke-opacity:1;stroke-miterlimit:10;" d="M 85.342773 132.999023 L 85.366211 137.000977 M 83.866211 137.006836 L 85.342773 132.999023 L 86.866211 136.992188 " transform="matrix(1.333333,0,0,1.333333,-21.333333,-92)"/>
<path style="fill:none;stroke-width:1;stroke-linecap:round;stroke-linejoin:round;stroke:rgb(0%,0%,0%);stroke-opacity:1;stroke-miterlimit:10;" d="M 136.213867 150.553711 L 136.067383 137.000977 " transform="matrix(1.333333,0,0,1.333333,-21.333333,-92)"/>
<path style="fill:none;stroke-width:1;stroke-linecap:butt;stroke-linejoin:miter;stroke:rgb(0%,0%,0%);stroke-opacity:1;stroke-miterlimit:10;" d="M 136.023438 132.999023 L 136.067383 137.000977 M 134.567383 137.015625 L 136.023438 132.999023 L 137.567383 136.983398 " transform="matrix(1.333333,0,0,1.333333,-21.333333,-92)"/>
<path style="fill:none;stroke-width:1;stroke-linecap:round;stroke-linejoin:round;stroke:rgb(0%,0%,0%);stroke-opacity:1;stroke-miterlimit:10;" d="M 186.985352 150.553711 L 187.055664 137.000977 " transform="matrix(1.333333,0,0,1.333333,-21.333333,-92)"/>
<path style="fill:none;stroke-width:1;stroke-linecap:butt;stroke-linejoin:miter;stroke:rgb(0%,0%,0%);stroke-opacity:1;stroke-miterlimit:10;" d="M 187.073242 132.999023 L 187.055664 137.000977 M 185.555664 136.992188 L 187.073242 132.999023 L 188.555664 137.006836 " transform="matrix(1.333333,0,0,1.333333,-21.333333,-92)"/>
<path style=" stroke:none;fill-rule:nonzero;fill:rgb(0%,0%,0%);fill-opacity:1;" d="M 15.417969 120.28125 L 15.417969 122.054688 L 14.230469 122.054688 C 14.519531 121.28125 14.8125 120.40625 15.0625 119.429688 L 17.375 119.429688 L 17.375 118.617188 L 15.269531 118.617188 C 15.375 118.136719 15.480469 117.617188 15.605469 117.074219 L 14.8125 116.90625 C 14.6875 117.492188 14.582031 118.074219 14.457031 118.617188 L 13.269531 118.617188 L 13.269531 119.429688 L 14.269531 119.429688 C 14 120.492188 13.707031 121.40625 13.355469 122.117188 L 13.542969 122.84375 L 15.417969 122.84375 L 15.417969 124.636719 C 14.707031 124.761719 13.980469 124.886719 13.1875 124.96875 L 13.292969 125.824219 C 14.019531 125.699219 14.730469 125.59375 15.417969 125.449219 L 15.417969 127.949219 L 16.207031 127.949219 L 16.207031 125.28125 L 17.355469 124.992188 L 17.355469 124.179688 C 17 124.261719 16.625 124.367188 16.207031 124.46875 L 16.207031 122.84375 L 17.3125 122.84375 L 17.3125 122.054688 L 16.207031 122.054688 L 16.207031 120.28125 Z M 18.957031 119.65625 L 18.957031 120.367188 L 22.394531 120.367188 L 22.394531 119.65625 L 18.957031 119.65625 C 19.5625 119.074219 20.144531 118.429688 20.707031 117.742188 C 21.625 118.90625 22.644531 119.90625 23.769531 120.71875 L 24.230469 120.054688 C 23.144531 119.28125 22.082031 118.261719 21.019531 116.96875 L 20.417969 116.96875 C 19.4375 118.15625 18.332031 119.21875 17.105469 120.117188 L 17.582031 120.84375 C 18.042969 120.46875 18.5 120.074219 18.957031 119.65625 Z M 19.792969 127.867188 C 20.375 127.867188 20.6875 127.554688 20.6875 126.929688 L 20.6875 121.324219 L 17.855469 121.324219 L 17.855469 127.949219 L 18.605469 127.949219 L 18.605469 125.699219 L 19.957031 125.699219 L 19.957031 126.78125 C 19.957031 127.03125 19.8125 127.179688 19.5625 127.179688 L 19.019531 127.15625 L 19.207031 127.867188 Z M 18.605469 125.03125 L 18.605469 123.886719 L 19.957031 123.886719 L 19.957031 125.03125 Z M 18.605469 123.21875 L 18.605469 122.03125 L 19.957031 122.03125 L 19.957031 123.21875 Z M 21.394531 121.65625 L 21.394531 125.96875 L 22.082031 125.96875 L 22.082031 121.65625 Z M 22.707031 127.886719 C 23.292969 127.886719 23.582031 127.53125 23.582031 126.84375 L 23.582031 121.117188 L 22.832031 121.117188 L 22.832031 126.65625 C 22.832031 126.992188 22.707031 127.179688 22.4375 127.179688 C 22.144531 127.179688 21.832031 127.15625 21.519531 127.117188 L 21.6875 127.886719 Z M 22.707031 127.886719 "/>
<path style=" stroke:none;fill-rule:nonzero;fill:rgb(0%,0%,0%);fill-opacity:1;" d="M 30.144531 119.71875 C 29.375 122.90625 27.707031 125.367188 25.125 127.03125 L 25.644531 127.78125 C 28.167969 126.136719 29.832031 123.78125 30.625 120.71875 C 30.6875 120.867188 30.730469 121.03125 30.8125 121.242188 C 32.042969 124.40625 33.625 126.59375 35.582031 127.761719 L 36.125 127.074219 C 34.207031 125.886719 32.707031 123.84375 31.582031 120.992188 C 30.855469 119.03125 29.9375 117.679688 28.875 116.929688 L 28.167969 117.386719 C 28.917969 117.949219 29.582031 118.71875 30.144531 119.71875 Z M 30.144531 119.71875 "/>
</g>
</svg>
