<?xml version="1.0" encoding="UTF-8"?>
<svg xmlns="http://www.w3.org/2000/svg" xmlns:xlink="http://www.w3.org/1999/xlink" width="540" height="234.666667" viewBox="0 0 540 234.666667" version="1.1">
<g id="surface1">
<path style="fill:none;stroke-width:1;stroke-linecap:round;stroke-linejoin:round;stroke:rgb(0%,0%,0%);stroke-opacity:1;stroke-miterlimit:10;" d="M 301.999023 299.999023 L 370 299.999023 C 373.313477 299.999023 376 302.688477 376 305.999023 L 376 350 C 376 353.313477 373.313477 356 370 356 L 301.999023 356 C 298.688477 356 295.999023 353.313477 295.999023 350 L 295.999023 305.999023 C 295.999023 302.688477 298.688477 299.999023 301.999023 299.999023 Z M 301.999023 299.999023 " transform="matrix(1.333333,0,0,1.333333,-149.333333,-346.666667)"/>
<path style=" stroke:none;fill-rule:nonzero;fill:rgb(40.000001%,74.901962%,100%);fill-opacity:1;" d="M 285.605469 101.332031 L 322.9375 101.332031 L 322.9375 80 L 285.605469 80 Z M 285.605469 101.332031 "/>
<path style="fill:none;stroke-width:1;stroke-linecap:round;stroke-linejoin:round;stroke:rgb(0%,0%,0%);stroke-opacity:1;stroke-miterlimit:10;" d="M 326.204102 320 L 354.203125 320 L 354.203125 335.999023 L 326.204102 335.999023 Z M 326.204102 320 " transform="matrix(1.333333,0,0,1.333333,-149.333333,-346.666667)"/>
<path style=" stroke:none;fill-rule:nonzero;fill:rgb(0%,0%,0%);fill-opacity:1;" d="M 307.410156 90.699219 C 307.410156 91.398438 307.273438 92.042969 307.015625 92.636719 C 306.722656 93.292969 306.296875 93.78125 305.742188 94.117188 C 305.296875 94.398438 304.816406 94.554688 304.304688 94.59375 L 303.847656 96.84375 L 302.785156 96.84375 L 303.285156 94.511719 C 303.101562 94.460938 302.921875 94.386719 302.742188 94.304688 C 301.921875 93.875 301.515625 93.148438 301.515625 92.117188 C 301.515625 90.898438 301.875 89.886719 302.597656 89.09375 C 303.125 88.511719 303.789062 88.1875 304.597656 88.117188 L 305.078125 85.886719 L 306.140625 85.886719 L 305.660156 88.199219 C 306.078125 88.296875 306.429688 88.5 306.722656 88.804688 C 307.179688 89.277344 307.410156 89.90625 307.410156 90.699219 Z M 306.367188 90.699219 C 306.367188 90.132812 306.222656 89.695312 305.929688 89.386719 C 305.804688 89.25 305.648438 89.136719 305.472656 89.054688 L 304.492188 93.742188 C 304.8125 93.65625 305.101562 93.492188 305.367188 93.242188 C 305.726562 92.882812 306 92.40625 306.179688 91.824219 C 306.304688 91.421875 306.367188 91.046875 306.367188 90.699219 Z M 304.429688 88.96875 C 303.972656 89.085938 303.566406 89.382812 303.222656 89.867188 C 302.789062 90.449219 302.578125 91.167969 302.578125 92.011719 C 302.578125 92.585938 302.710938 93.023438 302.992188 93.324219 C 303.128906 93.480469 303.285156 93.589844 303.453125 93.65625 Z M 304.429688 88.96875 "/>
<path style="fill:none;stroke-width:1;stroke-linecap:round;stroke-linejoin:round;stroke:rgb(0%,0%,0%);stroke-opacity:1;stroke-miterlimit:10;" d="M 271.999023 328.000977 L 320.300781 328.000977 " transform="matrix(1.333333,0,0,1.333333,-149.333333,-346.666667)"/>
<path style="fill:none;stroke-width:1;stroke-linecap:butt;stroke-linejoin:miter;stroke:rgb(0%,0%,0%);stroke-opacity:1;stroke-miterlimit:10;" d="M 324.299805 328.000977 L 320.300781 328.000977 M 320.300781 326.500977 L 324.299805 328.000977 L 320.300781 329.500977 " transform="matrix(1.333333,0,0,1.333333,-149.333333,-346.666667)"/>
<path style="fill:none;stroke-width:1;stroke-linecap:round;stroke-linejoin:round;stroke:rgb(0%,0%,0%);stroke-opacity:1;stroke-miterlimit:10;" d="M 307.999023 368 L 307.999023 334.000977 C 307.999023 330.6875 310.688477 328.000977 313.999023 328.000977 L 321.258789 328.000977 " transform="matrix(1.333333,0,0,1.333333,-149.333333,-346.666667)"/>
<path style="fill:none;stroke-width:1;stroke-linecap:round;stroke-linejoin:round;stroke:rgb(0%,0%,0%);stroke-opacity:1;stroke-miterlimit:10;" d="M 354.203125 328.000977 L 425.839844 328.000977 " transform="matrix(1.333333,0,0,1.333333,-149.333333,-346.666667)"/>
<path style="fill:none;stroke-width:1;stroke-linecap:butt;stroke-linejoin:miter;stroke:rgb(0%,0%,0%);stroke-opacity:1;stroke-miterlimit:10;" d="M 429.838867 328.000977 L 425.839844 328.000977 M 425.839844 326.500977 L 429.838867 328.000977 L 425.839844 329.500977 " transform="matrix(1.333333,0,0,1.333333,-149.333333,-346.666667)"/>
<path style="fill:none;stroke-width:1;stroke-linecap:round;stroke-linejoin:round;stroke:rgb(0%,0%,0%);stroke-opacity:1;stroke-miterlimit:10;" d="M 356.913086 328.000977 L 358 328.000977 C 361.313477 328.000977 364 325.311523 364 322.000977 L 364 285.898438 " transform="matrix(1.333333,0,0,1.333333,-149.333333,-346.666667)"/>
<path style="fill:none;stroke-width:1;stroke-linecap:butt;stroke-linejoin:miter;stroke:rgb(0%,0%,0%);stroke-opacity:1;stroke-miterlimit:10;" d="M 364 281.899414 L 364 285.898438 M 362.5 285.898438 L 364 281.899414 L 365.5 285.898438 " transform="matrix(1.333333,0,0,1.333333,-149.333333,-346.666667)"/>
<path style=" stroke:none;fill-rule:nonzero;fill:rgb(0%,0%,0%);fill-opacity:1;" d="M 265.617188 160.667969 L 265.617188 160.375 C 265.203125 160.355469 265.015625 160.207031 264.453125 159.332031 L 262.265625 155.9375 L 263.222656 154.605469 C 264.265625 153.144531 264.578125 152.9375 265.472656 152.855469 L 265.472656 152.5625 L 262.472656 152.5625 L 262.472656 152.855469 L 262.722656 152.875 C 263.179688 152.917969 263.347656 153.019531 263.347656 153.292969 C 263.347656 153.5625 263.203125 153.792969 262.640625 154.5625 L 261.972656 155.5 L 260.804688 153.6875 C 260.660156 153.457031 260.640625 153.394531 260.640625 153.25 C 260.640625 153 260.765625 152.894531 261.203125 152.875 L 261.578125 152.855469 L 261.578125 152.5625 L 257.429688 152.5625 L 257.429688 152.855469 C 257.867188 152.894531 258.015625 153.019531 258.390625 153.542969 L 260.765625 157.042969 L 258.660156 159.6875 C 258.304688 160.144531 258.015625 160.292969 257.410156 160.375 L 257.410156 160.667969 L 260.410156 160.667969 L 260.410156 160.375 C 259.679688 160.292969 259.453125 160.167969 259.453125 159.855469 C 259.453125 159.605469 259.679688 159.230469 260.578125 158.019531 L 261.035156 157.417969 L 262.242188 159.355469 C 262.390625 159.582031 262.492188 159.855469 262.492188 160 C 262.492188 160.207031 262.285156 160.3125 261.867188 160.332031 L 261.535156 160.375 L 261.535156 160.667969 Z M 265.617188 160.667969 "/>
<path style=" stroke:none;fill-rule:nonzero;fill:rgb(0%,0%,0%);fill-opacity:1;" d="M 268.261719 161.25 L 267.617188 161.25 L 267.84375 160.417969 C 267.84375 160.394531 267.84375 160.355469 267.84375 160.355469 C 267.84375 160.3125 267.824219 160.292969 267.78125 160.292969 C 267.742188 160.292969 267.699219 160.3125 267.65625 160.375 C 267.367188 160.8125 266.84375 161.1875 266.59375 161.25 C 266.40625 161.292969 266.34375 161.355469 266.34375 161.457031 C 266.34375 161.457031 266.34375 161.480469 266.34375 161.5 L 266.949219 161.5 L 266.324219 163.875 C 266.261719 164.125 266.199219 164.375 266.199219 164.457031 C 266.199219 164.667969 266.34375 164.75 266.554688 164.75 C 266.96875 164.75 267.21875 164.519531 267.699219 163.792969 L 267.59375 163.730469 C 267.199219 164.230469 267.074219 164.355469 266.949219 164.355469 C 266.886719 164.355469 266.824219 164.332031 266.824219 164.230469 C 266.824219 164.207031 266.84375 164.144531 266.84375 164.125 L 267.53125 161.5 L 268.21875 161.5 Z M 268.261719 161.25 "/>
<path style=" stroke:none;fill-rule:nonzero;fill:rgb(0%,0%,0%);fill-opacity:1;" d="M 32.625 91.9375 L 32.625 87.855469 L 30.730469 87.855469 C 31.105469 87.4375 31.457031 86.917969 31.832031 86.332031 L 31.832031 85.6875 L 29.042969 85.6875 C 29.167969 85.457031 29.292969 85.1875 29.375 84.917969 L 28.519531 84.8125 C 28.105469 85.917969 27.3125 86.832031 26.144531 87.605469 L 26.644531 88.269531 C 26.792969 88.167969 26.9375 88.0625 27.105469 87.9375 L 27.105469 88.625 L 31.792969 88.625 L 31.792969 89.542969 L 26.9375 89.542969 L 26.9375 90.292969 L 31.792969 90.292969 L 31.792969 91.1875 L 26.667969 91.1875 L 26.667969 91.9375 Z M 28.582031 86.4375 L 30.875 86.4375 C 30.519531 86.980469 30.167969 87.457031 29.8125 87.855469 L 27.207031 87.855469 C 27.730469 87.4375 28.1875 86.980469 28.582031 86.4375 Z M 23 85.355469 L 23 95.875 L 23.855469 95.875 L 23.855469 86.167969 L 25.582031 86.167969 C 25.292969 87.1875 24.894531 88.3125 24.394531 89.5625 C 25.042969 90.582031 25.355469 91.519531 25.355469 92.332031 C 25.355469 92.582031 25.292969 92.769531 25.207031 92.875 C 25.105469 92.980469 24.894531 93.042969 24.605469 93.0625 C 24.480469 93.0625 24.3125 93.042969 24.144531 93.019531 L 24.417969 93.894531 C 25.105469 93.894531 25.605469 93.75 25.894531 93.457031 C 26.082031 93.230469 26.1875 92.855469 26.1875 92.332031 C 26.144531 91.480469 25.832031 90.5 25.25 89.4375 C 25.707031 88.25 26.105469 87.125 26.4375 86.042969 L 26.4375 85.355469 Z M 32.457031 92.4375 L 31.707031 92.6875 C 32.125 93.417969 32.519531 94.25 32.875 95.1875 L 33.582031 94.855469 C 33.25 94 32.875 93.207031 32.457031 92.4375 Z M 26.769531 92.667969 C 26.582031 93.519531 26.292969 94.3125 25.894531 95.019531 L 26.605469 95.480469 C 27 94.730469 27.3125 93.855469 27.542969 92.832031 Z M 30.75 95.769531 C 31.105469 95.769531 31.375 95.6875 31.542969 95.542969 C 31.75 95.355469 31.894531 94.855469 31.957031 94.042969 L 31.207031 93.792969 C 31.167969 94.375 31.105469 94.730469 31.019531 94.855469 C 30.9375 94.9375 30.792969 95 30.605469 95 L 29.3125 95 C 29.019531 95 28.875 94.8125 28.875 94.480469 L 28.875 92.519531 L 28.0625 92.519531 L 28.0625 94.667969 C 28.0625 95.394531 28.394531 95.769531 29.0625 95.769531 Z M 29.957031 92.25 L 29.355469 92.644531 C 29.792969 93.167969 30.144531 93.625 30.394531 94.0625 L 31.042969 93.605469 C 30.792969 93.230469 30.417969 92.769531 29.957031 92.25 Z M 29.957031 92.25 "/>
<path style=" stroke:none;fill-rule:nonzero;fill:rgb(0%,0%,0%);fill-opacity:1;" d="M 37.230469 90.625 C 36.417969 91.5 35.5 92.269531 34.5 92.917969 L 34.769531 93.832031 C 35.6875 93.144531 36.5 92.417969 37.230469 91.644531 L 37.230469 95.832031 L 38.082031 95.832031 L 38.082031 84.9375 L 37.230469 84.9375 Z M 35.480469 86.125 L 34.667969 86.394531 C 35.125 87.292969 35.542969 88.355469 35.917969 89.5625 L 36.667969 89.207031 C 36.332031 88.125 35.9375 87.082031 35.480469 86.125 Z M 43.582031 85.105469 L 42.894531 85.519531 C 43.519531 86.230469 44.042969 86.875 44.394531 87.480469 L 45.0625 87 C 44.707031 86.457031 44.230469 85.8125 43.582031 85.105469 Z M 42.25 84.894531 L 41.394531 84.894531 C 41.394531 85.625 41.375 86.707031 41.332031 88.082031 L 38.875 88.082031 L 38.875 88.917969 L 41.292969 88.917969 C 41.042969 91.292969 40.125 93.394531 38.519531 95.1875 L 39.082031 95.832031 C 40.457031 94.375 41.394531 92.5625 41.917969 90.375 C 42.4375 92.5625 43.457031 94.375 44.957031 95.8125 L 45.5625 95.167969 C 43.894531 93.6875 42.8125 91.605469 42.3125 88.917969 L 45.144531 88.917969 L 45.144531 88.082031 L 42.207031 88.082031 C 42.230469 86.832031 42.25 85.792969 42.25 84.894531 Z M 42.25 84.894531 "/>
<path style=" stroke:none;fill-rule:nonzero;fill:rgb(0%,0%,0%);fill-opacity:1;" d="M 51.5625 84.75 C 51.519531 85.230469 51.417969 85.6875 51.292969 86.125 L 47.0625 86.125 L 47.0625 86.957031 L 51 86.957031 C 50.769531 87.417969 50.519531 87.832031 50.167969 88.207031 C 49.417969 89 48.1875 89.625 46.480469 90.042969 L 46.8125 90.832031 C 48.25 90.457031 49.375 89.980469 50.167969 89.394531 C 50.75 89.832031 51.332031 90.355469 51.894531 90.9375 L 52.5 90.332031 C 51.855469 89.75 51.269531 89.269531 50.75 88.894531 C 50.792969 88.855469 50.832031 88.8125 50.875 88.769531 C 51.3125 88.25 51.667969 87.644531 51.9375 86.957031 L 52.125 86.957031 C 52.730469 88.582031 54.332031 89.875 57 90.8125 L 57.457031 90.0625 C 55.0625 89.3125 53.582031 88.292969 53 86.957031 L 56.832031 86.957031 L 56.832031 86.125 L 52.207031 86.125 C 52.292969 85.707031 52.375 85.292969 52.4375 84.832031 Z M 47.707031 91.855469 C 47.480469 92.917969 47.125 93.917969 46.605469 94.792969 L 47.355469 95.269531 C 47.875 94.355469 48.269531 93.269531 48.5625 92.019531 Z M 52.269531 91.417969 L 51.5 91.644531 C 51.894531 92.269531 52.25 92.980469 52.582031 93.769531 L 53.375 93.4375 C 53.0625 92.707031 52.6875 92.042969 52.269531 91.417969 Z M 55.855469 91.667969 L 55.019531 91.9375 C 55.582031 92.792969 56.105469 93.769531 56.5625 94.894531 L 57.355469 94.542969 C 56.9375 93.519531 56.4375 92.5625 55.855469 91.667969 Z M 53.644531 95.625 C 54.105469 95.625 54.4375 95.5 54.644531 95.3125 C 54.894531 95.0625 55.0625 94.417969 55.144531 93.332031 L 54.332031 93.0625 C 54.269531 93.894531 54.1875 94.394531 54.042969 94.5625 C 53.9375 94.707031 53.75 94.769531 53.5 94.769531 L 50.875 94.769531 C 50.519531 94.769531 50.355469 94.605469 50.355469 94.230469 L 50.355469 91.8125 L 49.457031 91.8125 L 49.457031 94.417969 C 49.457031 95.207031 49.832031 95.625 50.605469 95.625 Z M 53.644531 95.625 "/>
<path style=" stroke:none;fill-rule:nonzero;fill:rgb(0%,0%,0%);fill-opacity:1;" d="M 367.992188 80.667969 L 367.992188 80.375 C 367.136719 80.25 366.929688 80.125 366.929688 79.5 L 366.929688 73.75 C 366.929688 73.105469 367.179688 72.917969 367.992188 72.855469 L 367.992188 72.5625 L 363.929688 72.5625 L 363.929688 72.855469 C 364.761719 72.917969 364.992188 73.0625 364.992188 73.75 L 364.992188 76.1875 L 362.09375 76.1875 L 362.09375 73.75 C 362.09375 73.0625 362.324219 72.917969 363.179688 72.855469 L 363.179688 72.5625 L 359.136719 72.5625 L 359.136719 72.855469 C 359.949219 72.917969 360.15625 73.082031 360.15625 73.75 L 360.15625 79.5 C 360.15625 80.125 359.96875 80.25 359.136719 80.375 L 359.136719 80.667969 L 363.179688 80.667969 L 363.179688 80.375 C 362.304688 80.269531 362.09375 80.125 362.09375 79.5 L 362.09375 76.75 L 364.992188 76.75 L 364.992188 79.5 C 364.992188 80.105469 364.804688 80.269531 363.929688 80.375 L 363.929688 80.667969 Z M 367.992188 80.667969 "/>
<path style=" stroke:none;fill-rule:nonzero;fill:rgb(0%,0%,0%);fill-opacity:1;" d="M 370.597656 81.25 L 369.953125 81.25 L 370.179688 80.417969 C 370.179688 80.394531 370.179688 80.355469 370.179688 80.355469 C 370.179688 80.3125 370.160156 80.292969 370.117188 80.292969 C 370.078125 80.292969 370.035156 80.3125 369.992188 80.375 C 369.703125 80.8125 369.179688 81.1875 368.929688 81.25 C 368.742188 81.292969 368.679688 81.355469 368.679688 81.457031 C 368.679688 81.457031 368.679688 81.480469 368.679688 81.5 L 369.285156 81.5 L 368.660156 83.875 C 368.597656 84.125 368.535156 84.375 368.535156 84.457031 C 368.535156 84.667969 368.679688 84.75 368.890625 84.75 C 369.304688 84.75 369.554688 84.519531 370.035156 83.792969 L 369.929688 83.730469 C 369.535156 84.230469 369.410156 84.355469 369.285156 84.355469 C 369.222656 84.355469 369.160156 84.332031 369.160156 84.230469 C 369.160156 84.207031 369.179688 84.144531 369.179688 84.125 L 369.867188 81.5 L 370.554688 81.5 Z M 370.597656 81.25 "/>
<path style=" stroke:none;fill-rule:nonzero;fill:rgb(40.000001%,74.901962%,100%);fill-opacity:1;" d="M 64 221.332031 L 101.332031 221.332031 L 101.332031 200 L 64 200 Z M 64 221.332031 "/>
<path style="fill:none;stroke-width:1;stroke-linecap:round;stroke-linejoin:round;stroke:rgb(0%,0%,0%);stroke-opacity:1;stroke-miterlimit:10;" d="M 160 410 L 187.999023 410 L 187.999023 425.999023 L 160 425.999023 Z M 160 410 " transform="matrix(1.333333,0,0,1.333333,-149.333333,-346.666667)"/>
<path style=" stroke:none;fill-rule:nonzero;fill:rgb(0%,0%,0%);fill-opacity:1;" d="M 85.808594 210.699219 C 85.808594 211.398438 85.671875 212.042969 85.414062 212.636719 C 85.121094 213.292969 84.695312 213.78125 84.140625 214.117188 C 83.695312 214.398438 83.214844 214.554688 82.703125 214.59375 L 82.246094 216.84375 L 81.183594 216.84375 L 81.683594 214.511719 C 81.5 214.460938 81.320312 214.386719 81.140625 214.304688 C 80.320312 213.875 79.914062 213.148438 79.914062 212.117188 C 79.914062 210.898438 80.273438 209.886719 80.996094 209.09375 C 81.523438 208.511719 82.1875 208.1875 82.996094 208.117188 L 83.476562 205.886719 L 84.539062 205.886719 L 84.058594 208.199219 C 84.476562 208.296875 84.828125 208.5 85.121094 208.804688 C 85.578125 209.277344 85.808594 209.90625 85.808594 210.699219 Z M 84.765625 210.699219 C 84.765625 210.132812 84.621094 209.695312 84.328125 209.386719 C 84.203125 209.25 84.046875 209.136719 83.871094 209.054688 L 82.890625 213.742188 C 83.210938 213.65625 83.5 213.492188 83.765625 213.242188 C 84.125 212.882812 84.398438 212.40625 84.578125 211.824219 C 84.703125 211.421875 84.765625 211.046875 84.765625 210.699219 Z M 82.828125 208.96875 C 82.371094 209.085938 81.964844 209.382812 81.621094 209.867188 C 81.1875 210.449219 80.976562 211.167969 80.976562 212.011719 C 80.976562 212.585938 81.109375 213.023438 81.390625 213.324219 C 81.527344 213.480469 81.683594 213.589844 81.851562 213.65625 Z M 82.828125 208.96875 "/>
<path style=" stroke:none;fill-rule:nonzero;fill:rgb(0%,0%,0%);fill-opacity:1;" d="M 124.667969 198.1875 L 124.667969 199.019531 L 126.457031 199.019531 L 126.457031 200.292969 L 127.25 200.292969 L 127.25 199.019531 L 129.542969 199.019531 L 129.542969 200.332031 L 130.375 200.332031 L 130.375 199.019531 L 132.6875 199.019531 L 132.6875 200.292969 L 133.5 200.292969 L 133.5 199.019531 L 135.332031 199.019531 L 135.332031 198.1875 L 133.5 198.1875 L 133.5 196.957031 L 132.6875 196.957031 L 132.6875 198.1875 L 130.375 198.1875 L 130.375 196.917969 L 129.542969 196.917969 L 129.542969 198.1875 L 127.25 198.1875 L 127.25 196.957031 L 126.457031 196.957031 L 126.457031 198.1875 Z M 134.9375 201.019531 L 125.0625 201.019531 L 125.0625 203.375 L 125.894531 203.375 L 125.894531 201.832031 L 129.542969 201.832031 L 129.542969 203.144531 L 126.542969 203.144531 L 126.542969 207.0625 L 127.375 207.0625 L 127.375 203.957031 L 129.542969 203.957031 L 129.542969 207.875 L 130.417969 207.875 L 130.417969 203.957031 L 132.667969 203.957031 L 132.667969 205.8125 C 132.667969 206.105469 132.542969 206.25 132.269531 206.25 L 131.230469 206.207031 L 131.457031 207.042969 L 132.542969 207.042969 C 133.1875 207.042969 133.519531 206.6875 133.519531 205.980469 L 133.519531 203.144531 L 130.417969 203.144531 L 130.417969 201.832031 L 134.082031 201.832031 L 134.082031 203.332031 L 134.9375 203.332031 Z M 134.9375 201.019531 "/>
<path style=" stroke:none;fill-rule:nonzero;fill:rgb(0%,0%,0%);fill-opacity:1;" d="M 139.417969 197.917969 L 139.417969 201.667969 L 140.457031 201.667969 L 140.8125 202.6875 L 138.957031 202.6875 L 138.957031 203.417969 L 140.144531 203.417969 C 140.019531 204.332031 139.855469 205.0625 139.644531 205.605469 C 139.417969 206.1875 139.0625 206.707031 138.582031 207.1875 L 139.105469 207.875 C 139.667969 207.3125 140.082031 206.6875 140.375 205.980469 C 140.480469 205.707031 140.5625 205.417969 140.644531 205.0625 L 142.125 205.0625 C 142.105469 205.894531 142.0625 206.417969 142 206.644531 C 141.9375 206.875 141.730469 206.980469 141.417969 207 L 140.6875 207 L 140.894531 207.75 L 141.644531 207.75 C 142.125 207.730469 142.480469 207.5625 142.667969 207.207031 C 142.855469 206.875 142.957031 205.917969 142.957031 204.355469 L 140.792969 204.355469 C 140.832031 204.0625 140.875 203.769531 140.9375 203.417969 L 143.332031 203.417969 L 143.332031 202.6875 L 141.625 202.6875 L 141.269531 201.667969 L 142.8125 201.667969 L 143.292969 202.25 C 143.4375 202.042969 143.605469 201.792969 143.769531 201.519531 C 144.042969 202.769531 144.417969 203.875 144.875 204.8125 C 144.417969 205.730469 143.8125 206.480469 143.0625 207.082031 L 143.519531 207.832031 C 144.25 207.25 144.855469 206.519531 145.332031 205.667969 C 145.832031 206.542969 146.417969 207.230469 147.082031 207.75 L 147.582031 207.019531 C 146.855469 206.519531 146.25 205.769531 145.730469 204.832031 C 146.332031 203.480469 146.644531 201.8125 146.707031 199.855469 L 147.394531 199.855469 L 147.394531 199.042969 L 144.792969 199.042969 C 144.957031 198.417969 145.105469 197.730469 145.207031 197 L 144.417969 196.855469 C 144.144531 198.667969 143.6875 200.144531 143 201.269531 L 143 197.917969 L 141.417969 197.917969 C 141.542969 197.605469 141.644531 197.292969 141.707031 196.957031 L 140.855469 196.832031 C 140.792969 197.207031 140.707031 197.5625 140.582031 197.917969 Z M 144.25 200.5625 C 144.355469 200.332031 144.4375 200.082031 144.542969 199.855469 L 145.917969 199.855469 C 145.894531 201.394531 145.667969 202.75 145.269531 203.894531 C 144.855469 202.9375 144.519531 201.832031 144.25 200.5625 Z M 142.25 201.019531 L 140.167969 201.019531 L 140.167969 200.144531 L 142.25 200.144531 Z M 140.167969 199.5 L 140.167969 198.5625 L 142.25 198.5625 L 142.25 199.5 Z M 137.167969 197.082031 L 136.605469 197.625 C 137.394531 198.207031 138 198.769531 138.457031 199.292969 L 139.019531 198.75 C 138.5 198.1875 137.894531 197.644531 137.167969 197.082031 Z M 137 200 L 136.417969 200.5625 C 137.144531 201.167969 137.707031 201.730469 138.144531 202.292969 L 138.707031 201.707031 C 138.25 201.125 137.667969 200.5625 137 200 Z M 138.082031 203.5625 C 137.644531 204.875 137.167969 206.167969 136.582031 207.4375 L 137.355469 207.75 C 137.875 206.542969 138.375 205.230469 138.8125 203.832031 Z M 138.082031 203.5625 "/>
<path style=" stroke:none;fill-rule:nonzero;fill:rgb(0%,0%,0%);fill-opacity:1;" d="M 151.6875 200.355469 L 151.6875 201.1875 L 155.125 201.1875 L 155.125 203.042969 L 152.5 203.042969 L 152.5 207.875 L 153.355469 207.875 L 153.355469 207.207031 L 157.855469 207.207031 L 157.855469 207.855469 L 158.707031 207.855469 L 158.707031 203.042969 L 156 203.042969 L 156 201.1875 L 159.457031 201.1875 L 159.457031 200.355469 L 156 200.355469 L 156 198.355469 C 157.105469 198.207031 158.0625 197.980469 158.894531 197.6875 L 158.480469 196.9375 C 156.75 197.519531 154.5625 197.8125 151.957031 197.8125 L 152.207031 198.605469 C 153.25 198.605469 154.207031 198.5625 155.125 198.480469 L 155.125 200.355469 Z M 153.355469 206.394531 L 153.355469 203.855469 L 157.855469 203.855469 L 157.855469 206.394531 Z M 149.519531 197.019531 L 148.9375 197.605469 C 149.792969 198.167969 150.480469 198.707031 150.980469 199.207031 L 151.5625 198.625 C 151.019531 198.082031 150.332031 197.5625 149.519531 197.019531 Z M 149.25 199.894531 L 148.644531 200.480469 C 149.519531 201.105469 150.207031 201.707031 150.707031 202.269531 L 151.3125 201.667969 C 150.75 201.082031 150.0625 200.480469 149.25 199.894531 Z M 150.667969 203.082031 C 150.167969 204.542969 149.542969 205.957031 148.855469 207.355469 L 149.707031 207.730469 C 150.332031 206.375 150.917969 204.917969 151.4375 203.394531 Z M 150.667969 203.082031 "/>
<path style=" stroke:none;fill-rule:nonzero;fill:rgb(0%,0%,0%);fill-opacity:1;" d="M 162.542969 205.207031 C 163.6875 204.480469 164.769531 203.625 165.792969 202.644531 L 165.792969 204.5 C 165.792969 204.894531 165.625 205.082031 165.292969 205.082031 C 164.9375 205.082031 164.605469 205.0625 164.292969 205.0625 L 164.519531 205.855469 L 165.605469 205.855469 C 166.25 205.855469 166.582031 205.5 166.582031 204.8125 L 166.582031 202.792969 C 167.3125 203.355469 168.207031 204.125 169.25 205.144531 L 169.75 204.394531 C 168.667969 203.457031 167.625 202.644531 166.582031 201.917969 L 166.582031 200.082031 C 167.769531 199.4375 168.832031 198.792969 169.792969 198.125 L 169.792969 197.3125 L 162.355469 197.3125 L 162.355469 198.125 L 168.5 198.125 C 167.894531 198.519531 167 199.019531 165.792969 199.605469 L 165.792969 201.667969 C 164.644531 202.75 163.480469 203.644531 162.230469 204.355469 Z M 170 199.5 L 170 206.417969 L 162 206.417969 L 162 199.5 L 161.167969 199.5 L 161.167969 207.875 L 162 207.875 L 162 207.207031 L 170 207.207031 L 170 207.894531 L 170.832031 207.894531 L 170.832031 199.5 Z M 163.292969 199.875 L 162.667969 200.269531 C 163.355469 200.9375 163.917969 201.519531 164.332031 202.082031 L 165 201.625 C 164.605469 201.125 164.042969 200.542969 163.292969 199.875 Z M 168.75 199.792969 C 168.3125 200.519531 167.75 201.167969 167.125 201.6875 L 167.75 202.125 C 168.394531 201.5625 168.980469 200.894531 169.457031 200.125 Z M 168.75 199.792969 "/>
<path style=" stroke:none;fill-rule:nonzero;fill:rgb(0%,0%,0%);fill-opacity:1;" d="M 179.894531 199.519531 L 181.667969 199.519531 C 181.625 201.144531 181.375 202.5625 180.894531 203.769531 C 180.417969 202.769531 180.042969 201.5625 179.75 200.144531 Z M 180.5 204.644531 C 179.957031 205.667969 179.230469 206.480469 178.292969 207.125 L 178.730469 207.855469 C 179.625 207.207031 180.375 206.394531 180.957031 205.4375 C 181.542969 206.457031 182.269531 207.269531 183.105469 207.875 L 183.582031 207.167969 C 182.707031 206.5625 181.980469 205.75 181.355469 204.667969 C 182.042969 203.25 182.394531 201.519531 182.457031 199.519531 L 183.25 199.519531 L 183.25 198.707031 L 180.082031 198.707031 C 180.167969 198.167969 180.269531 197.605469 180.332031 196.980469 L 179.5 196.832031 C 179.25 199.125 178.769531 200.9375 178.0625 202.269531 L 178.605469 202.9375 C 178.855469 202.5 179.105469 202.019531 179.3125 201.457031 C 179.644531 202.667969 180.042969 203.707031 180.5 204.644531 Z M 174.8125 202.4375 C 174.730469 202.6875 174.644531 202.9375 174.542969 203.207031 L 172.769531 203.207031 L 172.769531 203.957031 L 174.1875 203.957031 C 173.957031 204.4375 173.6875 204.917969 173.375 205.457031 C 173.957031 205.667969 174.5 205.894531 175.042969 206.125 C 174.332031 206.519531 173.480469 206.855469 172.5 207.105469 L 172.917969 207.832031 C 174.105469 207.5 175.105469 207.042969 175.894531 206.5 C 176.605469 206.8125 177.230469 207.125 177.75 207.4375 L 178.207031 206.769531 C 177.6875 206.480469 177.144531 206.230469 176.5625 205.957031 C 177.1875 205.375 177.625 204.707031 177.894531 203.917969 L 177.894531 203.207031 L 175.375 203.207031 C 175.457031 202.980469 175.542969 202.769531 175.625 202.542969 Z M 175.769531 205.625 C 175.332031 205.4375 174.875 205.269531 174.394531 205.105469 C 174.644531 204.75 174.855469 204.355469 175.042969 203.957031 L 177.105469 203.957031 C 176.832031 204.582031 176.375 205.144531 175.769531 205.625 Z M 173.730469 197.082031 L 173.042969 197.3125 C 173.332031 197.769531 173.605469 198.292969 173.855469 198.875 L 174.480469 198.582031 C 174.25 198.0625 174.019531 197.5625 173.730469 197.082031 Z M 177.375 197.0625 C 177.167969 197.5625 176.855469 198.0625 176.457031 198.582031 L 177.082031 198.894531 C 177.457031 198.394531 177.75 197.875 178 197.332031 Z M 172.8125 199.167969 L 172.8125 199.917969 L 174.5 199.917969 C 174.144531 200.582031 173.5 201.1875 172.582031 201.730469 L 173 202.417969 C 174.019531 201.730469 174.75 200.917969 175.144531 199.957031 L 175.144531 202.230469 L 175.957031 202.230469 L 175.957031 200.6875 C 176.375 200.957031 176.894531 201.355469 177.5 201.832031 L 177.9375 201.167969 C 177.269531 200.75 176.605469 200.375 175.957031 200.0625 L 175.957031 199.917969 L 178.125 199.917969 L 178.125 199.167969 L 175.957031 199.167969 L 175.957031 196.875 L 175.144531 196.875 L 175.144531 199.167969 Z M 172.8125 199.167969 "/>
<path style=" stroke:none;fill-rule:nonzero;fill:rgb(0%,0%,0%);fill-opacity:1;" d="M 188.855469 198.9375 L 186.917969 198.9375 C 187.144531 198.332031 187.332031 197.6875 187.480469 196.980469 L 186.625 196.855469 C 186.5 197.5625 186.332031 198.269531 186.105469 198.9375 L 184.980469 198.9375 L 184.980469 207.480469 L 185.832031 207.480469 L 185.832031 206.4375 L 188 206.4375 L 188 207.125 L 188.855469 207.125 Z M 185.832031 205.625 L 185.832031 203 L 188 203 L 188 205.625 Z M 185.832031 202.230469 L 185.832031 199.75 L 188 199.75 L 188 202.230469 Z M 190.9375 201.730469 L 190.25 202.144531 C 191.0625 203.144531 191.730469 204.019531 192.230469 204.8125 L 192.894531 204.332031 C 192.457031 203.605469 191.792969 202.707031 190.9375 201.730469 Z M 195.042969 198.957031 L 191.230469 198.957031 C 191.4375 198.332031 191.605469 197.644531 191.75 196.9375 L 190.894531 196.832031 C 190.582031 198.542969 190.019531 199.980469 189.1875 201.167969 L 189.707031 201.832031 C 190.167969 201.230469 190.5625 200.542969 190.894531 199.792969 L 194.207031 199.792969 C 194.167969 203.25 194.125 205.3125 194.0625 206 C 193.957031 206.605469 193.644531 206.917969 193.0625 206.917969 C 192.707031 206.917969 192.269531 206.917969 191.769531 206.875 L 191.957031 207.667969 C 192.542969 207.707031 192.957031 207.730469 193.1875 207.730469 C 194.207031 207.730469 194.75 207.25 194.875 206.332031 C 195 205.417969 195.042969 202.9375 195.042969 198.957031 Z M 195.042969 198.957031 "/>
<path style=" stroke:none;fill-rule:nonzero;fill:rgb(0%,0%,0%);fill-opacity:1;" d="M 141.6875 214.230469 C 140.292969 215.75 138.542969 217.019531 136.4375 218.042969 L 136.855469 218.792969 C 138.980469 217.730469 140.6875 216.457031 142 215.019531 C 143.417969 216.542969 145.105469 217.769531 147.105469 218.730469 L 147.542969 217.957031 C 145.5625 217.042969 143.832031 215.8125 142.3125 214.230469 Z M 138.644531 218.019531 L 138.644531 218.855469 L 141.5625 218.855469 L 141.5625 220.9375 L 138.082031 220.9375 L 138.082031 221.769531 L 141.5625 221.769531 L 141.5625 223.980469 L 137 223.980469 L 137 224.832031 L 147 224.832031 L 147 223.980469 L 142.4375 223.980469 L 142.4375 221.769531 L 145.917969 221.769531 L 145.917969 220.9375 L 142.4375 220.9375 L 142.4375 218.855469 L 145.355469 218.855469 L 145.355469 218.019531 Z M 138.644531 218.019531 "/>
<path style=" stroke:none;fill-rule:nonzero;fill:rgb(0%,0%,0%);fill-opacity:1;" d="M 149.542969 214.394531 L 148.957031 214.957031 C 149.792969 215.644531 150.480469 216.269531 150.957031 216.855469 L 151.582031 216.25 C 151.019531 215.625 150.332031 215.019531 149.542969 214.394531 Z M 156.5 224.980469 L 159.25 224.980469 L 159.457031 224.125 C 159.144531 224.144531 158.6875 224.144531 158.125 224.167969 C 157.519531 224.1875 156.957031 224.1875 156.394531 224.1875 C 155.457031 224.1875 154.6875 224.1875 154.0625 224.167969 C 153.355469 224.144531 152.832031 224.042969 152.457031 223.875 C 152.125 223.730469 151.832031 223.480469 151.542969 223.125 C 151.4375 223.019531 151.355469 222.917969 151.25 222.855469 L 151.25 218.355469 L 148.730469 218.355469 L 148.730469 219.144531 L 150.457031 219.144531 L 150.457031 222.792969 C 149.957031 223.019531 149.394531 223.625 148.75 224.644531 L 149.394531 225.230469 C 150.0625 224.125 150.542969 223.5625 150.8125 223.5625 C 150.957031 223.5625 151.125 223.667969 151.269531 223.875 C 151.644531 224.292969 152.0625 224.605469 152.542969 224.75 C 153.019531 224.875 153.625 224.957031 154.394531 224.957031 C 155.144531 224.980469 155.855469 224.980469 156.5 224.980469 Z M 152.082031 215.4375 L 152.082031 216.230469 L 153.667969 216.230469 C 153.269531 217.082031 152.832031 217.8125 152.355469 218.375 L 152.542969 219.167969 L 155.3125 219.167969 L 155.3125 220.605469 L 151.980469 220.605469 L 151.980469 221.417969 L 155.3125 221.417969 L 155.3125 223.644531 L 156.144531 223.644531 L 156.144531 221.417969 L 159.269531 221.417969 L 159.269531 220.605469 L 156.144531 220.605469 L 156.144531 219.167969 L 158.75 219.167969 L 158.75 218.375 L 156.144531 218.375 L 156.144531 216.957031 L 155.3125 216.957031 L 155.3125 218.375 L 153.375 218.375 C 153.8125 217.75 154.207031 217.042969 154.582031 216.230469 L 159.125 216.230469 L 159.125 215.4375 L 154.917969 215.4375 C 155.0625 215.0625 155.1875 214.707031 155.3125 214.3125 L 154.5 214.105469 C 154.355469 214.5625 154.1875 215.019531 154.019531 215.4375 Z M 152.082031 215.4375 "/>
<path style=" stroke:none;fill-rule:nonzero;fill:rgb(0%,0%,0%);fill-opacity:1;" d="M 166.355469 216.230469 L 165.644531 216.5625 C 165.894531 217 166.125 217.480469 166.375 218 L 164.542969 218 L 164.542969 218.832031 L 171.230469 218.832031 L 171.230469 218 L 169.292969 218 C 169.5625 217.519531 169.8125 216.980469 170.042969 216.375 L 169.230469 216.082031 C 168.980469 216.769531 168.707031 217.394531 168.375 218 L 167.207031 218 C 166.9375 217.355469 166.667969 216.769531 166.355469 216.230469 Z M 167.9375 214.125 L 167.042969 214.269531 C 167.167969 214.5625 167.3125 214.894531 167.457031 215.269531 L 164.8125 215.269531 L 164.8125 216.0625 L 171.019531 216.0625 L 171.019531 215.269531 L 168.332031 215.269531 C 168.1875 214.855469 168.0625 214.457031 167.9375 214.125 Z M 161.9375 225.082031 C 162.644531 225.082031 163.019531 224.75 163.019531 224.042969 L 163.019531 220.5 C 163.355469 220.332031 163.6875 220.167969 164.019531 220 L 164.019531 219.125 C 163.6875 219.292969 163.355469 219.457031 163.019531 219.625 L 163.019531 217.332031 L 164 217.332031 L 164 216.5 L 163.019531 216.5 L 163.019531 214.230469 L 162.125 214.230469 L 162.125 216.5 L 160.667969 216.5 L 160.667969 217.332031 L 162.125 217.332031 L 162.125 220 C 161.5625 220.230469 161 220.394531 160.4375 220.542969 L 160.667969 221.417969 C 161.144531 221.25 161.644531 221.0625 162.125 220.875 L 162.125 223.832031 C 162.125 224.144531 161.957031 224.292969 161.644531 224.292969 C 161.355469 224.292969 161.042969 224.269531 160.730469 224.25 L 160.894531 225.082031 Z M 166.875 219.167969 C 166.75 219.5 166.605469 219.832031 166.4375 220.1875 L 164.375 220.1875 L 164.375 221.042969 L 165.980469 221.042969 C 165.730469 221.5 165.457031 221.957031 165.125 222.457031 C 165.957031 222.792969 166.75 223.105469 167.480469 223.457031 C 166.730469 223.875 165.644531 224.207031 164.25 224.457031 L 164.605469 225.25 C 166.332031 224.917969 167.582031 224.4375 168.375 223.875 C 169.332031 224.332031 170.167969 224.769531 170.875 225.207031 L 171.355469 224.519531 C 170.605469 224.082031 169.8125 223.667969 168.980469 223.292969 C 169.542969 222.6875 169.917969 221.917969 170.105469 221.042969 L 171.417969 221.042969 L 171.417969 220.1875 L 167.3125 220.1875 C 167.457031 219.894531 167.582031 219.582031 167.707031 219.25 Z M 169.292969 221.042969 C 169.105469 221.8125 168.730469 222.4375 168.1875 222.9375 C 167.542969 222.644531 166.875 222.375 166.1875 222.105469 C 166.417969 221.769531 166.644531 221.417969 166.855469 221.042969 Z M 169.292969 221.042969 "/>
<path style=" stroke:none;fill-rule:nonzero;fill:rgb(0%,0%,0%);fill-opacity:1;" d="M 175.894531 218.792969 L 175.894531 219.5625 L 182.394531 219.5625 L 182.394531 218.792969 Z M 175.042969 220.75 L 175.042969 221.542969 L 177.667969 221.542969 C 176.832031 222.894531 176.125 223.730469 175.605469 224.042969 C 175.542969 224.0625 175.5 224.105469 175.417969 224.125 L 175.605469 224.855469 C 177.875 224.707031 179.957031 224.5 181.855469 224.25 C 182.105469 224.542969 182.3125 224.855469 182.519531 225.167969 L 183.207031 224.6875 C 182.6875 223.917969 181.917969 223 180.9375 221.957031 L 180.292969 222.355469 C 180.644531 222.769531 181 223.167969 181.332031 223.5625 C 179.792969 223.792969 178.230469 223.957031 176.644531 224.0625 C 177.207031 223.5625 177.855469 222.707031 178.582031 221.542969 L 183.1875 221.542969 L 183.1875 220.75 Z M 181.730469 215.480469 L 181.730469 216.875 L 174.667969 216.875 L 174.667969 215.480469 Z M 174.667969 217.644531 L 182.5625 217.644531 L 182.5625 214.667969 L 173.832031 214.667969 L 173.832031 218.644531 C 173.8125 221.0625 173.394531 223.019531 172.5625 224.542969 L 173.1875 225.125 C 174.167969 223.3125 174.667969 221.144531 174.667969 218.644531 Z M 174.667969 217.644531 "/>
<path style="fill:none;stroke-width:1;stroke-linecap:round;stroke-linejoin:round;stroke:rgb(0%,0%,0%);stroke-opacity:1;stroke-miterlimit:10;" d="M 403.999023 412.273438 L 426.100586 412.273438 " transform="matrix(1.333333,0,0,1.333333,-149.333333,-346.666667)"/>
<path style="fill:none;stroke-width:1;stroke-linecap:butt;stroke-linejoin:miter;stroke:rgb(0%,0%,0%);stroke-opacity:1;stroke-miterlimit:10;" d="M 430.102539 412.273438 L 426.100586 412.273438 M 426.100586 410.773438 L 430.102539 412.273438 L 426.100586 413.773438 " transform="matrix(1.333333,0,0,1.333333,-149.333333,-346.666667)"/>
<path style="fill:none;stroke-width:1;stroke-linecap:round;stroke-linejoin:round;stroke:rgb(0%,0%,0%);stroke-opacity:1;stroke-miterlimit:10;" d="M 412.999023 424.273438 L 412.999023 418.273438 C 412.999023 414.959961 415.688477 412.273438 418.999023 412.273438 L 429.789062 412.273438 " transform="matrix(1.333333,0,0,1.333333,-149.333333,-346.666667)"/>
<path style=" stroke:none;fill-rule:nonzero;fill:rgb(0%,0%,0%);fill-opacity:1;" d="M 450.875 207.730469 L 450.292969 208.292969 C 451.125 208.980469 451.8125 209.605469 452.292969 210.1875 L 452.917969 209.582031 C 452.355469 208.957031 451.667969 208.355469 450.875 207.730469 Z M 457.832031 218.3125 L 460.582031 218.3125 L 460.792969 217.457031 C 460.480469 217.480469 460.019531 217.480469 459.457031 217.5 C 458.855469 217.519531 458.292969 217.519531 457.730469 217.519531 C 456.792969 217.519531 456.019531 217.519531 455.394531 217.5 C 454.6875 217.480469 454.167969 217.375 453.792969 217.207031 C 453.457031 217.0625 453.167969 216.8125 452.875 216.457031 C 452.769531 216.355469 452.6875 216.25 452.582031 216.1875 L 452.582031 211.6875 L 450.0625 211.6875 L 450.0625 212.480469 L 451.792969 212.480469 L 451.792969 216.125 C 451.292969 216.355469 450.730469 216.957031 450.082031 217.980469 L 450.730469 218.5625 C 451.394531 217.457031 451.875 216.894531 452.144531 216.894531 C 452.292969 216.894531 452.457031 217 452.605469 217.207031 C 452.980469 217.625 453.394531 217.9375 453.875 218.082031 C 454.355469 218.207031 454.957031 218.292969 455.730469 218.292969 C 456.480469 218.3125 457.1875 218.3125 457.832031 218.3125 Z M 453.417969 208.769531 L 453.417969 209.5625 L 455 209.5625 C 454.605469 210.417969 454.167969 211.144531 453.6875 211.707031 L 453.875 212.5 L 456.644531 212.5 L 456.644531 213.9375 L 453.3125 213.9375 L 453.3125 214.75 L 456.644531 214.75 L 456.644531 216.980469 L 457.480469 216.980469 L 457.480469 214.75 L 460.605469 214.75 L 460.605469 213.9375 L 457.480469 213.9375 L 457.480469 212.5 L 460.082031 212.5 L 460.082031 211.707031 L 457.480469 211.707031 L 457.480469 210.292969 L 456.644531 210.292969 L 456.644531 211.707031 L 454.707031 211.707031 C 455.144531 211.082031 455.542969 210.375 455.917969 209.5625 L 460.457031 209.5625 L 460.457031 208.769531 L 456.25 208.769531 C 456.394531 208.394531 456.519531 208.042969 456.644531 207.644531 L 455.832031 207.4375 C 455.6875 207.894531 455.519531 208.355469 455.355469 208.769531 Z M 453.417969 208.769531 "/>
<path style=" stroke:none;fill-rule:nonzero;fill:rgb(0%,0%,0%);fill-opacity:1;" d="M 466.269531 216.125 C 465.0625 216.582031 463.644531 216.9375 462 217.207031 L 462.105469 218.042969 C 463.667969 217.75 465.0625 217.394531 466.269531 216.957031 Z M 464.0625 207.5 C 463.582031 208.917969 463 210.1875 462.332031 211.292969 C 462.230469 211.4375 462.105469 211.542969 461.980469 211.605469 L 462.1875 212.394531 C 462.875 212.3125 463.5625 212.207031 464.25 212.105469 C 463.582031 213.230469 463.019531 214.019531 462.5625 214.480469 C 462.457031 214.582031 462.3125 214.667969 462.167969 214.75 L 462.394531 215.519531 C 463.582031 215.375 464.832031 215.0625 466.125 214.625 L 466.125 213.855469 C 465.25 214.144531 464.355469 214.394531 463.4375 214.582031 C 464.167969 213.707031 465.082031 212.269531 466.167969 210.25 L 465.417969 209.957031 C 465.167969 210.417969 464.9375 210.875 464.707031 211.292969 C 464.125 211.394531 463.5625 211.480469 463 211.542969 C 463.625 210.605469 464.25 209.375 464.855469 207.8125 Z M 466.125 209.019531 L 466.125 209.855469 L 469 209.855469 L 469 211.625 L 466.519531 211.625 L 466.519531 212.480469 L 472.375 212.480469 L 472.375 211.625 L 469.875 211.625 L 469.875 209.855469 L 472.730469 209.855469 L 472.730469 209.019531 L 469.875 209.019531 L 469.875 207.5625 L 469 207.5625 L 469 209.019531 Z M 472.042969 213.667969 L 466.917969 213.667969 L 466.917969 218.5 L 467.769531 218.5 L 467.769531 217.917969 L 471.1875 217.917969 L 471.1875 218.5 L 472.042969 218.5 Z M 467.769531 217.105469 L 467.769531 214.480469 L 471.1875 214.480469 L 471.1875 217.105469 Z M 467.769531 217.105469 "/>
<path style="fill:none;stroke-width:1;stroke-linecap:round;stroke-linejoin:round;stroke:rgb(0%,0%,0%);stroke-opacity:1;stroke-miterlimit:10;" d="M 307.999023 424.000977 L 330.100586 424.000977 " transform="matrix(1.333333,0,0,1.333333,-149.333333,-346.666667)"/>
<path style="fill:none;stroke-width:1;stroke-linecap:butt;stroke-linejoin:miter;stroke:rgb(0%,0%,0%);stroke-opacity:1;stroke-miterlimit:10;" d="M 334.102539 424.000977 L 330.100586 424.000977 M 330.100586 422.500977 L 334.102539 424.000977 L 330.100586 425.500977 " transform="matrix(1.333333,0,0,1.333333,-149.333333,-346.666667)"/>
<path style="fill:none;stroke-width:1;stroke-linecap:round;stroke-linejoin:round;stroke:rgb(0%,0%,0%);stroke-opacity:1;stroke-miterlimit:10;" d="M 307.999023 424.000977 L 313.999023 424.000977 C 317.3125 424.000977 319.999023 421.311523 319.999023 418.000977 L 319.999023 413.899414 " transform="matrix(1.333333,0,0,1.333333,-149.333333,-346.666667)"/>
<path style="fill:none;stroke-width:1;stroke-linecap:butt;stroke-linejoin:miter;stroke:rgb(0%,0%,0%);stroke-opacity:1;stroke-miterlimit:10;" d="M 319.999023 409.897461 L 319.999023 413.899414 M 318.499023 413.899414 L 319.999023 409.897461 L 321.499023 413.899414 " transform="matrix(1.333333,0,0,1.333333,-149.333333,-346.666667)"/>
<path style=" stroke:none;fill-rule:nonzero;fill:rgb(0%,0%,0%);fill-opacity:1;" d="M 314 209.167969 L 321.417969 209.167969 L 321.417969 208.417969 L 314.394531 208.417969 C 314.519531 208.144531 314.625 207.855469 314.730469 207.5625 L 313.875 207.417969 C 313.417969 208.769531 312.582031 209.894531 311.355469 210.832031 L 311.875 211.5 C 312.394531 211.105469 312.855469 210.667969 313.25 210.207031 L 313.25 213.792969 L 314.792969 213.792969 C 314.144531 214.667969 313.144531 215.375 311.75 215.917969 L 312.207031 216.644531 C 312.832031 216.355469 313.394531 216.042969 313.875 215.707031 C 314.519531 216.269531 315.269531 216.75 316.082031 217.144531 C 314.832031 217.5 313.355469 217.707031 311.625 217.792969 L 311.957031 218.542969 C 313.980469 218.417969 315.6875 218.105469 317.105469 217.582031 C 318.457031 218.105469 320.042969 218.417969 321.792969 218.5 L 322 217.707031 C 320.582031 217.667969 319.292969 217.457031 318.125 217.125 C 319.125 216.625 319.917969 216 320.5 215.230469 L 320.5 214.605469 L 315.125 214.605469 C 315.355469 214.355469 315.542969 214.082031 315.730469 213.792969 L 320.480469 213.792969 L 320.480469 210 L 313.417969 210 C 313.625 209.730469 313.8125 209.457031 314 209.167969 Z M 317.105469 216.792969 C 316.144531 216.417969 315.269531 215.917969 314.5 215.3125 L 319.4375 215.3125 C 318.855469 215.894531 318.0625 216.394531 317.105469 216.792969 Z M 319.644531 213.105469 L 314.105469 213.105469 L 314.105469 212.207031 L 319.644531 212.207031 Z M 314.105469 211.5625 L 314.105469 210.6875 L 319.644531 210.6875 L 319.644531 211.5625 Z M 314.105469 211.5625 "/>
<path style=" stroke:none;fill-rule:nonzero;fill:rgb(0%,0%,0%);fill-opacity:1;" d="M 324.542969 209.855469 L 326.207031 209.855469 L 326.207031 211.394531 L 323.3125 211.394531 L 323.3125 212.207031 L 326.207031 212.207031 L 326.207031 213.480469 L 323.855469 213.480469 L 323.855469 217.792969 L 324.6875 217.792969 L 324.6875 214.269531 L 326.207031 214.269531 L 326.207031 218.542969 L 327.082031 218.542969 L 327.082031 214.269531 L 328.605469 214.269531 L 328.605469 216.457031 C 328.605469 216.769531 328.417969 216.917969 328.082031 216.917969 L 327.5 216.894531 L 327.707031 217.707031 L 328.332031 217.707031 C 329.0625 217.707031 329.417969 217.355469 329.417969 216.644531 L 329.417969 213.480469 L 327.082031 213.480469 L 327.082031 212.207031 L 329.667969 212.207031 L 329.667969 211.394531 L 327.082031 211.394531 L 327.082031 209.855469 L 329.332031 209.855469 L 329.332031 209.0625 L 327.082031 209.0625 L 327.082031 207.5625 L 326.207031 207.5625 L 326.207031 209.0625 L 324.832031 209.0625 C 324.917969 208.730469 325 208.375 325.0625 208 L 324.230469 207.875 C 324.0625 209 323.6875 209.894531 323.082031 210.542969 L 323.792969 211.042969 C 324.0625 210.730469 324.3125 210.332031 324.542969 209.855469 Z M 330.375 208.644531 L 330.375 216.0625 L 331.230469 216.0625 L 331.230469 208.644531 Z M 332.582031 218.417969 C 333.3125 218.417969 333.6875 218.042969 333.6875 217.292969 L 333.6875 207.5625 L 332.832031 207.5625 L 332.832031 217.082031 C 332.832031 217.457031 332.644531 217.667969 332.269531 217.667969 C 331.75 217.667969 331.207031 217.625 330.625 217.605469 L 330.8125 218.417969 Z M 332.582031 218.417969 "/>
<path style="fill:none;stroke-width:1;stroke-linecap:round;stroke-linejoin:round;stroke:rgb(0%,0%,0%);stroke-opacity:1;stroke-miterlimit:10;" d="M 191.948242 299.999023 L 259.949219 299.999023 C 263.262695 299.999023 265.949219 302.688477 265.949219 305.999023 L 265.949219 350 C 265.949219 353.313477 263.262695 356 259.949219 356 L 191.948242 356 C 188.637695 356 185.948242 353.313477 185.948242 350 L 185.948242 305.999023 C 185.948242 302.688477 188.637695 299.999023 191.948242 299.999023 Z M 191.948242 299.999023 " transform="matrix(1.333333,0,0,1.333333,-149.333333,-346.666667)"/>
<path style=" stroke:none;fill-rule:nonzero;fill:rgb(40.000001%,74.901962%,100%);fill-opacity:1;" d="M 138.863281 101.332031 L 176.199219 101.332031 L 176.199219 80 L 138.863281 80 Z M 138.863281 101.332031 "/>
<path style="fill:none;stroke-width:1;stroke-linecap:round;stroke-linejoin:round;stroke:rgb(0%,0%,0%);stroke-opacity:1;stroke-miterlimit:10;" d="M 216.147461 320 L 244.149414 320 L 244.149414 335.999023 L 216.147461 335.999023 Z M 216.147461 320 " transform="matrix(1.333333,0,0,1.333333,-149.333333,-346.666667)"/>
<path style=" stroke:none;fill-rule:nonzero;fill:rgb(0%,0%,0%);fill-opacity:1;" d="M 160.675781 90.699219 C 160.675781 91.398438 160.539062 92.042969 160.28125 92.636719 C 159.988281 93.292969 159.5625 93.78125 159.007812 94.117188 C 158.5625 94.398438 158.082031 94.554688 157.570312 94.59375 L 157.113281 96.84375 L 156.050781 96.84375 L 156.550781 94.511719 C 156.367188 94.460938 156.1875 94.386719 156.007812 94.304688 C 155.1875 93.875 154.78125 93.148438 154.78125 92.117188 C 154.78125 90.898438 155.140625 89.886719 155.863281 89.09375 C 156.390625 88.511719 157.054688 88.1875 157.863281 88.117188 L 158.34375 85.886719 L 159.40625 85.886719 L 158.925781 88.199219 C 159.34375 88.296875 159.695312 88.5 159.988281 88.804688 C 160.445312 89.277344 160.675781 89.90625 160.675781 90.699219 Z M 159.632812 90.699219 C 159.632812 90.132812 159.488281 89.695312 159.195312 89.386719 C 159.070312 89.25 158.914062 89.136719 158.738281 89.054688 L 157.757812 93.742188 C 158.078125 93.65625 158.367188 93.492188 158.632812 93.242188 C 158.992188 92.882812 159.265625 92.40625 159.445312 91.824219 C 159.570312 91.421875 159.632812 91.046875 159.632812 90.699219 Z M 157.695312 88.96875 C 157.238281 89.085938 156.832031 89.382812 156.488281 89.867188 C 156.054688 90.449219 155.84375 91.167969 155.84375 92.011719 C 155.84375 92.585938 155.976562 93.023438 156.257812 93.324219 C 156.394531 93.480469 156.550781 93.589844 156.71875 93.65625 Z M 157.695312 88.96875 "/>
<path style="fill:none;stroke-width:1;stroke-linecap:round;stroke-linejoin:round;stroke:rgb(0%,0%,0%);stroke-opacity:1;stroke-miterlimit:10;" d="M 172 327.672852 L 210.25 327.886719 " transform="matrix(1.333333,0,0,1.333333,-149.333333,-346.666667)"/>
<path style="fill:none;stroke-width:1;stroke-linecap:butt;stroke-linejoin:miter;stroke:rgb(0%,0%,0%);stroke-opacity:1;stroke-miterlimit:10;" d="M 214.249023 327.910156 L 210.25 327.886719 M 210.258789 326.386719 L 214.249023 327.910156 L 210.241211 329.386719 " transform="matrix(1.333333,0,0,1.333333,-149.333333,-346.666667)"/>
<path style="fill:none;stroke-width:1;stroke-linecap:round;stroke-linejoin:round;stroke:rgb(0%,0%,0%);stroke-opacity:1;stroke-miterlimit:10;" d="M 197.948242 369.086914 L 197.948242 333.863281 C 197.948242 330.602539 200.549805 327.942383 203.807617 327.863281 L 204.270508 327.851562 " transform="matrix(1.333333,0,0,1.333333,-149.333333,-346.666667)"/>
<path style="fill:none;stroke-width:1;stroke-linecap:round;stroke-linejoin:round;stroke:rgb(0%,0%,0%);stroke-opacity:1;stroke-miterlimit:10;" d="M 244.149414 328.000977 L 320.300781 328.000977 " transform="matrix(1.333333,0,0,1.333333,-149.333333,-346.666667)"/>
<path style="fill:none;stroke-width:1;stroke-linecap:butt;stroke-linejoin:miter;stroke:rgb(0%,0%,0%);stroke-opacity:1;stroke-miterlimit:10;" d="M 324.299805 328.000977 L 320.300781 328.000977 M 320.300781 326.500977 L 324.299805 328.000977 L 320.300781 329.500977 " transform="matrix(1.333333,0,0,1.333333,-149.333333,-346.666667)"/>
<path style="fill:none;stroke-width:1;stroke-linecap:round;stroke-linejoin:round;stroke:rgb(0%,0%,0%);stroke-opacity:1;stroke-miterlimit:10;" d="M 247.020508 328.000977 L 247.949219 328.000977 C 251.262695 328.000977 253.949219 325.311523 253.949219 322.000977 L 253.949219 285.898438 " transform="matrix(1.333333,0,0,1.333333,-149.333333,-346.666667)"/>
<path style="fill:none;stroke-width:1;stroke-linecap:butt;stroke-linejoin:miter;stroke:rgb(0%,0%,0%);stroke-opacity:1;stroke-miterlimit:10;" d="M 253.949219 281.899414 L 253.949219 285.898438 M 252.449219 285.898438 L 253.949219 281.899414 L 255.449219 285.898438 " transform="matrix(1.333333,0,0,1.333333,-149.333333,-346.666667)"/>
<path style="fill:none;stroke-width:1;stroke-linecap:round;stroke-linejoin:round;stroke:rgb(0%,0%,0%);stroke-opacity:1;stroke-miterlimit:10;" d="M 407.538086 299.999023 L 475.539062 299.999023 C 478.852539 299.999023 481.539062 302.688477 481.539062 305.999023 L 481.539062 350 C 481.539062 353.313477 478.852539 356 475.539062 356 L 407.538086 356 C 404.227539 356 401.538086 353.313477 401.538086 350 L 401.538086 305.999023 C 401.538086 302.688477 404.227539 299.999023 407.538086 299.999023 Z M 407.538086 299.999023 " transform="matrix(1.333333,0,0,1.333333,-149.333333,-346.666667)"/>
<path style=" stroke:none;fill-rule:nonzero;fill:rgb(40.000001%,74.901962%,100%);fill-opacity:1;" d="M 426.316406 101.332031 L 463.652344 101.332031 L 463.652344 80 L 426.316406 80 Z M 426.316406 101.332031 "/>
<path style="fill:none;stroke-width:1;stroke-linecap:round;stroke-linejoin:round;stroke:rgb(0%,0%,0%);stroke-opacity:1;stroke-miterlimit:10;" d="M 431.737305 320 L 459.739258 320 L 459.739258 335.999023 L 431.737305 335.999023 Z M 431.737305 320 " transform="matrix(1.333333,0,0,1.333333,-149.333333,-346.666667)"/>
<path style=" stroke:none;fill-rule:nonzero;fill:rgb(0%,0%,0%);fill-opacity:1;" d="M 448.128906 90.699219 C 448.128906 91.398438 447.992188 92.042969 447.734375 92.636719 C 447.441406 93.292969 447.015625 93.78125 446.460938 94.117188 C 446.015625 94.398438 445.535156 94.554688 445.023438 94.59375 L 444.566406 96.84375 L 443.503906 96.84375 L 444.003906 94.511719 C 443.820312 94.460938 443.640625 94.386719 443.460938 94.304688 C 442.640625 93.875 442.234375 93.148438 442.234375 92.117188 C 442.234375 90.898438 442.59375 89.886719 443.316406 89.09375 C 443.84375 88.511719 444.507812 88.1875 445.316406 88.117188 L 445.796875 85.886719 L 446.859375 85.886719 L 446.378906 88.199219 C 446.796875 88.296875 447.148438 88.5 447.441406 88.804688 C 447.898438 89.277344 448.128906 89.90625 448.128906 90.699219 Z M 447.085938 90.699219 C 447.085938 90.132812 446.941406 89.695312 446.648438 89.386719 C 446.523438 89.25 446.367188 89.136719 446.191406 89.054688 L 445.210938 93.742188 C 445.53125 93.65625 445.820312 93.492188 446.085938 93.242188 C 446.445312 92.882812 446.71875 92.40625 446.898438 91.824219 C 447.023438 91.421875 447.085938 91.046875 447.085938 90.699219 Z M 445.148438 88.96875 C 444.691406 89.085938 444.285156 89.382812 443.941406 89.867188 C 443.507812 90.449219 443.296875 91.167969 443.296875 92.011719 C 443.296875 92.585938 443.429688 93.023438 443.710938 93.324219 C 443.847656 93.480469 444.003906 93.589844 444.171875 93.65625 Z M 445.148438 88.96875 "/>
<path style="fill:none;stroke-width:1;stroke-linecap:round;stroke-linejoin:round;stroke:rgb(0%,0%,0%);stroke-opacity:1;stroke-miterlimit:10;" d="M 377.538086 328.000977 L 425.839844 328.000977 " transform="matrix(1.333333,0,0,1.333333,-149.333333,-346.666667)"/>
<path style="fill:none;stroke-width:1;stroke-linecap:butt;stroke-linejoin:miter;stroke:rgb(0%,0%,0%);stroke-opacity:1;stroke-miterlimit:10;" d="M 429.838867 328.000977 L 425.839844 328.000977 M 425.839844 326.500977 L 429.838867 328.000977 L 425.839844 329.500977 " transform="matrix(1.333333,0,0,1.333333,-149.333333,-346.666667)"/>
<path style="fill:none;stroke-width:1;stroke-linecap:round;stroke-linejoin:round;stroke:rgb(0%,0%,0%);stroke-opacity:1;stroke-miterlimit:10;" d="M 413.133789 366.5 L 413.5 331.616211 C 413.520508 329.612305 415.152344 328.000977 417.15625 328.000977 " transform="matrix(1.333333,0,0,1.333333,-149.333333,-346.666667)"/>
<path style="fill:none;stroke-width:1;stroke-linecap:round;stroke-linejoin:round;stroke:rgb(0%,0%,0%);stroke-opacity:1;stroke-miterlimit:10;" d="M 459.739258 328.000977 L 510.100586 328.000977 " transform="matrix(1.333333,0,0,1.333333,-149.333333,-346.666667)"/>
<path style="fill:none;stroke-width:1;stroke-linecap:butt;stroke-linejoin:miter;stroke:rgb(0%,0%,0%);stroke-opacity:1;stroke-miterlimit:10;" d="M 514.102539 328.000977 L 510.100586 328.000977 M 510.100586 326.500977 L 514.102539 328.000977 L 510.100586 329.500977 " transform="matrix(1.333333,0,0,1.333333,-149.333333,-346.666667)"/>
<path style="fill:none;stroke-width:1;stroke-linecap:round;stroke-linejoin:round;stroke:rgb(0%,0%,0%);stroke-opacity:1;stroke-miterlimit:10;" d="M 461.708008 328.000977 L 463.539062 328.000977 C 466.852539 328.000977 469.539062 325.311523 469.539062 322.000977 L 469.539062 285.898438 " transform="matrix(1.333333,0,0,1.333333,-149.333333,-346.666667)"/>
<path style="fill:none;stroke-width:1;stroke-linecap:butt;stroke-linejoin:miter;stroke:rgb(0%,0%,0%);stroke-opacity:1;stroke-miterlimit:10;" d="M 469.539062 281.899414 L 469.539062 285.898438 M 468.039062 285.898438 L 469.539062 281.899414 L 471.039062 285.898438 " transform="matrix(1.333333,0,0,1.333333,-149.333333,-346.666667)"/>
<path style=" stroke:none;fill-rule:nonzero;fill:rgb(0%,0%,0%);fill-opacity:1;" d="M 225.074219 80.667969 L 225.074219 80.375 C 224.21875 80.25 224.011719 80.125 224.011719 79.5 L 224.011719 73.75 C 224.011719 73.105469 224.261719 72.917969 225.074219 72.855469 L 225.074219 72.5625 L 221.011719 72.5625 L 221.011719 72.855469 C 221.84375 72.917969 222.074219 73.0625 222.074219 73.75 L 222.074219 76.1875 L 219.175781 76.1875 L 219.175781 73.75 C 219.175781 73.0625 219.40625 72.917969 220.261719 72.855469 L 220.261719 72.5625 L 216.21875 72.5625 L 216.21875 72.855469 C 217.03125 72.917969 217.238281 73.082031 217.238281 73.75 L 217.238281 79.5 C 217.238281 80.125 217.050781 80.25 216.21875 80.375 L 216.21875 80.667969 L 220.261719 80.667969 L 220.261719 80.375 C 219.386719 80.269531 219.175781 80.125 219.175781 79.5 L 219.175781 76.75 L 222.074219 76.75 L 222.074219 79.5 C 222.074219 80.105469 221.886719 80.269531 221.011719 80.375 L 221.011719 80.667969 Z M 225.074219 80.667969 "/>
<path style=" stroke:none;fill-rule:nonzero;fill:rgb(0%,0%,0%);fill-opacity:1;" d="M 227.679688 81.25 L 227.035156 81.25 L 227.261719 80.417969 C 227.261719 80.394531 227.261719 80.355469 227.261719 80.355469 C 227.261719 80.3125 227.242188 80.292969 227.199219 80.292969 C 227.160156 80.292969 227.117188 80.3125 227.074219 80.375 C 226.785156 80.8125 226.261719 81.1875 226.011719 81.25 C 225.824219 81.292969 225.761719 81.355469 225.761719 81.457031 C 225.761719 81.457031 225.761719 81.480469 225.761719 81.5 L 226.367188 81.5 L 225.742188 83.875 C 225.679688 84.125 225.617188 84.375 225.617188 84.457031 C 225.617188 84.667969 225.761719 84.75 225.972656 84.75 C 226.386719 84.75 226.636719 84.519531 227.117188 83.792969 L 227.011719 83.730469 C 226.617188 84.230469 226.492188 84.355469 226.367188 84.355469 C 226.304688 84.355469 226.242188 84.332031 226.242188 84.230469 C 226.242188 84.207031 226.261719 84.144531 226.261719 84.125 L 226.949219 81.5 L 227.636719 81.5 Z M 227.679688 81.25 "/>
<path style=" stroke:none;fill-rule:nonzero;fill:rgb(0%,0%,0%);fill-opacity:1;" d="M 232.488281 82.917969 L 232.488281 82.375 L 228.050781 82.375 L 228.050781 82.917969 Z M 232.488281 82.917969 "/>
<path style=" stroke:none;fill-rule:nonzero;fill:rgb(0%,0%,0%);fill-opacity:1;" d="M 236.152344 84.667969 L 236.152344 84.542969 C 235.550781 84.542969 235.402344 84.394531 235.402344 84.0625 L 235.402344 79.292969 L 235.320312 79.25 L 233.902344 79.980469 L 233.902344 80.105469 L 234.113281 80.019531 C 234.257812 79.957031 234.382812 79.917969 234.464844 79.917969 C 234.632812 79.917969 234.714844 80.042969 234.714844 80.3125 L 234.714844 83.917969 C 234.714844 84.355469 234.550781 84.519531 233.945312 84.542969 L 233.945312 84.667969 Z M 236.152344 84.667969 "/>
<path style=" stroke:none;fill-rule:nonzero;fill:rgb(0%,0%,0%);fill-opacity:1;" d="M 30.75 157.542969 L 30.75 159.3125 L 29.5625 159.3125 C 29.855469 158.542969 30.144531 157.667969 30.394531 156.6875 L 32.707031 156.6875 L 32.707031 155.875 L 30.605469 155.875 C 30.707031 155.394531 30.8125 154.875 30.9375 154.332031 L 30.144531 154.167969 C 30.019531 154.75 29.917969 155.332031 29.792969 155.875 L 28.605469 155.875 L 28.605469 156.6875 L 29.605469 156.6875 C 29.332031 157.75 29.042969 158.667969 28.6875 159.375 L 28.875 160.105469 L 30.75 160.105469 L 30.75 161.894531 C 30.042969 162.019531 29.3125 162.144531 28.519531 162.230469 L 28.625 163.082031 C 29.355469 162.957031 30.0625 162.855469 30.75 162.707031 L 30.75 165.207031 L 31.542969 165.207031 L 31.542969 162.542969 L 32.6875 162.25 L 32.6875 161.4375 C 32.332031 161.519531 31.957031 161.625 31.542969 161.730469 L 31.542969 160.105469 L 32.644531 160.105469 L 32.644531 159.3125 L 31.542969 159.3125 L 31.542969 157.542969 Z M 34.292969 156.917969 L 34.292969 157.625 L 37.730469 157.625 L 37.730469 156.917969 L 34.292969 156.917969 C 34.894531 156.332031 35.480469 155.6875 36.042969 155 C 36.957031 156.167969 37.980469 157.167969 39.105469 157.980469 L 39.5625 157.3125 C 38.480469 156.542969 37.417969 155.519531 36.355469 154.230469 L 35.75 154.230469 C 34.769531 155.417969 33.667969 156.480469 32.4375 157.375 L 32.917969 158.105469 C 33.375 157.730469 33.832031 157.332031 34.292969 156.917969 Z M 35.125 165.125 C 35.707031 165.125 36.019531 164.8125 36.019531 164.1875 L 36.019531 158.582031 L 33.1875 158.582031 L 33.1875 165.207031 L 33.9375 165.207031 L 33.9375 162.957031 L 35.292969 162.957031 L 35.292969 164.042969 C 35.292969 164.292969 35.144531 164.4375 34.894531 164.4375 L 34.355469 164.417969 L 34.542969 165.125 Z M 33.9375 162.292969 L 33.9375 161.144531 L 35.292969 161.144531 L 35.292969 162.292969 Z M 33.9375 160.480469 L 33.9375 159.292969 L 35.292969 159.292969 L 35.292969 160.480469 Z M 36.730469 158.917969 L 36.730469 163.230469 L 37.417969 163.230469 L 37.417969 158.917969 Z M 38.042969 165.144531 C 38.625 165.144531 38.917969 164.792969 38.917969 164.105469 L 38.917969 158.375 L 38.167969 158.375 L 38.167969 163.917969 C 38.167969 164.25 38.042969 164.4375 37.769531 164.4375 C 37.480469 164.4375 37.167969 164.417969 36.855469 164.375 L 37.019531 165.144531 Z M 38.042969 165.144531 "/>
<path style=" stroke:none;fill-rule:nonzero;fill:rgb(0%,0%,0%);fill-opacity:1;" d="M 45.480469 156.980469 C 44.707031 160.167969 43.042969 162.625 40.457031 164.292969 L 40.980469 165.042969 C 43.5 163.394531 45.167969 161.042969 45.957031 157.980469 C 46.019531 158.125 46.0625 158.292969 46.144531 158.5 C 47.375 161.667969 48.957031 163.855469 50.917969 165.019531 L 51.457031 164.332031 C 49.542969 163.144531 48.042969 161.105469 46.917969 158.25 C 46.1875 156.292969 45.269531 154.9375 44.207031 154.1875 L 43.5 154.644531 C 44.25 155.207031 44.917969 155.980469 45.480469 156.980469 Z M 45.480469 156.980469 "/>
<path style=" stroke:none;fill-rule:nonzero;fill:rgb(0%,0%,0%);fill-opacity:1;" d="M 116.210938 160.667969 L 116.210938 160.375 C 115.796875 160.355469 115.609375 160.207031 115.046875 159.332031 L 112.859375 155.9375 L 113.816406 154.605469 C 114.859375 153.144531 115.171875 152.9375 116.066406 152.855469 L 116.066406 152.5625 L 113.066406 152.5625 L 113.066406 152.855469 L 113.316406 152.875 C 113.773438 152.917969 113.941406 153.019531 113.941406 153.292969 C 113.941406 153.5625 113.796875 153.792969 113.234375 154.5625 L 112.566406 155.5 L 111.398438 153.6875 C 111.253906 153.457031 111.234375 153.394531 111.234375 153.25 C 111.234375 153 111.359375 152.894531 111.796875 152.875 L 112.171875 152.855469 L 112.171875 152.5625 L 108.023438 152.5625 L 108.023438 152.855469 C 108.460938 152.894531 108.609375 153.019531 108.984375 153.542969 L 111.359375 157.042969 L 109.253906 159.6875 C 108.898438 160.144531 108.609375 160.292969 108.003906 160.375 L 108.003906 160.667969 L 111.003906 160.667969 L 111.003906 160.375 C 110.273438 160.292969 110.046875 160.167969 110.046875 159.855469 C 110.046875 159.605469 110.273438 159.230469 111.171875 158.019531 L 111.628906 157.417969 L 112.835938 159.355469 C 112.984375 159.582031 113.085938 159.855469 113.085938 160 C 113.085938 160.207031 112.878906 160.3125 112.460938 160.332031 L 112.128906 160.375 L 112.128906 160.667969 Z M 116.210938 160.667969 "/>
<path style=" stroke:none;fill-rule:nonzero;fill:rgb(0%,0%,0%);fill-opacity:1;" d="M 118.855469 161.25 L 118.210938 161.25 L 118.4375 160.417969 C 118.4375 160.394531 118.4375 160.355469 118.4375 160.355469 C 118.4375 160.3125 118.417969 160.292969 118.375 160.292969 C 118.335938 160.292969 118.292969 160.3125 118.25 160.375 C 117.960938 160.8125 117.4375 161.1875 117.1875 161.25 C 117 161.292969 116.9375 161.355469 116.9375 161.457031 C 116.9375 161.457031 116.9375 161.480469 116.9375 161.5 L 117.542969 161.5 L 116.917969 163.875 C 116.855469 164.125 116.792969 164.375 116.792969 164.457031 C 116.792969 164.667969 116.9375 164.75 117.148438 164.75 C 117.5625 164.75 117.8125 164.519531 118.292969 163.792969 L 118.1875 163.730469 C 117.792969 164.230469 117.667969 164.355469 117.542969 164.355469 C 117.480469 164.355469 117.417969 164.332031 117.417969 164.230469 C 117.417969 164.207031 117.4375 164.144531 117.4375 164.125 L 118.125 161.5 L 118.8125 161.5 Z M 118.855469 161.25 "/>
<path style=" stroke:none;fill-rule:nonzero;fill:rgb(0%,0%,0%);fill-opacity:1;" d="M 123.664062 162.917969 L 123.664062 162.375 L 119.226562 162.375 L 119.226562 162.917969 Z M 123.664062 162.917969 "/>
<path style=" stroke:none;fill-rule:nonzero;fill:rgb(0%,0%,0%);fill-opacity:1;" d="M 127.328125 164.667969 L 127.328125 164.542969 C 126.726562 164.542969 126.578125 164.394531 126.578125 164.0625 L 126.578125 159.292969 L 126.496094 159.25 L 125.078125 159.980469 L 125.078125 160.105469 L 125.289062 160.019531 C 125.433594 159.957031 125.558594 159.917969 125.640625 159.917969 C 125.808594 159.917969 125.890625 160.042969 125.890625 160.3125 L 125.890625 163.917969 C 125.890625 164.355469 125.726562 164.519531 125.121094 164.542969 L 125.121094 164.667969 Z M 127.328125 164.667969 "/>
<path style=" stroke:none;fill-rule:nonzero;fill:rgb(0%,0%,0%);fill-opacity:1;" d="M 399.546875 160.667969 L 399.546875 160.375 C 399.128906 160.355469 398.941406 160.207031 398.378906 159.332031 L 396.191406 155.9375 L 397.148438 154.605469 C 398.191406 153.144531 398.503906 152.9375 399.398438 152.855469 L 399.398438 152.5625 L 396.398438 152.5625 L 396.398438 152.855469 L 396.648438 152.875 C 397.109375 152.917969 397.273438 153.019531 397.273438 153.292969 C 397.273438 153.5625 397.128906 153.792969 396.566406 154.5625 L 395.898438 155.5 L 394.734375 153.6875 C 394.585938 153.457031 394.566406 153.394531 394.566406 153.25 C 394.566406 153 394.691406 152.894531 395.128906 152.875 L 395.503906 152.855469 L 395.503906 152.5625 L 391.359375 152.5625 L 391.359375 152.855469 C 391.796875 152.894531 391.941406 153.019531 392.316406 153.542969 L 394.691406 157.042969 L 392.585938 159.6875 C 392.234375 160.144531 391.941406 160.292969 391.335938 160.375 L 391.335938 160.667969 L 394.335938 160.667969 L 394.335938 160.375 C 393.609375 160.292969 393.378906 160.167969 393.378906 159.855469 C 393.378906 159.605469 393.609375 159.230469 394.503906 158.019531 L 394.960938 157.417969 L 396.171875 159.355469 C 396.316406 159.582031 396.421875 159.855469 396.421875 160 C 396.421875 160.207031 396.210938 160.3125 395.796875 160.332031 L 395.460938 160.375 L 395.460938 160.667969 Z M 399.546875 160.667969 "/>
<path style=" stroke:none;fill-rule:nonzero;fill:rgb(0%,0%,0%);fill-opacity:1;" d="M 402.1875 161.25 L 401.542969 161.25 L 401.773438 160.417969 C 401.773438 160.394531 401.773438 160.355469 401.773438 160.355469 C 401.773438 160.3125 401.75 160.292969 401.710938 160.292969 C 401.667969 160.292969 401.625 160.3125 401.585938 160.375 C 401.292969 160.8125 400.773438 161.1875 400.523438 161.25 C 400.335938 161.292969 400.273438 161.355469 400.273438 161.457031 C 400.273438 161.457031 400.273438 161.480469 400.273438 161.5 L 400.875 161.5 L 400.25 163.875 C 400.1875 164.125 400.125 164.375 400.125 164.457031 C 400.125 164.667969 400.273438 164.75 400.480469 164.75 C 400.898438 164.75 401.148438 164.519531 401.625 163.792969 L 401.523438 163.730469 C 401.125 164.230469 401 164.355469 400.875 164.355469 C 400.8125 164.355469 400.75 164.332031 400.75 164.230469 C 400.75 164.207031 400.773438 164.144531 400.773438 164.125 L 401.460938 161.5 L 402.148438 161.5 Z M 402.1875 161.25 "/>
<path style=" stroke:none;fill-rule:nonzero;fill:rgb(0%,0%,0%);fill-opacity:1;" d="M 407.121094 162.917969 L 407.121094 162.375 L 405.039062 162.375 L 405.039062 160.292969 L 404.515625 160.292969 L 404.515625 162.375 L 402.414062 162.375 L 402.414062 162.917969 L 404.515625 162.917969 L 404.515625 165 L 405.039062 165 L 405.039062 162.917969 Z M 407.121094 162.917969 "/>
<path style=" stroke:none;fill-rule:nonzero;fill:rgb(0%,0%,0%);fill-opacity:1;" d="M 410.664062 164.667969 L 410.664062 164.542969 C 410.058594 164.542969 409.914062 164.394531 409.914062 164.0625 L 409.914062 159.292969 L 409.828125 159.25 L 408.414062 159.980469 L 408.414062 160.105469 L 408.621094 160.019531 C 408.765625 159.957031 408.890625 159.917969 408.976562 159.917969 C 409.140625 159.917969 409.226562 160.042969 409.226562 160.3125 L 409.226562 163.917969 C 409.226562 164.355469 409.058594 164.519531 408.453125 164.542969 L 408.453125 164.667969 Z M 410.664062 164.667969 "/>
<path style=" stroke:none;fill-rule:nonzero;fill:rgb(40.000001%,74.901962%,100%);fill-opacity:1;" d="M 317.265625 26.667969 L 354.597656 26.667969 L 354.597656 5.332031 L 317.265625 5.332031 Z M 317.265625 26.667969 "/>
<path style="fill:none;stroke-width:1;stroke-linecap:round;stroke-linejoin:round;stroke:rgb(0%,0%,0%);stroke-opacity:1;stroke-miterlimit:10;" d="M 349.949219 263.999023 L 377.948242 263.999023 L 377.948242 280.000977 L 349.949219 280.000977 Z M 349.949219 263.999023 " transform="matrix(1.333333,0,0,1.333333,-149.333333,-346.666667)"/>
<path style=" stroke:none;fill-rule:nonzero;fill:rgb(40.000001%,74.901962%,100%);fill-opacity:1;" d="M 170.667969 26.667969 L 208 26.667969 L 208 5.332031 L 170.667969 5.332031 Z M 170.667969 26.667969 "/>
<path style="fill:none;stroke-width:1;stroke-linecap:round;stroke-linejoin:round;stroke:rgb(0%,0%,0%);stroke-opacity:1;stroke-miterlimit:10;" d="M 240.000977 263.999023 L 268 263.999023 L 268 280.000977 L 240.000977 280.000977 Z M 240.000977 263.999023 " transform="matrix(1.333333,0,0,1.333333,-149.333333,-346.666667)"/>
<path style=" stroke:none;fill-rule:nonzero;fill:rgb(40.000001%,74.901962%,100%);fill-opacity:1;" d="M 458.667969 26.667969 L 496 26.667969 L 496 5.332031 L 458.667969 5.332031 Z M 458.667969 26.667969 "/>
<path style="fill:none;stroke-width:1;stroke-linecap:round;stroke-linejoin:round;stroke:rgb(0%,0%,0%);stroke-opacity:1;stroke-miterlimit:10;" d="M 456.000977 263.999023 L 484 263.999023 L 484 280.000977 L 456.000977 280.000977 Z M 456.000977 263.999023 " transform="matrix(1.333333,0,0,1.333333,-149.333333,-346.666667)"/>
<path style=" stroke:none;fill-rule:nonzero;fill:rgb(0%,0%,0%);fill-opacity:1;" d="M 24.75 13.542969 L 24.75 15.3125 L 23.5625 15.3125 C 23.855469 14.542969 24.144531 13.667969 24.394531 12.6875 L 26.707031 12.6875 L 26.707031 11.875 L 24.605469 11.875 C 24.707031 11.394531 24.8125 10.875 24.9375 10.332031 L 24.144531 10.167969 C 24.019531 10.75 23.917969 11.332031 23.792969 11.875 L 22.605469 11.875 L 22.605469 12.6875 L 23.605469 12.6875 C 23.332031 13.75 23.042969 14.667969 22.6875 15.375 L 22.875 16.105469 L 24.75 16.105469 L 24.75 17.894531 C 24.042969 18.019531 23.3125 18.144531 22.519531 18.230469 L 22.625 19.082031 C 23.355469 18.957031 24.0625 18.855469 24.75 18.707031 L 24.75 21.207031 L 25.542969 21.207031 L 25.542969 18.542969 L 26.6875 18.25 L 26.6875 17.4375 C 26.332031 17.519531 25.957031 17.625 25.542969 17.730469 L 25.542969 16.105469 L 26.644531 16.105469 L 26.644531 15.3125 L 25.542969 15.3125 L 25.542969 13.542969 Z M 28.292969 12.917969 L 28.292969 13.625 L 31.730469 13.625 L 31.730469 12.917969 L 28.292969 12.917969 C 28.894531 12.332031 29.480469 11.6875 30.042969 11 C 30.957031 12.167969 31.980469 13.167969 33.105469 13.980469 L 33.5625 13.3125 C 32.480469 12.542969 31.417969 11.519531 30.355469 10.230469 L 29.75 10.230469 C 28.769531 11.417969 27.667969 12.480469 26.4375 13.375 L 26.917969 14.105469 C 27.375 13.730469 27.832031 13.332031 28.292969 12.917969 Z M 29.125 21.125 C 29.707031 21.125 30.019531 20.8125 30.019531 20.1875 L 30.019531 14.582031 L 27.1875 14.582031 L 27.1875 21.207031 L 27.9375 21.207031 L 27.9375 18.957031 L 29.292969 18.957031 L 29.292969 20.042969 C 29.292969 20.292969 29.144531 20.4375 28.894531 20.4375 L 28.355469 20.417969 L 28.542969 21.125 Z M 27.9375 18.292969 L 27.9375 17.144531 L 29.292969 17.144531 L 29.292969 18.292969 Z M 27.9375 16.480469 L 27.9375 15.292969 L 29.292969 15.292969 L 29.292969 16.480469 Z M 30.730469 14.917969 L 30.730469 19.230469 L 31.417969 19.230469 L 31.417969 14.917969 Z M 32.042969 21.144531 C 32.625 21.144531 32.917969 20.792969 32.917969 20.105469 L 32.917969 14.375 L 32.167969 14.375 L 32.167969 19.917969 C 32.167969 20.25 32.042969 20.4375 31.769531 20.4375 C 31.480469 20.4375 31.167969 20.417969 30.855469 20.375 L 31.019531 21.144531 Z M 32.042969 21.144531 "/>
<path style=" stroke:none;fill-rule:nonzero;fill:rgb(0%,0%,0%);fill-opacity:1;" d="M 43.25 14.375 L 40.4375 14.375 L 40.4375 10.1875 L 39.5625 10.1875 L 39.5625 14.375 L 36.75 14.375 L 36.75 11.105469 L 35.875 11.105469 L 35.875 15.207031 L 39.5625 15.207031 L 39.5625 19.625 L 36.167969 19.625 L 36.167969 16.332031 L 35.292969 16.332031 L 35.292969 21.125 L 36.167969 21.125 L 36.167969 20.4375 L 43.832031 20.4375 L 43.832031 21.125 L 44.707031 21.125 L 44.707031 16.332031 L 43.832031 16.332031 L 43.832031 19.625 L 40.4375 19.625 L 40.4375 15.207031 L 44.125 15.207031 L 44.125 11.105469 L 43.25 11.105469 Z M 43.25 14.375 "/>
<path style=" stroke:none;fill-rule:nonzero;fill:rgb(0%,0%,0%);fill-opacity:1;" d="M 49.894531 14.792969 L 49.894531 15.5625 L 56.394531 15.5625 L 56.394531 14.792969 Z M 49.042969 16.75 L 49.042969 17.542969 L 51.667969 17.542969 C 50.832031 18.894531 50.125 19.730469 49.605469 20.042969 C 49.542969 20.0625 49.5 20.105469 49.417969 20.125 L 49.605469 20.855469 C 51.875 20.707031 53.957031 20.5 55.855469 20.25 C 56.105469 20.542969 56.3125 20.855469 56.519531 21.167969 L 57.207031 20.6875 C 56.6875 19.917969 55.917969 19 54.9375 17.957031 L 54.292969 18.355469 C 54.644531 18.769531 55 19.167969 55.332031 19.5625 C 53.792969 19.792969 52.230469 19.957031 50.644531 20.0625 C 51.207031 19.5625 51.855469 18.707031 52.582031 17.542969 L 57.1875 17.542969 L 57.1875 16.75 Z M 55.730469 11.480469 L 55.730469 12.875 L 48.667969 12.875 L 48.667969 11.480469 Z M 48.667969 13.644531 L 56.5625 13.644531 L 56.5625 10.667969 L 47.832031 10.667969 L 47.832031 14.644531 C 47.8125 17.0625 47.394531 19.019531 46.5625 20.542969 L 47.1875 21.125 C 48.167969 19.3125 48.667969 17.144531 48.667969 14.644531 Z M 48.667969 13.644531 "/>
<path style=" stroke:none;fill-rule:nonzero;fill:rgb(0%,0%,0%);fill-opacity:1;" d="M 507.25 80.667969 L 507.25 80.375 C 506.398438 80.25 506.1875 80.125 506.1875 79.5 L 506.1875 73.75 C 506.1875 73.105469 506.4375 72.917969 507.25 72.855469 L 507.25 72.5625 L 503.1875 72.5625 L 503.1875 72.855469 C 504.023438 72.917969 504.25 73.0625 504.25 73.75 L 504.25 76.1875 L 501.355469 76.1875 L 501.355469 73.75 C 501.355469 73.0625 501.585938 72.917969 502.4375 72.855469 L 502.4375 72.5625 L 498.398438 72.5625 L 498.398438 72.855469 C 499.210938 72.917969 499.417969 73.082031 499.417969 73.75 L 499.417969 79.5 C 499.417969 80.125 499.230469 80.25 498.398438 80.375 L 498.398438 80.667969 L 502.4375 80.667969 L 502.4375 80.375 C 501.5625 80.269531 501.355469 80.125 501.355469 79.5 L 501.355469 76.75 L 504.25 76.75 L 504.25 79.5 C 504.25 80.105469 504.0625 80.269531 503.1875 80.375 L 503.1875 80.667969 Z M 507.25 80.667969 "/>
<path style=" stroke:none;fill-rule:nonzero;fill:rgb(0%,0%,0%);fill-opacity:1;" d="M 509.859375 81.25 L 509.210938 81.25 L 509.441406 80.417969 C 509.441406 80.394531 509.441406 80.355469 509.441406 80.355469 C 509.441406 80.3125 509.421875 80.292969 509.378906 80.292969 C 509.335938 80.292969 509.296875 80.3125 509.253906 80.375 C 508.960938 80.8125 508.441406 81.1875 508.191406 81.25 C 508.003906 81.292969 507.941406 81.355469 507.941406 81.457031 C 507.941406 81.457031 507.941406 81.480469 507.941406 81.5 L 508.546875 81.5 L 507.921875 83.875 C 507.859375 84.125 507.796875 84.375 507.796875 84.457031 C 507.796875 84.667969 507.941406 84.75 508.148438 84.75 C 508.566406 84.75 508.816406 84.519531 509.296875 83.792969 L 509.191406 83.730469 C 508.796875 84.230469 508.671875 84.355469 508.546875 84.355469 C 508.484375 84.355469 508.421875 84.332031 508.421875 84.230469 C 508.421875 84.207031 508.441406 84.144531 508.441406 84.125 L 509.128906 81.5 L 509.816406 81.5 Z M 509.859375 81.25 "/>
<path style=" stroke:none;fill-rule:nonzero;fill:rgb(0%,0%,0%);fill-opacity:1;" d="M 514.789062 82.917969 L 514.789062 82.375 L 512.707031 82.375 L 512.707031 80.292969 L 512.1875 80.292969 L 512.1875 82.375 L 510.082031 82.375 L 510.082031 82.917969 L 512.1875 82.917969 L 512.1875 85 L 512.707031 85 L 512.707031 82.917969 Z M 514.789062 82.917969 "/>
<path style=" stroke:none;fill-rule:nonzero;fill:rgb(0%,0%,0%);fill-opacity:1;" d="M 518.332031 84.667969 L 518.332031 84.542969 C 517.726562 84.542969 517.582031 84.394531 517.582031 84.0625 L 517.582031 79.292969 L 517.5 79.25 L 516.082031 79.980469 L 516.082031 80.105469 L 516.289062 80.019531 C 516.4375 79.957031 516.5625 79.917969 516.644531 79.917969 C 516.8125 79.917969 516.894531 80.042969 516.894531 80.3125 L 516.894531 83.917969 C 516.894531 84.355469 516.726562 84.519531 516.125 84.542969 L 516.125 84.667969 Z M 518.332031 84.667969 "/>
</g>
</svg>
