<?xml version="1.0" encoding="UTF-8"?>
<svg xmlns="http://www.w3.org/2000/svg" xmlns:xlink="http://www.w3.org/1999/xlink" width="448" height="200" viewBox="0 0 448 200" version="1.1">
<g id="surface1">
<path style=" stroke:none;fill-rule:nonzero;fill:rgb(0%,0%,0%);fill-opacity:1;" d="M 91.46875 12.105469 C 91.195312 12.417969 90.863281 12.707031 90.445312 12.980469 C 90.03125 13.207031 89.632812 13.375 89.238281 13.5 L 89.238281 14.480469 C 90.050781 14.230469 90.71875 13.855469 91.257812 13.292969 L 91.257812 20.667969 L 92.238281 20.667969 L 92.238281 12.105469 Z M 91.46875 12.105469 "/>
<path style=" stroke:none;fill-rule:nonzero;fill:rgb(0%,0%,0%);fill-opacity:1;" d="M 157.738281 11.9375 C 156.863281 11.9375 156.152344 12.207031 155.632812 12.792969 C 155.089844 13.355469 154.820312 14.125 154.820312 15.082031 L 155.800781 15.082031 C 155.820312 14.332031 156.007812 13.75 156.339844 13.375 C 156.652344 12.957031 157.113281 12.769531 157.695312 12.769531 C 158.238281 12.769531 158.695312 12.917969 159.007812 13.207031 C 159.320312 13.5 159.464844 13.894531 159.464844 14.417969 C 159.464844 14.957031 159.238281 15.480469 158.800781 15.957031 C 158.570312 16.1875 158.132812 16.542969 157.464844 17.019531 C 156.550781 17.644531 155.945312 18.167969 155.613281 18.542969 C 155.027344 19.1875 154.757812 19.894531 154.757812 20.667969 L 160.464844 20.667969 L 160.464844 19.792969 L 155.964844 19.792969 C 156.113281 19.207031 156.738281 18.5625 157.839844 17.8125 C 158.714844 17.230469 159.320312 16.75 159.613281 16.4375 C 160.152344 15.832031 160.445312 15.167969 160.445312 14.417969 C 160.445312 13.6875 160.195312 13.0625 159.675781 12.625 C 159.175781 12.167969 158.527344 11.9375 157.738281 11.9375 Z M 157.738281 11.9375 "/>
<path style=" stroke:none;fill-rule:nonzero;fill:rgb(0%,0%,0%);fill-opacity:1;" d="M 226.578125 11.9375 C 225.765625 11.9375 225.101562 12.167969 224.601562 12.625 C 224.058594 13.105469 223.746094 13.75 223.683594 14.5625 L 224.664062 14.5625 C 224.726562 14 224.914062 13.542969 225.246094 13.230469 C 225.558594 12.917969 226.015625 12.792969 226.578125 12.792969 C 227.140625 12.792969 227.578125 12.917969 227.890625 13.207031 C 228.183594 13.457031 228.351562 13.832031 228.351562 14.3125 C 228.351562 14.792969 228.183594 15.167969 227.890625 15.4375 C 227.578125 15.6875 227.140625 15.8125 226.578125 15.8125 L 225.914062 15.8125 L 225.914062 16.582031 L 226.621094 16.582031 C 227.203125 16.582031 227.664062 16.707031 227.996094 17 C 228.351562 17.292969 228.515625 17.6875 228.515625 18.207031 C 228.515625 18.707031 228.328125 19.125 227.996094 19.457031 C 227.621094 19.8125 227.121094 20 226.515625 20 C 225.976562 20 225.539062 19.832031 225.164062 19.542969 C 224.746094 19.207031 224.515625 18.6875 224.496094 18.019531 L 223.496094 18.019531 C 223.578125 18.980469 223.914062 19.707031 224.515625 20.207031 C 225.039062 20.625 225.703125 20.832031 226.515625 20.832031 C 227.414062 20.832031 228.121094 20.582031 228.683594 20.082031 C 229.226562 19.582031 229.496094 18.957031 229.496094 18.167969 C 229.496094 17.667969 229.351562 17.25 229.058594 16.917969 C 228.789062 16.582031 228.414062 16.332031 227.914062 16.1875 C 228.851562 15.875 229.308594 15.207031 229.308594 14.25 C 229.308594 13.542969 229.058594 12.980469 228.558594 12.5625 C 228.058594 12.125 227.390625 11.9375 226.578125 11.9375 Z M 226.578125 11.9375 "/>
<path style=" stroke:none;fill-rule:nonzero;fill:rgb(0%,0%,0%);fill-opacity:1;" d="M 11.105469 12.4375 L 7.644531 12.4375 L 7.644531 21.5625 L 8.5 21.5625 L 8.5 20.480469 L 10.269531 20.480469 L 10.269531 21.269531 L 11.105469 21.269531 Z M 8.5 19.667969 L 8.5 16.769531 L 10.269531 16.769531 L 10.269531 19.667969 Z M 8.5 15.980469 L 8.5 13.230469 L 10.269531 13.230469 L 10.269531 15.980469 Z M 12.832031 16 L 12.125 16.457031 C 12.855469 17.5625 13.417969 18.5625 13.832031 19.457031 L 14.542969 18.957031 C 14.144531 18.125 13.582031 17.125 12.832031 16 Z M 15.5625 22.417969 C 16.3125 22.417969 16.6875 22.019531 16.6875 21.269531 L 16.6875 14.5625 L 18.167969 14.5625 L 18.167969 13.730469 L 16.6875 13.730469 L 16.6875 11.625 L 15.8125 11.625 L 15.8125 13.730469 L 11.667969 13.730469 L 11.667969 14.5625 L 15.8125 14.5625 L 15.8125 21.0625 C 15.8125 21.4375 15.625 21.625 15.292969 21.625 C 14.644531 21.625 13.980469 21.605469 13.292969 21.582031 L 13.480469 22.417969 Z M 15.5625 22.417969 "/>
<path style=" stroke:none;fill-rule:nonzero;fill:rgb(0%,0%,0%);fill-opacity:1;" d="M 22.332031 14.792969 L 22.332031 20.375 L 26.894531 20.375 L 26.894531 14.792969 Z M 26.105469 19.605469 L 23.144531 19.605469 L 23.144531 17.957031 L 26.105469 17.957031 Z M 23.144531 17.1875 L 23.144531 15.542969 L 26.105469 15.542969 L 26.105469 17.1875 Z M 28.25 22.4375 C 29.042969 22.4375 29.457031 22 29.457031 21.167969 L 29.457031 12.125 L 23.957031 12.125 L 23.957031 12.9375 L 28.625 12.9375 L 28.625 20.917969 C 28.625 21.394531 28.417969 21.667969 28.0625 21.667969 L 27.019531 21.625 L 27.230469 22.4375 Z M 19.855469 13.519531 L 19.855469 22.542969 L 20.6875 22.542969 L 20.6875 13.519531 Z M 21.605469 11.417969 L 20.8125 11.769531 C 21.332031 12.417969 21.832031 13.167969 22.292969 14 L 23.0625 13.582031 C 22.644531 12.792969 22.144531 12.082031 21.605469 11.417969 Z M 21.605469 11.417969 "/>
<path style=" stroke:none;fill-rule:nonzero;fill:rgb(0%,0%,0%);fill-opacity:1;" d="M 36.292969 11.5 L 36.292969 15.4375 L 34.042969 15.4375 L 34.042969 12.4375 L 33.167969 12.4375 L 33.167969 15.4375 L 31.332031 15.4375 L 31.332031 16.292969 L 36.375 16.292969 L 36.375 19.894531 L 37.230469 19.894531 L 37.230469 16.292969 L 42 16.292969 L 42 15.4375 L 37.167969 15.4375 L 37.167969 13.792969 L 40.8125 13.792969 L 40.8125 12.957031 L 37.167969 12.957031 L 37.167969 11.5 Z M 40.207031 17.167969 C 38.894531 20.207031 36.144531 21.75 32 21.75 L 32.3125 22.582031 C 36.582031 22.5625 39.480469 20.894531 41 17.582031 Z M 34.207031 16.8125 C 33.519531 17.875 32.667969 18.792969 31.644531 19.582031 L 32.1875 20.292969 C 33.230469 19.457031 34.105469 18.480469 34.832031 17.375 Z M 34.207031 16.8125 "/>
<path style=" stroke:none;fill-rule:nonzero;fill:rgb(0%,0%,0%);fill-opacity:1;" d="M 14.957031 41.5625 L 14.957031 43.832031 L 13.5 43.832031 L 13.5 44.667969 L 14.957031 44.667969 C 14.582031 46.167969 13.980469 47.519531 13.105469 48.707031 L 13.480469 49.644531 C 14.082031 48.707031 14.582031 47.667969 14.957031 46.542969 L 14.957031 52.519531 L 15.8125 52.519531 L 15.8125 46.5 C 16.167969 46.957031 16.582031 47.5625 17.082031 48.3125 L 17.582031 47.582031 C 16.980469 46.855469 16.394531 46.1875 15.8125 45.582031 L 15.8125 44.667969 L 17.207031 44.667969 L 17.207031 43.832031 L 15.8125 43.832031 L 15.8125 41.5625 Z M 18.5 46.980469 C 18.167969 48.480469 17.625 49.8125 16.875 51.042969 L 17.625 51.519531 C 18.332031 50.292969 18.917969 48.855469 19.292969 47.167969 Z M 22.832031 46.9375 L 22.0625 47.1875 C 22.519531 48.480469 22.957031 49.957031 23.355469 51.625 L 24.144531 51.269531 C 23.769531 49.730469 23.355469 48.292969 22.832031 46.9375 Z M 20.144531 52.394531 C 20.855469 52.394531 21.207031 52.042969 21.207031 51.332031 L 21.207031 46 L 24.144531 46 L 24.144531 45.167969 L 17.417969 45.167969 L 17.417969 46 L 20.355469 46 L 20.355469 51.125 C 20.355469 51.457031 20.1875 51.644531 19.855469 51.644531 C 19.5 51.644531 19.144531 51.625 18.769531 51.605469 L 18.9375 52.394531 Z M 18.0625 42.25 L 18.0625 43.0625 L 23.519531 43.0625 L 23.519531 42.25 Z M 18.0625 42.25 "/>
<path style=" stroke:none;fill-rule:nonzero;fill:rgb(0%,0%,0%);fill-opacity:1;" d="M 33.480469 48.394531 C 33.125 49.542969 32.707031 50.5 32.230469 51.3125 L 25.625 51.3125 L 25.625 52.125 L 35.75 52.125 L 35.75 51.3125 L 33.167969 51.3125 C 33.625 50.519531 34 49.625 34.3125 48.625 Z M 27.730469 48.542969 L 26.957031 48.792969 C 27.332031 49.5 27.644531 50.230469 27.894531 51 L 28.667969 50.792969 C 28.394531 49.957031 28.082031 49.1875 27.730469 48.542969 Z M 30.519531 48.3125 L 29.707031 48.5625 C 30.019531 49.3125 30.292969 50.082031 30.480469 50.894531 L 31.25 50.6875 C 31.042969 49.792969 30.792969 49 30.519531 48.3125 Z M 27.5625 47.167969 L 27.5625 47.917969 L 33.792969 47.917969 L 33.792969 47.167969 Z M 27.082031 43.332031 L 28 43.332031 C 28.207031 43.792969 28.394531 44.292969 28.542969 44.792969 L 29.332031 44.5 C 29.207031 44.144531 29.042969 43.75 28.855469 43.332031 L 30.582031 43.332031 L 30.582031 42.5625 L 27.417969 42.5625 C 27.542969 42.269531 27.644531 41.980469 27.730469 41.667969 L 26.894531 41.5 C 26.5625 42.605469 26.019531 43.605469 25.269531 44.519531 L 26.019531 44.980469 C 26.417969 44.480469 26.769531 43.9375 27.082031 43.332031 Z M 32.125 43.332031 L 33.167969 43.332031 C 33.4375 43.832031 33.6875 44.355469 33.894531 44.894531 L 34.6875 44.605469 C 34.519531 44.207031 34.332031 43.792969 34.0625 43.332031 L 35.980469 43.332031 L 35.980469 42.5625 L 32.457031 42.5625 C 32.5625 42.269531 32.667969 41.980469 32.75 41.667969 L 31.917969 41.5 C 31.667969 42.4375 31.269531 43.269531 30.707031 44.042969 L 31.4375 44.5 C 31.6875 44.144531 31.917969 43.75 32.125 43.332031 Z M 30.394531 44.519531 C 29.019531 45.542969 27.292969 46.394531 25.207031 47.082031 L 25.625 47.832031 C 27.707031 47.105469 29.394531 46.230469 30.667969 45.230469 C 32.0625 46.3125 33.730469 47.167969 35.6875 47.832031 L 36.125 47.105469 C 34.167969 46.480469 32.4375 45.605469 30.9375 44.519531 Z M 30.394531 44.519531 "/>
<path style=" stroke:none;fill-rule:nonzero;fill:rgb(0%,0%,0%);fill-opacity:1;" d="M 15.417969 182.449219 L 15.417969 184.21875 L 14.230469 184.21875 C 14.519531 183.449219 14.8125 182.574219 15.0625 181.59375 L 17.375 181.59375 L 17.375 180.78125 L 15.269531 180.78125 C 15.375 180.304688 15.480469 179.78125 15.605469 179.242188 L 14.8125 179.074219 C 14.6875 179.65625 14.582031 180.242188 14.457031 180.78125 L 13.269531 180.78125 L 13.269531 181.59375 L 14.269531 181.59375 C 14 182.65625 13.707031 183.574219 13.355469 184.28125 L 13.542969 185.011719 L 15.417969 185.011719 L 15.417969 186.804688 C 14.707031 186.929688 13.980469 187.054688 13.1875 187.136719 L 13.292969 187.992188 C 14.019531 187.867188 14.730469 187.761719 15.417969 187.617188 L 15.417969 190.117188 L 16.207031 190.117188 L 16.207031 187.449219 L 17.355469 187.15625 L 17.355469 186.34375 C 17 186.429688 16.625 186.53125 16.207031 186.636719 L 16.207031 185.011719 L 17.3125 185.011719 L 17.3125 184.21875 L 16.207031 184.21875 L 16.207031 182.449219 Z M 18.957031 181.824219 L 18.957031 182.53125 L 22.394531 182.53125 L 22.394531 181.824219 L 18.957031 181.824219 C 19.5625 181.242188 20.144531 180.59375 20.707031 179.90625 C 21.625 181.074219 22.644531 182.074219 23.769531 182.886719 L 24.230469 182.21875 C 23.144531 181.449219 22.082031 180.429688 21.019531 179.136719 L 20.417969 179.136719 C 19.4375 180.324219 18.332031 181.386719 17.105469 182.28125 L 17.582031 183.011719 C 18.042969 182.636719 18.5 182.242188 18.957031 181.824219 Z M 19.792969 190.03125 C 20.375 190.03125 20.6875 189.71875 20.6875 189.09375 L 20.6875 183.492188 L 17.855469 183.492188 L 17.855469 190.117188 L 18.605469 190.117188 L 18.605469 187.867188 L 19.957031 187.867188 L 19.957031 188.949219 C 19.957031 189.199219 19.8125 189.34375 19.5625 189.34375 L 19.019531 189.324219 L 19.207031 190.03125 Z M 18.605469 187.199219 L 18.605469 186.054688 L 19.957031 186.054688 L 19.957031 187.199219 Z M 18.605469 185.386719 L 18.605469 184.199219 L 19.957031 184.199219 L 19.957031 185.386719 Z M 21.394531 183.824219 L 21.394531 188.136719 L 22.082031 188.136719 L 22.082031 183.824219 Z M 22.707031 190.054688 C 23.292969 190.054688 23.582031 189.699219 23.582031 189.011719 L 23.582031 183.28125 L 22.832031 183.28125 L 22.832031 188.824219 C 22.832031 189.15625 22.707031 189.34375 22.4375 189.34375 C 22.144531 189.34375 21.832031 189.324219 21.519531 189.28125 L 21.6875 190.054688 Z M 22.707031 190.054688 "/>
<path style=" stroke:none;fill-rule:nonzero;fill:rgb(0%,0%,0%);fill-opacity:1;" d="M 30.144531 181.886719 C 29.375 185.074219 27.707031 187.53125 25.125 189.199219 L 25.644531 189.949219 C 28.167969 188.304688 29.832031 185.949219 30.625 182.886719 C 30.6875 183.03125 30.730469 183.199219 30.8125 183.40625 C 32.042969 186.574219 33.625 188.761719 35.582031 189.929688 L 36.125 189.242188 C 34.207031 188.054688 32.707031 186.011719 31.582031 183.15625 C 30.855469 181.199219 29.9375 179.84375 28.875 179.09375 L 28.167969 179.554688 C 28.917969 180.117188 29.582031 180.886719 30.144531 181.886719 Z M 30.144531 181.886719 "/>
<path style=" stroke:none;fill-rule:nonzero;fill:rgb(0%,0%,0%);fill-opacity:1;" d="M 90.703125 181.867188 C 89.992188 181.867188 89.410156 182.199219 88.953125 182.867188 L 88.953125 182.03125 L 87.992188 182.03125 L 87.992188 188.242188 L 88.953125 188.242188 L 88.953125 184.46875 C 88.953125 183.96875 89.097656 183.554688 89.390625 183.21875 C 89.660156 182.84375 90.035156 182.679688 90.472656 182.679688 C 91.410156 182.679688 91.890625 183.21875 91.890625 184.324219 L 91.890625 188.242188 L 92.867188 188.242188 L 92.867188 184.34375 C 92.867188 183.84375 92.992188 183.449219 93.285156 183.136719 C 93.535156 182.824219 93.890625 182.679688 94.304688 182.679688 C 94.828125 182.679688 95.203125 182.824219 95.453125 183.09375 C 95.679688 183.367188 95.804688 183.78125 95.804688 184.324219 L 95.804688 188.242188 L 96.765625 188.242188 L 96.765625 184.179688 C 96.765625 183.46875 96.554688 182.90625 96.179688 182.492188 C 95.765625 182.074219 95.242188 181.867188 94.597656 181.867188 C 94.160156 181.867188 93.804688 181.96875 93.515625 182.15625 C 93.179688 182.34375 92.890625 182.636719 92.640625 183.054688 C 92.285156 182.261719 91.640625 181.867188 90.703125 181.867188 Z M 90.703125 181.867188 "/>
<path style=" stroke:none;fill-rule:nonzero;fill:rgb(0%,0%,0%);fill-opacity:1;" d="M 159.941406 181.867188 C 159.210938 181.867188 158.609375 182.011719 158.148438 182.304688 C 157.648438 182.617188 157.335938 183.09375 157.191406 183.761719 L 158.148438 183.824219 C 158.253906 183.429688 158.441406 183.136719 158.773438 182.929688 C 159.066406 182.742188 159.441406 182.65625 159.878906 182.65625 C 160.960938 182.65625 161.503906 183.179688 161.503906 184.21875 L 161.503906 184.554688 L 160.023438 184.574219 C 159.085938 184.574219 158.359375 184.761719 157.859375 185.09375 C 157.273438 185.449219 157.003906 185.992188 157.003906 186.699219 C 157.003906 187.199219 157.191406 187.617188 157.585938 187.949219 C 157.960938 188.261719 158.441406 188.40625 159.066406 188.40625 C 159.648438 188.40625 160.171875 188.28125 160.628906 188.03125 C 161.003906 187.804688 161.335938 187.53125 161.566406 187.199219 L 161.566406 188.242188 L 162.460938 188.242188 L 162.460938 184.261719 C 162.460938 183.53125 162.273438 182.96875 161.921875 182.574219 C 161.484375 182.09375 160.835938 181.867188 159.941406 181.867188 Z M 161.503906 185.261719 L 161.503906 185.78125 C 161.503906 186.28125 161.273438 186.699219 160.835938 187.074219 C 160.378906 187.46875 159.859375 187.65625 159.273438 187.65625 C 158.898438 187.65625 158.585938 187.554688 158.335938 187.386719 C 158.109375 187.179688 157.984375 186.949219 157.984375 186.679688 C 157.984375 185.761719 158.691406 185.304688 160.085938 185.28125 Z M 161.503906 185.261719 "/>
<path style=" stroke:none;fill-rule:nonzero;fill:rgb(0%,0%,0%);fill-opacity:1;" d="M 227.875 181.867188 C 226.960938 181.867188 226.230469 182.199219 225.6875 182.84375 C 225.210938 183.449219 224.960938 184.21875 224.960938 185.179688 C 224.960938 186.117188 225.210938 186.886719 225.6875 187.46875 C 226.210938 188.09375 226.9375 188.40625 227.875 188.40625 C 228.625 188.40625 229.25 188.199219 229.710938 187.804688 C 230.1875 187.40625 230.5 186.78125 230.648438 185.992188 L 229.6875 185.992188 C 229.542969 187.074219 228.917969 187.59375 227.875 187.59375 C 227.25 187.59375 226.773438 187.386719 226.4375 186.949219 C 226.105469 186.511719 225.9375 185.90625 225.9375 185.15625 C 225.9375 184.40625 226.105469 183.804688 226.460938 183.367188 C 226.792969 182.90625 227.273438 182.679688 227.875 182.679688 C 228.375 182.679688 228.773438 182.78125 229.085938 183.011719 C 229.375 183.261719 229.5625 183.617188 229.648438 184.09375 L 230.605469 184.09375 C 230.5 183.34375 230.210938 182.78125 229.730469 182.40625 C 229.25 182.054688 228.648438 181.867188 227.875 181.867188 Z M 227.875 181.867188 "/>
<path style=" stroke:none;fill-rule:nonzero;fill:rgb(0%,0%,0%);fill-opacity:1;" d="M 92.457031 44.292969 C 91.726562 44.292969 91.125 44.4375 90.664062 44.730469 C 90.164062 45.042969 89.851562 45.519531 89.707031 46.1875 L 90.664062 46.25 C 90.769531 45.855469 90.957031 45.5625 91.289062 45.355469 C 91.582031 45.167969 91.957031 45.082031 92.394531 45.082031 C 93.476562 45.082031 94.019531 45.605469 94.019531 46.644531 L 94.019531 46.980469 L 92.539062 47 C 91.601562 47 90.875 47.1875 90.375 47.519531 C 89.789062 47.875 89.519531 48.417969 89.519531 49.125 C 89.519531 49.625 89.707031 50.042969 90.101562 50.375 C 90.476562 50.6875 90.957031 50.832031 91.582031 50.832031 C 92.164062 50.832031 92.6875 50.707031 93.144531 50.457031 C 93.519531 50.230469 93.851562 49.957031 94.082031 49.625 L 94.082031 50.667969 L 94.976562 50.667969 L 94.976562 46.6875 C 94.976562 45.957031 94.789062 45.394531 94.4375 45 C 94 44.519531 93.351562 44.292969 92.457031 44.292969 Z M 94.019531 47.6875 L 94.019531 48.207031 C 94.019531 48.707031 93.789062 49.125 93.351562 49.5 C 92.894531 49.894531 92.375 50.082031 91.789062 50.082031 C 91.414062 50.082031 91.101562 49.980469 90.851562 49.8125 C 90.625 49.605469 90.5 49.375 90.5 49.105469 C 90.5 48.1875 91.207031 47.730469 92.601562 47.707031 Z M 94.019531 47.6875 "/>
<path style=" stroke:none;fill-rule:nonzero;fill:rgb(0%,0%,0%);fill-opacity:1;" d="M 159.992188 44.292969 C 159.078125 44.292969 158.347656 44.625 157.804688 45.269531 C 157.328125 45.875 157.078125 46.644531 157.078125 47.605469 C 157.078125 48.542969 157.328125 49.3125 157.804688 49.894531 C 158.328125 50.519531 159.054688 50.832031 159.992188 50.832031 C 160.742188 50.832031 161.367188 50.625 161.828125 50.230469 C 162.304688 49.832031 162.617188 49.207031 162.765625 48.417969 L 161.804688 48.417969 C 161.660156 49.5 161.035156 50.019531 159.992188 50.019531 C 159.367188 50.019531 158.890625 49.8125 158.554688 49.375 C 158.222656 48.9375 158.054688 48.332031 158.054688 47.582031 C 158.054688 46.832031 158.222656 46.230469 158.578125 45.792969 C 158.910156 45.332031 159.390625 45.105469 159.992188 45.105469 C 160.492188 45.105469 160.890625 45.207031 161.203125 45.4375 C 161.492188 45.6875 161.679688 46.042969 161.765625 46.519531 L 162.722656 46.519531 C 162.617188 45.769531 162.328125 45.207031 161.847656 44.832031 C 161.367188 44.480469 160.765625 44.292969 159.992188 44.292969 Z M 159.992188 44.292969 "/>
<path style=" stroke:none;fill-rule:nonzero;fill:rgb(0%,0%,0%);fill-opacity:1;" d="M 225.15625 41.9375 L 225.15625 50.667969 L 226.113281 50.667969 L 226.113281 47.125 C 226.113281 46.542969 226.257812 46.0625 226.59375 45.667969 C 226.90625 45.292969 227.300781 45.105469 227.78125 45.105469 C 228.300781 45.105469 228.695312 45.25 228.96875 45.5625 C 229.238281 45.875 229.382812 46.3125 229.382812 46.894531 L 229.382812 50.667969 L 230.34375 50.667969 L 230.34375 46.75 C 230.34375 45.957031 230.15625 45.355469 229.757812 44.9375 C 229.382812 44.5 228.820312 44.292969 228.09375 44.292969 C 227.675781 44.292969 227.300781 44.394531 226.96875 44.582031 C 226.613281 44.792969 226.320312 45.082031 226.113281 45.480469 L 226.113281 41.9375 Z M 225.15625 41.9375 "/>
<path style=" stroke:none;fill-rule:nonzero;fill:rgb(69.803923%,85.09804%,100%);fill-opacity:1;" d="M 75.042969 146.800781 L 109.707031 146.800781 L 109.707031 120.136719 L 75.042969 120.136719 Z M 75.042969 146.800781 "/>
<path style="fill:none;stroke-width:1;stroke-linecap:round;stroke-linejoin:round;stroke:rgb(0%,0%,0%);stroke-opacity:1;stroke-miterlimit:10;" d="M 72.282227 111.102539 L 98.280273 111.102539 L 98.280273 131.100586 L 72.282227 131.100586 Z M 72.282227 111.102539 " transform="matrix(1.333333,0,0,1.333333,-21.333333,-28)"/>
<path style=" stroke:none;fill-rule:nonzero;fill:rgb(0%,0%,0%);fill-opacity:1;" d="M 94.808594 135.46875 L 94.808594 135.175781 C 93.957031 135.050781 93.746094 134.925781 93.746094 134.300781 L 93.746094 128.550781 C 93.746094 127.90625 93.996094 127.71875 94.808594 127.65625 L 94.808594 127.363281 L 90.746094 127.363281 L 90.746094 127.65625 C 91.582031 127.71875 91.808594 127.863281 91.808594 128.550781 L 91.808594 130.988281 L 88.914062 130.988281 L 88.914062 128.550781 C 88.914062 127.863281 89.144531 127.71875 89.996094 127.65625 L 89.996094 127.363281 L 85.957031 127.363281 L 85.957031 127.65625 C 86.769531 127.71875 86.976562 127.882812 86.976562 128.550781 L 86.976562 134.300781 C 86.976562 134.925781 86.789062 135.050781 85.957031 135.175781 L 85.957031 135.46875 L 89.996094 135.46875 L 89.996094 135.175781 C 89.121094 135.070312 88.914062 134.925781 88.914062 134.300781 L 88.914062 131.550781 L 91.808594 131.550781 L 91.808594 134.300781 C 91.808594 134.90625 91.621094 135.070312 90.746094 135.175781 L 90.746094 135.46875 Z M 94.808594 135.46875 "/>
<path style=" stroke:none;fill-rule:nonzero;fill:rgb(0%,0%,0%);fill-opacity:1;" d="M 98.1875 139.46875 L 98.1875 139.34375 C 97.582031 139.34375 97.4375 139.195312 97.4375 138.863281 L 97.4375 134.09375 L 97.355469 134.050781 L 95.9375 134.78125 L 95.9375 134.90625 L 96.144531 134.820312 C 96.292969 134.757812 96.417969 134.71875 96.5 134.71875 C 96.667969 134.71875 96.75 134.84375 96.75 135.113281 L 96.75 138.71875 C 96.75 139.15625 96.582031 139.320312 95.980469 139.34375 L 95.980469 139.46875 Z M 98.1875 139.46875 "/>
<path style=" stroke:none;fill-rule:nonzero;fill:rgb(69.803923%,85.09804%,100%);fill-opacity:1;" d="M 142.527344 146.800781 L 177.191406 146.800781 L 177.191406 120.136719 L 142.527344 120.136719 Z M 142.527344 146.800781 "/>
<path style="fill:none;stroke-width:1;stroke-linecap:round;stroke-linejoin:round;stroke:rgb(0%,0%,0%);stroke-opacity:1;stroke-miterlimit:10;" d="M 122.895508 111.102539 L 148.893555 111.102539 L 148.893555 131.100586 L 122.895508 131.100586 Z M 122.895508 111.102539 " transform="matrix(1.333333,0,0,1.333333,-21.333333,-28)"/>
<path style=" stroke:none;fill-rule:nonzero;fill:rgb(0%,0%,0%);fill-opacity:1;" d="M 162.292969 135.46875 L 162.292969 135.175781 C 161.441406 135.050781 161.230469 134.925781 161.230469 134.300781 L 161.230469 128.550781 C 161.230469 127.90625 161.480469 127.71875 162.292969 127.65625 L 162.292969 127.363281 L 158.230469 127.363281 L 158.230469 127.65625 C 159.066406 127.71875 159.292969 127.863281 159.292969 128.550781 L 159.292969 130.988281 L 156.398438 130.988281 L 156.398438 128.550781 C 156.398438 127.863281 156.628906 127.71875 157.480469 127.65625 L 157.480469 127.363281 L 153.441406 127.363281 L 153.441406 127.65625 C 154.253906 127.71875 154.460938 127.882812 154.460938 128.550781 L 154.460938 134.300781 C 154.460938 134.925781 154.273438 135.050781 153.441406 135.175781 L 153.441406 135.46875 L 157.480469 135.46875 L 157.480469 135.175781 C 156.605469 135.070312 156.398438 134.925781 156.398438 134.300781 L 156.398438 131.550781 L 159.292969 131.550781 L 159.292969 134.300781 C 159.292969 134.90625 159.105469 135.070312 158.230469 135.175781 L 158.230469 135.46875 Z M 162.292969 135.46875 "/>
<path style=" stroke:none;fill-rule:nonzero;fill:rgb(0%,0%,0%);fill-opacity:1;" d="M 166.316406 138.363281 L 166.214844 138.320312 C 165.941406 138.78125 165.777344 138.863281 165.441406 138.863281 L 163.566406 138.863281 L 164.878906 137.445312 C 165.589844 136.695312 165.902344 136.09375 165.902344 135.46875 C 165.902344 134.675781 165.339844 134.050781 164.421875 134.050781 C 163.441406 134.050781 162.941406 134.71875 162.777344 135.65625 L 162.941406 135.695312 C 163.253906 134.90625 163.527344 134.65625 164.109375 134.65625 C 164.796875 134.65625 165.214844 135.050781 165.214844 135.78125 C 165.214844 136.46875 164.941406 137.070312 164.171875 137.863281 L 162.753906 139.363281 L 162.753906 139.46875 L 165.878906 139.46875 Z M 166.316406 138.363281 "/>
<path style=" stroke:none;fill-rule:nonzero;fill:rgb(69.803923%,85.09804%,100%);fill-opacity:1;" d="M 210.40625 146.800781 L 245.074219 146.800781 L 245.074219 120.136719 L 210.40625 120.136719 Z M 210.40625 146.800781 "/>
<path style="fill:none;stroke-width:1;stroke-linecap:round;stroke-linejoin:round;stroke:rgb(0%,0%,0%);stroke-opacity:1;stroke-miterlimit:10;" d="M 173.804688 111.102539 L 199.805664 111.102539 L 199.805664 131.100586 L 173.804688 131.100586 Z M 173.804688 111.102539 " transform="matrix(1.333333,0,0,1.333333,-21.333333,-28)"/>
<path style=" stroke:none;fill-rule:nonzero;fill:rgb(0%,0%,0%);fill-opacity:1;" d="M 230.179688 135.46875 L 230.179688 135.175781 C 229.324219 135.050781 229.117188 134.925781 229.117188 134.300781 L 229.117188 128.550781 C 229.117188 127.90625 229.367188 127.71875 230.179688 127.65625 L 230.179688 127.363281 L 226.117188 127.363281 L 226.117188 127.65625 C 226.949219 127.71875 227.179688 127.863281 227.179688 128.550781 L 227.179688 130.988281 L 224.28125 130.988281 L 224.28125 128.550781 C 224.28125 127.863281 224.511719 127.71875 225.367188 127.65625 L 225.367188 127.363281 L 221.324219 127.363281 L 221.324219 127.65625 C 222.136719 127.71875 222.34375 127.882812 222.34375 128.550781 L 222.34375 134.300781 C 222.34375 134.925781 222.15625 135.050781 221.324219 135.175781 L 221.324219 135.46875 L 225.367188 135.46875 L 225.367188 135.175781 C 224.492188 135.070312 224.28125 134.925781 224.28125 134.300781 L 224.28125 131.550781 L 227.179688 131.550781 L 227.179688 134.300781 C 227.179688 134.90625 226.992188 135.070312 226.117188 135.175781 L 226.117188 135.46875 Z M 230.179688 135.46875 "/>
<path style=" stroke:none;fill-rule:nonzero;fill:rgb(0%,0%,0%);fill-opacity:1;" d="M 230.890625 135.382812 C 231.222656 134.800781 231.597656 134.53125 232.097656 134.53125 C 232.617188 134.53125 232.953125 134.820312 232.953125 135.363281 C 232.953125 135.84375 232.703125 136.195312 232.304688 136.425781 C 232.140625 136.53125 231.929688 136.613281 231.640625 136.71875 L 231.640625 136.820312 C 232.097656 136.820312 232.265625 136.84375 232.453125 136.90625 C 232.992188 137.070312 233.285156 137.46875 233.285156 138.070312 C 233.285156 138.738281 232.828125 139.300781 232.242188 139.300781 C 232.015625 139.300781 231.847656 139.257812 231.554688 139.050781 C 231.328125 138.882812 231.203125 138.84375 231.054688 138.84375 C 230.890625 138.84375 230.742188 138.945312 230.742188 139.113281 C 230.742188 139.40625 231.054688 139.570312 231.640625 139.570312 C 232.347656 139.570312 233.097656 139.34375 233.492188 138.84375 C 233.722656 138.53125 233.867188 138.132812 233.867188 137.71875 C 233.867188 137.300781 233.722656 136.925781 233.515625 136.675781 C 233.347656 136.507812 233.203125 136.40625 232.847656 136.257812 C 233.367188 135.945312 233.578125 135.53125 233.578125 135.15625 C 233.578125 134.507812 233.078125 134.050781 232.347656 134.050781 C 231.515625 134.050781 230.992188 134.59375 230.765625 135.363281 Z M 230.890625 135.382812 "/>
<path style=" stroke:none;fill-rule:nonzero;fill:rgb(40.000001%,74.901962%,100%);fill-opacity:1;" d="M 75.042969 97.332031 L 109.707031 97.332031 L 109.707031 70.667969 L 75.042969 70.667969 Z M 75.042969 97.332031 "/>
<path style="fill:none;stroke-width:1;stroke-linecap:round;stroke-linejoin:round;stroke:rgb(0%,0%,0%);stroke-opacity:1;stroke-miterlimit:10;" d="M 72.282227 74.000977 L 98.280273 74.000977 L 98.280273 93.999023 L 72.282227 93.999023 Z M 72.282227 74.000977 " transform="matrix(1.333333,0,0,1.333333,-21.333333,-28)"/>
<path style=" stroke:none;fill-rule:nonzero;fill:rgb(0%,0%,0%);fill-opacity:1;" d="M 94.621094 81.980469 C 94.621094 79.5 92.851562 77.707031 90.433594 77.707031 C 87.933594 77.707031 86.121094 79.4375 86.121094 82 C 86.121094 84.480469 87.871094 86.230469 90.351562 86.230469 C 92.851562 86.230469 94.621094 84.480469 94.621094 81.980469 Z M 92.496094 82.0625 C 92.496094 84.542969 91.769531 85.832031 90.394531 85.832031 C 89.019531 85.832031 88.246094 84.5625 88.246094 82.042969 C 88.246094 79.519531 88.996094 78.105469 90.332031 78.105469 C 91.726562 78.105469 92.496094 79.5 92.496094 82.0625 Z M 92.496094 82.0625 "/>
<path style=" stroke:none;fill-rule:nonzero;fill:rgb(0%,0%,0%);fill-opacity:1;" d="M 98.1875 90 L 98.1875 89.875 C 97.582031 89.875 97.4375 89.730469 97.4375 89.394531 L 97.4375 84.625 L 97.355469 84.582031 L 95.9375 85.3125 L 95.9375 85.4375 L 96.144531 85.355469 C 96.292969 85.292969 96.417969 85.25 96.5 85.25 C 96.667969 85.25 96.75 85.375 96.75 85.644531 L 96.75 89.25 C 96.75 89.6875 96.582031 89.855469 95.980469 89.875 L 95.980469 90 Z M 98.1875 90 "/>
<path style=" stroke:none;fill-rule:nonzero;fill:rgb(40.000001%,74.901962%,100%);fill-opacity:1;" d="M 142.527344 97.332031 L 177.191406 97.332031 L 177.191406 70.667969 L 142.527344 70.667969 Z M 142.527344 97.332031 "/>
<path style="fill:none;stroke-width:1;stroke-linecap:round;stroke-linejoin:round;stroke:rgb(0%,0%,0%);stroke-opacity:1;stroke-miterlimit:10;" d="M 122.895508 74.000977 L 148.893555 74.000977 L 148.893555 93.999023 L 122.895508 93.999023 Z M 122.895508 74.000977 " transform="matrix(1.333333,0,0,1.333333,-21.333333,-28)"/>
<path style=" stroke:none;fill-rule:nonzero;fill:rgb(0%,0%,0%);fill-opacity:1;" d="M 162.105469 81.980469 C 162.105469 79.5 160.335938 77.707031 157.917969 77.707031 C 155.417969 77.707031 153.605469 79.4375 153.605469 82 C 153.605469 84.480469 155.355469 86.230469 157.835938 86.230469 C 160.335938 86.230469 162.105469 84.480469 162.105469 81.980469 Z M 159.980469 82.0625 C 159.980469 84.542969 159.253906 85.832031 157.878906 85.832031 C 156.503906 85.832031 155.730469 84.5625 155.730469 82.042969 C 155.730469 79.519531 156.480469 78.105469 157.816406 78.105469 C 159.210938 78.105469 159.980469 79.5 159.980469 82.0625 Z M 159.980469 82.0625 "/>
<path style=" stroke:none;fill-rule:nonzero;fill:rgb(0%,0%,0%);fill-opacity:1;" d="M 166.316406 88.894531 L 166.214844 88.855469 C 165.941406 89.3125 165.777344 89.394531 165.441406 89.394531 L 163.566406 89.394531 L 164.878906 87.980469 C 165.589844 87.230469 165.902344 86.625 165.902344 86 C 165.902344 85.207031 165.339844 84.582031 164.421875 84.582031 C 163.441406 84.582031 162.941406 85.25 162.777344 86.1875 L 162.941406 86.230469 C 163.253906 85.4375 163.527344 85.1875 164.109375 85.1875 C 164.796875 85.1875 165.214844 85.582031 165.214844 86.3125 C 165.214844 87 164.941406 87.605469 164.171875 88.394531 L 162.753906 89.894531 L 162.753906 90 L 165.878906 90 Z M 166.316406 88.894531 "/>
<path style=" stroke:none;fill-rule:nonzero;fill:rgb(40.000001%,74.901962%,100%);fill-opacity:1;" d="M 210.40625 97.332031 L 245.074219 97.332031 L 245.074219 70.667969 L 210.40625 70.667969 Z M 210.40625 97.332031 "/>
<path style="fill:none;stroke-width:1;stroke-linecap:round;stroke-linejoin:round;stroke:rgb(0%,0%,0%);stroke-opacity:1;stroke-miterlimit:10;" d="M 173.804688 74.000977 L 199.805664 74.000977 L 199.805664 93.999023 L 173.804688 93.999023 Z M 173.804688 74.000977 " transform="matrix(1.333333,0,0,1.333333,-21.333333,-28)"/>
<path style=" stroke:none;fill-rule:nonzero;fill:rgb(0%,0%,0%);fill-opacity:1;" d="M 229.992188 81.980469 C 229.992188 79.5 228.21875 77.707031 225.804688 77.707031 C 223.304688 77.707031 221.492188 79.4375 221.492188 82 C 221.492188 84.480469 223.242188 86.230469 225.71875 86.230469 C 228.21875 86.230469 229.992188 84.480469 229.992188 81.980469 Z M 227.867188 82.0625 C 227.867188 84.542969 227.136719 85.832031 225.761719 85.832031 C 224.386719 85.832031 223.617188 84.5625 223.617188 82.042969 C 223.617188 79.519531 224.367188 78.105469 225.699219 78.105469 C 227.09375 78.105469 227.867188 79.5 227.867188 82.0625 Z M 227.867188 82.0625 "/>
<path style=" stroke:none;fill-rule:nonzero;fill:rgb(0%,0%,0%);fill-opacity:1;" d="M 230.890625 85.917969 C 231.222656 85.332031 231.597656 85.0625 232.097656 85.0625 C 232.617188 85.0625 232.953125 85.355469 232.953125 85.894531 C 232.953125 86.375 232.703125 86.730469 232.304688 86.957031 C 232.140625 87.0625 231.929688 87.144531 231.640625 87.25 L 231.640625 87.355469 C 232.097656 87.355469 232.265625 87.375 232.453125 87.4375 C 232.992188 87.605469 233.285156 88 233.285156 88.605469 C 233.285156 89.269531 232.828125 89.832031 232.242188 89.832031 C 232.015625 89.832031 231.847656 89.792969 231.554688 89.582031 C 231.328125 89.417969 231.203125 89.375 231.054688 89.375 C 230.890625 89.375 230.742188 89.480469 230.742188 89.644531 C 230.742188 89.9375 231.054688 90.105469 231.640625 90.105469 C 232.347656 90.105469 233.097656 89.875 233.492188 89.375 C 233.722656 89.0625 233.867188 88.667969 233.867188 88.25 C 233.867188 87.832031 233.722656 87.457031 233.515625 87.207031 C 233.347656 87.042969 233.203125 86.9375 232.847656 86.792969 C 233.367188 86.480469 233.578125 86.0625 233.578125 85.6875 C 233.578125 85.042969 233.078125 84.582031 232.347656 84.582031 C 231.515625 84.582031 230.992188 85.125 230.765625 85.894531 Z M 230.890625 85.917969 "/>
<path style="fill:none;stroke-width:1;stroke-linecap:round;stroke-linejoin:round;stroke:rgb(0%,0%,0%);stroke-opacity:1;stroke-miterlimit:10;" d="M 98.280273 121.101562 L 116.992188 121.101562 " transform="matrix(1.333333,0,0,1.333333,-21.333333,-28)"/>
<path style="fill:none;stroke-width:1;stroke-linecap:butt;stroke-linejoin:miter;stroke:rgb(0%,0%,0%);stroke-opacity:1;stroke-miterlimit:10;" d="M 120.991211 121.101562 L 116.992188 121.101562 M 116.992188 119.601562 L 120.991211 121.101562 L 116.992188 122.601562 " transform="matrix(1.333333,0,0,1.333333,-21.333333,-28)"/>
<path style="fill:none;stroke-width:1;stroke-linecap:round;stroke-linejoin:round;stroke:rgb(0%,0%,0%);stroke-opacity:1;stroke-miterlimit:10;" d="M 148.893555 121.101562 L 167.907227 121.101562 " transform="matrix(1.333333,0,0,1.333333,-21.333333,-28)"/>
<path style="fill:none;stroke-width:1;stroke-linecap:butt;stroke-linejoin:miter;stroke:rgb(0%,0%,0%);stroke-opacity:1;stroke-miterlimit:10;" d="M 171.90625 121.101562 L 167.907227 121.101562 M 167.907227 119.601562 L 171.90625 121.101562 L 167.907227 122.601562 " transform="matrix(1.333333,0,0,1.333333,-21.333333,-28)"/>
<path style="fill:none;stroke-width:1;stroke-linecap:round;stroke-linejoin:round;stroke:rgb(0%,0%,0%);stroke-opacity:1;stroke-miterlimit:10;" d="M 85.28125 111.102539 L 85.28125 99.899414 " transform="matrix(1.333333,0,0,1.333333,-21.333333,-28)"/>
<path style="fill:none;stroke-width:1;stroke-linecap:butt;stroke-linejoin:miter;stroke:rgb(0%,0%,0%);stroke-opacity:1;stroke-miterlimit:10;" d="M 85.28125 95.897461 L 85.28125 99.899414 M 83.78125 99.899414 L 85.28125 95.897461 L 86.78125 99.899414 " transform="matrix(1.333333,0,0,1.333333,-21.333333,-28)"/>
<path style="fill:none;stroke-width:1;stroke-linecap:round;stroke-linejoin:round;stroke:rgb(0%,0%,0%);stroke-opacity:1;stroke-miterlimit:10;" d="M 135.894531 111.102539 L 135.894531 99.899414 " transform="matrix(1.333333,0,0,1.333333,-21.333333,-28)"/>
<path style="fill:none;stroke-width:1;stroke-linecap:butt;stroke-linejoin:miter;stroke:rgb(0%,0%,0%);stroke-opacity:1;stroke-miterlimit:10;" d="M 135.894531 95.897461 L 135.894531 99.899414 M 134.394531 99.899414 L 135.894531 95.897461 L 137.394531 99.899414 " transform="matrix(1.333333,0,0,1.333333,-21.333333,-28)"/>
<path style="fill:none;stroke-width:1;stroke-linecap:round;stroke-linejoin:round;stroke:rgb(0%,0%,0%);stroke-opacity:1;stroke-miterlimit:10;" d="M 186.803711 111.102539 L 186.803711 99.899414 " transform="matrix(1.333333,0,0,1.333333,-21.333333,-28)"/>
<path style="fill:none;stroke-width:1;stroke-linecap:butt;stroke-linejoin:miter;stroke:rgb(0%,0%,0%);stroke-opacity:1;stroke-miterlimit:10;" d="M 186.803711 95.897461 L 186.803711 99.899414 M 185.303711 99.899414 L 186.803711 95.897461 L 188.303711 99.899414 " transform="matrix(1.333333,0,0,1.333333,-21.333333,-28)"/>
<path style="fill:none;stroke-width:1;stroke-linecap:round;stroke-linejoin:round;stroke:rgb(0%,0%,0%);stroke-opacity:1;stroke-miterlimit:10;" d="M 85.28125 147.178711 L 85.28125 137.000977 " transform="matrix(1.333333,0,0,1.333333,-21.333333,-28)"/>
<path style="fill:none;stroke-width:1;stroke-linecap:butt;stroke-linejoin:miter;stroke:rgb(0%,0%,0%);stroke-opacity:1;stroke-miterlimit:10;" d="M 85.28125 132.999023 L 85.28125 137.000977 M 83.78125 137.000977 L 85.28125 132.999023 L 86.78125 137.000977 " transform="matrix(1.333333,0,0,1.333333,-21.333333,-28)"/>
<path style="fill:none;stroke-width:1;stroke-linecap:round;stroke-linejoin:round;stroke:rgb(0%,0%,0%);stroke-opacity:1;stroke-miterlimit:10;" d="M 135.894531 147.178711 L 135.894531 137.000977 " transform="matrix(1.333333,0,0,1.333333,-21.333333,-28)"/>
<path style="fill:none;stroke-width:1;stroke-linecap:butt;stroke-linejoin:miter;stroke:rgb(0%,0%,0%);stroke-opacity:1;stroke-miterlimit:10;" d="M 135.894531 132.999023 L 135.894531 137.000977 M 134.394531 137.000977 L 135.894531 132.999023 L 137.394531 137.000977 " transform="matrix(1.333333,0,0,1.333333,-21.333333,-28)"/>
<path style="fill:none;stroke-width:1;stroke-linecap:round;stroke-linejoin:round;stroke:rgb(0%,0%,0%);stroke-opacity:1;stroke-miterlimit:10;" d="M 186.803711 147.178711 L 186.803711 137.000977 " transform="matrix(1.333333,0,0,1.333333,-21.333333,-28)"/>
<path style="fill:none;stroke-width:1;stroke-linecap:butt;stroke-linejoin:miter;stroke:rgb(0%,0%,0%);stroke-opacity:1;stroke-miterlimit:10;" d="M 186.803711 132.999023 L 186.803711 137.000977 M 185.303711 137.000977 L 186.803711 132.999023 L 188.303711 137.000977 " transform="matrix(1.333333,0,0,1.333333,-21.333333,-28)"/>
<path style=" stroke:none;fill-rule:nonzero;fill:rgb(0%,0%,0%);fill-opacity:1;" d="M 17.292969 135.40625 L 17.292969 131.320312 L 15.394531 131.320312 C 15.769531 130.90625 16.125 130.382812 16.5 129.800781 L 16.5 129.15625 L 13.707031 129.15625 C 13.832031 128.925781 13.957031 128.65625 14.042969 128.382812 L 13.1875 128.28125 C 12.769531 129.382812 11.980469 130.300781 10.8125 131.070312 L 11.3125 131.738281 C 11.457031 131.632812 11.605469 131.53125 11.769531 131.40625 L 11.769531 132.09375 L 16.457031 132.09375 L 16.457031 133.007812 L 11.605469 133.007812 L 11.605469 133.757812 L 16.457031 133.757812 L 16.457031 134.65625 L 11.332031 134.65625 L 11.332031 135.40625 Z M 13.25 129.90625 L 15.542969 129.90625 C 15.1875 130.445312 14.832031 130.925781 14.480469 131.320312 L 11.875 131.320312 C 12.394531 130.90625 12.855469 130.445312 13.25 129.90625 Z M 7.667969 128.820312 L 7.667969 139.34375 L 8.519531 139.34375 L 8.519531 129.632812 L 10.25 129.632812 C 9.957031 130.65625 9.5625 131.78125 9.0625 133.03125 C 9.707031 134.050781 10.019531 134.988281 10.019531 135.800781 C 10.019531 136.050781 9.957031 136.238281 9.875 136.34375 C 9.769531 136.445312 9.5625 136.507812 9.269531 136.53125 C 9.144531 136.53125 8.980469 136.507812 8.8125 136.488281 L 9.082031 137.363281 C 9.769531 137.363281 10.269531 137.21875 10.5625 136.925781 C 10.75 136.695312 10.855469 136.320312 10.855469 135.800781 C 10.8125 134.945312 10.5 133.96875 9.917969 132.90625 C 10.375 131.71875 10.769531 130.59375 11.105469 129.507812 L 11.105469 128.820312 Z M 17.125 135.90625 L 16.375 136.15625 C 16.792969 136.882812 17.1875 137.71875 17.542969 138.65625 L 18.25 138.320312 C 17.917969 137.46875 17.542969 136.675781 17.125 135.90625 Z M 11.4375 136.132812 C 11.25 136.988281 10.957031 137.78125 10.5625 138.488281 L 11.269531 138.945312 C 11.667969 138.195312 11.980469 137.320312 12.207031 136.300781 Z M 15.417969 139.238281 C 15.769531 139.238281 16.042969 139.15625 16.207031 139.007812 C 16.417969 138.820312 16.5625 138.320312 16.625 137.507812 L 15.875 137.257812 C 15.832031 137.84375 15.769531 138.195312 15.6875 138.320312 C 15.605469 138.40625 15.457031 138.46875 15.269531 138.46875 L 13.980469 138.46875 C 13.6875 138.46875 13.542969 138.28125 13.542969 137.945312 L 13.542969 135.988281 L 12.730469 135.988281 L 12.730469 138.132812 C 12.730469 138.863281 13.0625 139.238281 13.730469 139.238281 Z M 14.625 135.71875 L 14.019531 136.113281 C 14.457031 136.632812 14.8125 137.09375 15.0625 137.53125 L 15.707031 137.070312 C 15.457031 136.695312 15.082031 136.238281 14.625 135.71875 Z M 14.625 135.71875 "/>
<path style=" stroke:none;fill-rule:nonzero;fill:rgb(0%,0%,0%);fill-opacity:1;" d="M 19.4375 129.09375 L 19.4375 129.863281 L 22.25 129.863281 L 22.25 130.675781 L 23.125 130.675781 L 23.125 129.863281 L 26.207031 129.863281 L 26.207031 130.695312 L 26.957031 130.695312 L 26.957031 131.175781 L 21.542969 131.175781 L 21.542969 132.800781 L 20.457031 132.800781 L 20.457031 130.78125 L 19.707031 130.78125 L 19.707031 133.507812 L 21.542969 133.507812 L 21.542969 134.71875 L 19.207031 134.71875 L 19.207031 135.445312 L 19.894531 135.445312 C 19.855469 136.84375 19.582031 137.800781 19.105469 138.34375 L 19.707031 138.800781 C 20.230469 138.175781 20.542969 137.050781 20.582031 135.445312 L 21.542969 135.445312 L 21.542969 135.570312 C 21.519531 136.945312 21.3125 138.007812 20.875 138.78125 L 21.5 139.34375 C 22.019531 138.382812 22.3125 137.132812 22.332031 135.570312 L 22.332031 131.925781 L 26.980469 131.925781 C 27.019531 133.488281 27.144531 134.757812 27.332031 135.738281 C 27.394531 136.132812 27.5 136.507812 27.605469 136.863281 C 27.269531 137.425781 26.875 137.882812 26.417969 138.28125 L 26.417969 137.78125 L 25.355469 137.78125 L 25.355469 136.65625 L 26.417969 136.65625 L 26.417969 134.363281 L 25.355469 134.363281 L 25.355469 133.320312 L 26.417969 133.320312 L 26.417969 132.632812 L 23 132.632812 L 23 138.488281 L 26.144531 138.488281 L 25.9375 138.613281 L 26.355469 139.257812 C 26.9375 138.90625 27.480469 138.40625 27.9375 137.78125 C 28.019531 138.03125 28.125 138.238281 28.25 138.425781 C 28.605469 138.988281 28.957031 139.300781 29.269531 139.300781 C 29.644531 139.300781 29.9375 138.550781 30.144531 137.070312 L 29.519531 136.71875 C 29.417969 137.800781 29.269531 138.34375 29.125 138.34375 C 29 138.34375 28.8125 138.113281 28.605469 137.65625 C 28.519531 137.488281 28.4375 137.28125 28.375 137.050781 C 28.9375 135.96875 29.3125 134.59375 29.5 132.882812 L 28.769531 132.71875 C 28.644531 133.90625 28.417969 134.945312 28.082031 135.820312 C 28.0625 135.71875 28.042969 135.570312 28.019531 135.425781 C 27.875 134.613281 27.769531 133.445312 27.730469 131.925781 L 29.980469 131.925781 L 29.980469 131.175781 L 29.375 131.175781 C 29.269531 130.800781 29.125 130.46875 29.019531 130.175781 L 28.269531 130.28125 C 28.417969 130.570312 28.5625 130.863281 28.667969 131.175781 L 27.707031 131.175781 L 27.707031 130.507812 L 27.105469 130.507812 L 27.105469 129.863281 L 29.894531 129.863281 L 29.894531 129.09375 L 27.105469 129.09375 L 27.105469 128.34375 L 26.207031 128.34375 L 26.207031 129.09375 L 23.125 129.09375 L 23.125 128.320312 L 22.25 128.320312 L 22.25 129.09375 Z M 24.6875 133.320312 L 24.6875 134.363281 L 23.707031 134.363281 L 23.707031 133.320312 Z M 23.707031 135.007812 L 25.730469 135.007812 L 25.730469 135.988281 L 23.707031 135.988281 Z M 23.707031 136.65625 L 24.6875 136.65625 L 24.6875 137.78125 L 23.707031 137.78125 Z M 23.707031 136.65625 "/>
<path style=" stroke:none;fill-rule:nonzero;fill:rgb(0%,0%,0%);fill-opacity:1;" d="M 34.5625 132.925781 L 34.5625 133.695312 L 41.0625 133.695312 L 41.0625 132.925781 Z M 33.707031 134.882812 L 33.707031 135.675781 L 36.332031 135.675781 C 35.5 137.03125 34.792969 137.863281 34.269531 138.175781 C 34.207031 138.195312 34.167969 138.238281 34.082031 138.257812 L 34.269531 138.988281 C 36.542969 138.84375 38.625 138.632812 40.519531 138.382812 C 40.769531 138.675781 40.980469 138.988281 41.1875 139.300781 L 41.875 138.820312 C 41.355469 138.050781 40.582031 137.132812 39.605469 136.09375 L 38.957031 136.488281 C 39.3125 136.90625 39.667969 137.300781 40 137.695312 C 38.457031 137.925781 36.894531 138.09375 35.3125 138.195312 C 35.875 137.695312 36.519531 136.84375 37.25 135.675781 L 41.855469 135.675781 L 41.855469 134.882812 Z M 40.394531 129.613281 L 40.394531 131.007812 L 33.332031 131.007812 L 33.332031 129.613281 Z M 33.332031 131.78125 L 41.230469 131.78125 L 41.230469 128.800781 L 32.5 128.800781 L 32.5 132.78125 C 32.480469 135.195312 32.0625 137.15625 31.230469 138.675781 L 31.855469 139.257812 C 32.832031 137.445312 33.332031 135.28125 33.332031 132.78125 Z M 33.332031 131.78125 "/>
<path style=" stroke:none;fill-rule:nonzero;fill:rgb(0%,0%,0%);fill-opacity:1;" d="M 9.417969 80.207031 L 9.417969 81.980469 L 8.230469 81.980469 C 8.519531 81.207031 8.8125 80.332031 9.0625 79.355469 L 11.375 79.355469 L 11.375 78.542969 L 9.269531 78.542969 C 9.375 78.0625 9.480469 77.542969 9.605469 77 L 8.8125 76.832031 C 8.6875 77.417969 8.582031 78 8.457031 78.542969 L 7.269531 78.542969 L 7.269531 79.355469 L 8.269531 79.355469 C 8 80.417969 7.707031 81.332031 7.355469 82.042969 L 7.542969 82.769531 L 9.417969 82.769531 L 9.417969 84.5625 C 8.707031 84.6875 7.980469 84.8125 7.1875 84.894531 L 7.292969 85.75 C 8.019531 85.625 8.730469 85.519531 9.417969 85.375 L 9.417969 87.875 L 10.207031 87.875 L 10.207031 85.207031 L 11.355469 84.917969 L 11.355469 84.105469 C 11 84.1875 10.625 84.292969 10.207031 84.394531 L 10.207031 82.769531 L 11.3125 82.769531 L 11.3125 81.980469 L 10.207031 81.980469 L 10.207031 80.207031 Z M 12.957031 79.582031 L 12.957031 80.292969 L 16.394531 80.292969 L 16.394531 79.582031 L 12.957031 79.582031 C 13.5625 79 14.144531 78.355469 14.707031 77.667969 C 15.625 78.832031 16.644531 79.832031 17.769531 80.644531 L 18.230469 79.980469 C 17.144531 79.207031 16.082031 78.1875 15.019531 76.894531 L 14.417969 76.894531 C 13.4375 78.082031 12.332031 79.144531 11.105469 80.042969 L 11.582031 80.769531 C 12.042969 80.394531 12.5 80 12.957031 79.582031 Z M 13.792969 87.792969 C 14.375 87.792969 14.6875 87.480469 14.6875 86.855469 L 14.6875 81.25 L 11.855469 81.25 L 11.855469 87.875 L 12.605469 87.875 L 12.605469 85.625 L 13.957031 85.625 L 13.957031 86.707031 C 13.957031 86.957031 13.8125 87.105469 13.5625 87.105469 L 13.019531 87.082031 L 13.207031 87.792969 Z M 12.605469 84.957031 L 12.605469 83.8125 L 13.957031 83.8125 L 13.957031 84.957031 Z M 12.605469 83.144531 L 12.605469 81.957031 L 13.957031 81.957031 L 13.957031 83.144531 Z M 15.394531 81.582031 L 15.394531 85.894531 L 16.082031 85.894531 L 16.082031 81.582031 Z M 16.707031 87.8125 C 17.292969 87.8125 17.582031 87.457031 17.582031 86.769531 L 17.582031 81.042969 L 16.832031 81.042969 L 16.832031 86.582031 C 16.832031 86.917969 16.707031 87.105469 16.4375 87.105469 C 16.144531 87.105469 15.832031 87.082031 15.519531 87.042969 L 15.6875 87.8125 Z M 16.707031 87.8125 "/>
<path style=" stroke:none;fill-rule:nonzero;fill:rgb(0%,0%,0%);fill-opacity:1;" d="M 27.917969 81.042969 L 25.105469 81.042969 L 25.105469 76.855469 L 24.230469 76.855469 L 24.230469 81.042969 L 21.417969 81.042969 L 21.417969 77.769531 L 20.542969 77.769531 L 20.542969 81.875 L 24.230469 81.875 L 24.230469 86.292969 L 20.832031 86.292969 L 20.832031 83 L 19.957031 83 L 19.957031 87.792969 L 20.832031 87.792969 L 20.832031 87.105469 L 28.5 87.105469 L 28.5 87.792969 L 29.375 87.792969 L 29.375 83 L 28.5 83 L 28.5 86.292969 L 25.105469 86.292969 L 25.105469 81.875 L 28.792969 81.875 L 28.792969 77.769531 L 27.917969 77.769531 Z M 27.917969 81.042969 "/>
<path style=" stroke:none;fill-rule:nonzero;fill:rgb(0%,0%,0%);fill-opacity:1;" d="M 34.5625 81.457031 L 34.5625 82.230469 L 41.0625 82.230469 L 41.0625 81.457031 Z M 33.707031 83.417969 L 33.707031 84.207031 L 36.332031 84.207031 C 35.5 85.5625 34.792969 86.394531 34.269531 86.707031 C 34.207031 86.730469 34.167969 86.769531 34.082031 86.792969 L 34.269531 87.519531 C 36.542969 87.375 38.625 87.167969 40.519531 86.917969 C 40.769531 87.207031 40.980469 87.519531 41.1875 87.832031 L 41.875 87.355469 C 41.355469 86.582031 40.582031 85.667969 39.605469 84.625 L 38.957031 85.019531 C 39.3125 85.4375 39.667969 85.832031 40 86.230469 C 38.457031 86.457031 36.894531 86.625 35.3125 86.730469 C 35.875 86.230469 36.519531 85.375 37.25 84.207031 L 41.855469 84.207031 L 41.855469 83.417969 Z M 40.394531 78.144531 L 40.394531 79.542969 L 33.332031 79.542969 L 33.332031 78.144531 Z M 33.332031 80.3125 L 41.230469 80.3125 L 41.230469 77.332031 L 32.5 77.332031 L 32.5 81.3125 C 32.480469 83.730469 32.0625 85.6875 31.230469 87.207031 L 31.855469 87.792969 C 32.832031 85.980469 33.332031 83.8125 33.332031 81.3125 Z M 33.332031 80.3125 "/>
<path style=" stroke:none;fill-rule:nonzero;fill:rgb(0%,0%,0%);fill-opacity:1;" d="M 294.59375 12.105469 L 290.28125 17.792969 L 290.28125 18.730469 L 294.59375 18.730469 L 294.59375 20.667969 L 295.53125 20.667969 L 295.53125 18.730469 L 296.90625 18.730469 L 296.90625 17.917969 L 295.53125 17.917969 L 295.53125 12.105469 Z M 294.554688 13.375 L 294.59375 13.375 L 294.59375 17.917969 L 291.117188 17.917969 Z M 294.554688 13.375 "/>
<path style=" stroke:none;fill-rule:nonzero;fill:rgb(0%,0%,0%);fill-opacity:1;" d="M 292.253906 179.511719 L 292.253906 188.242188 L 293.210938 188.242188 L 293.210938 184.699219 C 293.210938 184.117188 293.359375 183.636719 293.691406 183.242188 C 294.003906 182.867188 294.398438 182.679688 294.878906 182.679688 C 295.398438 182.679688 295.796875 182.824219 296.066406 183.136719 C 296.335938 183.449219 296.484375 183.886719 296.484375 184.46875 L 296.484375 188.242188 L 297.441406 188.242188 L 297.441406 184.324219 C 297.441406 183.53125 297.253906 182.929688 296.859375 182.511719 C 296.484375 182.074219 295.921875 181.867188 295.191406 181.867188 C 294.773438 181.867188 294.398438 181.96875 294.066406 182.15625 C 293.710938 182.367188 293.421875 182.65625 293.210938 183.054688 L 293.210938 179.511719 Z M 292.253906 179.511719 "/>
<path style=" stroke:none;fill-rule:nonzero;fill:rgb(0%,0%,0%);fill-opacity:1;" d="M 294.847656 42.125 C 294.636719 42.125 294.472656 42.1875 294.324219 42.332031 C 294.179688 42.4375 294.117188 42.625 294.117188 42.832031 C 294.117188 43.042969 294.179688 43.207031 294.324219 43.355469 C 294.472656 43.480469 294.636719 43.542969 294.847656 43.542969 C 295.054688 43.542969 295.222656 43.480469 295.347656 43.355469 C 295.492188 43.207031 295.574219 43.042969 295.574219 42.832031 C 295.574219 42.625 295.492188 42.4375 295.347656 42.332031 C 295.222656 42.1875 295.054688 42.125 294.847656 42.125 Z M 294.367188 44.457031 L 294.367188 50.667969 L 295.324219 50.667969 L 295.324219 44.457031 Z M 294.367188 44.457031 "/>
<path style=" stroke:none;fill-rule:nonzero;fill:rgb(69.803923%,85.09804%,100%);fill-opacity:1;" d="M 277.503906 146.800781 L 312.171875 146.800781 L 312.171875 120.136719 L 277.503906 120.136719 Z M 277.503906 146.800781 "/>
<path style="fill:none;stroke-width:1;stroke-linecap:round;stroke-linejoin:round;stroke:rgb(0%,0%,0%);stroke-opacity:1;stroke-miterlimit:10;" d="M 224.12793 111.102539 L 250.128906 111.102539 L 250.128906 131.100586 L 224.12793 131.100586 Z M 224.12793 111.102539 " transform="matrix(1.333333,0,0,1.333333,-21.333333,-28)"/>
<path style=" stroke:none;fill-rule:nonzero;fill:rgb(0%,0%,0%);fill-opacity:1;" d="M 297.277344 135.46875 L 297.277344 135.175781 C 296.421875 135.050781 296.214844 134.925781 296.214844 134.300781 L 296.214844 128.550781 C 296.214844 127.90625 296.464844 127.71875 297.277344 127.65625 L 297.277344 127.363281 L 293.214844 127.363281 L 293.214844 127.65625 C 294.046875 127.71875 294.277344 127.863281 294.277344 128.550781 L 294.277344 130.988281 L 291.378906 130.988281 L 291.378906 128.550781 C 291.378906 127.863281 291.609375 127.71875 292.464844 127.65625 L 292.464844 127.363281 L 288.421875 127.363281 L 288.421875 127.65625 C 289.234375 127.71875 289.441406 127.882812 289.441406 128.550781 L 289.441406 134.300781 C 289.441406 134.925781 289.253906 135.050781 288.421875 135.175781 L 288.421875 135.46875 L 292.464844 135.46875 L 292.464844 135.175781 C 291.589844 135.070312 291.378906 134.925781 291.378906 134.300781 L 291.378906 131.550781 L 294.277344 131.550781 L 294.277344 134.300781 C 294.277344 134.90625 294.089844 135.070312 293.214844 135.175781 L 293.214844 135.46875 Z M 297.277344 135.46875 "/>
<path style=" stroke:none;fill-rule:nonzero;fill:rgb(0%,0%,0%);fill-opacity:1;" d="M 301.300781 138.132812 L 301.300781 137.613281 L 300.464844 137.613281 L 300.464844 134.050781 L 300.113281 134.050781 L 297.613281 137.613281 L 297.613281 138.132812 L 299.839844 138.132812 L 299.839844 139.46875 L 300.464844 139.46875 L 300.464844 138.132812 Z M 299.839844 137.613281 L 297.925781 137.613281 L 299.839844 134.882812 Z M 299.839844 137.613281 "/>
<path style=" stroke:none;fill-rule:nonzero;fill:rgb(40.000001%,74.901962%,100%);fill-opacity:1;" d="M 277.503906 97.332031 L 312.171875 97.332031 L 312.171875 70.667969 L 277.503906 70.667969 Z M 277.503906 97.332031 "/>
<path style="fill:none;stroke-width:1;stroke-linecap:round;stroke-linejoin:round;stroke:rgb(0%,0%,0%);stroke-opacity:1;stroke-miterlimit:10;" d="M 224.12793 74.000977 L 250.128906 74.000977 L 250.128906 93.999023 L 224.12793 93.999023 Z M 224.12793 74.000977 " transform="matrix(1.333333,0,0,1.333333,-21.333333,-28)"/>
<path style=" stroke:none;fill-rule:nonzero;fill:rgb(0%,0%,0%);fill-opacity:1;" d="M 297.089844 81.980469 C 297.089844 79.5 295.316406 77.707031 292.902344 77.707031 C 290.402344 77.707031 288.589844 79.4375 288.589844 82 C 288.589844 84.480469 290.339844 86.230469 292.816406 86.230469 C 295.316406 86.230469 297.089844 84.480469 297.089844 81.980469 Z M 294.964844 82.0625 C 294.964844 84.542969 294.234375 85.832031 292.859375 85.832031 C 291.484375 85.832031 290.714844 84.5625 290.714844 82.042969 C 290.714844 79.519531 291.464844 78.105469 292.796875 78.105469 C 294.191406 78.105469 294.964844 79.5 294.964844 82.0625 Z M 294.964844 82.0625 "/>
<path style=" stroke:none;fill-rule:nonzero;fill:rgb(0%,0%,0%);fill-opacity:1;" d="M 301.300781 88.667969 L 301.300781 88.144531 L 300.464844 88.144531 L 300.464844 84.582031 L 300.113281 84.582031 L 297.613281 88.144531 L 297.613281 88.667969 L 299.839844 88.667969 L 299.839844 90 L 300.464844 90 L 300.464844 88.667969 Z M 299.839844 88.144531 L 297.925781 88.144531 L 299.839844 85.417969 Z M 299.839844 88.144531 "/>
<path style=" stroke:none;fill-rule:nonzero;fill:rgb(0%,0%,0%);fill-opacity:1;" d="M 358.503906 12.105469 L 358.066406 16.832031 L 359.003906 16.832031 C 359.171875 16.5 359.421875 16.230469 359.753906 16.0625 C 360.089844 15.875 360.441406 15.792969 360.859375 15.792969 C 361.484375 15.792969 361.964844 15.980469 362.316406 16.355469 C 362.671875 16.730469 362.878906 17.25 362.878906 17.9375 C 362.878906 18.542969 362.671875 19.042969 362.277344 19.417969 C 361.878906 19.8125 361.402344 20 360.796875 20 C 360.277344 20 359.816406 19.855469 359.484375 19.605469 C 359.109375 19.3125 358.878906 18.894531 358.839844 18.355469 L 357.859375 18.355469 C 357.921875 19.144531 358.253906 19.769531 358.859375 20.230469 C 359.378906 20.625 360.027344 20.832031 360.777344 20.832031 C 361.628906 20.832031 362.339844 20.5625 362.921875 20.0625 C 363.527344 19.5 363.839844 18.792969 363.839844 17.9375 C 363.839844 17 363.589844 16.292969 363.066406 15.75 C 362.566406 15.25 361.902344 15 361.089844 15 C 360.691406 15 360.339844 15.042969 360.003906 15.1875 C 359.628906 15.332031 359.316406 15.5625 359.089844 15.832031 L 359.027344 15.832031 L 359.316406 12.980469 L 363.503906 12.980469 L 363.503906 12.105469 Z M 358.503906 12.105469 "/>
<path style=" stroke:none;fill-rule:nonzero;fill:rgb(0%,0%,0%);fill-opacity:1;" d="M 362.109375 179.699219 C 361.902344 179.699219 361.734375 179.761719 361.589844 179.90625 C 361.445312 180.011719 361.382812 180.199219 361.382812 180.40625 C 361.382812 180.617188 361.445312 180.78125 361.589844 180.929688 C 361.734375 181.054688 361.902344 181.117188 362.109375 181.117188 C 362.320312 181.117188 362.484375 181.054688 362.609375 180.929688 C 362.757812 180.78125 362.839844 180.617188 362.839844 180.40625 C 362.839844 180.199219 362.757812 180.011719 362.609375 179.90625 C 362.484375 179.761719 362.320312 179.699219 362.109375 179.699219 Z M 361.632812 182.03125 L 361.632812 188.242188 L 362.589844 188.242188 L 362.589844 182.03125 Z M 361.632812 182.03125 "/>
<path style=" stroke:none;fill-rule:nonzero;fill:rgb(0%,0%,0%);fill-opacity:1;" d="M 362.398438 44.292969 C 362 44.292969 361.625 44.394531 361.292969 44.582031 C 360.9375 44.769531 360.667969 45.019531 360.460938 45.375 L 360.460938 44.457031 L 359.5 44.457031 L 359.5 50.667969 L 360.460938 50.667969 L 360.460938 46.917969 C 360.5 46.355469 360.667969 45.917969 361 45.582031 C 361.3125 45.269531 361.6875 45.105469 362.125 45.105469 C 363.210938 45.105469 363.75 45.707031 363.75 46.917969 L 363.75 50.667969 L 364.710938 50.667969 L 364.710938 46.855469 C 364.710938 45.144531 363.9375 44.292969 362.398438 44.292969 Z M 362.398438 44.292969 "/>
<path style=" stroke:none;fill-rule:nonzero;fill:rgb(69.803923%,85.09804%,100%);fill-opacity:1;" d="M 344.769531 146.800781 L 379.4375 146.800781 L 379.4375 120.136719 L 344.769531 120.136719 Z M 344.769531 146.800781 "/>
<path style="fill:none;stroke-width:1;stroke-linecap:round;stroke-linejoin:round;stroke:rgb(0%,0%,0%);stroke-opacity:1;stroke-miterlimit:10;" d="M 274.577148 111.102539 L 300.578125 111.102539 L 300.578125 131.100586 L 274.577148 131.100586 Z M 274.577148 111.102539 " transform="matrix(1.333333,0,0,1.333333,-21.333333,-28)"/>
<path style=" stroke:none;fill-rule:nonzero;fill:rgb(0%,0%,0%);fill-opacity:1;" d="M 364.542969 135.46875 L 364.542969 135.175781 C 363.6875 135.050781 363.480469 134.925781 363.480469 134.300781 L 363.480469 128.550781 C 363.480469 127.90625 363.730469 127.71875 364.542969 127.65625 L 364.542969 127.363281 L 360.480469 127.363281 L 360.480469 127.65625 C 361.3125 127.71875 361.542969 127.863281 361.542969 128.550781 L 361.542969 130.988281 L 358.644531 130.988281 L 358.644531 128.550781 C 358.644531 127.863281 358.875 127.71875 359.730469 127.65625 L 359.730469 127.363281 L 355.6875 127.363281 L 355.6875 127.65625 C 356.5 127.71875 356.707031 127.882812 356.707031 128.550781 L 356.707031 134.300781 C 356.707031 134.925781 356.519531 135.050781 355.6875 135.175781 L 355.6875 135.46875 L 359.730469 135.46875 L 359.730469 135.175781 C 358.855469 135.070312 358.644531 134.925781 358.644531 134.300781 L 358.644531 131.550781 L 361.542969 131.550781 L 361.542969 134.300781 C 361.542969 134.90625 361.355469 135.070312 360.480469 135.175781 L 360.480469 135.46875 Z M 364.542969 135.46875 "/>
<path style=" stroke:none;fill-rule:nonzero;fill:rgb(0%,0%,0%);fill-opacity:1;" d="M 368.273438 134.007812 L 368.210938 133.96875 C 368.085938 134.132812 368.003906 134.175781 367.816406 134.175781 L 366.167969 134.175781 L 365.292969 136.070312 C 365.292969 136.070312 365.292969 136.09375 365.292969 136.113281 C 365.292969 136.15625 365.316406 136.175781 365.378906 136.175781 C 366.148438 136.175781 366.710938 136.425781 367.085938 136.738281 C 367.441406 137.007812 367.628906 137.425781 367.628906 137.925781 C 367.628906 138.613281 367.105469 139.28125 366.542969 139.28125 C 366.378906 139.28125 366.191406 139.21875 365.980469 139.03125 C 365.710938 138.820312 365.566406 138.78125 365.378906 138.78125 C 365.148438 138.78125 365.023438 138.882812 365.023438 139.09375 C 365.023438 139.382812 365.441406 139.570312 366.042969 139.570312 C 366.585938 139.570312 367.023438 139.46875 367.398438 139.195312 C 367.941406 138.78125 368.191406 138.300781 368.191406 137.53125 C 368.191406 137.09375 368.105469 136.800781 367.898438 136.507812 C 367.441406 135.882812 367.042969 135.695312 365.898438 135.488281 L 366.230469 134.800781 L 367.773438 134.800781 C 367.898438 134.800781 367.960938 134.757812 367.980469 134.695312 Z M 368.273438 134.007812 "/>
<path style=" stroke:none;fill-rule:nonzero;fill:rgb(40.000001%,74.901962%,100%);fill-opacity:1;" d="M 344.769531 97.332031 L 379.4375 97.332031 L 379.4375 70.667969 L 344.769531 70.667969 Z M 344.769531 97.332031 "/>
<path style="fill:none;stroke-width:1;stroke-linecap:round;stroke-linejoin:round;stroke:rgb(0%,0%,0%);stroke-opacity:1;stroke-miterlimit:10;" d="M 274.577148 74.000977 L 300.578125 74.000977 L 300.578125 93.999023 L 274.577148 93.999023 Z M 274.577148 74.000977 " transform="matrix(1.333333,0,0,1.333333,-21.333333,-28)"/>
<path style=" stroke:none;fill-rule:nonzero;fill:rgb(0%,0%,0%);fill-opacity:1;" d="M 364.355469 81.980469 C 364.355469 79.5 362.582031 77.707031 360.167969 77.707031 C 357.667969 77.707031 355.855469 79.4375 355.855469 82 C 355.855469 84.480469 357.605469 86.230469 360.082031 86.230469 C 362.582031 86.230469 364.355469 84.480469 364.355469 81.980469 Z M 362.230469 82.0625 C 362.230469 84.542969 361.5 85.832031 360.125 85.832031 C 358.75 85.832031 357.980469 84.5625 357.980469 82.042969 C 357.980469 79.519531 358.730469 78.105469 360.0625 78.105469 C 361.457031 78.105469 362.230469 79.5 362.230469 82.0625 Z M 362.230469 82.0625 "/>
<path style=" stroke:none;fill-rule:nonzero;fill:rgb(0%,0%,0%);fill-opacity:1;" d="M 368.273438 84.542969 L 368.210938 84.5 C 368.085938 84.667969 368.003906 84.707031 367.816406 84.707031 L 366.167969 84.707031 L 365.292969 86.605469 C 365.292969 86.605469 365.292969 86.625 365.292969 86.644531 C 365.292969 86.6875 365.316406 86.707031 365.378906 86.707031 C 366.148438 86.707031 366.710938 86.957031 367.085938 87.269531 C 367.441406 87.542969 367.628906 87.957031 367.628906 88.457031 C 367.628906 89.144531 367.105469 89.8125 366.542969 89.8125 C 366.378906 89.8125 366.191406 89.75 365.980469 89.5625 C 365.710938 89.355469 365.566406 89.3125 365.378906 89.3125 C 365.148438 89.3125 365.023438 89.417969 365.023438 89.625 C 365.023438 89.917969 365.441406 90.105469 366.042969 90.105469 C 366.585938 90.105469 367.023438 90 367.398438 89.730469 C 367.941406 89.3125 368.191406 88.832031 368.191406 88.0625 C 368.191406 87.625 368.105469 87.332031 367.898438 87.042969 C 367.441406 86.417969 367.042969 86.230469 365.898438 86.019531 L 366.230469 85.332031 L 367.773438 85.332031 C 367.898438 85.332031 367.960938 85.292969 367.980469 85.230469 Z M 368.273438 84.542969 "/>
<path style="fill:none;stroke-width:1;stroke-linecap:round;stroke-linejoin:round;stroke:rgb(0%,0%,0%);stroke-opacity:1;stroke-miterlimit:10;" d="M 199.805664 121.101562 L 218.230469 121.101562 " transform="matrix(1.333333,0,0,1.333333,-21.333333,-28)"/>
<path style="fill:none;stroke-width:1;stroke-linecap:butt;stroke-linejoin:miter;stroke:rgb(0%,0%,0%);stroke-opacity:1;stroke-miterlimit:10;" d="M 222.229492 121.101562 L 218.230469 121.101562 M 218.230469 119.601562 L 222.229492 121.101562 L 218.230469 122.601562 " transform="matrix(1.333333,0,0,1.333333,-21.333333,-28)"/>
<path style="fill:none;stroke-width:1;stroke-linecap:round;stroke-linejoin:round;stroke:rgb(0%,0%,0%);stroke-opacity:1;stroke-miterlimit:10;" d="M 250.128906 121.101562 L 268.679688 121.101562 " transform="matrix(1.333333,0,0,1.333333,-21.333333,-28)"/>
<path style="fill:none;stroke-width:1;stroke-linecap:butt;stroke-linejoin:miter;stroke:rgb(0%,0%,0%);stroke-opacity:1;stroke-miterlimit:10;" d="M 272.678711 121.101562 L 268.679688 121.101562 M 268.679688 119.601562 L 272.678711 121.101562 L 268.679688 122.601562 " transform="matrix(1.333333,0,0,1.333333,-21.333333,-28)"/>
<path style="fill:none;stroke-width:1;stroke-linecap:round;stroke-linejoin:round;stroke:rgb(0%,0%,0%);stroke-opacity:1;stroke-miterlimit:10;" d="M 237.129883 147.178711 L 237.129883 137.000977 " transform="matrix(1.333333,0,0,1.333333,-21.333333,-28)"/>
<path style="fill:none;stroke-width:1;stroke-linecap:butt;stroke-linejoin:miter;stroke:rgb(0%,0%,0%);stroke-opacity:1;stroke-miterlimit:10;" d="M 237.129883 132.999023 L 237.129883 137.000977 M 235.629883 137.000977 L 237.129883 132.999023 L 238.629883 137.000977 " transform="matrix(1.333333,0,0,1.333333,-21.333333,-28)"/>
<path style="fill:none;stroke-width:1;stroke-linecap:round;stroke-linejoin:round;stroke:rgb(0%,0%,0%);stroke-opacity:1;stroke-miterlimit:10;" d="M 237.129883 111.102539 L 237.129883 99.899414 " transform="matrix(1.333333,0,0,1.333333,-21.333333,-28)"/>
<path style="fill:none;stroke-width:1;stroke-linecap:butt;stroke-linejoin:miter;stroke:rgb(0%,0%,0%);stroke-opacity:1;stroke-miterlimit:10;" d="M 237.129883 95.897461 L 237.129883 99.899414 M 235.629883 99.899414 L 237.129883 95.897461 L 238.629883 99.899414 " transform="matrix(1.333333,0,0,1.333333,-21.333333,-28)"/>
<path style="fill:none;stroke-width:1;stroke-linecap:round;stroke-linejoin:round;stroke:rgb(0%,0%,0%);stroke-opacity:1;stroke-miterlimit:10;" d="M 287.579102 147.178711 L 287.579102 137.000977 " transform="matrix(1.333333,0,0,1.333333,-21.333333,-28)"/>
<path style="fill:none;stroke-width:1;stroke-linecap:butt;stroke-linejoin:miter;stroke:rgb(0%,0%,0%);stroke-opacity:1;stroke-miterlimit:10;" d="M 287.579102 132.999023 L 287.579102 137.000977 M 286.079102 137.000977 L 287.579102 132.999023 L 289.079102 137.000977 " transform="matrix(1.333333,0,0,1.333333,-21.333333,-28)"/>
<path style="fill:none;stroke-width:1;stroke-linecap:round;stroke-linejoin:round;stroke:rgb(0%,0%,0%);stroke-opacity:1;stroke-miterlimit:10;" d="M 287.579102 111.102539 L 287.579102 99.899414 " transform="matrix(1.333333,0,0,1.333333,-21.333333,-28)"/>
<path style="fill:none;stroke-width:1;stroke-linecap:butt;stroke-linejoin:miter;stroke:rgb(0%,0%,0%);stroke-opacity:1;stroke-miterlimit:10;" d="M 287.579102 95.897461 L 287.579102 99.899414 M 286.079102 99.899414 L 287.579102 95.897461 L 289.079102 99.899414 " transform="matrix(1.333333,0,0,1.333333,-21.333333,-28)"/>
<path style=" stroke:none;fill-rule:nonzero;fill:rgb(69.803923%,85.09804%,100%);fill-opacity:1;" d="M 412.035156 146.800781 L 446.703125 146.800781 L 446.703125 120.136719 L 412.035156 120.136719 Z M 412.035156 146.800781 "/>
<path style="fill:none;stroke-width:1;stroke-linecap:round;stroke-linejoin:round;stroke:rgb(0%,0%,0%);stroke-opacity:1;stroke-miterlimit:10;" d="M 325.026367 111.102539 L 351.027344 111.102539 L 351.027344 131.100586 L 325.026367 131.100586 Z M 325.026367 111.102539 " transform="matrix(1.333333,0,0,1.333333,-21.333333,-28)"/>
<path style=" stroke:none;fill-rule:nonzero;fill:rgb(0%,0%,0%);fill-opacity:1;" d="M 431.808594 135.46875 L 431.808594 135.175781 C 430.953125 135.050781 430.746094 134.925781 430.746094 134.300781 L 430.746094 128.550781 C 430.746094 127.90625 430.996094 127.71875 431.808594 127.65625 L 431.808594 127.363281 L 427.746094 127.363281 L 427.746094 127.65625 C 428.578125 127.71875 428.808594 127.863281 428.808594 128.550781 L 428.808594 130.988281 L 425.910156 130.988281 L 425.910156 128.550781 C 425.910156 127.863281 426.140625 127.71875 426.996094 127.65625 L 426.996094 127.363281 L 422.953125 127.363281 L 422.953125 127.65625 C 423.765625 127.71875 423.972656 127.882812 423.972656 128.550781 L 423.972656 134.300781 C 423.972656 134.925781 423.785156 135.050781 422.953125 135.175781 L 422.953125 135.46875 L 426.996094 135.46875 L 426.996094 135.175781 C 426.121094 135.070312 425.910156 134.925781 425.910156 134.300781 L 425.910156 131.550781 L 428.808594 131.550781 L 428.808594 134.300781 C 428.808594 134.90625 428.621094 135.070312 427.746094 135.175781 L 427.746094 135.46875 Z M 431.808594 135.46875 "/>
<path style=" stroke:none;fill-rule:nonzero;fill:rgb(0%,0%,0%);fill-opacity:1;" d="M 435.601562 133.988281 C 434.496094 134.113281 433.871094 134.300781 433.183594 135.03125 C 432.621094 135.613281 432.308594 136.363281 432.308594 137.238281 C 432.308594 137.800781 432.457031 138.363281 432.683594 138.78125 C 432.976562 139.28125 433.476562 139.570312 434.101562 139.570312 C 434.621094 139.570312 435.082031 139.363281 435.371094 138.988281 C 435.644531 138.675781 435.789062 138.21875 435.789062 137.71875 C 435.789062 136.675781 435.207031 136.050781 434.269531 136.050781 C 433.914062 136.050781 433.644531 136.09375 433.246094 136.40625 C 433.476562 135.195312 434.371094 134.320312 435.621094 134.113281 Z M 435.058594 137.96875 C 435.058594 138.78125 434.769531 139.363281 434.183594 139.363281 C 433.433594 139.363281 433.058594 138.550781 433.058594 137.34375 C 433.058594 136.613281 433.519531 136.40625 433.976562 136.40625 C 434.726562 136.40625 435.058594 136.945312 435.058594 137.96875 Z M 435.058594 137.96875 "/>
<path style=" stroke:none;fill-rule:nonzero;fill:rgb(40.000001%,74.901962%,100%);fill-opacity:1;" d="M 412.035156 97.332031 L 446.703125 97.332031 L 446.703125 70.667969 L 412.035156 70.667969 Z M 412.035156 97.332031 "/>
<path style="fill:none;stroke-width:1;stroke-linecap:round;stroke-linejoin:round;stroke:rgb(0%,0%,0%);stroke-opacity:1;stroke-miterlimit:10;" d="M 325.026367 74.000977 L 351.027344 74.000977 L 351.027344 93.999023 L 325.026367 93.999023 Z M 325.026367 74.000977 " transform="matrix(1.333333,0,0,1.333333,-21.333333,-28)"/>
<path style=" stroke:none;fill-rule:nonzero;fill:rgb(0%,0%,0%);fill-opacity:1;" d="M 431.621094 81.980469 C 431.621094 79.5 429.847656 77.707031 427.433594 77.707031 C 424.933594 77.707031 423.121094 79.4375 423.121094 82 C 423.121094 84.480469 424.871094 86.230469 427.347656 86.230469 C 429.847656 86.230469 431.621094 84.480469 431.621094 81.980469 Z M 429.496094 82.0625 C 429.496094 84.542969 428.765625 85.832031 427.390625 85.832031 C 426.015625 85.832031 425.246094 84.5625 425.246094 82.042969 C 425.246094 79.519531 425.996094 78.105469 427.328125 78.105469 C 428.722656 78.105469 429.496094 79.5 429.496094 82.0625 Z M 429.496094 82.0625 "/>
<path style=" stroke:none;fill-rule:nonzero;fill:rgb(0%,0%,0%);fill-opacity:1;" d="M 435.601562 84.519531 C 434.496094 84.644531 433.871094 84.832031 433.183594 85.5625 C 432.621094 86.144531 432.308594 86.894531 432.308594 87.769531 C 432.308594 88.332031 432.457031 88.894531 432.683594 89.3125 C 432.976562 89.8125 433.476562 90.105469 434.101562 90.105469 C 434.621094 90.105469 435.082031 89.894531 435.371094 89.519531 C 435.644531 89.207031 435.789062 88.75 435.789062 88.25 C 435.789062 87.207031 435.207031 86.582031 434.269531 86.582031 C 433.914062 86.582031 433.644531 86.625 433.246094 86.9375 C 433.476562 85.730469 434.371094 84.855469 435.621094 84.644531 Z M 435.058594 88.5 C 435.058594 89.3125 434.769531 89.894531 434.183594 89.894531 C 433.433594 89.894531 433.058594 89.082031 433.058594 87.875 C 433.058594 87.144531 433.519531 86.9375 433.976562 86.9375 C 434.726562 86.9375 435.058594 87.480469 435.058594 88.5 Z M 435.058594 88.5 "/>
<path style="fill:none;stroke-width:1;stroke-linecap:round;stroke-linejoin:round;stroke:rgb(0%,0%,0%);stroke-opacity:1;stroke-miterlimit:10;" d="M 300.578125 121.101562 L 319.128906 121.101562 " transform="matrix(1.333333,0,0,1.333333,-21.333333,-28)"/>
<path style="fill:none;stroke-width:1;stroke-linecap:butt;stroke-linejoin:miter;stroke:rgb(0%,0%,0%);stroke-opacity:1;stroke-miterlimit:10;" d="M 323.12793 121.101562 L 319.128906 121.101562 M 319.128906 119.601562 L 323.12793 121.101562 L 319.128906 122.601562 " transform="matrix(1.333333,0,0,1.333333,-21.333333,-28)"/>
<path style="fill:none;stroke-width:1;stroke-linecap:round;stroke-linejoin:round;stroke:rgb(0%,0%,0%);stroke-opacity:1;stroke-miterlimit:10;" d="M 338.02832 111.102539 L 338.02832 99.899414 " transform="matrix(1.333333,0,0,1.333333,-21.333333,-28)"/>
<path style="fill:none;stroke-width:1;stroke-linecap:butt;stroke-linejoin:miter;stroke:rgb(0%,0%,0%);stroke-opacity:1;stroke-miterlimit:10;" d="M 338.02832 95.897461 L 338.02832 99.899414 M 336.52832 99.899414 L 338.02832 95.897461 L 339.52832 99.899414 " transform="matrix(1.333333,0,0,1.333333,-21.333333,-28)"/>
<path style=" stroke:none;fill-rule:nonzero;fill:rgb(0%,0%,0%);fill-opacity:1;" d="M 429.5 12.042969 C 428.519531 12.042969 427.75 12.480469 427.1875 13.378906 C 426.644531 14.230469 426.375 15.355469 426.375 16.710938 C 426.375 18.023438 426.625 19.042969 427.125 19.773438 C 427.644531 20.542969 428.4375 20.941406 429.480469 20.941406 C 430.3125 20.941406 431 20.648438 431.5625 20.105469 C 432.105469 19.542969 432.375 18.835938 432.375 18.003906 C 432.375 17.167969 432.125 16.480469 431.625 15.960938 C 431.125 15.441406 430.457031 15.167969 429.644531 15.167969 C 429.144531 15.167969 428.707031 15.292969 428.3125 15.542969 C 427.917969 15.773438 427.605469 16.128906 427.394531 16.566406 L 427.332031 16.566406 C 427.332031 16.417969 427.332031 16.316406 427.332031 16.253906 C 427.332031 15.292969 427.519531 14.480469 427.894531 13.855469 C 428.269531 13.191406 428.8125 12.855469 429.480469 12.855469 C 430.480469 12.855469 431.0625 13.335938 431.25 14.335938 L 432.230469 14.335938 C 431.980469 12.792969 431.082031 12.042969 429.5 12.042969 Z M 429.457031 15.980469 C 430.042969 15.980469 430.519531 16.167969 430.875 16.542969 C 431.230469 16.917969 431.394531 17.398438 431.394531 18.003906 C 431.394531 18.605469 431.230469 19.128906 430.855469 19.523438 C 430.5 19.917969 430.019531 20.105469 429.457031 20.105469 C 428.855469 20.105469 428.394531 19.917969 428.019531 19.503906 C 427.667969 19.128906 427.5 18.628906 427.5 18.023438 C 427.5 17.417969 427.6875 16.941406 428.042969 16.566406 C 428.417969 16.167969 428.894531 15.980469 429.457031 15.980469 Z M 429.457031 15.980469 "/>
<path style="fill:none;stroke-width:1;stroke-linecap:round;stroke-linejoin:round;stroke:rgb(0%,0%,0%);stroke-opacity:1;stroke-miterlimit:10;" d="M 338.02832 147.178711 L 338.02832 137.000977 " transform="matrix(1.333333,0,0,1.333333,-21.333333,-28)"/>
<path style="fill:none;stroke-width:1;stroke-linecap:butt;stroke-linejoin:miter;stroke:rgb(0%,0%,0%);stroke-opacity:1;stroke-miterlimit:10;" d="M 338.02832 132.999023 L 338.02832 137.000977 M 336.52832 137.000977 L 338.02832 132.999023 L 339.52832 137.000977 " transform="matrix(1.333333,0,0,1.333333,-21.333333,-28)"/>
<path style=" stroke:none;fill-rule:nonzero;fill:rgb(0%,0%,0%);fill-opacity:1;" d="M 429.664062 181.867188 C 429.265625 181.867188 428.890625 181.96875 428.558594 182.15625 C 428.203125 182.34375 427.933594 182.59375 427.726562 182.949219 L 427.726562 182.03125 L 426.765625 182.03125 L 426.765625 188.242188 L 427.726562 188.242188 L 427.726562 184.492188 C 427.765625 183.929688 427.933594 183.492188 428.265625 183.15625 C 428.578125 182.84375 428.953125 182.679688 429.390625 182.679688 C 430.476562 182.679688 431.015625 183.28125 431.015625 184.492188 L 431.015625 188.242188 L 431.976562 188.242188 L 431.976562 184.429688 C 431.976562 182.71875 431.203125 181.867188 429.664062 181.867188 Z M 429.664062 181.867188 "/>
<path style=" stroke:none;fill-rule:nonzero;fill:rgb(0%,0%,0%);fill-opacity:1;" d="M 429.332031 44.957031 C 428.4375 44.957031 427.726562 45.292969 427.207031 45.9375 C 426.6875 46.542969 426.414062 47.3125 426.414062 48.230469 C 426.414062 49.230469 426.6875 50.019531 427.25 50.625 C 427.769531 51.207031 428.5 51.5 429.375 51.5 C 430.1875 51.5 430.832031 51.269531 431.351562 50.8125 C 431.769531 50.417969 432.0625 49.9375 432.1875 49.332031 L 431.226562 49.332031 C 431.082031 49.769531 430.875 50.105469 430.601562 50.3125 C 430.289062 50.5625 429.875 50.6875 429.375 50.6875 C 428.789062 50.6875 428.3125 50.5 427.976562 50.125 C 427.644531 49.730469 427.476562 49.1875 427.414062 48.5 L 432.3125 48.5 C 432.289062 47.417969 432.0625 46.5625 431.601562 45.980469 C 431.082031 45.292969 430.332031 44.957031 429.332031 44.957031 Z M 429.375 45.769531 C 430.539062 45.769531 431.207031 46.417969 431.3125 47.75 L 427.4375 47.75 C 427.5 47.144531 427.6875 46.667969 428.039062 46.3125 C 428.375 45.9375 428.8125 45.769531 429.375 45.769531 Z M 429.375 45.769531 "/>
</g>
</svg>
